<svg xmlns="http://www.w3.org/2000/svg" xmlns:xlink="http://www.w3.org/1999/xlink" contentStyleType="text/css" data-diagram-type="ACTIVITY" height="2809px" preserveAspectRatio="none" style="width:3049px;height:2809px;background:#FEFEFE;" version="1.1" viewBox="0 0 3049 2809" width="3049px" zoomAndPan="magnify"><title>**Approach 2: InMemoryCosmosClient + InMemoryContainer &#8212; Query Flow (Detailed)**</title><defs/><g><rect fill="#FEFEFE" height="2809" style="stroke:none;stroke-width:1;" width="3049" x="0" y="0"/><rect fill="#FFFFCC" height="54.1699" rx="2.5" ry="2.5" style="stroke:#FFDD88;stroke-width:3;" width="3038.3467" x="5" y="5"/><text fill="#000000" font-family="monospace" font-size="10" lengthAdjust="spacing" textLength="294.0479" x="10" y="20">The&#160;syntax&#160;using&#160;the&#160;|&#160;character&#160;is&#160;now&#160;obsolete.</text><text fill="#000000" font-family="monospace" font-size="10" lengthAdjust="spacing" textLength="288.0469" x="10" y="33.0566">Please&#160;use&#160;the&#160;&lt;&lt;procedure&gt;&gt;&#160;stereotype&#160;instead.</text><text fill="#000000" font-family="monospace" font-size="10" lengthAdjust="spacing" textLength="396.0645" x="10" y="46.1133">For&#160;more&#160;details,&#160;visit&#160;https://plantuml.com/activity-diagram-beta</text><g class="title" data-source-line="1"><text fill="#000000" font-family="sans-serif" font-size="14" font-weight="bold" lengthAdjust="spacing" textLength="559.3574" x="1235.9946" y="98.7031">Approach 2: InMemoryCosmosClient + InMemoryContainer &#8212; Query Flow (Detailed)</text></g><rect fill="none" height="22.6406" style="stroke:none;stroke-width:1;" width="3001.3467" x="15" y="115.2344"/><ellipse cx="141.083" cy="152.875" fill="#222222" rx="10" ry="10" style="stroke:#222222;stroke-width:1;"/><rect fill="#E8F4FD" height="35.0938" rx="12.5" ry="12.5" style="stroke:#333333;stroke-width:0.5;" width="240.166" x="21" y="182.875"/><text fill="#000000" font-family="sans-serif" font-size="12" lengthAdjust="spacing" textLength="36.0176" x="31" y="205.332">Create</text><text fill="#000000" font-family="sans-serif" font-size="12" font-weight="bold" lengthAdjust="spacing" textLength="164.0273" x="70.3516" y="205.332">new InMemoryCosmosClient</text><text fill="#000000" font-family="sans-serif" font-size="12" lengthAdjust="spacing" textLength="16.7871" x="234.3789" y="205.332">(&#8230;)</text><line style="stroke:#000000;stroke-width:1.5;" x1="15" x2="15" y1="115.2344" y2="2797.7861"/><rect fill="#E8F4FD" height="50.1875" rx="12.5" ry="12.5" style="stroke:#333333;stroke-width:0.5;" width="260.7031" x="288.9617" y="237.9688"/><text fill="#000000" font-family="sans-serif" font-size="12" lengthAdjust="spacing" textLength="20.6719" x="298.9617" y="260.4258">Call</text><text fill="#000000" font-family="sans-serif" font-size="12" font-weight="bold" lengthAdjust="spacing" textLength="216.6973" x="322.9675" y="260.4258">InMemoryCosmosClient.GetContainer</text><text fill="#000000" font-family="sans-serif" font-size="12" lengthAdjust="spacing" textLength="133.418" x="298.9617" y="275.5195">(databaseId, containerId)</text><rect fill="#E8F4FD" height="35.0938" rx="12.5" ry="12.5" style="stroke:#333333;stroke-width:0.5;" width="235.4199" x="301.6033" y="882.6875"/><text fill="#000000" font-family="sans-serif" font-size="12" lengthAdjust="spacing" textLength="215.4199" x="311.6033" y="905.1445">Receive Container (InMemoryContainer)</text><rect fill="#90EE90" height="51.4453" style="stroke:#333333;stroke-width:0.5;" width="150.0723" x="344.2771" y="937.7813"/><line style="stroke:#333333;stroke-width:0.5;" x1="349.2771" x2="349.2771" y1="937.7813" y2="989.2266"/><line style="stroke:#333333;stroke-width:0.5;" x1="489.3494" x2="489.3494" y1="937.7813" y2="989.2266"/><text fill="#000000" font-family="sans-serif" font-size="13" font-weight="bold" lengthAdjust="spacing" textLength="127.5117" x="354.2771" y="961.2764">SQL Query Flow ===</text><text fill="#000000" font-family="sans-serif" font-size="12" lengthAdjust="spacing" textLength="130.0723" x="354.2771" y="976.5898">(identical to Approach 1)</text><rect fill="#E8F4FD" height="35.0938" rx="12.5" ry="12.5" style="stroke:#333333;stroke-width:0.5;" width="114.0313" x="362.2976" y="2376.0596"/><text fill="#000000" font-family="sans-serif" font-size="12" lengthAdjust="spacing" textLength="94.0313" x="372.2976" y="2398.5166">ReadNextAsync()</text><rect fill="#E8F4FD" height="35.0938" rx="12.5" ry="12.5" style="stroke:#333333;stroke-width:0.5;" width="173.3926" x="332.6169" y="2531.5283"/><text fill="#000000" font-family="sans-serif" font-size="12" lengthAdjust="spacing" textLength="43.3535" x="342.6169" y="2553.9854">Receive</text><text fill="#000000" font-family="sans-serif" font-size="12" font-weight="bold" lengthAdjust="spacing" textLength="106.7051" x="389.3044" y="2553.9854">FeedResponse&lt;T&gt;</text><polygon fill="#E8F4FD" points="375.6033,2319.1406,463.0232,2319.1406,475.0232,2331.1406,463.0232,2343.1406,375.6033,2343.1406,363.6033,2331.1406,375.6033,2319.1406" style="stroke:#333333;stroke-width:0.5;"/><text fill="#000000" font-family="sans-serif" font-size="11" lengthAdjust="spacing" textLength="17.1177" x="423.3132" y="2354.5596">yes</text><text fill="#000000" font-family="sans-serif" font-size="11" lengthAdjust="spacing" textLength="87.4199" x="375.6033" y="2335.6416">HasMoreResults?</text><text fill="#000000" font-family="sans-serif" font-size="11" lengthAdjust="spacing" textLength="12.2354" x="351.3679" y="2328.7236">no</text><path d="M587.4604,2598.6221 L587.4604,2673.2041 L567.4604,2677.2041 L587.4604,2681.2041 L587.4604,2755.7861 A0,0 0 0 0 587.4604,2755.7861 L988.8818,2755.7861 A0,0 0 0 0 988.8818,2755.7861 L988.8818,2608.6221 L978.8818,2598.6221 L587.4604,2598.6221 A0,0 0 0 0 587.4604,2598.6221" fill="#FEFFDD" style="stroke:#181818;stroke-width:0.5;"/><path d="M978.8818,2598.6221 L978.8818,2608.6221 L988.8818,2608.6221 L978.8818,2598.6221" fill="#FEFFDD" style="stroke:#181818;stroke-width:0.5;"/><text fill="#000000" font-family="sans-serif" font-size="13" lengthAdjust="spacing" textLength="162.5762" x="593.4604" y="2617.1172">GetItemLinqQueryable&lt;T&gt;()</text><text fill="#000000" font-family="sans-serif" font-size="13" lengthAdjust="spacing" textLength="157.8599" x="593.4604" y="2633.4688">&#8594; GetAllItemsForPartition()</text><text fill="#000000" font-family="sans-serif" font-size="13" lengthAdjust="spacing" textLength="281.7979" x="593.4604" y="2649.8203">&#8594; Deserialize &#8594; .AsQueryable().OrderBy(x =&gt; 0)</text><text fill="#000000" font-family="sans-serif" font-size="13" lengthAdjust="spacing" textLength="11.2163" x="593.4604" y="2666.1719">&#8594;</text><text fill="#000000" font-family="sans-serif" font-size="13" font-weight="bold" lengthAdjust="spacing" textLength="140.8926" x="608.2886" y="2666.1719">IOrderedQueryable&lt;T&gt;</text><text fill="#000000" font-family="sans-serif" font-size="13" lengthAdjust="spacing" textLength="102.5718" x="752.793" y="2666.1719">(LINQ-to-Objects)</text><text fill="#000000" font-family="sans-serif" font-size="13" lengthAdjust="spacing" textLength="271.9971" x="593.4604" y="2682.5234">&#8594; User applies .Where() / .Select() / .OrderBy()</text><text fill="#000000" font-family="sans-serif" font-size="13" lengthAdjust="spacing" textLength="180.2798" x="593.4604" y="2698.875">&#8594; .ToFeedIteratorOverridable()</text><text fill="#000000" font-family="sans-serif" font-size="13" lengthAdjust="spacing" textLength="380.4214" x="593.4604" y="2715.2266">&#8594; InMemoryFeedIteratorSetup.CreateInMemoryFeedIterator&lt;T&gt;()</text><text fill="#000000" font-family="sans-serif" font-size="13" lengthAdjust="spacing" textLength="166.5562" x="593.4604" y="2731.5781">&#8594; InMemoryFeedIterator&lt;T&gt;</text><text fill="#000000" font-family="sans-serif" font-size="13" lengthAdjust="spacing" textLength="304.2178" x="593.4604" y="2747.9297">&#8594; ReadNextAsync() &#8594; InMemoryFeedResponse&lt;T&gt;</text><rect fill="#ADD8E6" height="36.3516" style="stroke:#333333;stroke-width:0.5;" width="296.2944" x="271.166" y="2659.0283"/><line style="stroke:#333333;stroke-width:0.5;" x1="276.166" x2="276.166" y1="2659.0283" y2="2695.3799"/><line style="stroke:#333333;stroke-width:0.5;" x1="562.4604" x2="562.4604" y1="2659.0283" y2="2695.3799"/><text fill="#000000" font-family="sans-serif" font-size="13" font-weight="bold" lengthAdjust="spacing" textLength="276.2944" x="281.166" y="2682.5234">LINQ Flow (also identical to Approach 1) ===</text><ellipse cx="419.3132" cy="2786.7861" fill="none" rx="11" ry="11" style="stroke:#222222;stroke-width:1;"/><ellipse cx="419.3132" cy="2786.7861" fill="#222222" rx="6" ry="6" style="stroke:#222222;stroke-width:1;"/><line style="stroke:#000000;stroke-width:1.5;" x1="265.166" x2="265.166" y1="115.2344" y2="2797.7861"/><rect fill="#E8F4FD" height="65.2813" rx="12.5" ry="12.5" style="stroke:#333333;stroke-width:0.5;" width="228.8809" x="1104.5161" y="308.1563"/><text fill="#000000" font-family="sans-serif" font-size="12" font-weight="bold" lengthAdjust="spacing" textLength="126.041" x="1114.5161" y="330.6133">_databases.GetOrAdd</text><text fill="#000000" font-family="sans-serif" font-size="12" lengthAdjust="spacing" textLength="82.8398" x="1240.5571" y="330.6133">(databaseId, &#8230;)</text><text fill="#000000" font-family="sans-serif" font-size="12" lengthAdjust="spacing" textLength="165.0938" x="1114.5161" y="345.707">&#8594; ConcurrentDictionary lookup</text><text fill="#000000" font-family="sans-serif" font-size="12" lengthAdjust="spacing" textLength="145.0898" x="1114.5161" y="360.8008">&#8594; thread-safe lazy creation</text><polygon fill="#E8F4FD" points="1177.6797,393.4375,1260.2334,393.4375,1272.2334,405.4375,1260.2334,417.4375,1177.6797,417.4375,1165.6797,405.4375,1177.6797,393.4375" style="stroke:#333333;stroke-width:0.5;"/><text fill="#000000" font-family="sans-serif" font-size="11" lengthAdjust="spacing" textLength="82.5537" x="1177.6797" y="409.9385">database exists?</text><text fill="#000000" font-family="sans-serif" font-size="11" lengthAdjust="spacing" textLength="17.1177" x="1148.562" y="403.0205">yes</text><text fill="#000000" font-family="sans-serif" font-size="11" lengthAdjust="spacing" textLength="12.2354" x="1272.2334" y="403.0205">no</text><rect fill="#E8F4FD" height="35.0938" rx="12.5" ry="12.5" style="stroke:#333333;stroke-width:0.5;" width="213.4121" x="999.8818" y="427.4375"/><text fill="#000000" font-family="sans-serif" font-size="12" lengthAdjust="spacing" textLength="80.0391" x="1009.8818" y="449.8945">Return existing</text><text fill="#000000" font-family="sans-serif" font-size="12" font-weight="bold" lengthAdjust="spacing" textLength="110.0391" x="1093.2549" y="449.8945">InMemoryDatabase</text><rect fill="#E8F4FD" height="50.1875" rx="12.5" ry="12.5" style="stroke:#333333;stroke-width:0.5;" width="196.0625" x="1233.2939" y="427.4375"/><text fill="#000000" font-family="sans-serif" font-size="12" lengthAdjust="spacing" textLength="36.0176" x="1243.2939" y="449.8945">Create</text><text fill="#000000" font-family="sans-serif" font-size="12" font-weight="bold" lengthAdjust="spacing" textLength="136.7109" x="1282.6455" y="449.8945">new InMemoryDatabase</text><text fill="#000000" font-family="sans-serif" font-size="12" lengthAdjust="spacing" textLength="102.0586" x="1243.2939" y="464.9883">(databaseId, client)</text><polygon fill="#E8F4FD" points="1218.9565,483.625,1230.9565,495.625,1218.9565,507.625,1206.9565,495.625,1218.9565,483.625" style="stroke:#333333;stroke-width:0.5;"/><line style="stroke:#000000;stroke-width:1.5;" x1="993.8818" x2="993.8818" y1="115.2344" y2="2797.7861"/><rect fill="#E8F4FD" height="50.1875" rx="12.5" ry="12.5" style="stroke:#333333;stroke-width:0.5;" width="182.0879" x="1570.0298" y="527.625"/><text fill="#000000" font-family="sans-serif" font-size="12" font-weight="bold" lengthAdjust="spacing" textLength="127.3652" x="1580.0298" y="550.082">GetOrCreateContainer</text><text fill="#000000" font-family="sans-serif" font-size="12" lengthAdjust="spacing" textLength="162.0879" x="1580.0298" y="565.1758">(containerId, partitionKeyPath)</text><rect fill="#E8F4FD" height="65.2813" rx="12.5" ry="12.5" style="stroke:#333333;stroke-width:0.5;" width="230.8555" x="1545.646" y="597.8125"/><text fill="#000000" font-family="sans-serif" font-size="12" font-weight="bold" lengthAdjust="spacing" textLength="128.0273" x="1555.646" y="620.2695">_containers.GetOrAdd</text><text fill="#000000" font-family="sans-serif" font-size="12" lengthAdjust="spacing" textLength="82.8281" x="1683.6733" y="620.2695">(containerId, &#8230;)</text><text fill="#000000" font-family="sans-serif" font-size="12" lengthAdjust="spacing" textLength="165.0938" x="1555.646" y="635.3633">&#8594; ConcurrentDictionary lookup</text><text fill="#000000" font-family="sans-serif" font-size="12" lengthAdjust="spacing" textLength="145.0898" x="1555.646" y="650.457">&#8594; thread-safe lazy creation</text><path d="M1714.3452,673.0938 L1714.3452,748.5 L1952.8286,748.5 L1952.8286,683.0938 L1942.8286,673.0938 L1714.3452,673.0938" fill="#FEFFDD" style="stroke:#181818;stroke-width:0.5;"/><path d="M1942.8286,673.0938 L1942.8286,683.0938 L1952.8286,683.0938 L1942.8286,673.0938" fill="#FEFFDD" style="stroke:#181818;stroke-width:0.5;"/><text fill="#000000" font-family="sans-serif" font-size="13" lengthAdjust="spacing" textLength="215.3315" x="1720.3452" y="691.5889">Subsequent GetContainer() calls with</text><text fill="#000000" font-family="sans-serif" font-size="13" lengthAdjust="spacing" textLength="216.4424" x="1720.3452" y="707.9404">same databaseId + containerId return</text><text fill="#000000" font-family="sans-serif" font-size="13" lengthAdjust="spacing" textLength="18.0718" x="1720.3452" y="724.292">the</text><text fill="#000000" font-family="sans-serif" font-size="13" font-weight="bold" lengthAdjust="spacing" textLength="93.9136" x="1742.0288" y="724.292">SAME instance</text><text fill="#000000" font-family="sans-serif" font-size="13" lengthAdjust="spacing" textLength="98.2744" x="1839.5542" y="724.292">&#8212; data is shared</text><text fill="#000000" font-family="sans-serif" font-size="13" lengthAdjust="spacing" textLength="99.6963" x="1720.3452" y="740.6436">across all callers.</text><polygon fill="#E8F4FD" points="1619.8022,748.5,1702.3452,748.5,1714.3452,760.5,1702.3452,772.5,1619.8022,772.5,1607.8022,760.5,1619.8022,748.5" style="stroke:#333333;stroke-width:0.5;"/><text fill="#000000" font-family="sans-serif" font-size="11" lengthAdjust="spacing" textLength="82.543" x="1619.8022" y="765.001">container exists?</text><text fill="#000000" font-family="sans-serif" font-size="11" lengthAdjust="spacing" textLength="17.1177" x="1590.6846" y="758.083">yes</text><text fill="#000000" font-family="sans-serif" font-size="11" lengthAdjust="spacing" textLength="12.2354" x="1714.3452" y="758.083">no</text><rect fill="#E8F4FD" height="35.0938" rx="12.5" ry="12.5" style="stroke:#333333;stroke-width:0.5;" width="216.0547" x="1439.3564" y="782.5"/><text fill="#000000" font-family="sans-serif" font-size="12" lengthAdjust="spacing" textLength="80.0391" x="1449.3564" y="804.957">Return existing</text><text fill="#000000" font-family="sans-serif" font-size="12" font-weight="bold" lengthAdjust="spacing" textLength="112.6816" x="1532.7295" y="804.957">InMemoryContainer</text><rect fill="#E8F4FD" height="50.1875" rx="12.5" ry="12.5" style="stroke:#333333;stroke-width:0.5;" width="198.7051" x="1675.4111" y="782.5"/><text fill="#000000" font-family="sans-serif" font-size="12" lengthAdjust="spacing" textLength="36.0176" x="1685.4111" y="804.957">Create</text><text fill="#000000" font-family="sans-serif" font-size="12" font-weight="bold" lengthAdjust="spacing" textLength="139.3535" x="1724.7627" y="804.957">new InMemoryContainer</text><text fill="#000000" font-family="sans-serif" font-size="12" lengthAdjust="spacing" textLength="162.0879" x="1685.4111" y="820.0508">(containerId, partitionKeyPath)</text><polygon fill="#E8F4FD" points="1661.0737,838.6875,1673.0737,850.6875,1661.0737,862.6875,1649.0737,850.6875,1661.0737,838.6875" style="stroke:#333333;stroke-width:0.5;"/><line style="stroke:#000000;stroke-width:1.5;" x1="1433.3564" x2="1433.3564" y1="115.2344" y2="2797.7861"/><rect fill="#E8F4FD" height="50.1875" rx="12.5" ry="12.5" style="stroke:#333333;stroke-width:0.5;" width="274.1328" x="1963.8286" y="1009.2266"/><text fill="#000000" font-family="sans-serif" font-size="12" lengthAdjust="spacing" textLength="20.6719" x="1973.8286" y="1031.6836">Call</text><text fill="#000000" font-family="sans-serif" font-size="12" font-weight="bold" lengthAdjust="spacing" textLength="142.0488" x="1997.8345" y="1031.6836">GetItemQueryIterator&lt;T&gt;</text><text fill="#000000" font-family="sans-serif" font-size="12" lengthAdjust="spacing" textLength="254.1328" x="1973.8286" y="1046.7773">(queryText, continuationToken, requestOptions)</text><rect fill="#E8F4FD" height="50.1875" rx="12.5" ry="12.5" style="stroke:#333333;stroke-width:0.5;" width="236.7559" x="1982.5171" y="1079.4141"/><text fill="#000000" font-family="sans-serif" font-size="12" lengthAdjust="spacing" textLength="20.6719" x="1992.5171" y="1101.8711">Call</text><text fill="#000000" font-family="sans-serif" font-size="12" font-weight="bold" lengthAdjust="spacing" textLength="110.707" x="2016.5229" y="1101.8711">FilterItemsByQuery</text><text fill="#000000" font-family="sans-serif" font-size="12" lengthAdjust="spacing" textLength="216.7559" x="1992.5171" y="1116.9648">(queryText, parameters, requestOptions)</text><rect fill="#E8F4FD" height="35.0938" rx="12.5" ry="12.5" style="stroke:#333333;stroke-width:0.5;" width="136.3965" x="2032.6968" y="2208.9531"/><text fill="#000000" font-family="sans-serif" font-size="12" lengthAdjust="spacing" textLength="116.3965" x="2042.6968" y="2231.4102">Deserialize &#8594; List&lt;T&gt;</text><rect fill="#E8F4FD" height="35.0938" rx="12.5" ry="12.5" style="stroke:#333333;stroke-width:0.5;" width="206.7266" x="1997.5317" y="2264.0469"/><text fill="#000000" font-family="sans-serif" font-size="12" lengthAdjust="spacing" textLength="36.0176" x="2007.5317" y="2286.5039">Create</text><text fill="#000000" font-family="sans-serif" font-size="12" font-weight="bold" lengthAdjust="spacing" textLength="147.375" x="2046.8833" y="2286.5039">InMemoryFeedIterator&lt;T&gt;</text><line style="stroke:#000000;stroke-width:1.5;" x1="1957.8286" x2="1957.8286" y1="115.2344" y2="2797.7861"/><rect fill="#E8F4FD" height="80.375" rx="12.5" ry="12.5" style="stroke:#333333;stroke-width:0.5;" width="215.3867" x="2247.9614" y="1149.6016"/><text fill="#000000" font-family="sans-serif" font-size="12" font-weight="bold" lengthAdjust="spacing" textLength="32.6953" x="2257.9614" y="1172.0586">Parse</text><text fill="#000000" font-family="sans-serif" font-size="12" lengthAdjust="spacing" textLength="61.3477" x="2290.6567" y="1172.0586">(queryText)</text><text fill="#000000" font-family="sans-serif" font-size="12" lengthAdjust="spacing" textLength="134.3906" x="2257.9614" y="1187.1523">&#8594; CosmosSqlQuery AST</text><text fill="#000000" font-family="sans-serif" font-size="12" lengthAdjust="spacing" textLength="166.0488" x="2257.9614" y="1202.2461">(SelectFields, Where, OrderBy,</text><text fill="#000000" font-family="sans-serif" font-size="12" lengthAdjust="spacing" textLength="195.3867" x="2257.9614" y="1217.3398">GroupBy, Distinct, Top, Offset, Limit)</text><line style="stroke:#000000;stroke-width:1.5;" x1="2241.9614" x2="2241.9614" y1="115.2344" y2="2797.7861"/><rect fill="#E8F4FD" height="65.2813" rx="12.5" ry="12.5" style="stroke:#333333;stroke-width:0.5;" width="244.0566" x="2509.8657" y="1249.9766"/><text fill="#000000" font-family="sans-serif" font-size="12" font-weight="bold" lengthAdjust="spacing" textLength="134.6836" x="2519.8657" y="1272.4336">GetAllItemsForPartition</text><text fill="#000000" font-family="sans-serif" font-size="12" lengthAdjust="spacing" textLength="89.373" x="2654.5493" y="1272.4336">(requestOptions)</text><text fill="#000000" font-family="sans-serif" font-size="12" lengthAdjust="spacing" textLength="219.0996" x="2519.8657" y="1287.5273">&#8594; List&lt;string&gt; from ConcurrentDictionary</text><text fill="#000000" font-family="sans-serif" font-size="12" lengthAdjust="spacing" textLength="201.7676" x="2519.8657" y="1302.6211">&#8594; partition key filtering, TTL exclusion</text><rect fill="#E8F4FD" height="35.0938" rx="12.5" ry="12.5" style="stroke:#333333;stroke-width:0.5;" width="224.6563" x="2519.5659" y="1335.2578"/><text fill="#000000" font-family="sans-serif" font-size="12" font-weight="bold" lengthAdjust="spacing" textLength="196.6641" x="2529.5659" y="1357.7148">AugmentWithComputedProperties</text><text fill="#000000" font-family="sans-serif" font-size="12" lengthAdjust="spacing" textLength="7.9922" x="2726.23" y="1357.7148">()</text><rect fill="#E8F4FD" height="50.1875" rx="12.5" ry="12.5" style="stroke:#333333;stroke-width:0.5;" width="159.6992" x="2552.0444" y="1390.3516"/><text fill="#000000" font-family="sans-serif" font-size="12" font-weight="bold" lengthAdjust="spacing" textLength="114.0234" x="2562.0444" y="1412.8086">ExpandFromSource</text><text fill="#000000" font-family="sans-serif" font-size="12" lengthAdjust="spacing" textLength="7.9922" x="2676.0679" y="1412.8086">()</text><text fill="#000000" font-family="sans-serif" font-size="12" lengthAdjust="spacing" textLength="139.6992" x="2562.0444" y="1427.9023">&#8594; FROM c IN c.arrayField</text><rect fill="#E8F4FD" height="50.1875" rx="12.5" ry="12.5" style="stroke:#333333;stroke-width:0.5;" width="143.7324" x="2560.0278" y="1460.5391"/><text fill="#000000" font-family="sans-serif" font-size="12" font-weight="bold" lengthAdjust="spacing" textLength="90.0176" x="2570.0278" y="1482.9961">ExpandAllJoins</text><text fill="#000000" font-family="sans-serif" font-size="12" lengthAdjust="spacing" textLength="7.9922" x="2660.0454" y="1482.9961">()</text><text fill="#000000" font-family="sans-serif" font-size="12" lengthAdjust="spacing" textLength="123.7324" x="2570.0278" y="1498.0898">&#8594; JOIN array flattening</text><rect fill="#FFFFE0" height="157.1016" style="stroke:#333333;stroke-width:0.5;" width="240.7578" x="2511.5151" y="1530.7266"/><line style="stroke:#333333;stroke-width:0.5;" x1="2516.5151" x2="2516.5151" y1="1530.7266" y2="1687.8281"/><line style="stroke:#333333;stroke-width:0.5;" x1="2747.2729" x2="2747.2729" y1="1530.7266" y2="1687.8281"/><text fill="#000000" font-family="sans-serif" font-size="13" font-weight="bold" lengthAdjust="spacing" textLength="128.959" x="2521.5151" y="1554.2217">WHERE per item ===</text><text fill="#000000" font-family="sans-serif" font-size="12" font-weight="bold" lengthAdjust="spacing" textLength="150.7266" x="2521.5151" y="1569.5352">EvaluateWhereExpression</text><text fill="#000000" font-family="sans-serif" font-size="12" lengthAdjust="spacing" textLength="10.3535" x="2521.5151" y="1584.6289">&#8594;</text><text fill="#000000" font-family="sans-serif" font-size="12" font-weight="bold" lengthAdjust="spacing" textLength="132.7207" x="2535.2026" y="1584.6289">EvaluateSqlExpression</text><text fill="#000000" font-family="sans-serif" font-size="12" lengthAdjust="spacing" textLength="56.6719" x="2671.2573" y="1584.6289">(recursive)</text><text fill="#000000" font-family="sans-serif" font-size="12" lengthAdjust="spacing" textLength="122.4082" x="2521.5151" y="1599.7227">&#8594; all expression types:</text><text fill="#000000" font-family="sans-serif" font-size="12" lengthAdjust="spacing" textLength="179.4082" x="2521.5151" y="1614.8164">Literal, Identifier, PropertyAccess,</text><text fill="#000000" font-family="sans-serif" font-size="12" lengthAdjust="spacing" textLength="220.7578" x="2521.5151" y="1629.9102">IndexAccess, Binary, Unary, FunctionCall</text><text fill="#000000" font-family="sans-serif" font-size="12" lengthAdjust="spacing" textLength="181.7695" x="2521.5151" y="1645.0039">(40+ functions), Between, In, Like,</text><text fill="#000000" font-family="sans-serif" font-size="12" lengthAdjust="spacing" textLength="159.4102" x="2521.5151" y="1660.0977">Ternary, Coalesce, Subquery,</text><text fill="#000000" font-family="sans-serif" font-size="12" lengthAdjust="spacing" textLength="135.3867" x="2521.5151" y="1675.1914">ArrayLiteral, ObjectLiteral</text><rect fill="#E8F4FD" height="50.1875" rx="12.5" ry="12.5" style="stroke:#333333;stroke-width:0.5;" width="197.334" x="2533.2271" y="1707.8281"/><text fill="#000000" font-family="sans-serif" font-size="12" font-weight="bold" lengthAdjust="spacing" textLength="84.668" x="2543.2271" y="1730.2852">ApplyGroupBy</text><text fill="#000000" font-family="sans-serif" font-size="12" lengthAdjust="spacing" textLength="81.7148" x="2627.895" y="1730.2852">() + aggregates</text><text fill="#000000" font-family="sans-serif" font-size="12" lengthAdjust="spacing" textLength="177.334" x="2543.2271" y="1745.3789">(COUNT, SUM, AVG, MIN, MAX)</text><rect fill="#E8F4FD" height="50.1875" rx="12.5" ry="12.5" style="stroke:#333333;stroke-width:0.5;" width="153.0488" x="2555.3696" y="1778.0156"/><text fill="#000000" font-family="sans-serif" font-size="12" font-weight="bold" lengthAdjust="spacing" textLength="116.0273" x="2565.3696" y="1800.4727">ApplyOrderByFields</text><text fill="#000000" font-family="sans-serif" font-size="12" lengthAdjust="spacing" textLength="7.9922" x="2681.397" y="1800.4727">()</text><text fill="#000000" font-family="sans-serif" font-size="12" lengthAdjust="spacing" textLength="133.0488" x="2565.3696" y="1815.5664">&#8594; multi-field, ASC/DESC</text><rect fill="#E8F4FD" height="35.0938" rx="12.5" ry="12.5" style="stroke:#333333;stroke-width:0.5;" width="173.6855" x="2545.0513" y="1848.2031"/><text fill="#000000" font-family="sans-serif" font-size="12" lengthAdjust="spacing" textLength="30.0176" x="2555.0513" y="1870.6602">Apply</text><text fill="#000000" font-family="sans-serif" font-size="12" font-weight="bold" lengthAdjust="spacing" textLength="24.668" x="2588.4028" y="1870.6602">TOP</text><text fill="#000000" font-family="sans-serif" font-size="12" lengthAdjust="spacing" textLength="3.334" x="2616.4048" y="1870.6602">/</text><text fill="#000000" font-family="sans-serif" font-size="12" font-weight="bold" lengthAdjust="spacing" textLength="85.6641" x="2623.0728" y="1870.6602">OFFSET+LIMIT</text><rect fill="#E8F4FD" height="50.1875" rx="12.5" ry="12.5" style="stroke:#333333;stroke-width:0.5;" width="135.7344" x="2564.0269" y="1903.2969"/><text fill="#000000" font-family="sans-serif" font-size="12" font-weight="bold" lengthAdjust="spacing" textLength="75.3574" x="2574.0269" y="1925.7539">ProjectFields</text><text fill="#000000" font-family="sans-serif" font-size="12" lengthAdjust="spacing" textLength="7.9922" x="2649.3843" y="1925.7539">()</text><text fill="#000000" font-family="sans-serif" font-size="12" lengthAdjust="spacing" textLength="115.7344" x="2574.0269" y="1940.8477">&#8594; SELECT projection</text><rect fill="#E8F4FD" height="35.0938" rx="12.5" ry="12.5" style="stroke:#333333;stroke-width:0.5;" width="174.0078" x="2544.8901" y="1973.4844"/><text fill="#000000" font-family="sans-serif" font-size="12" font-weight="bold" lengthAdjust="spacing" textLength="146.0156" x="2554.8901" y="1995.9414">StripComputedProperties</text><text fill="#000000" font-family="sans-serif" font-size="12" lengthAdjust="spacing" textLength="7.9922" x="2700.9058" y="1995.9414">()</text><rect fill="#E8F4FD" height="35.0938" rx="12.5" ry="12.5" style="stroke:#333333;stroke-width:0.5;" width="108.6816" x="2577.5532" y="2028.5781"/><text fill="#000000" font-family="sans-serif" font-size="12" lengthAdjust="spacing" textLength="30.0176" x="2587.5532" y="2051.0352">Apply</text><text fill="#000000" font-family="sans-serif" font-size="12" font-weight="bold" lengthAdjust="spacing" textLength="55.3301" x="2620.9048" y="2051.0352">DISTINCT</text><rect fill="#E8F4FD" height="50.1875" rx="12.5" ry="12.5" style="stroke:#333333;stroke-width:0.5;" width="139.3672" x="2562.2104" y="2083.6719"/><text fill="#000000" font-family="sans-serif" font-size="12" font-weight="bold" lengthAdjust="spacing" textLength="111.375" x="2572.2104" y="2106.1289">UnwrapValueSelect</text><text fill="#000000" font-family="sans-serif" font-size="12" lengthAdjust="spacing" textLength="7.9922" x="2683.5854" y="2106.1289">()</text><text fill="#000000" font-family="sans-serif" font-size="12" lengthAdjust="spacing" textLength="103.0547" x="2572.2104" y="2121.2227">&#8594; SELECT VALUE</text><rect fill="#E8F4FD" height="35.0938" rx="12.5" ry="12.5" style="stroke:#333333;stroke-width:0.5;" width="164.7148" x="2549.5366" y="2153.8594"/><text fill="#000000" font-family="sans-serif" font-size="12" lengthAdjust="spacing" textLength="144.7148" x="2559.5366" y="2176.3164">Return List&lt;string&gt; (JSON)</text><line style="stroke:#000000;stroke-width:1.5;" x1="2467.3481" x2="2467.3481" y1="115.2344" y2="2797.7861"/><rect fill="#E8F4FD" height="80.375" rx="12.5" ry="12.5" style="stroke:#333333;stroke-width:0.5;" width="210.4063" x="2800.4399" y="2431.1533"/><text fill="#000000" font-family="sans-serif" font-size="12" lengthAdjust="spacing" textLength="139.7461" x="2810.4399" y="2453.6104">EnsureItems() &#8594; Paginate</text><text fill="#000000" font-family="sans-serif" font-size="12" lengthAdjust="spacing" textLength="190.4063" x="2810.4399" y="2468.7041">&#8594; Skip(offset).Take(maxItemCount)</text><text fill="#000000" font-family="sans-serif" font-size="12" lengthAdjust="spacing" textLength="111.0938" x="2810.4399" y="2483.7979">&#8594; continuation token</text><text fill="#000000" font-family="sans-serif" font-size="12" lengthAdjust="spacing" textLength="10.3535" x="2810.4399" y="2498.8916">&#8594;</text><text fill="#000000" font-family="sans-serif" font-size="12" font-weight="bold" lengthAdjust="spacing" textLength="163.3828" x="2824.1274" y="2498.8916">InMemoryFeedResponse&lt;T&gt;</text><line style="stroke:#000000;stroke-width:1.5;" x1="2794.4399" x2="2794.4399" y1="115.2344" y2="2797.7861"/><line style="stroke:#000000;stroke-width:1.5;" x1="3014.8462" x2="3014.8462" y1="115.2344" y2="2797.7861"/><line style="stroke:#181818;stroke-width:1;" x1="141.083" x2="141.083" y1="162.875" y2="182.875"/><polygon fill="#181818" points="137.083,172.875,141.083,182.875,145.083,172.875,141.083,176.875" style="stroke:#181818;stroke-width:1;"/><line style="stroke:#181818;stroke-width:1;" x1="419.3132" x2="419.3132" y1="917.7813" y2="937.7813"/><polygon fill="#181818" points="415.3132,927.7813,419.3132,937.7813,423.3132,927.7813,419.3132,931.7813" style="stroke:#181818;stroke-width:1;"/><line style="stroke:#181818;stroke-width:1;" x1="419.3132" x2="419.3132" y1="2343.1406" y2="2376.0596"/><polygon fill="#181818" points="415.3132,2366.0596,419.3132,2376.0596,423.3132,2366.0596,419.3132,2370.0596" style="stroke:#181818;stroke-width:1;"/><line style="stroke:#181818;stroke-width:1;" x1="419.3132" x2="419.3132" y1="2566.6221" y2="2576.6221"/><line style="stroke:#181818;stroke-width:1;" x1="419.3132" x2="536.5164" y1="2576.6221" y2="2576.6221"/><polygon fill="#181818" points="532.5164,2462.4229,536.5164,2452.4229,540.5164,2462.4229,536.5164,2458.4229" style="stroke:#181818;stroke-width:1;"/><line style="stroke:#181818;stroke-width:1;" x1="536.5164" x2="536.5164" y1="2331.1406" y2="2576.6221"/><line style="stroke:#181818;stroke-width:1;" x1="536.5164" x2="475.0232" y1="2331.1406" y2="2331.1406"/><polygon fill="#181818" points="485.0232,2327.1406,475.0232,2331.1406,485.0232,2335.1406,481.0232,2331.1406" style="stroke:#181818;stroke-width:1;"/><line style="stroke:#181818;stroke-width:1;" x1="363.6033" x2="302.1101" y1="2331.1406" y2="2331.1406"/><polygon fill="#181818" points="298.1101,2448.4229,302.1101,2458.4229,306.1101,2448.4229,302.1101,2452.4229" style="stroke:#181818;stroke-width:1;"/><line style="stroke:#181818;stroke-width:1;" x1="302.1101" x2="302.1101" y1="2331.1406" y2="2588.6221"/><line style="stroke:#181818;stroke-width:1;" x1="302.1101" x2="419.3132" y1="2588.6221" y2="2588.6221"/><line style="stroke:#181818;stroke-width:1;" x1="419.3132" x2="419.3132" y1="2588.6221" y2="2659.0283"/><polygon fill="#181818" points="415.3132,2649.0283,419.3132,2659.0283,423.3132,2649.0283,419.3132,2653.0283" style="stroke:#181818;stroke-width:1;"/><line style="stroke:#181818;stroke-width:1;" x1="419.3132" x2="419.3132" y1="2695.3799" y2="2775.7861"/><polygon fill="#181818" points="415.3132,2765.7861,419.3132,2775.7861,423.3132,2765.7861,419.3132,2769.7861" style="stroke:#181818;stroke-width:1;"/><line style="stroke:#181818;stroke-width:1;" x1="1165.6797" x2="1106.5879" y1="405.4375" y2="405.4375"/><line style="stroke:#181818;stroke-width:1;" x1="1106.5879" x2="1106.5879" y1="405.4375" y2="427.4375"/><polygon fill="#181818" points="1102.5879,417.4375,1106.5879,427.4375,1110.5879,417.4375,1106.5879,421.4375" style="stroke:#181818;stroke-width:1;"/><line style="stroke:#181818;stroke-width:1;" x1="1272.2334" x2="1331.3252" y1="405.4375" y2="405.4375"/><line style="stroke:#181818;stroke-width:1;" x1="1331.3252" x2="1331.3252" y1="405.4375" y2="427.4375"/><polygon fill="#181818" points="1327.3252,417.4375,1331.3252,427.4375,1335.3252,417.4375,1331.3252,421.4375" style="stroke:#181818;stroke-width:1;"/><line style="stroke:#181818;stroke-width:1;" x1="1106.5879" x2="1106.5879" y1="462.5313" y2="495.625"/><line style="stroke:#181818;stroke-width:1;" x1="1106.5879" x2="1206.9565" y1="495.625" y2="495.625"/><polygon fill="#181818" points="1196.9565,491.625,1206.9565,495.625,1196.9565,499.625,1200.9565,495.625" style="stroke:#181818;stroke-width:1;"/><line style="stroke:#181818;stroke-width:1;" x1="1331.3252" x2="1331.3252" y1="477.625" y2="495.625"/><line style="stroke:#181818;stroke-width:1;" x1="1331.3252" x2="1230.9565" y1="495.625" y2="495.625"/><polygon fill="#181818" points="1240.9565,491.625,1230.9565,495.625,1240.9565,499.625,1236.9565,495.625" style="stroke:#181818;stroke-width:1;"/><line style="stroke:#181818;stroke-width:1;" x1="1218.9565" x2="1218.9565" y1="373.4375" y2="393.4375"/><polygon fill="#181818" points="1214.9565,383.4375,1218.9565,393.4375,1222.9565,383.4375,1218.9565,387.4375" style="stroke:#181818;stroke-width:1;"/><line style="stroke:#181818;stroke-width:1;" x1="1661.0737" x2="1661.0737" y1="577.8125" y2="597.8125"/><polygon fill="#181818" points="1657.0737,587.8125,1661.0737,597.8125,1665.0737,587.8125,1661.0737,591.8125" style="stroke:#181818;stroke-width:1;"/><line style="stroke:#181818;stroke-width:1;" x1="1607.8022" x2="1547.3838" y1="760.5" y2="760.5"/><line style="stroke:#181818;stroke-width:1;" x1="1547.3838" x2="1547.3838" y1="760.5" y2="782.5"/><polygon fill="#181818" points="1543.3838,772.5,1547.3838,782.5,1551.3838,772.5,1547.3838,776.5" style="stroke:#181818;stroke-width:1;"/><line style="stroke:#181818;stroke-width:1;" x1="1714.3452" x2="1774.7637" y1="760.5" y2="760.5"/><line style="stroke:#181818;stroke-width:1;" x1="1774.7637" x2="1774.7637" y1="760.5" y2="782.5"/><polygon fill="#181818" points="1770.7637,772.5,1774.7637,782.5,1778.7637,772.5,1774.7637,776.5" style="stroke:#181818;stroke-width:1;"/><line style="stroke:#181818;stroke-width:1;" x1="1547.3838" x2="1547.3838" y1="817.5938" y2="850.6875"/><line style="stroke:#181818;stroke-width:1;" x1="1547.3838" x2="1649.0737" y1="850.6875" y2="850.6875"/><polygon fill="#181818" points="1639.0737,846.6875,1649.0737,850.6875,1639.0737,854.6875,1643.0737,850.6875" style="stroke:#181818;stroke-width:1;"/><line style="stroke:#181818;stroke-width:1;" x1="1774.7637" x2="1774.7637" y1="832.6875" y2="850.6875"/><line style="stroke:#181818;stroke-width:1;" x1="1774.7637" x2="1673.0737" y1="850.6875" y2="850.6875"/><polygon fill="#181818" points="1683.0737,846.6875,1673.0737,850.6875,1683.0737,854.6875,1679.0737,850.6875" style="stroke:#181818;stroke-width:1;"/><line style="stroke:#181818;stroke-width:1;" x1="1661.0737" x2="1661.0737" y1="663.0938" y2="748.5"/><polygon fill="#181818" points="1657.0737,738.5,1661.0737,748.5,1665.0737,738.5,1661.0737,742.5" style="stroke:#181818;stroke-width:1;"/><line style="stroke:#181818;stroke-width:1;" x1="2100.895" x2="2100.895" y1="1059.4141" y2="1079.4141"/><polygon fill="#181818" points="2096.895,1069.4141,2100.895,1079.4141,2104.895,1069.4141,2100.895,1073.4141" style="stroke:#181818;stroke-width:1;"/><line style="stroke:#181818;stroke-width:1;" x1="2100.895" x2="2100.895" y1="2244.0469" y2="2264.0469"/><polygon fill="#181818" points="2096.895,2254.0469,2100.895,2264.0469,2104.895,2254.0469,2100.895,2258.0469" style="stroke:#181818;stroke-width:1;"/><line style="stroke:#181818;stroke-width:1;" x1="2631.894" x2="2631.894" y1="1315.2578" y2="1335.2578"/><polygon fill="#181818" points="2627.894,1325.2578,2631.894,1335.2578,2635.894,1325.2578,2631.894,1329.2578" style="stroke:#181818;stroke-width:1;"/><line style="stroke:#181818;stroke-width:1;" x1="2631.894" x2="2631.894" y1="1370.3516" y2="1390.3516"/><polygon fill="#181818" points="2627.894,1380.3516,2631.894,1390.3516,2635.894,1380.3516,2631.894,1384.3516" style="stroke:#181818;stroke-width:1;"/><line style="stroke:#181818;stroke-width:1;" x1="2631.894" x2="2631.894" y1="1440.5391" y2="1460.5391"/><polygon fill="#181818" points="2627.894,1450.5391,2631.894,1460.5391,2635.894,1450.5391,2631.894,1454.5391" style="stroke:#181818;stroke-width:1;"/><line style="stroke:#181818;stroke-width:1;" x1="2631.894" x2="2631.894" y1="1510.7266" y2="1530.7266"/><polygon fill="#181818" points="2627.894,1520.7266,2631.894,1530.7266,2635.894,1520.7266,2631.894,1524.7266" style="stroke:#181818;stroke-width:1;"/><line style="stroke:#181818;stroke-width:1;" x1="2631.894" x2="2631.894" y1="1687.8281" y2="1707.8281"/><polygon fill="#181818" points="2627.894,1697.8281,2631.894,1707.8281,2635.894,1697.8281,2631.894,1701.8281" style="stroke:#181818;stroke-width:1;"/><line style="stroke:#181818;stroke-width:1;" x1="2631.894" x2="2631.894" y1="1758.0156" y2="1778.0156"/><polygon fill="#181818" points="2627.894,1768.0156,2631.894,1778.0156,2635.894,1768.0156,2631.894,1772.0156" style="stroke:#181818;stroke-width:1;"/><line style="stroke:#181818;stroke-width:1;" x1="2631.894" x2="2631.894" y1="1828.2031" y2="1848.2031"/><polygon fill="#181818" points="2627.894,1838.2031,2631.894,1848.2031,2635.894,1838.2031,2631.894,1842.2031" style="stroke:#181818;stroke-width:1;"/><line style="stroke:#181818;stroke-width:1;" x1="2631.894" x2="2631.894" y1="1883.2969" y2="1903.2969"/><polygon fill="#181818" points="2627.894,1893.2969,2631.894,1903.2969,2635.894,1893.2969,2631.894,1897.2969" style="stroke:#181818;stroke-width:1;"/><line style="stroke:#181818;stroke-width:1;" x1="2631.894" x2="2631.894" y1="1953.4844" y2="1973.4844"/><polygon fill="#181818" points="2627.894,1963.4844,2631.894,1973.4844,2635.894,1963.4844,2631.894,1967.4844" style="stroke:#181818;stroke-width:1;"/><line style="stroke:#181818;stroke-width:1;" x1="2631.894" x2="2631.894" y1="2008.5781" y2="2028.5781"/><polygon fill="#181818" points="2627.894,2018.5781,2631.894,2028.5781,2635.894,2018.5781,2631.894,2022.5781" style="stroke:#181818;stroke-width:1;"/><line style="stroke:#181818;stroke-width:1;" x1="2631.894" x2="2631.894" y1="2063.6719" y2="2083.6719"/><polygon fill="#181818" points="2627.894,2073.6719,2631.894,2083.6719,2635.894,2073.6719,2631.894,2077.6719" style="stroke:#181818;stroke-width:1;"/><line style="stroke:#181818;stroke-width:1;" x1="2631.894" x2="2631.894" y1="2133.8594" y2="2153.8594"/><polygon fill="#181818" points="2627.894,2143.8594,2631.894,2153.8594,2635.894,2143.8594,2631.894,2147.8594" style="stroke:#181818;stroke-width:1;"/><line style="stroke:#181818;stroke-width:1;" x1="141.083" x2="141.083" y1="217.9688" y2="222.9688"/><line style="stroke:#181818;stroke-width:1;" x1="141.083" x2="419.3132" y1="222.9688" y2="222.9688"/><line style="stroke:#181818;stroke-width:1;" x1="419.3132" x2="419.3132" y1="222.9688" y2="237.9688"/><polygon fill="#181818" points="415.3132,227.9688,419.3132,237.9688,423.3132,227.9688,419.3132,231.9688" style="stroke:#181818;stroke-width:1;"/><line style="stroke:#181818;stroke-width:1;" x1="419.3132" x2="419.3132" y1="288.1563" y2="293.1563"/><line style="stroke:#181818;stroke-width:1;" x1="419.3132" x2="1218.9565" y1="293.1563" y2="293.1563"/><line style="stroke:#181818;stroke-width:1;" x1="1218.9565" x2="1218.9565" y1="293.1563" y2="308.1563"/><polygon fill="#181818" points="1214.9565,298.1563,1218.9565,308.1563,1222.9565,298.1563,1218.9565,302.1563" style="stroke:#181818;stroke-width:1;"/><line style="stroke:#181818;stroke-width:1;" x1="1218.9565" x2="1218.9565" y1="507.625" y2="512.625"/><line style="stroke:#181818;stroke-width:1;" x1="1218.9565" x2="1661.0737" y1="512.625" y2="512.625"/><line style="stroke:#181818;stroke-width:1;" x1="1661.0737" x2="1661.0737" y1="512.625" y2="527.625"/><polygon fill="#181818" points="1657.0737,517.625,1661.0737,527.625,1665.0737,517.625,1661.0737,521.625" style="stroke:#181818;stroke-width:1;"/><line style="stroke:#181818;stroke-width:1;" x1="1661.0737" x2="1661.0737" y1="862.6875" y2="867.6875"/><line style="stroke:#181818;stroke-width:1;" x1="1661.0737" x2="419.3132" y1="867.6875" y2="867.6875"/><line style="stroke:#181818;stroke-width:1;" x1="419.3132" x2="419.3132" y1="867.6875" y2="882.6875"/><polygon fill="#181818" points="415.3132,872.6875,419.3132,882.6875,423.3132,872.6875,419.3132,876.6875" style="stroke:#181818;stroke-width:1;"/><line style="stroke:#181818;stroke-width:1;" x1="419.3132" x2="419.3132" y1="989.2266" y2="994.2266"/><line style="stroke:#181818;stroke-width:1;" x1="419.3132" x2="2100.895" y1="994.2266" y2="994.2266"/><line style="stroke:#181818;stroke-width:1;" x1="2100.895" x2="2100.895" y1="994.2266" y2="1009.2266"/><polygon fill="#181818" points="2096.895,999.2266,2100.895,1009.2266,2104.895,999.2266,2100.895,1003.2266" style="stroke:#181818;stroke-width:1;"/><line style="stroke:#181818;stroke-width:1;" x1="2100.895" x2="2100.895" y1="1129.6016" y2="1134.6016"/><line style="stroke:#181818;stroke-width:1;" x1="2100.895" x2="2355.6548" y1="1134.6016" y2="1134.6016"/><line style="stroke:#181818;stroke-width:1;" x1="2355.6548" x2="2355.6548" y1="1134.6016" y2="1149.6016"/><polygon fill="#181818" points="2351.6548,1139.6016,2355.6548,1149.6016,2359.6548,1139.6016,2355.6548,1143.6016" style="stroke:#181818;stroke-width:1;"/><line style="stroke:#181818;stroke-width:1;" x1="2355.6548" x2="2355.6548" y1="1229.9766" y2="1234.9766"/><line style="stroke:#181818;stroke-width:1;" x1="2355.6548" x2="2631.894" y1="1234.9766" y2="1234.9766"/><line style="stroke:#181818;stroke-width:1;" x1="2631.894" x2="2631.894" y1="1234.9766" y2="1249.9766"/><polygon fill="#181818" points="2627.894,1239.9766,2631.894,1249.9766,2635.894,1239.9766,2631.894,1243.9766" style="stroke:#181818;stroke-width:1;"/><line style="stroke:#181818;stroke-width:1;" x1="2631.894" x2="2631.894" y1="2188.9531" y2="2193.9531"/><line style="stroke:#181818;stroke-width:1;" x1="2631.894" x2="2100.895" y1="2193.9531" y2="2193.9531"/><line style="stroke:#181818;stroke-width:1;" x1="2100.895" x2="2100.895" y1="2193.9531" y2="2208.9531"/><polygon fill="#181818" points="2096.895,2198.9531,2100.895,2208.9531,2104.895,2198.9531,2100.895,2202.9531" style="stroke:#181818;stroke-width:1;"/><line style="stroke:#181818;stroke-width:1;" x1="419.3132" x2="419.3132" y1="2411.1533" y2="2416.1533"/><line style="stroke:#181818;stroke-width:1;" x1="419.3132" x2="2905.6431" y1="2416.1533" y2="2416.1533"/><line style="stroke:#181818;stroke-width:1;" x1="2905.6431" x2="2905.6431" y1="2416.1533" y2="2431.1533"/><polygon fill="#181818" points="2901.6431,2421.1533,2905.6431,2431.1533,2909.6431,2421.1533,2905.6431,2425.1533" style="stroke:#181818;stroke-width:1;"/><line style="stroke:#181818;stroke-width:1;" x1="2905.6431" x2="2905.6431" y1="2511.5283" y2="2516.5283"/><line style="stroke:#181818;stroke-width:1;" x1="2905.6431" x2="419.3132" y1="2516.5283" y2="2516.5283"/><line style="stroke:#181818;stroke-width:1;" x1="419.3132" x2="419.3132" y1="2516.5283" y2="2531.5283"/><polygon fill="#181818" points="415.3132,2521.5283,419.3132,2531.5283,423.3132,2521.5283,419.3132,2525.5283" style="stroke:#181818;stroke-width:1;"/><line style="stroke:#181818;stroke-width:1;" x1="2100.895" x2="2100.895" y1="2299.1406" y2="2304.1406"/><line style="stroke:#181818;stroke-width:1;" x1="2100.895" x2="419.3132" y1="2304.1406" y2="2304.1406"/><line style="stroke:#181818;stroke-width:1;" x1="419.3132" x2="419.3132" y1="2304.1406" y2="2319.1406"/><polygon fill="#181818" points="415.3132,2309.1406,419.3132,2319.1406,423.3132,2309.1406,419.3132,2313.1406" style="stroke:#181818;stroke-width:1;"/><text fill="#000000" font-family="sans-serif" font-size="18" lengthAdjust="spacing" textLength="47.0391" x="116.5635" y="133.9199">Setup</text><text fill="#000000" font-family="sans-serif" font-size="18" lengthAdjust="spacing" textLength="83.0391" x="588.0044" y="133.9199">Test Code</text><text fill="#000000" font-family="sans-serif" font-size="18" lengthAdjust="spacing" textLength="192.0498" x="1117.5942" y="133.9199">InMemoryCosmosClient</text><text fill="#000000" font-family="sans-serif" font-size="18" lengthAdjust="spacing" textLength="157.0693" x="1617.0579" y="133.9199">InMemoryDatabase</text><text fill="#000000" font-family="sans-serif" font-size="18" lengthAdjust="spacing" textLength="158.0625" x="2020.8638" y="133.9199">InMemoryContainer</text><text fill="#000000" font-family="sans-serif" font-size="18" lengthAdjust="spacing" textLength="145.0459" x="2282.1318" y="133.9199">CosmosSqlParser</text><text fill="#000000" font-family="sans-serif" font-size="18" lengthAdjust="spacing" textLength="317.0918" x="2472.3481" y="133.9199">InMemoryContainer.FilterItemsByQuery</text><text fill="#000000" font-family="sans-serif" font-size="18" lengthAdjust="spacing" textLength="210.085" x="2799.6006" y="133.9199">InMemoryFeedIterator&lt;T&gt;</text><!--SRC=[hLRRRjj647tdLmoG5qgHbRG9WiA9NT2wE4nrSKmwQP-ADJcIDg9swTsbRGLwo5C_eEWtzCFo9PrTKZIboBq0HG27uixrp9cpDDna2ErsaETAicG1tnz3ACQuachTatebTI_ZA0myRRmMXd612hv- -GFU5wZMCCpa7VXzf8CCqrQxxNbwoKNE55l1DKkMSoKBaVPa9XKy6GxiluP5a1X-oytwJAeKLMNruiMBGoRxmGO_35yE-mtB2wOCDroAdMYlNhtol4s4fiWtdZPauntt539ZknTuTx3hTjl_-kNFrcloZ54RwCaKD-J7ieoy3dbqpz7K014CVieCksOQmxG3oVOWJ5tCGm4eVBlzwzPBstXJ5QGfbT8CPSlollxsEvKaaa8fykppn7RDQ1oPbCiYT-TcGKscHvhD43BsUGs9RPhig00-Wpeeu3tNHl_O8WyKuAzHjpo0uqj2J8dob8jve-r-vTbkl_OmemY-aCxb8AmFrcIoYuhhcm11aV9P0vQjYuF4uL16ti6tWMa7ykteVyBr1JCBYxA5ipRQmNF7zNy3j8xwtn5jDFPl86tY0F2FI5Jm2ac159yl33b5nRN6cy8kU9EuVWiIuhY6EsuMPARP2k5XPYG6ZMIWN4DaHdrIYL4m7W0Nj6CYeN4xbR2-m3Ne1LEOaYbBbDGQx2BPJ7Ooja2mrUrjsoKco6yH7dJ7_mO1E-Wd8zlKkK8KnoSd9n2z7pNLYLvvFa-fLKuPmKYeDU-xrcPd6wkW3vjEs8G6LouQFIXcf7eJdrh-tTXtCTwRShsvA1mPOhb4qI5ew5oRQMxVQKV7AkIGPnJ8HjLdQnTuBveJCoGRVIZCfjICw2OZkTEkrdRRFHAnwoXRHbUc9Hf157j-X1acPiWnIod-nmKgxC3KwkNPkkETay3cz01znz64oebbJWQpcKRwCU8hRlOah0Aj-srZs_qDiioz7afLQpHLkzUSAtb4UTzeesW_Jc6cvEhWMZhJckcmn3NCN7PoeuhZ4IrPaXMwN4ug8YZcAuhmaLZTawkyC9XUA9aZHK1DfLHwCRZFcKY7b3QIXR8azikoXfVJCIGGJY3fCgNOsW7OTA8UtqaYV-toRahMpXPc6JC61HLNi_KNp8YRZguVtmuk1q2r02UG75qfw2tBY53e1aGP56hjK7En7yvfkCrJ8509BKrhKrPXEOUr0PXrZlhO6t7BvQm3eLkB6KVLWGgGTP0aPDtnGf7YVVK3phZ5lGDNvN_3GhXPM4vx_ildJs5MlT4jCaPpXtOBGc4fiyIE5wCgFNkIPQWJ8Xr9aEDhnmiiIdLDq-jFnD3gvwOSNvvdwugR5c3I8JQVAvmJ0jhpUzEhIKm1hyOT23wSTs0SJkXFy7CrLkTUSRnaVZsbLP4PVZIpByatwZth3wAUzN8-17GylI1Odz7JT3YC1l7JKJWEOwlJRl6K_5IlKnqq6em6lHZoyh0cOKIqpX-dtpPZFupYSDAhSro9EyNo3pHlB9TtFy-7O7GriBRL1REpG_wxQ3evlB6qddqa2U4iuvyHwlMBJrytFf6sRaF4T4S2zpwExXRq1GZ-MwR7Kk4bQaBMte4a_eqRaAKJagT0hqNYkWROF99WOnq6GXSAdNZGr6s55snELAIx0jpFQCbpNpfrQdLZjaH_nUwjVO- -54shiceAD5q0fD3LmMvxL7HE3CPjUrHSeq5NVtaZaOeVCAThh0B1NjxLef_HsDoQZyB9- -fpcMLQmcCtaXM0pTvjNLr38ovkdB2owynczRVzFQAnzVd-cBk1hkFuhMwr6luzd9p2yzO3Dku0qsPEgp6sbICZZyfDrLk7Aqe2Z5XCf8QkKouQsZFebhGjdxUvjaxTM3O7Fxr5fNXQ5bQP72A8-vxlbYHzX41_wq_drUaU9x_nQ4ovyQ6YZSozlm00]--></g></svg>