<svg xmlns="http://www.w3.org/2000/svg" xmlns:xlink="http://www.w3.org/1999/xlink" contentStyleType="text/css" data-diagram-type="SEQUENCE" height="961px" preserveAspectRatio="none" style="width:1541px;height:961px;background:#FEFEFE;" version="1.1" viewBox="0 0 1541 961" width="1541px" zoomAndPan="magnify"><title>**Approach 2: InMemoryCosmosClient + InMemoryContainer &#8212; Query Flow (Abbreviated)**</title><defs/><g><rect fill="#FEFEFE" height="961" style="stroke:none;stroke-width:1;" width="1541" x="0" y="0"/><text fill="#000000" font-family="sans-serif" font-size="14" font-weight="bold" lengthAdjust="spacing" textLength="585.8057" x="473.8596" y="29.5332">Approach 2: InMemoryCosmosClient + InMemoryContainer &#8212; Query Flow (Abbreviated)</text><g><title>InMemoryCosmosClient</title><rect fill="#FFFFFF" height="145.9219" style="stroke:#181818;stroke-width:1;" width="10" x="340.3276" y="284.8828"/></g><g><title>InMemoryContainer</title><rect fill="#FFFFFF" height="193.3672" style="stroke:#181818;stroke-width:1;" width="10" x="1000.9956" y="505.5078"/></g><g><title>CosmosSqlParser</title><rect fill="#FFFFFF" height="30.3516" style="stroke:#181818;stroke-width:1;" width="10" x="1258.7188" y="535.8594"/></g><g><title>InMemoryFeedIterator.T.</title><rect fill="#FFFFFF" height="30.3516" style="stroke:#181818;stroke-width:1;" width="10" x="1420.8252" y="754.5781"/></g><rect fill="none" height="79.0547" style="stroke:#000000;stroke-width:1.5;" width="1514.5249" x="10" y="713.875"/><g><title>Test Code</title><rect fill="#000000" fill-opacity="0.00000" height="757.7656" width="8" x="51.293" y="121.2188"/><line style="stroke:#181818;stroke-width:0.5;stroke-dasharray:5,5;" x1="55" x2="55" y1="121.2188" y2="878.9844"/></g><g><title>InMemoryCosmosClient</title><rect fill="#000000" fill-opacity="0.00000" height="672.1094" width="8" x="341.3276" y="206.875"/><line style="stroke:#181818;stroke-width:0.5;stroke-dasharray:5,5;" x1="344.6416" x2="344.6416" y1="206.875" y2="878.9844"/></g><g><title>InMemoryDatabase</title><rect fill="#000000" fill-opacity="0.00000" height="554.7969" width="8" x="673.6099" y="324.1875"/><line style="stroke:#181818;stroke-width:0.5;stroke-dasharray:5,5;" x1="677.5273" x2="677.5273" y1="324.1875" y2="878.9844"/></g><g><title>InMemoryContainer</title><rect fill="#000000" fill-opacity="0.00000" height="481.8359" width="8" x="1001.9956" y="397.1484"/><line style="stroke:#181818;stroke-width:0.5;stroke-dasharray:5,5;" x1="1005.5269" x2="1005.5269" y1="397.1484" y2="878.9844"/></g><g><title>CosmosSqlParser</title><rect fill="#000000" fill-opacity="0.00000" height="757.7656" width="8" x="1259.7188" y="121.2188"/><line style="stroke:#181818;stroke-width:0.5;stroke-dasharray:5,5;" x1="1263.312" x2="1263.312" y1="121.2188" y2="878.9844"/></g><g><title>InMemoryFeedIterator.T.</title><rect fill="#000000" fill-opacity="0.00000" height="213.7656" width="8" x="1421.8252" y="665.2188"/><line style="stroke:#181818;stroke-width:0.5;stroke-dasharray:5,5;" x1="1425.1255" x2="1425.1255" y1="665.2188" y2="878.9844"/></g><g class="participant participant-head" data-participant="Test"><text fill="#000000" font-family="sans-serif" font-size="14" lengthAdjust="spacing" textLength="64.5859" x="20" y="118.1426">Test Code</text><ellipse cx="55.293" cy="52.1094" fill="#E2E2F0" rx="8" ry="8" style="stroke:#181818;stroke-width:0.5;"/><path d="M55.293,60.1094 L55.293,87.1094 M42.293,68.1094 L68.293,68.1094 M55.293,87.1094 L42.293,102.1094 M55.293,87.1094 L68.293,102.1094" fill="none" style="stroke:#181818;stroke-width:0.5;"/></g><g class="participant participant-tail" data-participant="Test"><text fill="#000000" font-family="sans-serif" font-size="14" lengthAdjust="spacing" textLength="64.5859" x="20" y="892.5176">Test Code</text><ellipse cx="55.293" cy="904.0938" fill="#E2E2F0" rx="8" ry="8" style="stroke:#181818;stroke-width:0.5;"/><path d="M55.293,912.0938 L55.293,939.0938 M42.293,920.0938 L68.293,920.0938 M55.293,939.0938 L42.293,954.0938 M55.293,939.0938 L68.293,954.0938" fill="none" style="stroke:#181818;stroke-width:0.5;"/></g><g class="participant participant-tail" data-participant="Client"><rect fill="#E2E2F0" height="31.6094" rx="2.5" ry="2.5" style="stroke:#181818;stroke-width:0.5;" width="163.3721" x="263.6416" y="877.9844"/><text fill="#000000" font-family="sans-serif" font-size="14" lengthAdjust="spacing" textLength="149.3721" x="270.6416" y="899.5176">InMemoryCosmosClient</text></g><g class="participant participant-tail" data-participant="DB"><rect fill="#E2E2F0" height="31.6094" rx="2.5" ry="2.5" style="stroke:#181818;stroke-width:0.5;" width="136.165" x="609.5273" y="877.9844"/><text fill="#000000" font-family="sans-serif" font-size="14" lengthAdjust="spacing" textLength="122.165" x="616.5273" y="899.5176">InMemoryDatabase</text></g><g class="participant participant-tail" data-participant="IMC"><rect fill="#E2E2F0" height="31.6094" rx="2.5" ry="2.5" style="stroke:#181818;stroke-width:0.5;" width="136.9375" x="937.5269" y="877.9844"/><text fill="#000000" font-family="sans-serif" font-size="14" lengthAdjust="spacing" textLength="122.9375" x="944.5269" y="899.5176">InMemoryContainer</text></g><g class="participant participant-head" data-participant="Parser"><rect fill="#E2E2F0" height="31.6094" rx="2.5" ry="2.5" style="stroke:#181818;stroke-width:0.5;" width="126.8135" x="1200.312" y="88.6094"/><text fill="#000000" font-family="sans-serif" font-size="14" lengthAdjust="spacing" textLength="112.8135" x="1207.312" y="110.1426">CosmosSqlParser</text></g><g class="participant participant-tail" data-participant="Parser"><rect fill="#E2E2F0" height="31.6094" rx="2.5" ry="2.5" style="stroke:#181818;stroke-width:0.5;" width="126.8135" x="1200.312" y="877.9844"/><text fill="#000000" font-family="sans-serif" font-size="14" lengthAdjust="spacing" textLength="112.8135" x="1207.312" y="899.5176">CosmosSqlParser</text></g><g class="participant participant-tail" data-participant="FeedIter"><rect fill="#E2E2F0" height="31.6094" rx="2.5" ry="2.5" style="stroke:#181818;stroke-width:0.5;" width="177.3994" x="1337.1255" y="877.9844"/><text fill="#000000" font-family="sans-serif" font-size="14" lengthAdjust="spacing" textLength="163.3994" x="1344.1255" y="899.5176">InMemoryFeedIterator&lt;T&gt;</text></g><g><title>InMemoryCosmosClient</title><rect fill="#FFFFFF" height="145.9219" style="stroke:#181818;stroke-width:1;" width="10" x="340.3276" y="284.8828"/></g><g><title>InMemoryContainer</title><rect fill="#FFFFFF" height="193.3672" style="stroke:#181818;stroke-width:1;" width="10" x="1000.9956" y="505.5078"/></g><g><title>CosmosSqlParser</title><rect fill="#FFFFFF" height="30.3516" style="stroke:#181818;stroke-width:1;" width="10" x="1258.7188" y="535.8594"/></g><g><title>InMemoryFeedIterator.T.</title><rect fill="#FFFFFF" height="30.3516" style="stroke:#181818;stroke-width:1;" width="10" x="1420.8252" y="754.5781"/></g><rect fill="#EEEEEE" height="3" style="stroke:#EEEEEE;stroke-width:1;" width="1534.5249" x="0" y="152.3945"/><line style="stroke:#000000;stroke-width:1;" x1="0" x2="1534.5249" y1="152.3945" y2="152.3945"/><line style="stroke:#000000;stroke-width:1;" x1="0" x2="1534.5249" y1="155.3945" y2="155.3945"/><rect fill="#EEEEEE" height="24.3516" style="stroke:#000000;stroke-width:2;" width="53.7236" x="740.4006" y="141.2188"/><text fill="#000000" font-family="sans-serif" font-size="13" font-weight="bold" lengthAdjust="spacing" textLength="36.1118" x="746.4006" y="158.7139">Setup</text><g class="message" data-participant-1="Test" data-participant-2="Client"><polygon fill="#181818" points="251.6416,193.9219,261.6416,197.9219,251.6416,201.9219,255.6416,197.9219" style="stroke:#181818;stroke-width:1;"/><line style="stroke:#181818;stroke-width:2;" x1="55.293" x2="257.6416" y1="197.9219" y2="197.9219"/><text fill="#000000" font-family="sans-serif" font-size="13" lengthAdjust="spacing" textLength="184.3486" x="62.293" y="193.0654">new InMemoryCosmosClient(&#8230;)</text></g><rect fill="#E2E2F0" height="31.6094" rx="2.5" ry="2.5" style="stroke:#181818;stroke-width:0.5;" width="163.3721" x="263.6416" y="175.5703"/><text fill="#000000" font-family="sans-serif" font-size="14" lengthAdjust="spacing" textLength="149.3721" x="270.6416" y="197.1035">InMemoryCosmosClient</text><rect fill="#EEEEEE" height="3" style="stroke:#EEEEEE;stroke-width:1;" width="1534.5249" x="0" y="239.3555"/><line style="stroke:#000000;stroke-width:1;" x1="0" x2="1534.5249" y1="239.3555" y2="239.3555"/><line style="stroke:#000000;stroke-width:1;" x1="0" x2="1534.5249" y1="242.3555" y2="242.3555"/><rect fill="#EEEEEE" height="24.3516" style="stroke:#000000;stroke-width:2;" width="194.5908" x="669.967" y="228.1797"/><text fill="#000000" font-family="sans-serif" font-size="13" font-weight="bold" lengthAdjust="spacing" textLength="176.979" x="675.967" y="245.6748">Get Container (lazy creation)</text><g class="message" data-participant-1="Test" data-participant-2="Client"><polygon fill="#181818" points="328.3276,280.8828,338.3276,284.8828,328.3276,288.8828,332.3276,284.8828" style="stroke:#181818;stroke-width:1;"/><line style="stroke:#181818;stroke-width:2;" x1="55.293" x2="334.3276" y1="284.8828" y2="284.8828"/><text fill="#000000" font-family="sans-serif" font-size="13" lengthAdjust="spacing" textLength="221.8569" x="62.293" y="280.0264">GetContainer(databaseId, containerId)</text></g><g class="message" data-participant-1="Client" data-participant-2="DB"><polygon fill="#181818" points="597.5273,311.2344,607.5273,315.2344,597.5273,319.2344,601.5273,315.2344" style="stroke:#181818;stroke-width:1;"/><line style="stroke:#181818;stroke-width:2;" x1="350.3276" x2="603.5273" y1="315.2344" y2="315.2344"/><text fill="#000000" font-family="sans-serif" font-size="13" lengthAdjust="spacing" textLength="235.1997" x="357.3276" y="310.3779">GetOrAdd &#8594; InMemoryDatabase [if new]</text></g><rect fill="#E2E2F0" height="31.6094" rx="2.5" ry="2.5" style="stroke:#181818;stroke-width:0.5;" width="136.165" x="609.5273" y="292.8828"/><text fill="#000000" font-family="sans-serif" font-size="14" lengthAdjust="spacing" textLength="122.165" x="616.5273" y="314.416">InMemoryDatabase</text><g class="message" data-participant-1="Client" data-participant-2="DB"><polygon fill="#181818" points="665.6099,353.8438,675.6099,357.8438,665.6099,361.8438,669.6099,357.8438" style="stroke:#181818;stroke-width:1;"/><line style="stroke:#181818;stroke-width:2;" x1="350.3276" x2="671.6099" y1="357.8438" y2="357.8438"/><text fill="#000000" font-family="sans-serif" font-size="13" lengthAdjust="spacing" textLength="139.439" x="357.3276" y="352.9873">GetOrCreateContainer()</text></g><g class="message" data-participant-1="DB" data-participant-2="IMC"><polygon fill="#181818" points="925.5269,384.1953,935.5269,388.1953,925.5269,392.1953,929.5269,388.1953" style="stroke:#181818;stroke-width:1;"/><line style="stroke:#181818;stroke-width:2;" x1="677.6099" x2="931.5269" y1="388.1953" y2="388.1953"/><text fill="#000000" font-family="sans-serif" font-size="13" lengthAdjust="spacing" textLength="235.917" x="684.6099" y="383.3389">GetOrAdd &#8594; InMemoryContainer [if new]</text></g><rect fill="#E2E2F0" height="31.6094" rx="2.5" ry="2.5" style="stroke:#181818;stroke-width:0.5;" width="136.9375" x="937.5269" y="365.8438"/><text fill="#000000" font-family="sans-serif" font-size="14" lengthAdjust="spacing" textLength="122.9375" x="944.5269" y="387.377">InMemoryContainer</text><g class="message" data-participant-1="Client" data-participant-2="Test"><polygon fill="#181818" points="66.293,426.8047,56.293,430.8047,66.293,434.8047,62.293,430.8047" style="stroke:#181818;stroke-width:1;"/><line style="stroke:#181818;stroke-width:2;stroke-dasharray:2,2;" x1="60.293" x2="344.3276" y1="430.8047" y2="430.8047"/><text fill="#000000" font-family="sans-serif" font-size="13" lengthAdjust="spacing" textLength="182.7935" x="72.293" y="425.9482">Container (InMemoryContainer)</text></g><rect fill="#EEEEEE" height="3" style="stroke:#EEEEEE;stroke-width:1;" width="1534.5249" x="0" y="459.9805"/><line style="stroke:#000000;stroke-width:1;" x1="0" x2="1534.5249" y1="459.9805" y2="459.9805"/><line style="stroke:#000000;stroke-width:1;" x1="0" x2="1534.5249" y1="462.9805" y2="462.9805"/><rect fill="#EEEEEE" height="24.3516" style="stroke:#000000;stroke-width:2;" width="276.9326" x="628.7961" y="448.8047"/><text fill="#000000" font-family="sans-serif" font-size="13" font-weight="bold" lengthAdjust="spacing" textLength="259.3208" x="634.7961" y="466.2998">Query Execution (identical to Approach 1)</text><g class="message" data-participant-1="Test" data-participant-2="IMC"><polygon fill="#181818" points="988.9956,501.5078,998.9956,505.5078,988.9956,509.5078,992.9956,505.5078" style="stroke:#181818;stroke-width:1;"/><line style="stroke:#181818;stroke-width:2;" x1="55.293" x2="994.9956" y1="505.5078" y2="505.5078"/><text fill="#000000" font-family="sans-serif" font-size="13" lengthAdjust="spacing" textLength="212.4053" x="62.293" y="500.6514">GetItemQueryIterator&lt;T&gt;(queryText)</text></g><g class="message" data-participant-1="IMC" data-participant-2="Parser"><polygon fill="#181818" points="1246.7188,531.8594,1256.7188,535.8594,1246.7188,539.8594,1250.7188,535.8594" style="stroke:#181818;stroke-width:1;"/><line style="stroke:#181818;stroke-width:2;" x1="1010.9956" x2="1252.7188" y1="535.8594" y2="535.8594"/><text fill="#000000" font-family="sans-serif" font-size="13" lengthAdjust="spacing" textLength="100.4199" x="1017.9956" y="531.0029">Parse(queryText)</text></g><g class="message" data-participant-1="Parser" data-participant-2="IMC"><polygon fill="#181818" points="1021.9956,562.2109,1011.9956,566.2109,1021.9956,570.2109,1017.9956,566.2109" style="stroke:#181818;stroke-width:1;"/><line style="stroke:#181818;stroke-width:2;stroke-dasharray:2,2;" x1="1015.9956" x2="1262.7188" y1="566.2109" y2="566.2109"/><text fill="#000000" font-family="sans-serif" font-size="13" lengthAdjust="spacing" textLength="139.4199" x="1027.9956" y="561.3545">CosmosSqlQuery (AST)</text></g><g class="message" data-participant-1="IMC" data-participant-2="IMC"><line style="stroke:#181818;stroke-width:2;" x1="1010.9956" x2="1052.9956" y1="612.9141" y2="612.9141"/><line style="stroke:#181818;stroke-width:2;" x1="1052.9956" x2="1052.9956" y1="612.9141" y2="625.9141"/><line style="stroke:#181818;stroke-width:2;" x1="1011.9956" x2="1052.9956" y1="625.9141" y2="625.9141"/><polygon fill="#181818" points="1021.9956,621.9141,1011.9956,625.9141,1021.9956,629.9141,1017.9956,625.9141" style="stroke:#181818;stroke-width:1;"/><text fill="#000000" font-family="sans-serif" font-size="13" lengthAdjust="spacing" textLength="119.9009" x="1017.9956" y="591.7061">FilterItemsByQuery()</text><text fill="#000000" font-family="sans-serif" font-size="13" lengthAdjust="spacing" textLength="223.7231" x="1017.9956" y="608.0576">&#8594; WHERE / ORDER BY / SELECT / &#8230;</text></g><g class="message" data-participant-1="IMC" data-participant-2="FeedIter"><polygon fill="#181818" points="1325.1255,652.2656,1335.1255,656.2656,1325.1255,660.2656,1329.1255,656.2656" style="stroke:#181818;stroke-width:1;"/><line style="stroke:#181818;stroke-width:2;" x1="1010.9956" x2="1331.1255" y1="656.2656" y2="656.2656"/><text fill="#000000" font-family="sans-serif" font-size="13" lengthAdjust="spacing" textLength="151.728" x="1017.9956" y="651.4092">InMemoryFeedIterator&lt;T&gt;</text></g><rect fill="#E2E2F0" height="31.6094" rx="2.5" ry="2.5" style="stroke:#181818;stroke-width:0.5;" width="177.3994" x="1337.1255" y="633.9141"/><text fill="#000000" font-family="sans-serif" font-size="14" lengthAdjust="spacing" textLength="163.3994" x="1344.1255" y="655.4473">InMemoryFeedIterator&lt;T&gt;</text><g class="message" data-participant-1="IMC" data-participant-2="Test"><polygon fill="#181818" points="66.293,694.875,56.293,698.875,66.293,702.875,62.293,698.875" style="stroke:#181818;stroke-width:1;"/><line style="stroke:#181818;stroke-width:2;stroke-dasharray:2,2;" x1="60.293" x2="1004.9956" y1="698.875" y2="698.875"/><text fill="#000000" font-family="sans-serif" font-size="13" lengthAdjust="spacing" textLength="93.939" x="72.293" y="694.0186">FeedIterator&lt;T&gt;</text></g><path d="M10,713.875 L82.4346,713.875 L82.4346,722.2266 L72.4346,732.2266 L10,732.2266 L10,713.875" fill="#EEEEEE" style="stroke:#000000;stroke-width:1.5;"/><rect fill="none" height="79.0547" style="stroke:#000000;stroke-width:1.5;" width="1514.5249" x="10" y="713.875"/><text fill="#000000" font-family="sans-serif" font-size="13" font-weight="bold" lengthAdjust="spacing" textLength="27.4346" x="25" y="728.3701">loop</text><text fill="#000000" font-family="sans-serif" font-size="11" font-weight="bold" lengthAdjust="spacing" textLength="124.083" x="97.4346" y="727.2939">[while HasMoreResults]</text><g class="message" data-participant-1="Test" data-participant-2="FeedIter"><polygon fill="#181818" points="1408.8252,750.5781,1418.8252,754.5781,1408.8252,758.5781,1412.8252,754.5781" style="stroke:#181818;stroke-width:1;"/><line style="stroke:#181818;stroke-width:2;" x1="55.293" x2="1414.8252" y1="754.5781" y2="754.5781"/><text fill="#000000" font-family="sans-serif" font-size="13" lengthAdjust="spacing" textLength="101.8672" x="62.293" y="749.7217">ReadNextAsync()</text></g><g class="message" data-participant-1="FeedIter" data-participant-2="Test"><polygon fill="#181818" points="66.293,780.9297,56.293,784.9297,66.293,788.9297,62.293,784.9297" style="stroke:#181818;stroke-width:1;"/><line style="stroke:#181818;stroke-width:2;stroke-dasharray:2,2;" x1="60.293" x2="1424.8252" y1="784.9297" y2="784.9297"/><text fill="#000000" font-family="sans-serif" font-size="13" lengthAdjust="spacing" textLength="111.2935" x="72.293" y="780.0732">FeedResponse&lt;T&gt;</text></g><path d="M858,804.9297 L858,863.9297 L1153,863.9297 L1153,814.9297 L1143,804.9297 L858,804.9297" fill="#FEFFDD" style="stroke:#181818;stroke-width:0.5;"/><path d="M1143,804.9297 L1143,814.9297 L1153,814.9297 L1143,804.9297" fill="#FEFFDD" style="stroke:#181818;stroke-width:0.5;"/><text fill="#000000" font-family="sans-serif" font-size="13" lengthAdjust="spacing" textLength="224.0088" x="864" y="823.4248">LINQ flow also identical to Approach 1:</text><text fill="#000000" font-family="sans-serif" font-size="13" lengthAdjust="spacing" textLength="274.9297" x="864" y="839.7764">GetItemLinqQueryable&lt;T&gt;() &#8594; LINQ-to-Objects</text><text fill="#000000" font-family="sans-serif" font-size="13" lengthAdjust="spacing" textLength="180.2798" x="864" y="856.1279">&#8594; .ToFeedIteratorOverridable()</text><!--SRC=[VLJ1Rjf04BtlLupIYmsbLND49H8Oqo0beG5BLTNsi7WdpJPcr-mk8VIKKp-WwZVqm_8bdVNQ119ISM1Pl_VcpPinJhe2eTNgbwNHFB-6uowCrJakjDaasYwqJGg9oa5xvrevBXKQUBZ_0vShD1iO5NeDKNy-DtWhkKCHjrgCsHkfIcxu0kOyl_bkz4g9H1VQmAjHwZyx28lB5QeS-yReTNOjynk5ri8nOpntn3ZAq3f8jC0Zu1RyBqPC9tDPSl9tTCXr1Gt7m-0XTtpERT0S3bvIh1kkKEFpP1yM2iwMnKTkR0qAnyDo8qGnTcWujVK-EwdmpHrZlHxCqArAwFLOrNBdfEw0fWHTKBW-EA3euVvlND4_eC-fcL5Ky9yRo0ro9xMAlUnJtNQRT8cr9KMYZcKiNaFUt8v5p6e6SOU3u8Tu4zCN0Xv-_OQdiS8NUUKTVzidrgp4cyB7gZ6ZPuIWXF-Z_TZQCt7YXjOwHDw9u1ar11LMDxt3VEMpWKWAaf4vBy1fsBuHx_P3y-wQn6XaYqfbPvxHqbzaUETYvh542TiGMDLv5rC_xDJIjVTwfOB5g3_BjcB-gmiZML19NzyEDXKgYhygdzEdqtIQmbkOJ8Vf50QVwJXBpz8aemFjI2FJR5n8-eNT3E2zM9yYMA5r2UjhINyZfzoUQuDJjAl2MGRGPBOjLaKmHIukgFU-tQYSfWwFpv_N8h5IAuk-5Yh1cD8EGTyIsB-906VZYqkuyly_lB0QNfXXbv3rmCwaMbQ9yNdXPQEusY-lqt6wCvd_mBnoxs_VP7gtumdLDL9u9XadF-3ji7y0]--></g></svg>