<svg xmlns="http://www.w3.org/2000/svg" xmlns:xlink="http://www.w3.org/1999/xlink" contentStyleType="text/css" data-diagram-type="ACTIVITY" height="1222px" preserveAspectRatio="none" style="width:633px;height:1222px;background:#FEFEFE;" version="1.1" viewBox="0 0 633 1222" width="633px" zoomAndPan="magnify"><title>**Approach 2: InMemoryCosmosClient + InMemoryContainer &#8212; Query Flow (Abbreviated)**</title><defs/><g><rect fill="#FEFEFE" height="1222" style="stroke:none;stroke-width:1;" width="633" x="0" y="0"/><g class="title" data-source-line="1"><text fill="#000000" font-family="sans-serif" font-size="14" font-weight="bold" lengthAdjust="spacing" textLength="585.8057" x="22.3594" y="34.5332">Approach 2: InMemoryCosmosClient + InMemoryContainer &#8212; Query Flow (Abbreviated)</text></g><ellipse cx="159.7158" cy="58.6094" fill="#222222" rx="10" ry="10" style="stroke:#222222;stroke-width:1;"/><rect fill="none" height="84.7031" style="stroke:#666666;stroke-width:1.5;" width="210.168" x="54.6318" y="78.6094"/><path d="M101.2178,78.6094 L101.2178,89.2188 L91.2178,99.2188 L54.6318,99.2188" fill="none" style="stroke:#666666;stroke-width:1.5;"/><text fill="#000000" font-family="sans-serif" font-size="14" lengthAdjust="spacing" textLength="36.5859" x="57.6318" y="94.1426">Setup</text><rect fill="#E8F4FD" height="35.0938" rx="12.5" ry="12.5" style="stroke:#333333;stroke-width:0.5;" width="190.168" x="64.6318" y="116.2188"/><text fill="#000000" font-family="sans-serif" font-size="12" lengthAdjust="spacing" textLength="170.168" x="74.6318" y="138.6758">new InMemoryCosmosClient(&#8230;)</text><rect fill="none" height="84.7031" style="stroke:#666666;stroke-width:1.5;" width="273.4316" x="23" y="173.3125"/><path d="M97.5859,173.3125 L97.5859,183.9219 L87.5859,193.9219 L23,193.9219" fill="none" style="stroke:#666666;stroke-width:1.5;"/><text fill="#000000" font-family="sans-serif" font-size="14" lengthAdjust="spacing" textLength="64.5859" x="26" y="188.8457">Test Code</text><rect fill="#E8F4FD" height="35.0938" rx="12.5" ry="12.5" style="stroke:#333333;stroke-width:0.5;" width="253.4316" x="33" y="210.9219"/><text fill="#000000" font-family="sans-serif" font-size="12" lengthAdjust="spacing" textLength="20.6719" x="43" y="233.3789">Call</text><text fill="#000000" font-family="sans-serif" font-size="12" font-weight="bold" lengthAdjust="spacing" textLength="76.0078" x="67.0059" y="233.3789">GetContainer</text><text fill="#000000" font-family="sans-serif" font-size="12" lengthAdjust="spacing" textLength="133.418" x="143.0137" y="233.3789">(databaseId, containerId)</text><rect fill="none" height="99.7969" style="stroke:#666666;stroke-width:1.5;" width="231.7539" x="43.8389" y="268.0156"/><path d="M203.2109,268.0156 L203.2109,278.625 L193.2109,288.625 L43.8389,288.625" fill="none" style="stroke:#666666;stroke-width:1.5;"/><text fill="#000000" font-family="sans-serif" font-size="14" lengthAdjust="spacing" textLength="149.3721" x="46.8389" y="283.5488">InMemoryCosmosClient</text><rect fill="#E8F4FD" height="50.1875" rx="12.5" ry="12.5" style="stroke:#333333;stroke-width:0.5;" width="211.7539" x="53.8389" y="305.625"/><text fill="#000000" font-family="sans-serif" font-size="12" lengthAdjust="spacing" textLength="186.7852" x="63.8389" y="328.082">_databases.GetOrAdd(databaseId)</text><text fill="#000000" font-family="sans-serif" font-size="12" lengthAdjust="spacing" textLength="10.3535" x="63.8389" y="343.1758">&#8594;</text><text fill="#000000" font-family="sans-serif" font-size="12" font-weight="bold" lengthAdjust="spacing" textLength="110.0391" x="77.5264" y="343.1758">InMemoryDatabase</text><text fill="#000000" font-family="sans-serif" font-size="12" lengthAdjust="spacing" textLength="64.6934" x="190.8994" y="343.1758">[lazy create]</text><rect fill="none" height="99.7969" style="stroke:#666666;stroke-width:1.5;" width="234.3965" x="42.5176" y="377.8125"/><path d="M174.6826,377.8125 L174.6826,388.4219 L164.6826,398.4219 L42.5176,398.4219" fill="none" style="stroke:#666666;stroke-width:1.5;"/><text fill="#000000" font-family="sans-serif" font-size="14" lengthAdjust="spacing" textLength="122.165" x="45.5176" y="393.3457">InMemoryDatabase</text><rect fill="#E8F4FD" height="50.1875" rx="12.5" ry="12.5" style="stroke:#333333;stroke-width:0.5;" width="214.3965" x="52.5176" y="415.4219"/><text fill="#000000" font-family="sans-serif" font-size="12" lengthAdjust="spacing" textLength="186.7617" x="62.5176" y="437.8789">_containers.GetOrAdd(containerId)</text><text fill="#000000" font-family="sans-serif" font-size="12" lengthAdjust="spacing" textLength="10.3535" x="62.5176" y="452.9727">&#8594;</text><text fill="#000000" font-family="sans-serif" font-size="12" font-weight="bold" lengthAdjust="spacing" textLength="112.6816" x="76.2051" y="452.9727">InMemoryContainer</text><text fill="#000000" font-family="sans-serif" font-size="12" lengthAdjust="spacing" textLength="64.6934" x="192.2207" y="452.9727">[lazy create]</text><rect fill="none" height="139.7969" style="stroke:#666666;stroke-width:1.5;" width="267.4023" x="26.0146" y="487.6094"/><path d="M100.6006,487.6094 L100.6006,498.2188 L90.6006,508.2188 L26.0146,508.2188" fill="none" style="stroke:#666666;stroke-width:1.5;"/><text fill="#000000" font-family="sans-serif" font-size="14" lengthAdjust="spacing" textLength="64.5859" x="29.0146" y="503.1426">Test Code</text><rect fill="#E8F4FD" height="35.0938" rx="12.5" ry="12.5" style="stroke:#333333;stroke-width:0.5;" width="235.4199" x="42.0059" y="525.2188"/><text fill="#000000" font-family="sans-serif" font-size="12" lengthAdjust="spacing" textLength="215.4199" x="52.0059" y="547.6758">Receive Container (InMemoryContainer)</text><rect fill="#E8F4FD" height="35.0938" rx="12.5" ry="12.5" style="stroke:#333333;stroke-width:0.5;" width="247.4023" x="36.0146" y="580.3125"/><text fill="#000000" font-family="sans-serif" font-size="12" lengthAdjust="spacing" textLength="20.6719" x="46.0146" y="602.7695">Call</text><text fill="#000000" font-family="sans-serif" font-size="12" font-weight="bold" lengthAdjust="spacing" textLength="142.0488" x="70.0205" y="602.7695">GetItemQueryIterator&lt;T&gt;</text><text fill="#000000" font-family="sans-serif" font-size="12" lengthAdjust="spacing" textLength="61.3477" x="212.0693" y="602.7695">(queryText)</text><rect fill="none" height="84.7031" style="stroke:#666666;stroke-width:1.5;" width="150.6777" x="84.377" y="637.4063"/><path d="M217.3145,637.4063 L217.3145,648.0156 L207.3145,658.0156 L84.377,658.0156" fill="none" style="stroke:#666666;stroke-width:1.5;"/><text fill="#000000" font-family="sans-serif" font-size="14" lengthAdjust="spacing" textLength="122.9375" x="87.377" y="652.9395">InMemoryContainer</text><rect fill="#E8F4FD" height="35.0938" rx="12.5" ry="12.5" style="stroke:#333333;stroke-width:0.5;" width="130.6777" x="94.377" y="675.0156"/><text fill="#000000" font-family="sans-serif" font-size="12" lengthAdjust="spacing" textLength="110.6777" x="104.377" y="697.4727">FilterItemsByQuery()</text><rect fill="none" height="84.7031" style="stroke:#666666;stroke-width:1.5;" width="270.4199" x="24.5059" y="732.1094"/><path d="M147.3193,732.1094 L147.3193,742.7188 L137.3193,752.7188 L24.5059,752.7188" fill="none" style="stroke:#666666;stroke-width:1.5;"/><text fill="#000000" font-family="sans-serif" font-size="14" lengthAdjust="spacing" textLength="112.8135" x="27.5059" y="747.6426">CosmosSqlParser</text><rect fill="#E8F4FD" height="35.0938" rx="12.5" ry="12.5" style="stroke:#333333;stroke-width:0.5;" width="250.4199" x="34.5059" y="769.7188"/><text fill="#000000" font-family="sans-serif" font-size="12" lengthAdjust="spacing" textLength="230.4199" x="44.5059" y="792.1758">Parse(queryText) &#8594; CosmosSqlQuery AST</text><rect fill="none" height="154.8906" style="stroke:#666666;stroke-width:1.5;" width="263.752" x="27.8398" y="826.8125"/><path d="M160.7773,826.8125 L160.7773,837.4219 L150.7773,847.4219 L27.8398,847.4219" fill="none" style="stroke:#666666;stroke-width:1.5;"/><text fill="#000000" font-family="sans-serif" font-size="14" lengthAdjust="spacing" textLength="122.9375" x="30.8398" y="842.3457">InMemoryContainer</text><rect fill="#E8F4FD" height="50.1875" rx="12.5" ry="12.5" style="stroke:#333333;stroke-width:0.5;" width="212.8262" x="53.3027" y="864.4219"/><text fill="#000000" font-family="sans-serif" font-size="12" lengthAdjust="spacing" textLength="192.8262" x="63.3027" y="886.8789">WHERE / ORDER BY / SELECT / &#8230;</text><text fill="#000000" font-family="sans-serif" font-size="12" lengthAdjust="spacing" textLength="130.0723" x="63.3027" y="901.9727">(identical to Approach 1)</text><rect fill="#E8F4FD" height="35.0938" rx="12.5" ry="12.5" style="stroke:#333333;stroke-width:0.5;" width="243.752" x="37.8398" y="934.6094"/><text fill="#000000" font-family="sans-serif" font-size="12" lengthAdjust="spacing" textLength="73.043" x="47.8398" y="957.0664">Deserialize &#8594;</text><text fill="#000000" font-family="sans-serif" font-size="12" font-weight="bold" lengthAdjust="spacing" textLength="147.375" x="124.2168" y="957.0664">InMemoryFeedIterator&lt;T&gt;</text><rect fill="none" height="177.583" style="stroke:#666666;stroke-width:1.5;" width="611.5244" x="11" y="991.7031"/><path d="M85.5859,991.7031 L85.5859,1002.3125 L75.5859,1012.3125 L11,1012.3125" fill="none" style="stroke:#666666;stroke-width:1.5;"/><text fill="#000000" font-family="sans-serif" font-size="14" lengthAdjust="spacing" textLength="64.5859" x="14" y="1007.2363">Test Code</text><path d="M298.5947,1076.2314 L298.5947,1101.7588 L278.5947,1105.7588 L298.5947,1109.7588 L298.5947,1135.2861 A0,0 0 0 0 298.5947,1135.2861 L594.5244,1135.2861 A0,0 0 0 0 594.5244,1135.2861 L594.5244,1086.2314 L584.5244,1076.2314 L298.5947,1076.2314 A0,0 0 0 0 298.5947,1076.2314" fill="#FEFFDD" style="stroke:#181818;stroke-width:0.5;"/><path d="M584.5244,1076.2314 L584.5244,1086.2314 L594.5244,1086.2314 L584.5244,1076.2314" fill="#FEFFDD" style="stroke:#181818;stroke-width:0.5;"/><text fill="#000000" font-family="sans-serif" font-size="13" lengthAdjust="spacing" textLength="224.0088" x="304.5947" y="1094.7266">LINQ flow also identical to Approach 1:</text><text fill="#000000" font-family="sans-serif" font-size="13" lengthAdjust="spacing" textLength="274.9297" x="304.5947" y="1111.0781">GetItemLinqQueryable&lt;T&gt;() &#8594; LINQ-to-Objects</text><text fill="#000000" font-family="sans-serif" font-size="13" lengthAdjust="spacing" textLength="180.2798" x="304.5947" y="1127.4297">&#8594; .ToFeedIteratorOverridable()</text><rect fill="#E8F4FD" height="35.0938" rx="12.5" ry="12.5" style="stroke:#333333;stroke-width:0.5;" width="237.7578" x="40.8369" y="1088.2119"/><text fill="#000000" font-family="sans-serif" font-size="12" lengthAdjust="spacing" textLength="107.7188" x="50.8369" y="1110.6689">ReadNextAsync() &#8594;</text><text fill="#000000" font-family="sans-serif" font-size="12" font-weight="bold" lengthAdjust="spacing" textLength="106.7051" x="161.8896" y="1110.6689">FeedResponse&lt;T&gt;</text><polygon fill="#E8F4FD" points="116.0059,1029.3125,203.4258,1029.3125,215.4258,1041.3125,203.4258,1053.3125,116.0059,1053.3125,104.0059,1041.3125,116.0059,1029.3125" style="stroke:#333333;stroke-width:0.5;"/><text fill="#000000" font-family="sans-serif" font-size="11" lengthAdjust="spacing" textLength="17.1177" x="163.7158" y="1064.7314">yes</text><text fill="#000000" font-family="sans-serif" font-size="11" lengthAdjust="spacing" textLength="87.4199" x="116.0059" y="1045.8135">HasMoreResults?</text><text fill="#000000" font-family="sans-serif" font-size="11" lengthAdjust="spacing" textLength="12.2354" x="91.7705" y="1038.8955">no</text><ellipse cx="159.7158" cy="1200.2861" fill="none" rx="11" ry="11" style="stroke:#222222;stroke-width:1;"/><ellipse cx="159.7158" cy="1200.2861" fill="#222222" rx="6" ry="6" style="stroke:#222222;stroke-width:1;"/><line style="stroke:#181818;stroke-width:1;" x1="159.7158" x2="159.7158" y1="68.6094" y2="116.2188"/><polygon fill="#181818" points="155.7158,106.2188,159.7158,116.2188,163.7158,106.2188,159.7158,110.2188" style="stroke:#181818;stroke-width:1;"/><line style="stroke:#181818;stroke-width:1;" x1="159.7158" x2="159.7158" y1="151.3125" y2="210.9219"/><polygon fill="#181818" points="155.7158,200.9219,159.7158,210.9219,163.7158,200.9219,159.7158,204.9219" style="stroke:#181818;stroke-width:1;"/><line style="stroke:#181818;stroke-width:1;" x1="159.7158" x2="159.7158" y1="246.0156" y2="305.625"/><polygon fill="#181818" points="155.7158,295.625,159.7158,305.625,163.7158,295.625,159.7158,299.625" style="stroke:#181818;stroke-width:1;"/><line style="stroke:#181818;stroke-width:1;" x1="159.7158" x2="159.7158" y1="355.8125" y2="415.4219"/><polygon fill="#181818" points="155.7158,405.4219,159.7158,415.4219,163.7158,405.4219,159.7158,409.4219" style="stroke:#181818;stroke-width:1;"/><line style="stroke:#181818;stroke-width:1;" x1="159.7158" x2="159.7158" y1="560.3125" y2="580.3125"/><polygon fill="#181818" points="155.7158,570.3125,159.7158,580.3125,163.7158,570.3125,159.7158,574.3125" style="stroke:#181818;stroke-width:1;"/><line style="stroke:#181818;stroke-width:1;" x1="159.7158" x2="159.7158" y1="465.6094" y2="525.2188"/><polygon fill="#181818" points="155.7158,515.2188,159.7158,525.2188,163.7158,515.2188,159.7158,519.2188" style="stroke:#181818;stroke-width:1;"/><line style="stroke:#181818;stroke-width:1;" x1="159.7158" x2="159.7158" y1="615.4063" y2="675.0156"/><polygon fill="#181818" points="155.7158,665.0156,159.7158,675.0156,163.7158,665.0156,159.7158,669.0156" style="stroke:#181818;stroke-width:1;"/><line style="stroke:#181818;stroke-width:1;" x1="159.7158" x2="159.7158" y1="710.1094" y2="769.7188"/><polygon fill="#181818" points="155.7158,759.7188,159.7158,769.7188,163.7158,759.7188,159.7158,763.7188" style="stroke:#181818;stroke-width:1;"/><line style="stroke:#181818;stroke-width:1;" x1="159.7158" x2="159.7158" y1="914.6094" y2="934.6094"/><polygon fill="#181818" points="155.7158,924.6094,159.7158,934.6094,163.7158,924.6094,159.7158,928.6094" style="stroke:#181818;stroke-width:1;"/><line style="stroke:#181818;stroke-width:1;" x1="159.7158" x2="159.7158" y1="804.8125" y2="864.4219"/><polygon fill="#181818" points="155.7158,854.4219,159.7158,864.4219,163.7158,854.4219,159.7158,858.4219" style="stroke:#181818;stroke-width:1;"/><line style="stroke:#181818;stroke-width:1;" x1="159.7158" x2="159.7158" y1="1053.3125" y2="1088.2119"/><polygon fill="#181818" points="155.7158,1078.2119,159.7158,1088.2119,163.7158,1078.2119,159.7158,1082.2119" style="stroke:#181818;stroke-width:1;"/><line style="stroke:#181818;stroke-width:1;" x1="159.7158" x2="159.7158" y1="1123.3057" y2="1145.2861"/><line style="stroke:#181818;stroke-width:1;" x1="159.7158" x2="606.5244" y1="1145.2861" y2="1145.2861"/><polygon fill="#181818" points="602.5244,1096.8408,606.5244,1086.8408,610.5244,1096.8408,606.5244,1092.8408" style="stroke:#181818;stroke-width:1;"/><line style="stroke:#181818;stroke-width:1;" x1="606.5244" x2="606.5244" y1="1041.3125" y2="1145.2861"/><line style="stroke:#181818;stroke-width:1;" x1="606.5244" x2="215.4258" y1="1041.3125" y2="1041.3125"/><polygon fill="#181818" points="225.4258,1037.3125,215.4258,1041.3125,225.4258,1045.3125,221.4258,1041.3125" style="stroke:#181818;stroke-width:1;"/><line style="stroke:#181818;stroke-width:1;" x1="104.0059" x2="28.8369" y1="1041.3125" y2="1041.3125"/><polygon fill="#181818" points="24.8369,1082.8408,28.8369,1092.8408,32.8369,1082.8408,28.8369,1086.8408" style="stroke:#181818;stroke-width:1;"/><line style="stroke:#181818;stroke-width:1;" x1="28.8369" x2="28.8369" y1="1041.3125" y2="1157.2861"/><line style="stroke:#181818;stroke-width:1;" x1="28.8369" x2="159.7158" y1="1157.2861" y2="1157.2861"/><line style="stroke:#181818;stroke-width:1;" x1="159.7158" x2="159.7158" y1="1157.2861" y2="1189.2861"/><polygon fill="#181818" points="155.7158,1179.2861,159.7158,1189.2861,163.7158,1179.2861,159.7158,1183.2861" style="stroke:#181818;stroke-width:1;"/><line style="stroke:#181818;stroke-width:1;" x1="159.7158" x2="159.7158" y1="969.7031" y2="1029.3125"/><polygon fill="#181818" points="155.7158,1019.3125,159.7158,1029.3125,163.7158,1019.3125,159.7158,1023.3125" style="stroke:#181818;stroke-width:1;"/><!--SRC=[ZLJjRjCm5FsVfxWQVvB0Xg2eGWM1qZHbbRgLjP4GGWWvyMKrS-tCTbioXBHVF03Y6NYmFWbEcfJqOmFbZsEVUywzvrxRCCCHV3_8CYL9EeMd7HY8Cvn9bOTIpwGEEKDXu65ZMnZ212fOtVw2Ypcg7FfSBi4DaaJXWX63rFDznz5NJ6H4aHaa9BswL78kQ2YvLF2W7nLV0n6aXYsOoRjIKLGLgjLg7OBiaaNF-y_wlGRoBL666IR55bkxtROv6NlcE5cDWAC9cdbs1DySW8x0vS7otTNjR- -5ytqhC4Pj89GKg-2GS6wjV8DcOv7lkvGOaX2D0_e8qdf_GFVO3ibMn9zg3drYoKSgeBH1wrd8wiTFgrnJzAeptuSFdDpaa2gqJVbubsIDh-KsQJRqcgdl2JRglLznrx8nfiWM27zdojtZj4vjcJimE2kdpYuKCLAzZ5zPdw-BhHY_cdkShHWhyJxZbg6WqzsyP7JtOjVTc5npEr9w4rd-D1HBEpRGzPK89l7_9lBkD1f7y1X6uruqXkvxkvn4moYCxS8EdeMuZDfnO2dXO2HiBkkJjJSzjAanmjaDxZIcZqYtRFf7GvPJPfy3zvJeCwbmZ7hEZNxj0TFWvgYBpfTT8_JSrXteNAIkLsaMMZOYaq9ZfGM0WbQSGdg5jf06GR7BgR6dmy7v1NmktWx2jOGxYknOPDNt8HFNfRqauOL89Lxm71jvF4g-O6fqDPydiMpMFrgWKemMaQxdsCIWoALu4MJc_040]--></g></svg>