<svg xmlns="http://www.w3.org/2000/svg" xmlns:xlink="http://www.w3.org/1999/xlink" contentStyleType="text/css" data-diagram-type="ACTIVITY" height="979px" preserveAspectRatio="none" style="width:485px;height:979px;background:#FEFEFE;" version="1.1" viewBox="0 0 485 979" width="485px" zoomAndPan="magnify"><title>**Approach 1: InMemoryContainer &#8212; SQL Query Flow (Abbreviated)**</title><defs/><g><rect fill="#FEFEFE" height="979" style="stroke:none;stroke-width:1;" width="485" x="0" y="0"/><g class="title" data-source-line="1"><text fill="#000000" font-family="sans-serif" font-size="14" font-weight="bold" lengthAdjust="spacing" textLength="442.2715" x="20" y="34.5332">Approach 1: InMemoryContainer &#8212; SQL Query Flow (Abbreviated)</text></g><ellipse cx="242.6357" cy="58.6094" fill="#222222" rx="10" ry="10" style="stroke:#222222;stroke-width:1;"/><rect fill="none" height="84.7031" style="stroke:#666666;stroke-width:1.5;" width="267.4023" x="108.9346" y="78.6094"/><path d="M183.5205,78.6094 L183.5205,89.2188 L173.5205,99.2188 L108.9346,99.2188" fill="none" style="stroke:#666666;stroke-width:1.5;"/><text fill="#000000" font-family="sans-serif" font-size="14" lengthAdjust="spacing" textLength="64.5859" x="111.9346" y="94.1426">Test Code</text><rect fill="#E8F4FD" height="35.0938" rx="12.5" ry="12.5" style="stroke:#333333;stroke-width:0.5;" width="247.4023" x="118.9346" y="116.2188"/><text fill="#000000" font-family="sans-serif" font-size="12" lengthAdjust="spacing" textLength="20.6719" x="128.9346" y="138.6758">Call</text><text fill="#000000" font-family="sans-serif" font-size="12" font-weight="bold" lengthAdjust="spacing" textLength="142.0488" x="152.9404" y="138.6758">GetItemQueryIterator&lt;T&gt;</text><text fill="#000000" font-family="sans-serif" font-size="12" lengthAdjust="spacing" textLength="61.3477" x="294.9893" y="138.6758">(queryText)</text><rect fill="none" height="84.7031" style="stroke:#666666;stroke-width:1.5;" width="282.7422" x="101.2646" y="173.3125"/><path d="M234.2021,173.3125 L234.2021,183.9219 L224.2021,193.9219 L101.2646,193.9219" fill="none" style="stroke:#666666;stroke-width:1.5;"/><text fill="#000000" font-family="sans-serif" font-size="14" lengthAdjust="spacing" textLength="122.9375" x="104.2646" y="188.8457">InMemoryContainer</text><rect fill="#E8F4FD" height="35.0938" rx="12.5" ry="12.5" style="stroke:#333333;stroke-width:0.5;" width="262.7422" x="111.2646" y="210.9219"/><text fill="#000000" font-family="sans-serif" font-size="12" lengthAdjust="spacing" textLength="20.6719" x="121.2646" y="233.3789">Call</text><text fill="#000000" font-family="sans-serif" font-size="12" font-weight="bold" lengthAdjust="spacing" textLength="110.707" x="145.2705" y="233.3789">FilterItemsByQuery</text><text fill="#000000" font-family="sans-serif" font-size="12" lengthAdjust="spacing" textLength="108.0293" x="255.9775" y="233.3789">(queryText, params)</text><rect fill="none" height="84.7031" style="stroke:#666666;stroke-width:1.5;" width="277.082" x="104.0947" y="268.0156"/><path d="M226.9082,268.0156 L226.9082,278.625 L216.9082,288.625 L104.0947,288.625" fill="none" style="stroke:#666666;stroke-width:1.5;"/><text fill="#000000" font-family="sans-serif" font-size="14" lengthAdjust="spacing" textLength="112.8135" x="107.0947" y="283.5488">CosmosSqlParser</text><rect fill="#E8F4FD" height="35.0938" rx="12.5" ry="12.5" style="stroke:#333333;stroke-width:0.5;" width="257.082" x="114.0947" y="305.625"/><text fill="#000000" font-family="sans-serif" font-size="12" lengthAdjust="spacing" textLength="106.3828" x="124.0947" y="328.082">Parse(queryText) &#8594;</text><text fill="#000000" font-family="sans-serif" font-size="12" font-weight="bold" lengthAdjust="spacing" textLength="100.6934" x="233.8115" y="328.082">CosmosSqlQuery</text><text fill="#000000" font-family="sans-serif" font-size="12" lengthAdjust="spacing" textLength="23.3379" x="337.8389" y="328.082">AST</text><rect fill="none" height="225.0781" style="stroke:#666666;stroke-width:1.5;" width="266.627" x="109.3223" y="363.2949"/><path d="M365.9492,363.2949 L365.9492,373.9043 L355.9492,383.9043 L109.3223,383.9043" fill="none" style="stroke:#666666;stroke-width:1.5;"/><text fill="#000000" font-family="sans-serif" font-size="14" lengthAdjust="spacing" textLength="246.627" x="112.3223" y="378.8281">InMemoryContainer.FilterItemsByQuery</text><rect fill="#E8F4FD" height="50.1875" rx="12.5" ry="12.5" style="stroke:#333333;stroke-width:0.5;" width="153.0664" x="166.1025" y="400.9043"/><text fill="#000000" font-family="sans-serif" font-size="12" lengthAdjust="spacing" textLength="132.0293" x="176.1025" y="423.3613">GetAllItemsForPartition()</text><text fill="#000000" font-family="sans-serif" font-size="12" lengthAdjust="spacing" textLength="133.0664" x="176.1025" y="438.4551">&#8594; List&lt;string&gt; from store</text><rect fill="#E8F4FD" height="35.0938" rx="12.5" ry="12.5" style="stroke:#333333;stroke-width:0.5;" width="213.084" x="136.0938" y="471.0918"/><text fill="#000000" font-family="sans-serif" font-size="12" lengthAdjust="spacing" textLength="193.084" x="146.0938" y="493.5488">WHERE &#8594; EvaluateSqlExpression()</text><rect fill="#E8F4FD" height="50.1875" rx="12.5" ry="12.5" style="stroke:#333333;stroke-width:0.5;" width="227.0234" x="129.124" y="526.1855"/><text fill="#000000" font-family="sans-serif" font-size="12" lengthAdjust="spacing" textLength="170.6953" x="139.124" y="548.6426">GROUP BY / ORDER BY / TOP</text><text fill="#000000" font-family="sans-serif" font-size="12" lengthAdjust="spacing" textLength="207.0234" x="139.124" y="563.7363">OFFSET+LIMIT / SELECT / DISTINCT</text><rect fill="none" height="139.7969" style="stroke:#666666;stroke-width:1.5;" width="226.7266" x="129.2725" y="598.373"/><path d="M262.21,598.373 L262.21,608.9824 L252.21,618.9824 L129.2725,618.9824" fill="none" style="stroke:#666666;stroke-width:1.5;"/><text fill="#000000" font-family="sans-serif" font-size="14" lengthAdjust="spacing" textLength="122.9375" x="132.2725" y="613.9063">InMemoryContainer</text><rect fill="#E8F4FD" height="35.0938" rx="12.5" ry="12.5" style="stroke:#333333;stroke-width:0.5;" width="171.7344" x="156.7686" y="635.9824"/><text fill="#000000" font-family="sans-serif" font-size="12" lengthAdjust="spacing" textLength="151.7344" x="166.7686" y="658.4395">Deserialize JSON &#8594; List&lt;T&gt;</text><rect fill="#E8F4FD" height="35.0938" rx="12.5" ry="12.5" style="stroke:#333333;stroke-width:0.5;" width="206.7266" x="139.2725" y="691.0762"/><text fill="#000000" font-family="sans-serif" font-size="12" lengthAdjust="spacing" textLength="36.0176" x="149.2725" y="713.5332">Create</text><text fill="#000000" font-family="sans-serif" font-size="12" font-weight="bold" lengthAdjust="spacing" textLength="147.375" x="188.624" y="713.5332">InMemoryFeedIterator&lt;T&gt;</text><rect fill="none" height="178.7158" style="stroke:#666666;stroke-width:1.5;" width="243.4141" x="119.4287" y="748.1699"/><path d="M194.0146,748.1699 L194.0146,758.7793 L184.0146,768.7793 L119.4287,768.7793" fill="none" style="stroke:#666666;stroke-width:1.5;"/><text fill="#000000" font-family="sans-serif" font-size="14" lengthAdjust="spacing" textLength="64.5859" x="122.4287" y="763.7031">Test Code</text><rect fill="#E8F4FD" height="50.1875" rx="12.5" ry="12.5" style="stroke:#333333;stroke-width:0.5;" width="178.4141" x="153.4287" y="842.6982"/><text fill="#000000" font-family="sans-serif" font-size="12" lengthAdjust="spacing" textLength="94.0313" x="163.4287" y="865.1553">ReadNextAsync()</text><text fill="#000000" font-family="sans-serif" font-size="12" lengthAdjust="spacing" textLength="10.3535" x="163.4287" y="880.249">&#8594;</text><text fill="#000000" font-family="sans-serif" font-size="12" font-weight="bold" lengthAdjust="spacing" textLength="106.7051" x="177.1162" y="880.249">FeedResponse&lt;T&gt;</text><text fill="#000000" font-family="sans-serif" font-size="12" lengthAdjust="spacing" textLength="34.6875" x="287.1553" y="880.249">(page)</text><polygon fill="#E8F4FD" points="198.9258,785.7793,286.3457,785.7793,298.3457,797.7793,286.3457,809.7793,198.9258,809.7793,186.9258,797.7793,198.9258,785.7793" style="stroke:#333333;stroke-width:0.5;"/><text fill="#000000" font-family="sans-serif" font-size="11" lengthAdjust="spacing" textLength="17.1177" x="246.6357" y="821.1982">yes</text><text fill="#000000" font-family="sans-serif" font-size="11" lengthAdjust="spacing" textLength="87.4199" x="198.9258" y="802.2803">HasMoreResults?</text><text fill="#000000" font-family="sans-serif" font-size="11" lengthAdjust="spacing" textLength="12.2354" x="174.6904" y="795.3623">no</text><ellipse cx="242.6357" cy="957.8857" fill="none" rx="11" ry="11" style="stroke:#222222;stroke-width:1;"/><ellipse cx="242.6357" cy="957.8857" fill="#222222" rx="6" ry="6" style="stroke:#222222;stroke-width:1;"/><line style="stroke:#181818;stroke-width:1;" x1="242.6357" x2="242.6357" y1="68.6094" y2="116.2188"/><polygon fill="#181818" points="238.6357,106.2188,242.6357,116.2188,246.6357,106.2188,242.6357,110.2188" style="stroke:#181818;stroke-width:1;"/><line style="stroke:#181818;stroke-width:1;" x1="242.6357" x2="242.6357" y1="151.3125" y2="210.9219"/><polygon fill="#181818" points="238.6357,200.9219,242.6357,210.9219,246.6357,200.9219,242.6357,204.9219" style="stroke:#181818;stroke-width:1;"/><line style="stroke:#181818;stroke-width:1;" x1="242.6357" x2="242.6357" y1="246.0156" y2="305.625"/><polygon fill="#181818" points="238.6357,295.625,242.6357,305.625,246.6357,295.625,242.6357,299.625" style="stroke:#181818;stroke-width:1;"/><line style="stroke:#181818;stroke-width:1;" x1="242.6357" x2="242.6357" y1="451.0918" y2="471.0918"/><polygon fill="#181818" points="238.6357,461.0918,242.6357,471.0918,246.6357,461.0918,242.6357,465.0918" style="stroke:#181818;stroke-width:1;"/><line style="stroke:#181818;stroke-width:1;" x1="242.6357" x2="242.6357" y1="506.1855" y2="526.1855"/><polygon fill="#181818" points="238.6357,516.1855,242.6357,526.1855,246.6357,516.1855,242.6357,520.1855" style="stroke:#181818;stroke-width:1;"/><line style="stroke:#181818;stroke-width:1;" x1="242.6357" x2="242.6357" y1="340.7188" y2="400.9043"/><polygon fill="#181818" points="238.6357,390.9043,242.6357,400.9043,246.6357,390.9043,242.6357,394.9043" style="stroke:#181818;stroke-width:1;"/><line style="stroke:#181818;stroke-width:1;" x1="242.6357" x2="242.6357" y1="671.0762" y2="691.0762"/><polygon fill="#181818" points="238.6357,681.0762,242.6357,691.0762,246.6357,681.0762,242.6357,685.0762" style="stroke:#181818;stroke-width:1;"/><line style="stroke:#181818;stroke-width:1;" x1="242.6357" x2="242.6357" y1="576.373" y2="635.9824"/><polygon fill="#181818" points="238.6357,625.9824,242.6357,635.9824,246.6357,625.9824,242.6357,629.9824" style="stroke:#181818;stroke-width:1;"/><line style="stroke:#181818;stroke-width:1;" x1="242.6357" x2="242.6357" y1="809.7793" y2="842.6982"/><polygon fill="#181818" points="238.6357,832.6982,242.6357,842.6982,246.6357,832.6982,242.6357,836.6982" style="stroke:#181818;stroke-width:1;"/><line style="stroke:#181818;stroke-width:1;" x1="242.6357" x2="242.6357" y1="892.8857" y2="902.8857"/><line style="stroke:#181818;stroke-width:1;" x1="242.6357" x2="343.8428" y1="902.8857" y2="902.8857"/><polygon fill="#181818" points="339.8428,858.874,343.8428,848.874,347.8428,858.874,343.8428,854.874" style="stroke:#181818;stroke-width:1;"/><line style="stroke:#181818;stroke-width:1;" x1="343.8428" x2="343.8428" y1="797.7793" y2="902.8857"/><line style="stroke:#181818;stroke-width:1;" x1="343.8428" x2="298.3457" y1="797.7793" y2="797.7793"/><polygon fill="#181818" points="308.3457,793.7793,298.3457,797.7793,308.3457,801.7793,304.3457,797.7793" style="stroke:#181818;stroke-width:1;"/><line style="stroke:#181818;stroke-width:1;" x1="186.9258" x2="141.4287" y1="797.7793" y2="797.7793"/><polygon fill="#181818" points="137.4287,844.874,141.4287,854.874,145.4287,844.874,141.4287,848.874" style="stroke:#181818;stroke-width:1;"/><line style="stroke:#181818;stroke-width:1;" x1="141.4287" x2="141.4287" y1="797.7793" y2="914.8857"/><line style="stroke:#181818;stroke-width:1;" x1="141.4287" x2="242.6357" y1="914.8857" y2="914.8857"/><line style="stroke:#181818;stroke-width:1;" x1="242.6357" x2="242.6357" y1="914.8857" y2="946.8857"/><polygon fill="#181818" points="238.6357,936.8857,242.6357,946.8857,246.6357,936.8857,242.6357,940.8857" style="stroke:#181818;stroke-width:1;"/><line style="stroke:#181818;stroke-width:1;" x1="242.6357" x2="242.6357" y1="726.1699" y2="785.7793"/><polygon fill="#181818" points="238.6357,775.7793,242.6357,785.7793,246.6357,775.7793,242.6357,779.7793" style="stroke:#181818;stroke-width:1;"/><!--SRC=[ZPFVRjCm5CRlynH7uoRD40WLLMYRYj8qsOBwRqaGuj9j3fqrryvijrj0IBlY0H1Fk2VXnErA_o21SkFuVFcTxtnsBBS28GZ2gjAApMxWpHcaSeWBfUj8ISkuH0rFZxyWlnx0zH9r3ObGz-27qwd65MSMorOGU9wvvR9YcYrWocQtSwsMieoKK1fU977px2Z2cUKhRkkUqYNgZQhTRlzDSWYBtoLla_wESiAqvPOhkKVhT3haoLBDywfd1PmKQ2n4giGJ-EO1d4LC21h_4crgSU7ceuLcLkcBeXi4_bspLU23RPrxt_TGHp7j8nCk2DHGJQzsu5tQIt3cpH4rKcQXJ7udQ2opPRgN7I_mzECdzTYADtm8y-AVDbyTEzjqeHH28LmXKNgRgz-YOjDmm8szC5PpEU_25wqMO2WdF6- -_NGLPx5JnIicbdGjo5RyK6aqnZ6SwZ8RVvn0xpEyXd7MZxFriXXFg3XEaZmkJWVfC2reCuy7STGi-cbUfAEe-D_y-qYvSIRuLuGF-NZqnthHTIOYZMIFudic98ZbtgaVjZguDVStd7uQ_ugP8OsVeLaAQzwtW1lmQpHDNDGcGrQEwB12KykPlzvS7rlJZxwgb3Je-e5ViJcwY52M6xnKhSO6HLnvlm40]--></g></svg>