<svg xmlns="http://www.w3.org/2000/svg" xmlns:xlink="http://www.w3.org/1999/xlink" contentStyleType="text/css" data-diagram-type="ACTIVITY" height="959px" preserveAspectRatio="none" style="width:489px;height:959px;background:#FEFEFE;" version="1.1" viewBox="0 0 489 959" width="489px" zoomAndPan="magnify"><title>**Approach 1: InMemoryContainer &#8212; LINQ Query Flow (Abbreviated)**</title><defs/><g><rect fill="#FEFEFE" height="959" style="stroke:none;stroke-width:1;" width="489" x="0" y="0"/><g class="title" data-source-line="1"><text fill="#000000" font-family="sans-serif" font-size="14" font-weight="bold" lengthAdjust="spacing" textLength="446.9336" x="20" y="34.5332">Approach 1: InMemoryContainer &#8212; LINQ Query Flow (Abbreviated)</text></g><ellipse cx="244.9668" cy="58.6094" fill="#222222" rx="10" ry="10" style="stroke:#222222;stroke-width:1;"/><rect fill="none" height="99.7969" style="stroke:#666666;stroke-width:1.5;" width="258.707" x="115.6133" y="78.6094"/><path d="M271.9092,78.6094 L271.9092,89.2188 L261.9092,99.2188 L115.6133,99.2188" fill="none" style="stroke:#666666;stroke-width:1.5;"/><text fill="#000000" font-family="sans-serif" font-size="14" lengthAdjust="spacing" textLength="146.2959" x="118.6133" y="94.1426">Setup (once per fixture)</text><rect fill="#E8F4FD" height="50.1875" rx="12.5" ry="12.5" style="stroke:#333333;stroke-width:0.5;" width="238.707" x="125.6133" y="116.2188"/><text fill="#000000" font-family="sans-serif" font-size="12" font-weight="bold" lengthAdjust="spacing" textLength="218.707" x="135.6133" y="138.6758">InMemoryFeedIteratorSetup.Register()</text><text fill="#000000" font-family="sans-serif" font-size="12" lengthAdjust="spacing" textLength="208.1016" x="135.6133" y="153.7695">Sets AsyncLocal&lt;FeedIteratorFactory&gt;</text><rect fill="none" height="185.0781" style="stroke:#666666;stroke-width:1.5;" width="210.7598" x="139.5869" y="188.4063"/><path d="M272.5244,188.4063 L272.5244,199.0156 L262.5244,209.0156 L139.5869,209.0156" fill="none" style="stroke:#666666;stroke-width:1.5;"/><text fill="#000000" font-family="sans-serif" font-size="14" lengthAdjust="spacing" textLength="122.9375" x="142.5869" y="203.9395">InMemoryContainer</text><rect fill="#E8F4FD" height="65.2813" rx="12.5" ry="12.5" style="stroke:#333333;stroke-width:0.5;" width="190.7598" x="149.5869" y="226.0156"/><text fill="#000000" font-family="sans-serif" font-size="12" lengthAdjust="spacing" textLength="150.0703" x="159.5869" y="248.4727">GetItemLinqQueryable&lt;T&gt;()</text><text fill="#000000" font-family="sans-serif" font-size="12" lengthAdjust="spacing" textLength="145.7168" x="159.5869" y="263.5664">&#8594; GetAllItemsForPartition()</text><text fill="#000000" font-family="sans-serif" font-size="12" lengthAdjust="spacing" textLength="170.7598" x="159.5869" y="278.6602">&#8594; Deserialize &#8594; .AsQueryable()</text><rect fill="#E8F4FD" height="50.1875" rx="12.5" ry="12.5" style="stroke:#333333;stroke-width:0.5;" width="189.4063" x="150.2637" y="311.2969"/><text fill="#000000" font-family="sans-serif" font-size="12" lengthAdjust="spacing" textLength="36.0176" x="160.2637" y="333.7539">Return</text><text fill="#000000" font-family="sans-serif" font-size="12" font-weight="bold" lengthAdjust="spacing" textLength="130.0547" x="199.6152" y="333.7539">IOrderedQueryable&lt;T&gt;</text><text fill="#000000" font-family="sans-serif" font-size="12" lengthAdjust="spacing" textLength="94.6816" x="160.2637" y="348.8477">(LINQ-to-Objects)</text><rect fill="none" height="99.7969" style="stroke:#666666;stroke-width:1.5;" width="240.707" x="124.6133" y="383.4844"/><path d="M199.1992,383.4844 L199.1992,394.0938 L189.1992,404.0938 L124.6133,404.0938" fill="none" style="stroke:#666666;stroke-width:1.5;"/><text fill="#000000" font-family="sans-serif" font-size="14" lengthAdjust="spacing" textLength="64.5859" x="127.6133" y="399.0176">Test Code</text><rect fill="#E8F4FD" height="50.1875" rx="12.5" ry="12.5" style="stroke:#333333;stroke-width:0.5;" width="220.707" x="134.6133" y="421.0938"/><text fill="#000000" font-family="sans-serif" font-size="12" lengthAdjust="spacing" textLength="200.707" x="144.6133" y="443.5508">Apply .Where() / .Select() / .OrderBy()</text><text fill="#000000" font-family="sans-serif" font-size="12" lengthAdjust="spacing" textLength="148.7109" x="144.6133" y="458.6445">(LINQ-to-Objects operators)</text><rect fill="none" height="99.7969" style="stroke:#666666;stroke-width:1.5;" width="192.7246" x="148.6045" y="493.2813"/><path d="M294.0176,493.2813 L294.0176,503.8906 L284.0176,513.8906 L148.6045,513.8906" fill="none" style="stroke:#666666;stroke-width:1.5;"/><text fill="#000000" font-family="sans-serif" font-size="14" lengthAdjust="spacing" textLength="135.4131" x="151.6045" y="508.8145">ProductionExtensions</text><rect fill="#E8F4FD" height="50.1875" rx="12.5" ry="12.5" style="stroke:#333333;stroke-width:0.5;" width="172.7246" x="158.6045" y="530.8906"/><text fill="#000000" font-family="sans-serif" font-size="12" lengthAdjust="spacing" textLength="152.7246" x="168.6045" y="553.3477">.ToFeedIteratorOverridable()</text><text fill="#000000" font-family="sans-serif" font-size="12" lengthAdjust="spacing" textLength="149.0801" x="168.6045" y="568.4414">&#8594; check AsyncLocal factory</text><rect fill="none" height="114.8906" style="stroke:#666666;stroke-width:1.5;" width="276.7715" x="106.5811" y="603.0781"/><path d="M291.6631,603.0781 L291.6631,613.6875 L281.6631,623.6875 L106.5811,623.6875" fill="none" style="stroke:#666666;stroke-width:1.5;"/><text fill="#000000" font-family="sans-serif" font-size="14" lengthAdjust="spacing" textLength="175.082" x="109.5811" y="618.6113">InMemoryFeedIteratorSetup</text><rect fill="#E8F4FD" height="65.2813" rx="12.5" ry="12.5" style="stroke:#333333;stroke-width:0.5;" width="256.7715" x="116.5811" y="640.6875"/><text fill="#000000" font-family="sans-serif" font-size="12" lengthAdjust="spacing" textLength="236.7715" x="126.5811" y="663.1445">CreateInMemoryFeedIterator&lt;T&gt;(queryable)</text><text fill="#000000" font-family="sans-serif" font-size="12" lengthAdjust="spacing" textLength="138.416" x="126.5811" y="678.2383">&#8594; materialize enumerable</text><text fill="#000000" font-family="sans-serif" font-size="12" lengthAdjust="spacing" textLength="10.3535" x="126.5811" y="693.332">&#8594;</text><text fill="#000000" font-family="sans-serif" font-size="12" font-weight="bold" lengthAdjust="spacing" textLength="147.375" x="140.2686" y="693.332">InMemoryFeedIterator&lt;T&gt;</text><rect fill="none" height="178.7158" style="stroke:#666666;stroke-width:1.5;" width="243.4141" x="121.7598" y="727.9688"/><path d="M196.3457,727.9688 L196.3457,738.5781 L186.3457,748.5781 L121.7598,748.5781" fill="none" style="stroke:#666666;stroke-width:1.5;"/><text fill="#000000" font-family="sans-serif" font-size="14" lengthAdjust="spacing" textLength="64.5859" x="124.7598" y="743.502">Test Code</text><rect fill="#E8F4FD" height="50.1875" rx="12.5" ry="12.5" style="stroke:#333333;stroke-width:0.5;" width="178.4141" x="155.7598" y="822.4971"/><text fill="#000000" font-family="sans-serif" font-size="12" lengthAdjust="spacing" textLength="94.0313" x="165.7598" y="844.9541">ReadNextAsync()</text><text fill="#000000" font-family="sans-serif" font-size="12" lengthAdjust="spacing" textLength="10.3535" x="165.7598" y="860.0479">&#8594;</text><text fill="#000000" font-family="sans-serif" font-size="12" font-weight="bold" lengthAdjust="spacing" textLength="106.7051" x="179.4473" y="860.0479">FeedResponse&lt;T&gt;</text><text fill="#000000" font-family="sans-serif" font-size="12" lengthAdjust="spacing" textLength="34.6875" x="289.4863" y="860.0479">(page)</text><polygon fill="#E8F4FD" points="201.2568,765.5781,288.6768,765.5781,300.6768,777.5781,288.6768,789.5781,201.2568,789.5781,189.2568,777.5781,201.2568,765.5781" style="stroke:#333333;stroke-width:0.5;"/><text fill="#000000" font-family="sans-serif" font-size="11" lengthAdjust="spacing" textLength="17.1177" x="248.9668" y="800.9971">yes</text><text fill="#000000" font-family="sans-serif" font-size="11" lengthAdjust="spacing" textLength="87.4199" x="201.2568" y="782.0791">HasMoreResults?</text><text fill="#000000" font-family="sans-serif" font-size="11" lengthAdjust="spacing" textLength="12.2354" x="177.0215" y="775.1611">no</text><ellipse cx="244.9668" cy="937.6846" fill="none" rx="11" ry="11" style="stroke:#222222;stroke-width:1;"/><ellipse cx="244.9668" cy="937.6846" fill="#222222" rx="6" ry="6" style="stroke:#222222;stroke-width:1;"/><line style="stroke:#181818;stroke-width:1;" x1="244.9668" x2="244.9668" y1="68.6094" y2="116.2188"/><polygon fill="#181818" points="240.9668,106.2188,244.9668,116.2188,248.9668,106.2188,244.9668,110.2188" style="stroke:#181818;stroke-width:1;"/><line style="stroke:#181818;stroke-width:1;" x1="244.9668" x2="244.9668" y1="291.2969" y2="311.2969"/><polygon fill="#181818" points="240.9668,301.2969,244.9668,311.2969,248.9668,301.2969,244.9668,305.2969" style="stroke:#181818;stroke-width:1;"/><line style="stroke:#181818;stroke-width:1;" x1="244.9668" x2="244.9668" y1="166.4063" y2="226.0156"/><polygon fill="#181818" points="240.9668,216.0156,244.9668,226.0156,248.9668,216.0156,244.9668,220.0156" style="stroke:#181818;stroke-width:1;"/><line style="stroke:#181818;stroke-width:1;" x1="244.9668" x2="244.9668" y1="361.4844" y2="421.0938"/><polygon fill="#181818" points="240.9668,411.0938,244.9668,421.0938,248.9668,411.0938,244.9668,415.0938" style="stroke:#181818;stroke-width:1;"/><line style="stroke:#181818;stroke-width:1;" x1="244.9668" x2="244.9668" y1="471.2813" y2="530.8906"/><polygon fill="#181818" points="240.9668,520.8906,244.9668,530.8906,248.9668,520.8906,244.9668,524.8906" style="stroke:#181818;stroke-width:1;"/><line style="stroke:#181818;stroke-width:1;" x1="244.9668" x2="244.9668" y1="581.0781" y2="640.6875"/><polygon fill="#181818" points="240.9668,630.6875,244.9668,640.6875,248.9668,630.6875,244.9668,634.6875" style="stroke:#181818;stroke-width:1;"/><line style="stroke:#181818;stroke-width:1;" x1="244.9668" x2="244.9668" y1="789.5781" y2="822.4971"/><polygon fill="#181818" points="240.9668,812.4971,244.9668,822.4971,248.9668,812.4971,244.9668,816.4971" style="stroke:#181818;stroke-width:1;"/><line style="stroke:#181818;stroke-width:1;" x1="244.9668" x2="244.9668" y1="872.6846" y2="882.6846"/><line style="stroke:#181818;stroke-width:1;" x1="244.9668" x2="346.1738" y1="882.6846" y2="882.6846"/><polygon fill="#181818" points="342.1738,838.6729,346.1738,828.6729,350.1738,838.6729,346.1738,834.6729" style="stroke:#181818;stroke-width:1;"/><line style="stroke:#181818;stroke-width:1;" x1="346.1738" x2="346.1738" y1="777.5781" y2="882.6846"/><line style="stroke:#181818;stroke-width:1;" x1="346.1738" x2="300.6768" y1="777.5781" y2="777.5781"/><polygon fill="#181818" points="310.6768,773.5781,300.6768,777.5781,310.6768,781.5781,306.6768,777.5781" style="stroke:#181818;stroke-width:1;"/><line style="stroke:#181818;stroke-width:1;" x1="189.2568" x2="143.7598" y1="777.5781" y2="777.5781"/><polygon fill="#181818" points="139.7598,824.6729,143.7598,834.6729,147.7598,824.6729,143.7598,828.6729" style="stroke:#181818;stroke-width:1;"/><line style="stroke:#181818;stroke-width:1;" x1="143.7598" x2="143.7598" y1="777.5781" y2="894.6846"/><line style="stroke:#181818;stroke-width:1;" x1="143.7598" x2="244.9668" y1="894.6846" y2="894.6846"/><line style="stroke:#181818;stroke-width:1;" x1="244.9668" x2="244.9668" y1="894.6846" y2="926.6846"/><polygon fill="#181818" points="240.9668,916.6846,244.9668,926.6846,248.9668,916.6846,244.9668,920.6846" style="stroke:#181818;stroke-width:1;"/><line style="stroke:#181818;stroke-width:1;" x1="244.9668" x2="244.9668" y1="705.9688" y2="765.5781"/><polygon fill="#181818" points="240.9668,755.5781,244.9668,765.5781,248.9668,755.5781,244.9668,759.5781" style="stroke:#181818;stroke-width:1;"/><!--SRC=[XLFRQjj047tNLmpfoqeGb-9YIX9I5CTg3KwSE8O-hrSJU-lrhhAxSgoMGf_w0QLVc2_fw6AZs2v585OxP-RCd3FoqYk4A8gpp1ek5l3k38Rw1bV65dsZFPSQBRpy_0EZuUqztETe2qYKUGOMpsOMrv9xJCCe2WAtb3hZbgzWniLoRaskqxvHniARP50-BKGil5nBNrmPcw9jKDrkznXalzZWG_8-kMuXxxZrqakZNrNhzNhKawTO46HR19myeCypO4OBX8n6UvGRdriCJ-1x070MHTlf4yHqwD5oRsoLr9dWN3gwOUMu07Jf87Q55YCZkBfe9oHSqBkuF0z-l68_aBQX_OIUKbSZgPygYVbCuSNqaeKKVFdr6oWUArL2N6BiRk1T_1eTMicL_8RLToTskpeiF2yf9ZI3rMJrS5ogX6cRg1g8bHQVUdCwddr5uLsut_qKdOU-IR7fcfP65T3vig1oB8Itq7b0HPdrkQAvAgeUzqk3oMgX3adkh4bpKPu76u_QqS4rV9sfQOiyNgErCgrdR8GG2nJBbYlmM3lnBoCEN6we-XPfiO-XIbkUjj9jQLS4tkgFEbyHbA9DyFXELQh_H-7dXQI_attcxiPOdA3BbNSVGv0EM86kPA-SvUajRdmrDQilQzwIZx8oah1s6LZ6vrWj1EgqAQzDMBRXlCc2lm00]--></g></svg>