<svg xmlns="http://www.w3.org/2000/svg" xmlns:xlink="http://www.w3.org/1999/xlink" contentStyleType="text/css" data-diagram-type="ACTIVITY" height="1637px" preserveAspectRatio="none" style="width:607px;height:1637px;background:#FEFEFE;" version="1.1" viewBox="0 0 607 1637" width="607px" zoomAndPan="magnify"><title>**Approach 3: CosmosClient + FakeCosmosHandler &#8212; LINQ Query Flow (Abbreviated)**</title><defs/><g><rect fill="#FEFEFE" height="1637" style="stroke:none;stroke-width:1;" width="607" x="0" y="0"/><g class="title" data-source-line="1"><text fill="#000000" font-family="sans-serif" font-size="14" font-weight="bold" lengthAdjust="spacing" textLength="564.8193" x="20" y="34.5332">Approach 3: CosmosClient + FakeCosmosHandler &#8212; LINQ Query Flow (Abbreviated)</text></g><ellipse cx="179.8948" cy="58.6094" fill="#222222" rx="10" ry="10" style="stroke:#222222;stroke-width:1;"/><rect fill="none" height="194.8906" style="stroke:#666666;stroke-width:1.5;" width="256.1875" x="51.801" y="78.6094"/><path d="M98.387,78.6094 L98.387,89.2188 L88.387,99.2188 L51.801,99.2188" fill="none" style="stroke:#666666;stroke-width:1.5;"/><text fill="#000000" font-family="sans-serif" font-size="14" lengthAdjust="spacing" textLength="36.5859" x="54.801" y="94.1426">Setup</text><rect fill="#E8F4FD" height="35.0938" rx="12.5" ry="12.5" style="stroke:#333333;stroke-width:0.5;" width="167.5098" x="96.1399" y="116.2188"/><text fill="#000000" font-family="sans-serif" font-size="12" lengthAdjust="spacing" textLength="147.5098" x="106.1399" y="138.6758">new InMemoryContainer(&#8230;)</text><rect fill="#E8F4FD" height="35.0938" rx="12.5" ry="12.5" style="stroke:#333333;stroke-width:0.5;" width="215.416" x="72.1868" y="171.3125"/><text fill="#000000" font-family="sans-serif" font-size="12" lengthAdjust="spacing" textLength="195.416" x="82.1868" y="193.7695">new FakeCosmosHandler(container)</text><rect fill="#E8F4FD" height="35.0938" rx="12.5" ry="12.5" style="stroke:#333333;stroke-width:0.5;" width="236.1875" x="61.801" y="226.4063"/><text fill="#000000" font-family="sans-serif" font-size="12" lengthAdjust="spacing" textLength="216.1875" x="71.801" y="248.8633">new CosmosClient(&#8230;, HttpClientFactory)</text><rect fill="none" height="185.0781" style="stroke:#666666;stroke-width:1.5;" width="280.7734" x="39.5081" y="283.5"/><path d="M205.8801,283.5 L205.8801,294.1094 L195.8801,304.1094 L39.5081,304.1094" fill="none" style="stroke:#666666;stroke-width:1.5;"/><text fill="#000000" font-family="sans-serif" font-size="14" lengthAdjust="spacing" textLength="156.3721" x="42.5081" y="299.0332">CosmosClient (real SDK)</text><rect fill="#E8F4FD" height="50.1875" rx="12.5" ry="12.5" style="stroke:#333333;stroke-width:0.5;" width="260.7734" x="49.5081" y="321.1094"/><text fill="#000000" font-family="sans-serif" font-size="12" lengthAdjust="spacing" textLength="31.3477" x="59.5081" y="343.5664">client.</text><text fill="#000000" font-family="sans-serif" font-size="12" font-weight="bold" lengthAdjust="spacing" textLength="76.0078" x="90.8557" y="343.5664">GetContainer</text><text fill="#000000" font-family="sans-serif" font-size="12" lengthAdjust="spacing" textLength="133.418" x="166.8635" y="343.5664">(databaseId, containerId)</text><text fill="#000000" font-family="sans-serif" font-size="12" lengthAdjust="spacing" textLength="157.7402" x="59.5081" y="358.6602">&#8594; Container (real SDK proxy)</text><rect fill="#E8F4FD" height="65.2813" rx="12.5" ry="12.5" style="stroke:#333333;stroke-width:0.5;" width="222.7695" x="68.51" y="391.2969"/><text fill="#000000" font-family="sans-serif" font-size="12" lengthAdjust="spacing" textLength="202.7695" x="78.51" y="413.7539">container.GetItemLinqQueryable&lt;T&gt;()</text><text fill="#000000" font-family="sans-serif" font-size="12" lengthAdjust="spacing" textLength="10.3535" x="78.51" y="428.8477">&#8594;</text><text fill="#000000" font-family="sans-serif" font-size="12" font-weight="bold" lengthAdjust="spacing" textLength="156.0352" x="92.1975" y="428.8477">CosmosLinqQueryProvider</text><text fill="#000000" font-family="sans-serif" font-size="12" lengthAdjust="spacing" textLength="10.3535" x="78.51" y="443.9414">&#8594;</text><text fill="#000000" font-family="sans-serif" font-size="12" font-weight="bold" lengthAdjust="spacing" textLength="130.0547" x="92.1975" y="443.9414">IOrderedQueryable&lt;T&gt;</text><rect fill="none" height="99.7969" style="stroke:#666666;stroke-width:1.5;" width="256.7676" x="51.511" y="478.5781"/><path d="M126.0969,478.5781 L126.0969,489.1875 L116.0969,499.1875 L51.511,499.1875" fill="none" style="stroke:#666666;stroke-width:1.5;"/><text fill="#000000" font-family="sans-serif" font-size="14" lengthAdjust="spacing" textLength="64.5859" x="54.511" y="494.1113">Test Code</text><rect fill="#E8F4FD" height="50.1875" rx="12.5" ry="12.5" style="stroke:#333333;stroke-width:0.5;" width="236.7676" x="61.511" y="516.1875"/><text fill="#000000" font-family="sans-serif" font-size="12" lengthAdjust="spacing" textLength="200.707" x="71.511" y="538.6445">Apply .Where() / .OrderBy() / .Select()</text><text fill="#000000" font-family="sans-serif" font-size="12" lengthAdjust="spacing" textLength="216.7676" x="71.511" y="553.7383">(builds Expression Tree &#8212; no execution)</text><rect fill="none" height="225.0781" style="stroke:#666666;stroke-width:1.5;" width="239.4824" x="60.1536" y="588.375"/><path d="M226.5256,588.375 L226.5256,598.9844 L216.5256,608.9844 L60.1536,608.9844" fill="none" style="stroke:#666666;stroke-width:1.5;"/><text fill="#000000" font-family="sans-serif" font-size="14" lengthAdjust="spacing" textLength="156.3721" x="63.1536" y="603.9082">CosmosClient (real SDK)</text><rect fill="#E8F4FD" height="50.1875" rx="12.5" ry="12.5" style="stroke:#333333;stroke-width:0.5;" width="219.4824" x="70.1536" y="625.9844"/><text fill="#000000" font-family="sans-serif" font-size="12" lengthAdjust="spacing" textLength="90.6973" x="80.1536" y="648.4414">.ToFeedIterator()</text><text fill="#000000" font-family="sans-serif" font-size="12" lengthAdjust="spacing" textLength="199.4824" x="80.1536" y="663.5352">(no production code change needed!)</text><rect fill="#E8F4FD" height="50.1875" rx="12.5" ry="12.5" style="stroke:#333333;stroke-width:0.5;" width="219.418" x="70.1858" y="696.1719"/><text fill="#000000" font-family="sans-serif" font-size="12" lengthAdjust="spacing" textLength="199.418" x="80.1858" y="718.6289">CosmosLinqQueryProvider translates</text><text fill="#000000" font-family="sans-serif" font-size="12" lengthAdjust="spacing" textLength="170.4199" x="80.1858" y="733.7227">expression tree &#8594; Cosmos SQL</text><rect fill="#E8F4FD" height="35.0938" rx="12.5" ry="12.5" style="stroke:#333333;stroke-width:0.5;" width="146.0645" x="106.8625" y="766.3594"/><text fill="#000000" font-family="sans-serif" font-size="12" lengthAdjust="spacing" textLength="126.0645" x="116.8625" y="788.8164">Return FeedIterator&lt;T&gt;</text><rect fill="none" height="760.6162" style="stroke:#666666;stroke-width:1.5;" width="585.1021" x="11.3586" y="823.4531"/><path d="M109.3098,823.4531 L109.3098,834.0625 L99.3098,844.0625 L11.3586,844.0625" fill="none" style="stroke:#666666;stroke-width:1.5;"/><text fill="#000000" font-family="sans-serif" font-size="14" lengthAdjust="spacing" textLength="87.9512" x="14.3586" y="838.9863">Per-page loop</text><rect fill="none" height="99.7969" style="stroke:#666666;stroke-width:1.5;" width="176.3721" x="91.7087" y="908.5576"/><path d="M258.0808,908.5576 L258.0808,919.167 L248.0808,929.167 L91.7087,929.167" fill="none" style="stroke:#666666;stroke-width:1.5;"/><text fill="#000000" font-family="sans-serif" font-size="14" lengthAdjust="spacing" textLength="156.3721" x="94.7087" y="924.0908">CosmosClient (real SDK)</text><rect fill="#E8F4FD" height="50.1875" rx="12.5" ry="12.5" style="stroke:#333333;stroke-width:0.5;" width="150.0313" x="104.8792" y="946.167"/><text fill="#000000" font-family="sans-serif" font-size="12" lengthAdjust="spacing" textLength="130.0313" x="114.8792" y="968.624">SDK builds HTTP POST</text><text fill="#000000" font-family="sans-serif" font-size="12" lengthAdjust="spacing" textLength="127.4063" x="114.8792" y="983.7178">(query plan, then query)</text><rect fill="none" height="154.8906" style="stroke:#666666;stroke-width:1.5;" width="213.6953" x="73.0471" y="1018.3545"/><path d="M214.5432,1018.3545 L214.5432,1028.9639 L204.5432,1038.9639 L73.0471,1038.9639" fill="none" style="stroke:#666666;stroke-width:1.5;"/><text fill="#000000" font-family="sans-serif" font-size="14" lengthAdjust="spacing" textLength="131.4961" x="76.0471" y="1033.8877">FakeCosmosHandler</text><rect fill="#E8F4FD" height="50.1875" rx="12.5" ry="12.5" style="stroke:#333333;stroke-width:0.5;" width="158.0645" x="100.8625" y="1055.9639"/><text fill="#000000" font-family="sans-serif" font-size="12" lengthAdjust="spacing" textLength="135.3926" x="110.8625" y="1078.4209">HandleQueryPlanAsync()</text><text fill="#000000" font-family="sans-serif" font-size="12" lengthAdjust="spacing" textLength="138.0645" x="110.8625" y="1093.5146">then HandleQueryAsync()</text><rect fill="#E8F4FD" height="35.0938" rx="12.5" ry="12.5" style="stroke:#333333;stroke-width:0.5;" width="193.6953" x="83.0471" y="1126.1514"/><text fill="#000000" font-family="sans-serif" font-size="12" lengthAdjust="spacing" textLength="173.6953" x="93.0471" y="1148.6084">TryParse() + SimplifySdkQuery()</text><rect fill="none" height="99.7969" style="stroke:#666666;stroke-width:1.5;" width="281.0723" x="39.3586" y="1183.2451"/><path d="M172.2961,1183.2451 L172.2961,1193.8545 L162.2961,1203.8545 L39.3586,1203.8545" fill="none" style="stroke:#666666;stroke-width:1.5;"/><text fill="#000000" font-family="sans-serif" font-size="14" lengthAdjust="spacing" textLength="122.9375" x="42.3586" y="1198.7783">InMemoryContainer</text><rect fill="#E8F4FD" height="50.1875" rx="12.5" ry="12.5" style="stroke:#333333;stroke-width:0.5;" width="261.0723" x="49.3586" y="1220.8545"/><text fill="#000000" font-family="sans-serif" font-size="12" lengthAdjust="spacing" textLength="241.0723" x="59.3586" y="1243.3115">GetItemQueryIterator &#8594; FilterItemsByQuery()</text><text fill="#000000" font-family="sans-serif" font-size="12" lengthAdjust="spacing" textLength="101.0742" x="59.3586" y="1258.4053">&#8594; full SQL pipeline</text><rect fill="none" height="139.7969" style="stroke:#666666;stroke-width:1.5;" width="255.1152" x="52.3372" y="1293.042"/><path d="M193.8333,1293.042 L193.8333,1303.6514 L183.8333,1313.6514 L52.3372,1313.6514" fill="none" style="stroke:#666666;stroke-width:1.5;"/><text fill="#000000" font-family="sans-serif" font-size="14" lengthAdjust="spacing" textLength="131.4961" x="55.3372" y="1308.5752">FakeCosmosHandler</text><rect fill="#E8F4FD" height="35.0938" rx="12.5" ry="12.5" style="stroke:#333333;stroke-width:0.5;" width="235.1152" x="62.3372" y="1330.6514"/><text fill="#000000" font-family="sans-serif" font-size="12" lengthAdjust="spacing" textLength="215.1152" x="72.3372" y="1353.1084">DrainIterator() &#8594; BuildPagedResponse()</text><rect fill="#E8F4FD" height="35.0938" rx="12.5" ry="12.5" style="stroke:#333333;stroke-width:0.5;" width="196.7598" x="81.5149" y="1385.7451"/><text fill="#000000" font-family="sans-serif" font-size="12" lengthAdjust="spacing" textLength="176.7598" x="91.5149" y="1408.2021">Cache results &#8594; 200 OK + JSON</text><rect fill="none" height="107.2305" style="stroke:#666666;stroke-width:1.5;" width="468.7622" x="99.6985" y="1442.8389"/><path d="M266.0706,1442.8389 L266.0706,1453.4482 L256.0706,1463.4482 L99.6985,1463.4482" fill="none" style="stroke:#666666;stroke-width:1.5;"/><text fill="#000000" font-family="sans-serif" font-size="14" lengthAdjust="spacing" textLength="156.3721" x="102.6985" y="1458.3721">CosmosClient (real SDK)</text><path d="M270.0911,1479.0146 L270.0911,1504.542 L250.0911,1508.542 L270.0911,1512.542 L270.0911,1538.0693 A0,0 0 0 0 270.0911,1538.0693 L558.4607,1538.0693 A0,0 0 0 0 558.4607,1538.0693 L558.4607,1489.0146 L548.4607,1479.0146 L270.0911,1479.0146 A0,0 0 0 0 270.0911,1479.0146" fill="#FEFFDD" style="stroke:#181818;stroke-width:0.5;"/><path d="M548.4607,1479.0146 L548.4607,1489.0146 L558.4607,1489.0146 L548.4607,1479.0146" fill="#FEFFDD" style="stroke:#181818;stroke-width:0.5;"/><text fill="#000000" font-family="sans-serif" font-size="13" lengthAdjust="spacing" textLength="181.0034" x="276.0911" y="1497.5098">Key: LINQ &#8594; SQL by real SDK,</text><text fill="#000000" font-family="sans-serif" font-size="13" lengthAdjust="spacing" textLength="267.3696" x="276.0911" y="1513.8613">then SQL executed through CosmosSqlParser</text><text fill="#000000" font-family="sans-serif" font-size="13" lengthAdjust="spacing" textLength="199.3989" x="276.0911" y="1530.2129">(tests full LINQ-to-SQL translation)</text><rect fill="#E8F4FD" height="50.1875" rx="12.5" ry="12.5" style="stroke:#333333;stroke-width:0.5;" width="140.3926" x="109.6985" y="1483.4482"/><text fill="#000000" font-family="sans-serif" font-size="12" lengthAdjust="spacing" textLength="112.7227" x="119.6985" y="1505.9053">SDK pipeline merges</text><text fill="#000000" font-family="sans-serif" font-size="12" lengthAdjust="spacing" textLength="10.3535" x="119.6985" y="1520.999">&#8594;</text><text fill="#000000" font-family="sans-serif" font-size="12" font-weight="bold" lengthAdjust="spacing" textLength="106.7051" x="133.386" y="1520.999">FeedResponse&lt;T&gt;</text><polygon fill="#E8F4FD" points="136.1848,861.0625,223.6047,861.0625,235.6047,873.0625,223.6047,885.0625,136.1848,885.0625,124.1848,873.0625,136.1848,861.0625" style="stroke:#333333;stroke-width:0.5;"/><text fill="#000000" font-family="sans-serif" font-size="11" lengthAdjust="spacing" textLength="17.1177" x="183.8948" y="896.4814">yes</text><text fill="#000000" font-family="sans-serif" font-size="11" lengthAdjust="spacing" textLength="87.4199" x="136.1848" y="877.5635">HasMoreResults?</text><text fill="#000000" font-family="sans-serif" font-size="11" lengthAdjust="spacing" textLength="12.2354" x="111.9495" y="870.6455">no</text><ellipse cx="179.8948" cy="1615.0693" fill="none" rx="11" ry="11" style="stroke:#222222;stroke-width:1;"/><ellipse cx="179.8948" cy="1615.0693" fill="#222222" rx="6" ry="6" style="stroke:#222222;stroke-width:1;"/><line style="stroke:#181818;stroke-width:1;" x1="179.8948" x2="179.8948" y1="151.3125" y2="171.3125"/><polygon fill="#181818" points="175.8948,161.3125,179.8948,171.3125,183.8948,161.3125,179.8948,165.3125" style="stroke:#181818;stroke-width:1;"/><line style="stroke:#181818;stroke-width:1;" x1="179.8948" x2="179.8948" y1="206.4063" y2="226.4063"/><polygon fill="#181818" points="175.8948,216.4063,179.8948,226.4063,183.8948,216.4063,179.8948,220.4063" style="stroke:#181818;stroke-width:1;"/><line style="stroke:#181818;stroke-width:1;" x1="179.8948" x2="179.8948" y1="68.6094" y2="116.2188"/><polygon fill="#181818" points="175.8948,106.2188,179.8948,116.2188,183.8948,106.2188,179.8948,110.2188" style="stroke:#181818;stroke-width:1;"/><line style="stroke:#181818;stroke-width:1;" x1="179.8948" x2="179.8948" y1="371.2969" y2="391.2969"/><polygon fill="#181818" points="175.8948,381.2969,179.8948,391.2969,183.8948,381.2969,179.8948,385.2969" style="stroke:#181818;stroke-width:1;"/><line style="stroke:#181818;stroke-width:1;" x1="179.8948" x2="179.8948" y1="261.5" y2="321.1094"/><polygon fill="#181818" points="175.8948,311.1094,179.8948,321.1094,183.8948,311.1094,179.8948,315.1094" style="stroke:#181818;stroke-width:1;"/><line style="stroke:#181818;stroke-width:1;" x1="179.8948" x2="179.8948" y1="456.5781" y2="516.1875"/><polygon fill="#181818" points="175.8948,506.1875,179.8948,516.1875,183.8948,506.1875,179.8948,510.1875" style="stroke:#181818;stroke-width:1;"/><line style="stroke:#181818;stroke-width:1;" x1="179.8948" x2="179.8948" y1="676.1719" y2="696.1719"/><polygon fill="#181818" points="175.8948,686.1719,179.8948,696.1719,183.8948,686.1719,179.8948,690.1719" style="stroke:#181818;stroke-width:1;"/><line style="stroke:#181818;stroke-width:1;" x1="179.8948" x2="179.8948" y1="746.3594" y2="766.3594"/><polygon fill="#181818" points="175.8948,756.3594,179.8948,766.3594,183.8948,756.3594,179.8948,760.3594" style="stroke:#181818;stroke-width:1;"/><line style="stroke:#181818;stroke-width:1;" x1="179.8948" x2="179.8948" y1="566.375" y2="625.9844"/><polygon fill="#181818" points="175.8948,615.9844,179.8948,625.9844,183.8948,615.9844,179.8948,619.9844" style="stroke:#181818;stroke-width:1;"/><line style="stroke:#181818;stroke-width:1;" x1="179.8948" x2="179.8948" y1="1106.1514" y2="1126.1514"/><polygon fill="#181818" points="175.8948,1116.1514,179.8948,1126.1514,183.8948,1116.1514,179.8948,1120.1514" style="stroke:#181818;stroke-width:1;"/><line style="stroke:#181818;stroke-width:1;" x1="179.8948" x2="179.8948" y1="996.3545" y2="1055.9639"/><polygon fill="#181818" points="175.8948,1045.9639,179.8948,1055.9639,183.8948,1045.9639,179.8948,1049.9639" style="stroke:#181818;stroke-width:1;"/><line style="stroke:#181818;stroke-width:1;" x1="179.8948" x2="179.8948" y1="1161.2451" y2="1220.8545"/><polygon fill="#181818" points="175.8948,1210.8545,179.8948,1220.8545,183.8948,1210.8545,179.8948,1214.8545" style="stroke:#181818;stroke-width:1;"/><line style="stroke:#181818;stroke-width:1;" x1="179.8948" x2="179.8948" y1="1365.7451" y2="1385.7451"/><polygon fill="#181818" points="175.8948,1375.7451,179.8948,1385.7451,183.8948,1375.7451,179.8948,1379.7451" style="stroke:#181818;stroke-width:1;"/><line style="stroke:#181818;stroke-width:1;" x1="179.8948" x2="179.8948" y1="1271.042" y2="1330.6514"/><polygon fill="#181818" points="175.8948,1320.6514,179.8948,1330.6514,183.8948,1320.6514,179.8948,1324.6514" style="stroke:#181818;stroke-width:1;"/><line style="stroke:#181818;stroke-width:1;" x1="179.8948" x2="179.8948" y1="1420.8389" y2="1483.4482"/><polygon fill="#181818" points="175.8948,1473.4482,179.8948,1483.4482,183.8948,1473.4482,179.8948,1477.4482" style="stroke:#181818;stroke-width:1;"/><line style="stroke:#181818;stroke-width:1;" x1="179.8948" x2="179.8948" y1="885.0625" y2="946.167"/><polygon fill="#181818" points="175.8948,936.167,179.8948,946.167,183.8948,936.167,179.8948,940.167" style="stroke:#181818;stroke-width:1;"/><line style="stroke:#181818;stroke-width:1;" x1="179.8948" x2="179.8948" y1="1533.6357" y2="1560.0693"/><line style="stroke:#181818;stroke-width:1;" x1="179.8948" x2="580.4607" y1="1560.0693" y2="1560.0693"/><polygon fill="#181818" points="576.4607,1225.1123,580.4607,1215.1123,584.4607,1225.1123,580.4607,1221.1123" style="stroke:#181818;stroke-width:1;"/><line style="stroke:#181818;stroke-width:1;" x1="580.4607" x2="580.4607" y1="873.0625" y2="1560.0693"/><line style="stroke:#181818;stroke-width:1;" x1="580.4607" x2="235.6047" y1="873.0625" y2="873.0625"/><polygon fill="#181818" points="245.6047,869.0625,235.6047,873.0625,245.6047,877.0625,241.6047,873.0625" style="stroke:#181818;stroke-width:1;"/><line style="stroke:#181818;stroke-width:1;" x1="124.1848" x2="27.3586" y1="873.0625" y2="873.0625"/><polygon fill="#181818" points="23.3586,1211.1123,27.3586,1221.1123,31.3586,1211.1123,27.3586,1215.1123" style="stroke:#181818;stroke-width:1;"/><line style="stroke:#181818;stroke-width:1;" x1="27.3586" x2="27.3586" y1="873.0625" y2="1572.0693"/><line style="stroke:#181818;stroke-width:1;" x1="27.3586" x2="179.8948" y1="1572.0693" y2="1572.0693"/><line style="stroke:#181818;stroke-width:1;" x1="179.8948" x2="179.8948" y1="1572.0693" y2="1604.0693"/><polygon fill="#181818" points="175.8948,1594.0693,179.8948,1604.0693,183.8948,1594.0693,179.8948,1598.0693" style="stroke:#181818;stroke-width:1;"/><line style="stroke:#181818;stroke-width:1;" x1="179.8948" x2="179.8948" y1="801.4531" y2="861.0625"/><polygon fill="#181818" points="175.8948,851.0625,179.8948,861.0625,183.8948,851.0625,179.8948,855.0625" style="stroke:#181818;stroke-width:1;"/><!--SRC=[fLNRKXiv47sVh-YmB-C9UAaueNO9nHOOJ-n0WicuAi_og6EhB4k390DJAQfuoWUazXlsm_YIRMakDh1KDhlsqqoVxZuwVLhZX9C8IN9K54QpV0wzVUXhkzIsBmKg1oyXPGkiNWsPuX8DtD_z2MUZZnTmiK9JGYhrDSH7qwd1Ay4SyawIH95T25KmmvOmPVbYPlHAyRwMsi0lwS3_Dn17kHDNmfN7sd0qDQhNw_qJv76nmM_fw_JanyY30yiNXuVKFKrxWzr_ap2lpkkJgCkRmUyRIMDcd712gmUSz_RswEIEOb5KD0ZOoj2jYYtu6W7iAxo6aVg0IstAlbQE2OKclh_xg_Es2JzHFCuRu1gqEIMVlWr3vuhgEMMve_84ldt0uy5aOuDCGdPosjc2Hfp0C0_nRfAyGzSoJ9AOCyUcpEA8RqDBQCGxb7F_xJkqq7Lb85FTb1NdDgDBPKSEbsT2NGO3iQd4WybXt1HAaefd2nWRVIMuvz0YHkTUTUIR1PBayNadQ1tnubXhJowN9NG_poarxi2lq0rbZilg8KE9kGiyukbAI6vXS5COjDPNcnZ4O7sb0MymN_aU_r7YxaIdY9naC8mcLRMakgGNN-MXKawq8ISBpX0KOP6_g8HyHXnmXYahQVyieN3DsmNUOK0-4RABir3d4vdIADZaGI8-FiyOpKx1Y8FKkhRmzLpGdH4FcVsW3Nv2kvBE_j41OI4kqNOYmW3yh2R-j-yzKoi_d4p6C3xF9dKilWoNJI6PsWOtHmNXHT04uFP9qoTBvDkjDxfjMKKhAQdsaIrL7kRXVw7F1gAElcsI9vJ4ZFLcUWcPM1PIV2aplWZW-5bkJ_P_QysdtevGePbB65yg93twc3qkwmPraWz_MKdfPmk5A51IqVyhp8aXQck7XYR7VZPZiWEdiHTQ-PEtOlJf-u5WAZy4-AlTNJW_9MdUP-SVd-FpS-veJWTBDBDWzKQ09F5MRdZLzq7R4XMlVQjqntjSQKTanMpkA7gAvNxrIVELl8hJ4Xegsr5j1F- -sdpaz8O-5RDvlLNPfGn6C7wHQGL9W30GNtF7wHsVsYoelpOYuWEUWlzSw2Bw6m00]--></g></svg>