<svg xmlns="http://www.w3.org/2000/svg" xmlns:xlink="http://www.w3.org/1999/xlink" contentStyleType="text/css" data-diagram-type="ACTIVITY" height="2754px" preserveAspectRatio="none" style="width:2799px;height:2754px;background:#FEFEFE;" version="1.1" viewBox="0 0 2799 2754" width="2799px" zoomAndPan="magnify"><title>**Approach 2: InMemoryCosmosClient + InMemoryContainer &#8212; Query Flow (Detailed)**</title><defs/><g><rect fill="#FEFEFE" height="2754" style="stroke:none;stroke-width:1;" width="2799" x="0" y="0"/><rect fill="#FFFFCC" height="54.1699" rx="2.5" ry="2.5" style="stroke:#FFDD88;stroke-width:3;" width="2788.1807" x="5" y="5"/><text fill="#000000" font-family="monospace" font-size="10" lengthAdjust="spacing" textLength="294.0479" x="10" y="20">The&#160;syntax&#160;using&#160;the&#160;|&#160;character&#160;is&#160;now&#160;obsolete.</text><text fill="#000000" font-family="monospace" font-size="10" lengthAdjust="spacing" textLength="288.0469" x="10" y="33.0566">Please&#160;use&#160;the&#160;&lt;&lt;procedure&gt;&gt;&#160;stereotype&#160;instead.</text><text fill="#000000" font-family="monospace" font-size="10" lengthAdjust="spacing" textLength="396.0645" x="10" y="46.1133">For&#160;more&#160;details,&#160;visit&#160;https://plantuml.com/activity-diagram-beta</text><g class="title" data-source-line="1"><text fill="#000000" font-family="sans-serif" font-size="14" font-weight="bold" lengthAdjust="spacing" textLength="559.3574" x="1110.9116" y="98.7031">Approach 2: InMemoryCosmosClient + InMemoryContainer &#8212; Query Flow (Detailed)</text></g><rect fill="none" height="22.6406" style="stroke:none;stroke-width:1;" width="2751.1807" x="15" y="115.2344"/><ellipse cx="169.1472" cy="152.875" fill="#222222" rx="10" ry="10" style="stroke:#222222;stroke-width:1;"/><rect fill="#E8F4FD" height="50.1875" rx="12.5" ry="12.5" style="stroke:#333333;stroke-width:0.5;" width="260.7031" x="38.7957" y="182.875"/><text fill="#000000" font-family="sans-serif" font-size="12" lengthAdjust="spacing" textLength="20.6719" x="48.7957" y="205.332">Call</text><text fill="#000000" font-family="sans-serif" font-size="12" font-weight="bold" lengthAdjust="spacing" textLength="216.6973" x="72.8015" y="205.332">InMemoryCosmosClient.GetContainer</text><text fill="#000000" font-family="sans-serif" font-size="12" lengthAdjust="spacing" textLength="133.418" x="48.7957" y="220.4258">(databaseId, containerId)</text><rect fill="#E8F4FD" height="35.0938" rx="12.5" ry="12.5" style="stroke:#333333;stroke-width:0.5;" width="235.4199" x="51.4373" y="827.5938"/><text fill="#000000" font-family="sans-serif" font-size="12" lengthAdjust="spacing" textLength="215.4199" x="61.4373" y="850.0508">Receive Container (InMemoryContainer)</text><rect fill="#90EE90" height="51.4453" style="stroke:#333333;stroke-width:0.5;" width="150.0723" x="94.1111" y="882.6875"/><line style="stroke:#333333;stroke-width:0.5;" x1="99.1111" x2="99.1111" y1="882.6875" y2="934.1328"/><line style="stroke:#333333;stroke-width:0.5;" x1="239.1833" x2="239.1833" y1="882.6875" y2="934.1328"/><text fill="#000000" font-family="sans-serif" font-size="13" font-weight="bold" lengthAdjust="spacing" textLength="127.5117" x="104.1111" y="906.1826">SQL Query Flow ===</text><text fill="#000000" font-family="sans-serif" font-size="12" lengthAdjust="spacing" textLength="130.0723" x="104.1111" y="921.4961">(identical to Approach 1)</text><rect fill="#E8F4FD" height="35.0938" rx="12.5" ry="12.5" style="stroke:#333333;stroke-width:0.5;" width="114.0313" x="112.1316" y="2320.9658"/><text fill="#000000" font-family="sans-serif" font-size="12" lengthAdjust="spacing" textLength="94.0313" x="122.1316" y="2343.4229">ReadNextAsync()</text><rect fill="#E8F4FD" height="35.0938" rx="12.5" ry="12.5" style="stroke:#333333;stroke-width:0.5;" width="173.3926" x="82.4509" y="2476.4346"/><text fill="#000000" font-family="sans-serif" font-size="12" lengthAdjust="spacing" textLength="43.3535" x="92.4509" y="2498.8916">Receive</text><text fill="#000000" font-family="sans-serif" font-size="12" font-weight="bold" lengthAdjust="spacing" textLength="106.7051" x="139.1384" y="2498.8916">FeedResponse&lt;T&gt;</text><polygon fill="#E8F4FD" points="125.4373,2264.0469,212.8572,2264.0469,224.8572,2276.0469,212.8572,2288.0469,125.4373,2288.0469,113.4373,2276.0469,125.4373,2264.0469" style="stroke:#333333;stroke-width:0.5;"/><text fill="#000000" font-family="sans-serif" font-size="11" lengthAdjust="spacing" textLength="17.1177" x="173.1472" y="2299.4658">yes</text><text fill="#000000" font-family="sans-serif" font-size="11" lengthAdjust="spacing" textLength="87.4199" x="125.4373" y="2280.5479">HasMoreResults?</text><text fill="#000000" font-family="sans-serif" font-size="11" lengthAdjust="spacing" textLength="12.2354" x="101.2019" y="2273.6299">no</text><path d="M337.2944,2543.5283 L337.2944,2618.1104 L317.2944,2622.1104 L337.2944,2626.1104 L337.2944,2700.6924 A0,0 0 0 0 337.2944,2700.6924 L738.7158,2700.6924 A0,0 0 0 0 738.7158,2700.6924 L738.7158,2553.5283 L728.7158,2543.5283 L337.2944,2543.5283 A0,0 0 0 0 337.2944,2543.5283" fill="#FEFFDD" style="stroke:#181818;stroke-width:0.5;"/><path d="M728.7158,2543.5283 L728.7158,2553.5283 L738.7158,2553.5283 L728.7158,2543.5283" fill="#FEFFDD" style="stroke:#181818;stroke-width:0.5;"/><text fill="#000000" font-family="sans-serif" font-size="13" lengthAdjust="spacing" textLength="162.5762" x="343.2944" y="2562.0234">GetItemLinqQueryable&lt;T&gt;()</text><text fill="#000000" font-family="sans-serif" font-size="13" lengthAdjust="spacing" textLength="157.8599" x="343.2944" y="2578.375">&#8594; GetAllItemsForPartition()</text><text fill="#000000" font-family="sans-serif" font-size="13" lengthAdjust="spacing" textLength="281.7979" x="343.2944" y="2594.7266">&#8594; Deserialize &#8594; .AsQueryable().OrderBy(x =&gt; 0)</text><text fill="#000000" font-family="sans-serif" font-size="13" lengthAdjust="spacing" textLength="11.2163" x="343.2944" y="2611.0781">&#8594;</text><text fill="#000000" font-family="sans-serif" font-size="13" font-weight="bold" lengthAdjust="spacing" textLength="140.8926" x="358.1226" y="2611.0781">IOrderedQueryable&lt;T&gt;</text><text fill="#000000" font-family="sans-serif" font-size="13" lengthAdjust="spacing" textLength="102.5718" x="502.627" y="2611.0781">(LINQ-to-Objects)</text><text fill="#000000" font-family="sans-serif" font-size="13" lengthAdjust="spacing" textLength="271.9971" x="343.2944" y="2627.4297">&#8594; User applies .Where() / .Select() / .OrderBy()</text><text fill="#000000" font-family="sans-serif" font-size="13" lengthAdjust="spacing" textLength="180.2798" x="343.2944" y="2643.7813">&#8594; .ToFeedIteratorOverridable()</text><text fill="#000000" font-family="sans-serif" font-size="13" lengthAdjust="spacing" textLength="380.4214" x="343.2944" y="2660.1328">&#8594; InMemoryFeedIteratorSetup.CreateInMemoryFeedIterator&lt;T&gt;()</text><text fill="#000000" font-family="sans-serif" font-size="13" lengthAdjust="spacing" textLength="166.5562" x="343.2944" y="2676.4844">&#8594; InMemoryFeedIterator&lt;T&gt;</text><text fill="#000000" font-family="sans-serif" font-size="13" lengthAdjust="spacing" textLength="304.2178" x="343.2944" y="2692.8359">&#8594; ReadNextAsync() &#8594; InMemoryFeedResponse&lt;T&gt;</text><rect fill="#ADD8E6" height="36.3516" style="stroke:#333333;stroke-width:0.5;" width="296.2944" x="21" y="2603.9346"/><line style="stroke:#333333;stroke-width:0.5;" x1="26" x2="26" y1="2603.9346" y2="2640.2861"/><line style="stroke:#333333;stroke-width:0.5;" x1="312.2944" x2="312.2944" y1="2603.9346" y2="2640.2861"/><text fill="#000000" font-family="sans-serif" font-size="13" font-weight="bold" lengthAdjust="spacing" textLength="276.2944" x="31" y="2627.4297">LINQ Flow (also identical to Approach 1) ===</text><ellipse cx="169.1472" cy="2731.6924" fill="none" rx="11" ry="11" style="stroke:#222222;stroke-width:1;"/><ellipse cx="169.1472" cy="2731.6924" fill="#222222" rx="6" ry="6" style="stroke:#222222;stroke-width:1;"/><line style="stroke:#000000;stroke-width:1.5;" x1="15" x2="15" y1="115.2344" y2="2742.6924"/><rect fill="#E8F4FD" height="65.2813" rx="12.5" ry="12.5" style="stroke:#333333;stroke-width:0.5;" width="228.8809" x="854.3501" y="253.0625"/><text fill="#000000" font-family="sans-serif" font-size="12" font-weight="bold" lengthAdjust="spacing" textLength="126.041" x="864.3501" y="275.5195">_databases.GetOrAdd</text><text fill="#000000" font-family="sans-serif" font-size="12" lengthAdjust="spacing" textLength="82.8398" x="990.3911" y="275.5195">(databaseId, &#8230;)</text><text fill="#000000" font-family="sans-serif" font-size="12" lengthAdjust="spacing" textLength="165.0938" x="864.3501" y="290.6133">&#8594; ConcurrentDictionary lookup</text><text fill="#000000" font-family="sans-serif" font-size="12" lengthAdjust="spacing" textLength="145.0898" x="864.3501" y="305.707">&#8594; thread-safe lazy creation</text><polygon fill="#E8F4FD" points="927.5137,338.3438,1010.0674,338.3438,1022.0674,350.3438,1010.0674,362.3438,927.5137,362.3438,915.5137,350.3438,927.5137,338.3438" style="stroke:#333333;stroke-width:0.5;"/><text fill="#000000" font-family="sans-serif" font-size="11" lengthAdjust="spacing" textLength="82.5537" x="927.5137" y="354.8447">database exists?</text><text fill="#000000" font-family="sans-serif" font-size="11" lengthAdjust="spacing" textLength="17.1177" x="898.396" y="347.9268">yes</text><text fill="#000000" font-family="sans-serif" font-size="11" lengthAdjust="spacing" textLength="12.2354" x="1022.0674" y="347.9268">no</text><rect fill="#E8F4FD" height="35.0938" rx="12.5" ry="12.5" style="stroke:#333333;stroke-width:0.5;" width="213.4121" x="749.7158" y="372.3438"/><text fill="#000000" font-family="sans-serif" font-size="12" lengthAdjust="spacing" textLength="80.0391" x="759.7158" y="394.8008">Return existing</text><text fill="#000000" font-family="sans-serif" font-size="12" font-weight="bold" lengthAdjust="spacing" textLength="110.0391" x="843.0889" y="394.8008">InMemoryDatabase</text><rect fill="#E8F4FD" height="50.1875" rx="12.5" ry="12.5" style="stroke:#333333;stroke-width:0.5;" width="196.0625" x="983.1279" y="372.3438"/><text fill="#000000" font-family="sans-serif" font-size="12" lengthAdjust="spacing" textLength="36.0176" x="993.1279" y="394.8008">Create</text><text fill="#000000" font-family="sans-serif" font-size="12" font-weight="bold" lengthAdjust="spacing" textLength="136.7109" x="1032.4795" y="394.8008">new InMemoryDatabase</text><text fill="#000000" font-family="sans-serif" font-size="12" lengthAdjust="spacing" textLength="102.0586" x="993.1279" y="409.8945">(databaseId, client)</text><polygon fill="#E8F4FD" points="968.7905,428.5313,980.7905,440.5313,968.7905,452.5313,956.7905,440.5313,968.7905,428.5313" style="stroke:#333333;stroke-width:0.5;"/><line style="stroke:#000000;stroke-width:1.5;" x1="743.7158" x2="743.7158" y1="115.2344" y2="2742.6924"/><rect fill="#E8F4FD" height="50.1875" rx="12.5" ry="12.5" style="stroke:#333333;stroke-width:0.5;" width="182.0879" x="1319.8638" y="472.5313"/><text fill="#000000" font-family="sans-serif" font-size="12" font-weight="bold" lengthAdjust="spacing" textLength="127.3652" x="1329.8638" y="494.9883">GetOrCreateContainer</text><text fill="#000000" font-family="sans-serif" font-size="12" lengthAdjust="spacing" textLength="162.0879" x="1329.8638" y="510.082">(containerId, partitionKeyPath)</text><rect fill="#E8F4FD" height="65.2813" rx="12.5" ry="12.5" style="stroke:#333333;stroke-width:0.5;" width="230.8555" x="1295.48" y="542.7188"/><text fill="#000000" font-family="sans-serif" font-size="12" font-weight="bold" lengthAdjust="spacing" textLength="128.0273" x="1305.48" y="565.1758">_containers.GetOrAdd</text><text fill="#000000" font-family="sans-serif" font-size="12" lengthAdjust="spacing" textLength="82.8281" x="1433.5073" y="565.1758">(containerId, &#8230;)</text><text fill="#000000" font-family="sans-serif" font-size="12" lengthAdjust="spacing" textLength="165.0938" x="1305.48" y="580.2695">&#8594; ConcurrentDictionary lookup</text><text fill="#000000" font-family="sans-serif" font-size="12" lengthAdjust="spacing" textLength="145.0898" x="1305.48" y="595.3633">&#8594; thread-safe lazy creation</text><path d="M1464.1792,618 L1464.1792,693.4063 L1702.6626,693.4063 L1702.6626,628 L1692.6626,618 L1464.1792,618" fill="#FEFFDD" style="stroke:#181818;stroke-width:0.5;"/><path d="M1692.6626,618 L1692.6626,628 L1702.6626,628 L1692.6626,618" fill="#FEFFDD" style="stroke:#181818;stroke-width:0.5;"/><text fill="#000000" font-family="sans-serif" font-size="13" lengthAdjust="spacing" textLength="215.3315" x="1470.1792" y="636.4951">Subsequent GetContainer() calls with</text><text fill="#000000" font-family="sans-serif" font-size="13" lengthAdjust="spacing" textLength="216.4424" x="1470.1792" y="652.8467">same databaseId + containerId return</text><text fill="#000000" font-family="sans-serif" font-size="13" lengthAdjust="spacing" textLength="18.0718" x="1470.1792" y="669.1982">the</text><text fill="#000000" font-family="sans-serif" font-size="13" font-weight="bold" lengthAdjust="spacing" textLength="93.9136" x="1491.8628" y="669.1982">SAME instance</text><text fill="#000000" font-family="sans-serif" font-size="13" lengthAdjust="spacing" textLength="98.2744" x="1589.3882" y="669.1982">&#8212; data is shared</text><text fill="#000000" font-family="sans-serif" font-size="13" lengthAdjust="spacing" textLength="99.6963" x="1470.1792" y="685.5498">across all callers.</text><polygon fill="#E8F4FD" points="1369.6362,693.4063,1452.1792,693.4063,1464.1792,705.4063,1452.1792,717.4063,1369.6362,717.4063,1357.6362,705.4063,1369.6362,693.4063" style="stroke:#333333;stroke-width:0.5;"/><text fill="#000000" font-family="sans-serif" font-size="11" lengthAdjust="spacing" textLength="82.543" x="1369.6362" y="709.9072">container exists?</text><text fill="#000000" font-family="sans-serif" font-size="11" lengthAdjust="spacing" textLength="17.1177" x="1340.5186" y="702.9893">yes</text><text fill="#000000" font-family="sans-serif" font-size="11" lengthAdjust="spacing" textLength="12.2354" x="1464.1792" y="702.9893">no</text><rect fill="#E8F4FD" height="35.0938" rx="12.5" ry="12.5" style="stroke:#333333;stroke-width:0.5;" width="216.0547" x="1189.1904" y="727.4063"/><text fill="#000000" font-family="sans-serif" font-size="12" lengthAdjust="spacing" textLength="80.0391" x="1199.1904" y="749.8633">Return existing</text><text fill="#000000" font-family="sans-serif" font-size="12" font-weight="bold" lengthAdjust="spacing" textLength="112.6816" x="1282.5635" y="749.8633">InMemoryContainer</text><rect fill="#E8F4FD" height="50.1875" rx="12.5" ry="12.5" style="stroke:#333333;stroke-width:0.5;" width="198.7051" x="1425.2451" y="727.4063"/><text fill="#000000" font-family="sans-serif" font-size="12" lengthAdjust="spacing" textLength="36.0176" x="1435.2451" y="749.8633">Create</text><text fill="#000000" font-family="sans-serif" font-size="12" font-weight="bold" lengthAdjust="spacing" textLength="139.3535" x="1474.5967" y="749.8633">new InMemoryContainer</text><text fill="#000000" font-family="sans-serif" font-size="12" lengthAdjust="spacing" textLength="162.0879" x="1435.2451" y="764.957">(containerId, partitionKeyPath)</text><polygon fill="#E8F4FD" points="1410.9077,783.5938,1422.9077,795.5938,1410.9077,807.5938,1398.9077,795.5938,1410.9077,783.5938" style="stroke:#333333;stroke-width:0.5;"/><line style="stroke:#000000;stroke-width:1.5;" x1="1183.1904" x2="1183.1904" y1="115.2344" y2="2742.6924"/><rect fill="#E8F4FD" height="50.1875" rx="12.5" ry="12.5" style="stroke:#333333;stroke-width:0.5;" width="274.1328" x="1713.6626" y="954.1328"/><text fill="#000000" font-family="sans-serif" font-size="12" lengthAdjust="spacing" textLength="20.6719" x="1723.6626" y="976.5898">Call</text><text fill="#000000" font-family="sans-serif" font-size="12" font-weight="bold" lengthAdjust="spacing" textLength="142.0488" x="1747.6685" y="976.5898">GetItemQueryIterator&lt;T&gt;</text><text fill="#000000" font-family="sans-serif" font-size="12" lengthAdjust="spacing" textLength="254.1328" x="1723.6626" y="991.6836">(queryText, continuationToken, requestOptions)</text><rect fill="#E8F4FD" height="50.1875" rx="12.5" ry="12.5" style="stroke:#333333;stroke-width:0.5;" width="236.7559" x="1732.3511" y="1024.3203"/><text fill="#000000" font-family="sans-serif" font-size="12" lengthAdjust="spacing" textLength="20.6719" x="1742.3511" y="1046.7773">Call</text><text fill="#000000" font-family="sans-serif" font-size="12" font-weight="bold" lengthAdjust="spacing" textLength="110.707" x="1766.3569" y="1046.7773">FilterItemsByQuery</text><text fill="#000000" font-family="sans-serif" font-size="12" lengthAdjust="spacing" textLength="216.7559" x="1742.3511" y="1061.8711">(queryText, parameters, requestOptions)</text><rect fill="#E8F4FD" height="35.0938" rx="12.5" ry="12.5" style="stroke:#333333;stroke-width:0.5;" width="136.3965" x="1782.5308" y="2153.8594"/><text fill="#000000" font-family="sans-serif" font-size="12" lengthAdjust="spacing" textLength="116.3965" x="1792.5308" y="2176.3164">Deserialize &#8594; List&lt;T&gt;</text><rect fill="#E8F4FD" height="35.0938" rx="12.5" ry="12.5" style="stroke:#333333;stroke-width:0.5;" width="206.7266" x="1747.3657" y="2208.9531"/><text fill="#000000" font-family="sans-serif" font-size="12" lengthAdjust="spacing" textLength="36.0176" x="1757.3657" y="2231.4102">Create</text><text fill="#000000" font-family="sans-serif" font-size="12" font-weight="bold" lengthAdjust="spacing" textLength="147.375" x="1796.7173" y="2231.4102">InMemoryFeedIterator&lt;T&gt;</text><line style="stroke:#000000;stroke-width:1.5;" x1="1707.6626" x2="1707.6626" y1="115.2344" y2="2742.6924"/><rect fill="#E8F4FD" height="80.375" rx="12.5" ry="12.5" style="stroke:#333333;stroke-width:0.5;" width="215.3867" x="1997.7954" y="1094.5078"/><text fill="#000000" font-family="sans-serif" font-size="12" font-weight="bold" lengthAdjust="spacing" textLength="32.6953" x="2007.7954" y="1116.9648">Parse</text><text fill="#000000" font-family="sans-serif" font-size="12" lengthAdjust="spacing" textLength="61.3477" x="2040.4907" y="1116.9648">(queryText)</text><text fill="#000000" font-family="sans-serif" font-size="12" lengthAdjust="spacing" textLength="134.3906" x="2007.7954" y="1132.0586">&#8594; CosmosSqlQuery AST</text><text fill="#000000" font-family="sans-serif" font-size="12" lengthAdjust="spacing" textLength="166.0488" x="2007.7954" y="1147.1523">(SelectFields, Where, OrderBy,</text><text fill="#000000" font-family="sans-serif" font-size="12" lengthAdjust="spacing" textLength="195.3867" x="2007.7954" y="1162.2461">GroupBy, Distinct, Top, Offset, Limit)</text><line style="stroke:#000000;stroke-width:1.5;" x1="1991.7954" x2="1991.7954" y1="115.2344" y2="2742.6924"/><rect fill="#E8F4FD" height="65.2813" rx="12.5" ry="12.5" style="stroke:#333333;stroke-width:0.5;" width="244.0566" x="2259.6997" y="1194.8828"/><text fill="#000000" font-family="sans-serif" font-size="12" font-weight="bold" lengthAdjust="spacing" textLength="134.6836" x="2269.6997" y="1217.3398">GetAllItemsForPartition</text><text fill="#000000" font-family="sans-serif" font-size="12" lengthAdjust="spacing" textLength="89.373" x="2404.3833" y="1217.3398">(requestOptions)</text><text fill="#000000" font-family="sans-serif" font-size="12" lengthAdjust="spacing" textLength="219.0996" x="2269.6997" y="1232.4336">&#8594; List&lt;string&gt; from ConcurrentDictionary</text><text fill="#000000" font-family="sans-serif" font-size="12" lengthAdjust="spacing" textLength="201.7676" x="2269.6997" y="1247.5273">&#8594; partition key filtering, TTL exclusion</text><rect fill="#E8F4FD" height="35.0938" rx="12.5" ry="12.5" style="stroke:#333333;stroke-width:0.5;" width="224.6563" x="2269.3999" y="1280.1641"/><text fill="#000000" font-family="sans-serif" font-size="12" font-weight="bold" lengthAdjust="spacing" textLength="196.6641" x="2279.3999" y="1302.6211">AugmentWithComputedProperties</text><text fill="#000000" font-family="sans-serif" font-size="12" lengthAdjust="spacing" textLength="7.9922" x="2476.064" y="1302.6211">()</text><rect fill="#E8F4FD" height="50.1875" rx="12.5" ry="12.5" style="stroke:#333333;stroke-width:0.5;" width="159.6992" x="2301.8784" y="1335.2578"/><text fill="#000000" font-family="sans-serif" font-size="12" font-weight="bold" lengthAdjust="spacing" textLength="114.0234" x="2311.8784" y="1357.7148">ExpandFromSource</text><text fill="#000000" font-family="sans-serif" font-size="12" lengthAdjust="spacing" textLength="7.9922" x="2425.9019" y="1357.7148">()</text><text fill="#000000" font-family="sans-serif" font-size="12" lengthAdjust="spacing" textLength="139.6992" x="2311.8784" y="1372.8086">&#8594; FROM c IN c.arrayField</text><rect fill="#E8F4FD" height="50.1875" rx="12.5" ry="12.5" style="stroke:#333333;stroke-width:0.5;" width="143.7324" x="2309.8618" y="1405.4453"/><text fill="#000000" font-family="sans-serif" font-size="12" font-weight="bold" lengthAdjust="spacing" textLength="90.0176" x="2319.8618" y="1427.9023">ExpandAllJoins</text><text fill="#000000" font-family="sans-serif" font-size="12" lengthAdjust="spacing" textLength="7.9922" x="2409.8794" y="1427.9023">()</text><text fill="#000000" font-family="sans-serif" font-size="12" lengthAdjust="spacing" textLength="123.7324" x="2319.8618" y="1442.9961">&#8594; JOIN array flattening</text><rect fill="#FFFFE0" height="157.1016" style="stroke:#333333;stroke-width:0.5;" width="240.7578" x="2261.3491" y="1475.6328"/><line style="stroke:#333333;stroke-width:0.5;" x1="2266.3491" x2="2266.3491" y1="1475.6328" y2="1632.7344"/><line style="stroke:#333333;stroke-width:0.5;" x1="2497.1069" x2="2497.1069" y1="1475.6328" y2="1632.7344"/><text fill="#000000" font-family="sans-serif" font-size="13" font-weight="bold" lengthAdjust="spacing" textLength="128.959" x="2271.3491" y="1499.1279">WHERE per item ===</text><text fill="#000000" font-family="sans-serif" font-size="12" font-weight="bold" lengthAdjust="spacing" textLength="150.7266" x="2271.3491" y="1514.4414">EvaluateWhereExpression</text><text fill="#000000" font-family="sans-serif" font-size="12" lengthAdjust="spacing" textLength="10.3535" x="2271.3491" y="1529.5352">&#8594;</text><text fill="#000000" font-family="sans-serif" font-size="12" font-weight="bold" lengthAdjust="spacing" textLength="132.7207" x="2285.0366" y="1529.5352">EvaluateSqlExpression</text><text fill="#000000" font-family="sans-serif" font-size="12" lengthAdjust="spacing" textLength="56.6719" x="2421.0913" y="1529.5352">(recursive)</text><text fill="#000000" font-family="sans-serif" font-size="12" lengthAdjust="spacing" textLength="122.4082" x="2271.3491" y="1544.6289">&#8594; all expression types:</text><text fill="#000000" font-family="sans-serif" font-size="12" lengthAdjust="spacing" textLength="179.4082" x="2271.3491" y="1559.7227">Literal, Identifier, PropertyAccess,</text><text fill="#000000" font-family="sans-serif" font-size="12" lengthAdjust="spacing" textLength="220.7578" x="2271.3491" y="1574.8164">IndexAccess, Binary, Unary, FunctionCall</text><text fill="#000000" font-family="sans-serif" font-size="12" lengthAdjust="spacing" textLength="181.7695" x="2271.3491" y="1589.9102">(40+ functions), Between, In, Like,</text><text fill="#000000" font-family="sans-serif" font-size="12" lengthAdjust="spacing" textLength="159.4102" x="2271.3491" y="1605.0039">Ternary, Coalesce, Subquery,</text><text fill="#000000" font-family="sans-serif" font-size="12" lengthAdjust="spacing" textLength="135.3867" x="2271.3491" y="1620.0977">ArrayLiteral, ObjectLiteral</text><rect fill="#E8F4FD" height="50.1875" rx="12.5" ry="12.5" style="stroke:#333333;stroke-width:0.5;" width="197.334" x="2283.061" y="1652.7344"/><text fill="#000000" font-family="sans-serif" font-size="12" font-weight="bold" lengthAdjust="spacing" textLength="84.668" x="2293.061" y="1675.1914">ApplyGroupBy</text><text fill="#000000" font-family="sans-serif" font-size="12" lengthAdjust="spacing" textLength="81.7148" x="2377.729" y="1675.1914">() + aggregates</text><text fill="#000000" font-family="sans-serif" font-size="12" lengthAdjust="spacing" textLength="177.334" x="2293.061" y="1690.2852">(COUNT, SUM, AVG, MIN, MAX)</text><rect fill="#E8F4FD" height="50.1875" rx="12.5" ry="12.5" style="stroke:#333333;stroke-width:0.5;" width="153.0488" x="2305.2036" y="1722.9219"/><text fill="#000000" font-family="sans-serif" font-size="12" font-weight="bold" lengthAdjust="spacing" textLength="116.0273" x="2315.2036" y="1745.3789">ApplyOrderByFields</text><text fill="#000000" font-family="sans-serif" font-size="12" lengthAdjust="spacing" textLength="7.9922" x="2431.231" y="1745.3789">()</text><text fill="#000000" font-family="sans-serif" font-size="12" lengthAdjust="spacing" textLength="133.0488" x="2315.2036" y="1760.4727">&#8594; multi-field, ASC/DESC</text><rect fill="#E8F4FD" height="35.0938" rx="12.5" ry="12.5" style="stroke:#333333;stroke-width:0.5;" width="173.6855" x="2294.8853" y="1793.1094"/><text fill="#000000" font-family="sans-serif" font-size="12" lengthAdjust="spacing" textLength="30.0176" x="2304.8853" y="1815.5664">Apply</text><text fill="#000000" font-family="sans-serif" font-size="12" font-weight="bold" lengthAdjust="spacing" textLength="24.668" x="2338.2368" y="1815.5664">TOP</text><text fill="#000000" font-family="sans-serif" font-size="12" lengthAdjust="spacing" textLength="3.334" x="2366.2388" y="1815.5664">/</text><text fill="#000000" font-family="sans-serif" font-size="12" font-weight="bold" lengthAdjust="spacing" textLength="85.6641" x="2372.9067" y="1815.5664">OFFSET+LIMIT</text><rect fill="#E8F4FD" height="50.1875" rx="12.5" ry="12.5" style="stroke:#333333;stroke-width:0.5;" width="135.7344" x="2313.8608" y="1848.2031"/><text fill="#000000" font-family="sans-serif" font-size="12" font-weight="bold" lengthAdjust="spacing" textLength="75.3574" x="2323.8608" y="1870.6602">ProjectFields</text><text fill="#000000" font-family="sans-serif" font-size="12" lengthAdjust="spacing" textLength="7.9922" x="2399.2183" y="1870.6602">()</text><text fill="#000000" font-family="sans-serif" font-size="12" lengthAdjust="spacing" textLength="115.7344" x="2323.8608" y="1885.7539">&#8594; SELECT projection</text><rect fill="#E8F4FD" height="35.0938" rx="12.5" ry="12.5" style="stroke:#333333;stroke-width:0.5;" width="174.0078" x="2294.7241" y="1918.3906"/><text fill="#000000" font-family="sans-serif" font-size="12" font-weight="bold" lengthAdjust="spacing" textLength="146.0156" x="2304.7241" y="1940.8477">StripComputedProperties</text><text fill="#000000" font-family="sans-serif" font-size="12" lengthAdjust="spacing" textLength="7.9922" x="2450.7397" y="1940.8477">()</text><rect fill="#E8F4FD" height="35.0938" rx="12.5" ry="12.5" style="stroke:#333333;stroke-width:0.5;" width="108.6816" x="2327.3872" y="1973.4844"/><text fill="#000000" font-family="sans-serif" font-size="12" lengthAdjust="spacing" textLength="30.0176" x="2337.3872" y="1995.9414">Apply</text><text fill="#000000" font-family="sans-serif" font-size="12" font-weight="bold" lengthAdjust="spacing" textLength="55.3301" x="2370.7388" y="1995.9414">DISTINCT</text><rect fill="#E8F4FD" height="50.1875" rx="12.5" ry="12.5" style="stroke:#333333;stroke-width:0.5;" width="139.3672" x="2312.0444" y="2028.5781"/><text fill="#000000" font-family="sans-serif" font-size="12" font-weight="bold" lengthAdjust="spacing" textLength="111.375" x="2322.0444" y="2051.0352">UnwrapValueSelect</text><text fill="#000000" font-family="sans-serif" font-size="12" lengthAdjust="spacing" textLength="7.9922" x="2433.4194" y="2051.0352">()</text><text fill="#000000" font-family="sans-serif" font-size="12" lengthAdjust="spacing" textLength="103.0547" x="2322.0444" y="2066.1289">&#8594; SELECT VALUE</text><rect fill="#E8F4FD" height="35.0938" rx="12.5" ry="12.5" style="stroke:#333333;stroke-width:0.5;" width="164.7148" x="2299.3706" y="2098.7656"/><text fill="#000000" font-family="sans-serif" font-size="12" lengthAdjust="spacing" textLength="144.7148" x="2309.3706" y="2121.2227">Return List&lt;string&gt; (JSON)</text><line style="stroke:#000000;stroke-width:1.5;" x1="2217.1821" x2="2217.1821" y1="115.2344" y2="2742.6924"/><rect fill="#E8F4FD" height="80.375" rx="12.5" ry="12.5" style="stroke:#333333;stroke-width:0.5;" width="210.4063" x="2550.2739" y="2376.0596"/><text fill="#000000" font-family="sans-serif" font-size="12" lengthAdjust="spacing" textLength="139.7461" x="2560.2739" y="2398.5166">EnsureItems() &#8594; Paginate</text><text fill="#000000" font-family="sans-serif" font-size="12" lengthAdjust="spacing" textLength="190.4063" x="2560.2739" y="2413.6104">&#8594; Skip(offset).Take(maxItemCount)</text><text fill="#000000" font-family="sans-serif" font-size="12" lengthAdjust="spacing" textLength="111.0938" x="2560.2739" y="2428.7041">&#8594; continuation token</text><text fill="#000000" font-family="sans-serif" font-size="12" lengthAdjust="spacing" textLength="10.3535" x="2560.2739" y="2443.7979">&#8594;</text><text fill="#000000" font-family="sans-serif" font-size="12" font-weight="bold" lengthAdjust="spacing" textLength="163.3828" x="2573.9614" y="2443.7979">InMemoryFeedResponse&lt;T&gt;</text><line style="stroke:#000000;stroke-width:1.5;" x1="2544.2739" x2="2544.2739" y1="115.2344" y2="2742.6924"/><line style="stroke:#000000;stroke-width:1.5;" x1="2764.6802" x2="2764.6802" y1="115.2344" y2="2742.6924"/><line style="stroke:#181818;stroke-width:1;" x1="169.1472" x2="169.1472" y1="162.875" y2="182.875"/><polygon fill="#181818" points="165.1472,172.875,169.1472,182.875,173.1472,172.875,169.1472,176.875" style="stroke:#181818;stroke-width:1;"/><line style="stroke:#181818;stroke-width:1;" x1="169.1472" x2="169.1472" y1="862.6875" y2="882.6875"/><polygon fill="#181818" points="165.1472,872.6875,169.1472,882.6875,173.1472,872.6875,169.1472,876.6875" style="stroke:#181818;stroke-width:1;"/><line style="stroke:#181818;stroke-width:1;" x1="169.1472" x2="169.1472" y1="2288.0469" y2="2320.9658"/><polygon fill="#181818" points="165.1472,2310.9658,169.1472,2320.9658,173.1472,2310.9658,169.1472,2314.9658" style="stroke:#181818;stroke-width:1;"/><line style="stroke:#181818;stroke-width:1;" x1="169.1472" x2="169.1472" y1="2511.5283" y2="2521.5283"/><line style="stroke:#181818;stroke-width:1;" x1="169.1472" x2="286.3503" y1="2521.5283" y2="2521.5283"/><polygon fill="#181818" points="282.3503,2407.3291,286.3503,2397.3291,290.3503,2407.3291,286.3503,2403.3291" style="stroke:#181818;stroke-width:1;"/><line style="stroke:#181818;stroke-width:1;" x1="286.3503" x2="286.3503" y1="2276.0469" y2="2521.5283"/><line style="stroke:#181818;stroke-width:1;" x1="286.3503" x2="224.8572" y1="2276.0469" y2="2276.0469"/><polygon fill="#181818" points="234.8572,2272.0469,224.8572,2276.0469,234.8572,2280.0469,230.8572,2276.0469" style="stroke:#181818;stroke-width:1;"/><line style="stroke:#181818;stroke-width:1;" x1="113.4373" x2="51.9441" y1="2276.0469" y2="2276.0469"/><polygon fill="#181818" points="47.9441,2393.3291,51.9441,2403.3291,55.9441,2393.3291,51.9441,2397.3291" style="stroke:#181818;stroke-width:1;"/><line style="stroke:#181818;stroke-width:1;" x1="51.9441" x2="51.9441" y1="2276.0469" y2="2533.5283"/><line style="stroke:#181818;stroke-width:1;" x1="51.9441" x2="169.1472" y1="2533.5283" y2="2533.5283"/><line style="stroke:#181818;stroke-width:1;" x1="169.1472" x2="169.1472" y1="2533.5283" y2="2603.9346"/><polygon fill="#181818" points="165.1472,2593.9346,169.1472,2603.9346,173.1472,2593.9346,169.1472,2597.9346" style="stroke:#181818;stroke-width:1;"/><line style="stroke:#181818;stroke-width:1;" x1="169.1472" x2="169.1472" y1="2640.2861" y2="2720.6924"/><polygon fill="#181818" points="165.1472,2710.6924,169.1472,2720.6924,173.1472,2710.6924,169.1472,2714.6924" style="stroke:#181818;stroke-width:1;"/><line style="stroke:#181818;stroke-width:1;" x1="915.5137" x2="856.4219" y1="350.3438" y2="350.3438"/><line style="stroke:#181818;stroke-width:1;" x1="856.4219" x2="856.4219" y1="350.3438" y2="372.3438"/><polygon fill="#181818" points="852.4219,362.3438,856.4219,372.3438,860.4219,362.3438,856.4219,366.3438" style="stroke:#181818;stroke-width:1;"/><line style="stroke:#181818;stroke-width:1;" x1="1022.0674" x2="1081.1592" y1="350.3438" y2="350.3438"/><line style="stroke:#181818;stroke-width:1;" x1="1081.1592" x2="1081.1592" y1="350.3438" y2="372.3438"/><polygon fill="#181818" points="1077.1592,362.3438,1081.1592,372.3438,1085.1592,362.3438,1081.1592,366.3438" style="stroke:#181818;stroke-width:1;"/><line style="stroke:#181818;stroke-width:1;" x1="856.4219" x2="856.4219" y1="407.4375" y2="440.5313"/><line style="stroke:#181818;stroke-width:1;" x1="856.4219" x2="956.7905" y1="440.5313" y2="440.5313"/><polygon fill="#181818" points="946.7905,436.5313,956.7905,440.5313,946.7905,444.5313,950.7905,440.5313" style="stroke:#181818;stroke-width:1;"/><line style="stroke:#181818;stroke-width:1;" x1="1081.1592" x2="1081.1592" y1="422.5313" y2="440.5313"/><line style="stroke:#181818;stroke-width:1;" x1="1081.1592" x2="980.7905" y1="440.5313" y2="440.5313"/><polygon fill="#181818" points="990.7905,436.5313,980.7905,440.5313,990.7905,444.5313,986.7905,440.5313" style="stroke:#181818;stroke-width:1;"/><line style="stroke:#181818;stroke-width:1;" x1="968.7905" x2="968.7905" y1="318.3438" y2="338.3438"/><polygon fill="#181818" points="964.7905,328.3438,968.7905,338.3438,972.7905,328.3438,968.7905,332.3438" style="stroke:#181818;stroke-width:1;"/><line style="stroke:#181818;stroke-width:1;" x1="1410.9077" x2="1410.9077" y1="522.7188" y2="542.7188"/><polygon fill="#181818" points="1406.9077,532.7188,1410.9077,542.7188,1414.9077,532.7188,1410.9077,536.7188" style="stroke:#181818;stroke-width:1;"/><line style="stroke:#181818;stroke-width:1;" x1="1357.6362" x2="1297.2178" y1="705.4063" y2="705.4063"/><line style="stroke:#181818;stroke-width:1;" x1="1297.2178" x2="1297.2178" y1="705.4063" y2="727.4063"/><polygon fill="#181818" points="1293.2178,717.4063,1297.2178,727.4063,1301.2178,717.4063,1297.2178,721.4063" style="stroke:#181818;stroke-width:1;"/><line style="stroke:#181818;stroke-width:1;" x1="1464.1792" x2="1524.5977" y1="705.4063" y2="705.4063"/><line style="stroke:#181818;stroke-width:1;" x1="1524.5977" x2="1524.5977" y1="705.4063" y2="727.4063"/><polygon fill="#181818" points="1520.5977,717.4063,1524.5977,727.4063,1528.5977,717.4063,1524.5977,721.4063" style="stroke:#181818;stroke-width:1;"/><line style="stroke:#181818;stroke-width:1;" x1="1297.2178" x2="1297.2178" y1="762.5" y2="795.5938"/><line style="stroke:#181818;stroke-width:1;" x1="1297.2178" x2="1398.9077" y1="795.5938" y2="795.5938"/><polygon fill="#181818" points="1388.9077,791.5938,1398.9077,795.5938,1388.9077,799.5938,1392.9077,795.5938" style="stroke:#181818;stroke-width:1;"/><line style="stroke:#181818;stroke-width:1;" x1="1524.5977" x2="1524.5977" y1="777.5938" y2="795.5938"/><line style="stroke:#181818;stroke-width:1;" x1="1524.5977" x2="1422.9077" y1="795.5938" y2="795.5938"/><polygon fill="#181818" points="1432.9077,791.5938,1422.9077,795.5938,1432.9077,799.5938,1428.9077,795.5938" style="stroke:#181818;stroke-width:1;"/><line style="stroke:#181818;stroke-width:1;" x1="1410.9077" x2="1410.9077" y1="608" y2="693.4063"/><polygon fill="#181818" points="1406.9077,683.4063,1410.9077,693.4063,1414.9077,683.4063,1410.9077,687.4063" style="stroke:#181818;stroke-width:1;"/><line style="stroke:#181818;stroke-width:1;" x1="1850.729" x2="1850.729" y1="1004.3203" y2="1024.3203"/><polygon fill="#181818" points="1846.729,1014.3203,1850.729,1024.3203,1854.729,1014.3203,1850.729,1018.3203" style="stroke:#181818;stroke-width:1;"/><line style="stroke:#181818;stroke-width:1;" x1="1850.729" x2="1850.729" y1="2188.9531" y2="2208.9531"/><polygon fill="#181818" points="1846.729,2198.9531,1850.729,2208.9531,1854.729,2198.9531,1850.729,2202.9531" style="stroke:#181818;stroke-width:1;"/><line style="stroke:#181818;stroke-width:1;" x1="2381.728" x2="2381.728" y1="1260.1641" y2="1280.1641"/><polygon fill="#181818" points="2377.728,1270.1641,2381.728,1280.1641,2385.728,1270.1641,2381.728,1274.1641" style="stroke:#181818;stroke-width:1;"/><line style="stroke:#181818;stroke-width:1;" x1="2381.728" x2="2381.728" y1="1315.2578" y2="1335.2578"/><polygon fill="#181818" points="2377.728,1325.2578,2381.728,1335.2578,2385.728,1325.2578,2381.728,1329.2578" style="stroke:#181818;stroke-width:1;"/><line style="stroke:#181818;stroke-width:1;" x1="2381.728" x2="2381.728" y1="1385.4453" y2="1405.4453"/><polygon fill="#181818" points="2377.728,1395.4453,2381.728,1405.4453,2385.728,1395.4453,2381.728,1399.4453" style="stroke:#181818;stroke-width:1;"/><line style="stroke:#181818;stroke-width:1;" x1="2381.728" x2="2381.728" y1="1455.6328" y2="1475.6328"/><polygon fill="#181818" points="2377.728,1465.6328,2381.728,1475.6328,2385.728,1465.6328,2381.728,1469.6328" style="stroke:#181818;stroke-width:1;"/><line style="stroke:#181818;stroke-width:1;" x1="2381.728" x2="2381.728" y1="1632.7344" y2="1652.7344"/><polygon fill="#181818" points="2377.728,1642.7344,2381.728,1652.7344,2385.728,1642.7344,2381.728,1646.7344" style="stroke:#181818;stroke-width:1;"/><line style="stroke:#181818;stroke-width:1;" x1="2381.728" x2="2381.728" y1="1702.9219" y2="1722.9219"/><polygon fill="#181818" points="2377.728,1712.9219,2381.728,1722.9219,2385.728,1712.9219,2381.728,1716.9219" style="stroke:#181818;stroke-width:1;"/><line style="stroke:#181818;stroke-width:1;" x1="2381.728" x2="2381.728" y1="1773.1094" y2="1793.1094"/><polygon fill="#181818" points="2377.728,1783.1094,2381.728,1793.1094,2385.728,1783.1094,2381.728,1787.1094" style="stroke:#181818;stroke-width:1;"/><line style="stroke:#181818;stroke-width:1;" x1="2381.728" x2="2381.728" y1="1828.2031" y2="1848.2031"/><polygon fill="#181818" points="2377.728,1838.2031,2381.728,1848.2031,2385.728,1838.2031,2381.728,1842.2031" style="stroke:#181818;stroke-width:1;"/><line style="stroke:#181818;stroke-width:1;" x1="2381.728" x2="2381.728" y1="1898.3906" y2="1918.3906"/><polygon fill="#181818" points="2377.728,1908.3906,2381.728,1918.3906,2385.728,1908.3906,2381.728,1912.3906" style="stroke:#181818;stroke-width:1;"/><line style="stroke:#181818;stroke-width:1;" x1="2381.728" x2="2381.728" y1="1953.4844" y2="1973.4844"/><polygon fill="#181818" points="2377.728,1963.4844,2381.728,1973.4844,2385.728,1963.4844,2381.728,1967.4844" style="stroke:#181818;stroke-width:1;"/><line style="stroke:#181818;stroke-width:1;" x1="2381.728" x2="2381.728" y1="2008.5781" y2="2028.5781"/><polygon fill="#181818" points="2377.728,2018.5781,2381.728,2028.5781,2385.728,2018.5781,2381.728,2022.5781" style="stroke:#181818;stroke-width:1;"/><line style="stroke:#181818;stroke-width:1;" x1="2381.728" x2="2381.728" y1="2078.7656" y2="2098.7656"/><polygon fill="#181818" points="2377.728,2088.7656,2381.728,2098.7656,2385.728,2088.7656,2381.728,2092.7656" style="stroke:#181818;stroke-width:1;"/><line style="stroke:#181818;stroke-width:1;" x1="169.1472" x2="169.1472" y1="233.0625" y2="238.0625"/><line style="stroke:#181818;stroke-width:1;" x1="169.1472" x2="968.7905" y1="238.0625" y2="238.0625"/><line style="stroke:#181818;stroke-width:1;" x1="968.7905" x2="968.7905" y1="238.0625" y2="253.0625"/><polygon fill="#181818" points="964.7905,243.0625,968.7905,253.0625,972.7905,243.0625,968.7905,247.0625" style="stroke:#181818;stroke-width:1;"/><line style="stroke:#181818;stroke-width:1;" x1="968.7905" x2="968.7905" y1="452.5313" y2="457.5313"/><line style="stroke:#181818;stroke-width:1;" x1="968.7905" x2="1410.9077" y1="457.5313" y2="457.5313"/><line style="stroke:#181818;stroke-width:1;" x1="1410.9077" x2="1410.9077" y1="457.5313" y2="472.5313"/><polygon fill="#181818" points="1406.9077,462.5313,1410.9077,472.5313,1414.9077,462.5313,1410.9077,466.5313" style="stroke:#181818;stroke-width:1;"/><line style="stroke:#181818;stroke-width:1;" x1="1410.9077" x2="1410.9077" y1="807.5938" y2="812.5938"/><line style="stroke:#181818;stroke-width:1;" x1="1410.9077" x2="169.1472" y1="812.5938" y2="812.5938"/><line style="stroke:#181818;stroke-width:1;" x1="169.1472" x2="169.1472" y1="812.5938" y2="827.5938"/><polygon fill="#181818" points="165.1472,817.5938,169.1472,827.5938,173.1472,817.5938,169.1472,821.5938" style="stroke:#181818;stroke-width:1;"/><line style="stroke:#181818;stroke-width:1;" x1="169.1472" x2="169.1472" y1="934.1328" y2="939.1328"/><line style="stroke:#181818;stroke-width:1;" x1="169.1472" x2="1850.729" y1="939.1328" y2="939.1328"/><line style="stroke:#181818;stroke-width:1;" x1="1850.729" x2="1850.729" y1="939.1328" y2="954.1328"/><polygon fill="#181818" points="1846.729,944.1328,1850.729,954.1328,1854.729,944.1328,1850.729,948.1328" style="stroke:#181818;stroke-width:1;"/><line style="stroke:#181818;stroke-width:1;" x1="1850.729" x2="1850.729" y1="1074.5078" y2="1079.5078"/><line style="stroke:#181818;stroke-width:1;" x1="1850.729" x2="2105.4888" y1="1079.5078" y2="1079.5078"/><line style="stroke:#181818;stroke-width:1;" x1="2105.4888" x2="2105.4888" y1="1079.5078" y2="1094.5078"/><polygon fill="#181818" points="2101.4888,1084.5078,2105.4888,1094.5078,2109.4888,1084.5078,2105.4888,1088.5078" style="stroke:#181818;stroke-width:1;"/><line style="stroke:#181818;stroke-width:1;" x1="2105.4888" x2="2105.4888" y1="1174.8828" y2="1179.8828"/><line style="stroke:#181818;stroke-width:1;" x1="2105.4888" x2="2381.728" y1="1179.8828" y2="1179.8828"/><line style="stroke:#181818;stroke-width:1;" x1="2381.728" x2="2381.728" y1="1179.8828" y2="1194.8828"/><polygon fill="#181818" points="2377.728,1184.8828,2381.728,1194.8828,2385.728,1184.8828,2381.728,1188.8828" style="stroke:#181818;stroke-width:1;"/><line style="stroke:#181818;stroke-width:1;" x1="2381.728" x2="2381.728" y1="2133.8594" y2="2138.8594"/><line style="stroke:#181818;stroke-width:1;" x1="2381.728" x2="1850.729" y1="2138.8594" y2="2138.8594"/><line style="stroke:#181818;stroke-width:1;" x1="1850.729" x2="1850.729" y1="2138.8594" y2="2153.8594"/><polygon fill="#181818" points="1846.729,2143.8594,1850.729,2153.8594,1854.729,2143.8594,1850.729,2147.8594" style="stroke:#181818;stroke-width:1;"/><line style="stroke:#181818;stroke-width:1;" x1="169.1472" x2="169.1472" y1="2356.0596" y2="2361.0596"/><line style="stroke:#181818;stroke-width:1;" x1="169.1472" x2="2655.4771" y1="2361.0596" y2="2361.0596"/><line style="stroke:#181818;stroke-width:1;" x1="2655.4771" x2="2655.4771" y1="2361.0596" y2="2376.0596"/><polygon fill="#181818" points="2651.4771,2366.0596,2655.4771,2376.0596,2659.4771,2366.0596,2655.4771,2370.0596" style="stroke:#181818;stroke-width:1;"/><line style="stroke:#181818;stroke-width:1;" x1="2655.4771" x2="2655.4771" y1="2456.4346" y2="2461.4346"/><line style="stroke:#181818;stroke-width:1;" x1="2655.4771" x2="169.1472" y1="2461.4346" y2="2461.4346"/><line style="stroke:#181818;stroke-width:1;" x1="169.1472" x2="169.1472" y1="2461.4346" y2="2476.4346"/><polygon fill="#181818" points="165.1472,2466.4346,169.1472,2476.4346,173.1472,2466.4346,169.1472,2470.4346" style="stroke:#181818;stroke-width:1;"/><line style="stroke:#181818;stroke-width:1;" x1="1850.729" x2="1850.729" y1="2244.0469" y2="2249.0469"/><line style="stroke:#181818;stroke-width:1;" x1="1850.729" x2="169.1472" y1="2249.0469" y2="2249.0469"/><line style="stroke:#181818;stroke-width:1;" x1="169.1472" x2="169.1472" y1="2249.0469" y2="2264.0469"/><polygon fill="#181818" points="165.1472,2254.0469,169.1472,2264.0469,173.1472,2254.0469,169.1472,2258.0469" style="stroke:#181818;stroke-width:1;"/><text fill="#000000" font-family="sans-serif" font-size="18" lengthAdjust="spacing" textLength="83.0391" x="337.8384" y="133.9199">Test Code</text><text fill="#000000" font-family="sans-serif" font-size="18" lengthAdjust="spacing" textLength="192.0498" x="867.4282" y="133.9199">InMemoryCosmosClient</text><text fill="#000000" font-family="sans-serif" font-size="18" lengthAdjust="spacing" textLength="157.0693" x="1366.8918" y="133.9199">InMemoryDatabase</text><text fill="#000000" font-family="sans-serif" font-size="18" lengthAdjust="spacing" textLength="158.0625" x="1770.6978" y="133.9199">InMemoryContainer</text><text fill="#000000" font-family="sans-serif" font-size="18" lengthAdjust="spacing" textLength="145.0459" x="2031.9658" y="133.9199">CosmosSqlParser</text><text fill="#000000" font-family="sans-serif" font-size="18" lengthAdjust="spacing" textLength="317.0918" x="2222.1821" y="133.9199">InMemoryContainer.FilterItemsByQuery</text><text fill="#000000" font-family="sans-serif" font-size="18" lengthAdjust="spacing" textLength="210.085" x="2549.4346" y="133.9199">InMemoryFeedIterator&lt;T&gt;</text><!--SRC=[hLRRRjj647tdLmoG5qgHbRG9WiAENSYKv2YLBCUaa_QfM9CZQIDgbzvTscQWXppr0uf-GpyiNzBP9KLJijmBK0HmIEvSpvmvAyDDYj1kzx9CIHOluFj368a9hgGg0gbNKWSfHs7WUUEpC8mBLF3jwn_m8KTLm32LT-3taGvIJ5hjjkVf9HSPKsm5ronUpfNCHHB8L2fuDXpOVmsBNcpuBJV5gLG9gihgrQjN-qnsWmr-6BuUzXkM5qmPRhWKMz7Ul7dZUUi8jO509hZsj24xxp1WQKhzx-kvUuQcRfPQyXDcs3NJE4ew46yEHadhY2Bl2x3s3jljNpTUsiQRgbwIjDjReRvz_RFbVVljTofCnBbIvDddiUs04RIfbCiyS-TceP0b1vhD45BsfO2OtgqT5S1dK0S5lEVQw1zRv842_09romCul4IJAr6USZ5ljDslFDlj8mzJYk0BwLm2cy4IHE0TFBOcasrKNDy428g4pngmR5mS90w7Cl8MlWrCEv1jnlWJ5XVCB2pA5ixQQ0lFBTV_3T0wwdz7jD7Olu6qYGF0Fo9HmIia1L9ylZ3a5ERN6czokwnDulejY8dZ6kwuMP2PPYk4XvdHOZUIWN8DaHdrIIM6lSa0kA1T4J6DsssyzGMkGI-OmeHCMQoarc0NoMQoax45WgrkU-S8hnZvBSA3XlYF4B23VZQsJPqfH75uV7mCuOTnKsdea-VpX5hbb16CX5g_lckjjxQn2hgkDvsm6HbSkMZqe9YHwcrqOlbtOxz5U6_AzUOYTsI8v195Xw2XSssccVsc7Hsha4EUKY0RLPyMBl1ED2TCI3PwNvXrgHdXJKhIfLsjxRPx96BNKJQChanBD7fXvFaXfXYR8SSqeVYV5gYm0rEhVQT5npiZiSpe0VgEep6L4ycC36OpZVGovYjkTYIi0gtxkB7D_lRIr7qUIbNhBLMxqvmhUKnvtsgZQ3zEOARaQkzQEjEQwR340cOkExbHnT6ObYnESrqk9nNHo-ShYl29M1t8LPORJ2wKp90YeAPIAhqOt6TC94DA6yfSMHBxPLd3o-a4OXYTGznbIh720TXqeXxVIo9_xV9-IjRE5cOfCmO55LUpzHTCYPkEhf_U3Iu7GBK09v0SNIdeBKk9KEW6H1aKQkrGSx4VpccupLCWK0ajJMjJLc4vXxK1c293VUYDkULose6HMuiPHzM12f2Y5yTatV568i7xwWLEkSMz0rVbVyDSk5bOJdl-wvVFOLPzqIqoHdE7TWj6mb9cYHqlGbLw1fAbg6CY7KcGusl7wrcKwfgcrv-9eTNhkXnVbgL5nKqBCEaGcyyLpWa1xVd1zEeyee1NamxqFfvrO38wfp-zdwknElUAuoNpwocjyjJmWvdzIBvXyA8_20FhvNm8w6XwGR2-eAVfS1WEekVZqMGKMPrsYwVavtgTwg3XO3m88iZAmvg48T4wUvf-cupzKHYDpeCwnvMuKopxIFF6SdbtytpiZQy6rhQwOBPso7yVJi_tRoojPnz9GZXB-HU4UlsYaoFluUBPk0qHaoq9FDgMwxi5_Pe3_ntJ4wdm4ZKXQ-z04l_63SYISvAddYv4xBe6M3-HO6qT1aBd2fruqDHjXHTiJbIakmBSQxZacI-TEhMw4LkYlsBtrZwWNtscLLar1Pek05Bewc2xFIew8mRZfZqghj6Wgx-yaKZ5zvZJDLQ1O2_lQj5FQMnkpSUZym_LJr-MQWbFtKXM0DOxjtLr3Osvk772ogvJczNVzFU4njRdksFkzdGTnszrgzNmx-7u15ws7h1n1vWqSrgDiQqS67bGRghUE5nH4c34OY8rT9roqT1UGBUaRVcyoRLnwaQoEVZfBIh5axAmocGVGKAYUjOjIVe4WVxMdywhqnrEFl9eJBdnGqKRcNb_0G00]--></g></svg>