<svg xmlns="http://www.w3.org/2000/svg" xmlns:xlink="http://www.w3.org/1999/xlink" contentStyleType="text/css" data-diagram-type="SEQUENCE" height="1986px" preserveAspectRatio="none" style="width:2054px;height:1986px;background:#FEFEFE;" version="1.1" viewBox="0 0 2054 1986" width="2054px" zoomAndPan="magnify"><title>**Approach 1: InMemoryContainer &#8212; LINQ Query Flow (Detailed)**</title><defs/><g><rect fill="#FEFEFE" height="1986" style="stroke:none;stroke-width:1;" width="2054" x="0" y="0"/><text fill="#000000" font-family="sans-serif" font-size="14" font-weight="bold" lengthAdjust="spacing" textLength="420.4854" x="812.9126" y="29.5332">Approach 1: InMemoryContainer &#8212; LINQ Query Flow (Detailed)</text><g><title>InMemoryFeedIteratorSetup</title><rect fill="#FFFFFF" height="82.0859" style="stroke:#181818;stroke-width:1;" width="10" x="297.5464" y="197.9219"/></g><g><title>InMemoryFeedIteratorSetup</title><rect fill="#FFFFFF" height="185.8125" style="stroke:#181818;stroke-width:1;" width="10" x="297.5464" y="1290.3984"/></g><g><title>InMemoryContainer</title><rect fill="#FFFFFF" height="391.625" style="stroke:#181818;stroke-width:1;" width="10" x="550.1216" y="387.4141"/></g><g><title>In-memory store</title><rect fill="#FFFFFF" height="63.0547" style="stroke:#181818;stroke-width:1;" width="10" x="810.3159" y="417.7656"/></g><g><title>CosmosOverridable</title><rect fill="#FFFFFF" height="446.7109" style="stroke:#181818;stroke-width:1;" width="10" x="1159.0698" y="1059.8516"/></g><g><title>AsyncLocal.Func...</title><rect fill="#FFFFFF" height="46.7031" style="stroke:#181818;stroke-width:1;" width="10" x="1424.3486" y="1090.2031"/></g><g><title>InMemoryFeedIterator.T.</title><rect fill="#FFFFFF" height="272.5156" style="stroke:#181818;stroke-width:1;" width="10" x="1597.7583" y="1606.6172"/></g><rect fill="none" height="321.2188" style="stroke:#000000;stroke-width:1.5;" width="2027.3105" x="10" y="1565.9141"/><g><title>Test Code</title><rect fill="#000000" fill-opacity="0.00000" height="1782.9141" width="8" x="51.293" y="121.2188"/><line style="stroke:#999999;stroke-width:0.5;stroke-dasharray:5,5;" x1="55" x2="55" y1="121.2188" y2="1904.1328"/></g><g><title>InMemoryFeedIteratorSetup</title><rect fill="#000000" fill-opacity="0.00000" height="1782.9141" width="8" x="298.5464" y="121.2188"/><line style="stroke:#999999;stroke-width:0.5;stroke-dasharray:5,5;" x1="302.0054" x2="302.0054" y1="121.2188" y2="1904.1328"/></g><g><title>InMemoryContainer</title><rect fill="#000000" fill-opacity="0.00000" height="1782.9141" width="8" x="551.1216" y="121.2188"/><line style="stroke:#999999;stroke-width:0.5;stroke-dasharray:5,5;" x1="554.646" x2="554.646" y1="121.2188" y2="1904.1328"/></g><g><title>In-memory store</title><rect fill="#000000" fill-opacity="0.00000" height="1782.9141" width="8" x="811.3159" y="121.2188"/><line style="stroke:#999999;stroke-width:0.5;stroke-dasharray:5,5;" x1="814.9058" x2="814.9058" y1="121.2188" y2="1904.1328"/></g><g><title>IOrderedQueryable.T.</title><rect fill="#000000" fill-opacity="0.00000" height="1254.3789" width="8" x="978.0981" y="649.7539"/><line style="stroke:#999999;stroke-width:0.5;stroke-dasharray:5,5;" x1="981.7261" x2="981.7261" y1="649.7539" y2="1904.1328"/></g><g><title>CosmosOverridable</title><rect fill="#000000" fill-opacity="0.00000" height="1782.9141" width="8" x="1160.0698" y="121.2188"/><line style="stroke:#999999;stroke-width:0.5;stroke-dasharray:5,5;" x1="1163.4702" x2="1163.4702" y1="121.2188" y2="1904.1328"/></g><g><title>AsyncLocal.Func...</title><rect fill="#000000" fill-opacity="0.00000" height="1782.9141" width="8" x="1425.3486" y="121.2188"/><line style="stroke:#999999;stroke-width:0.5;stroke-dasharray:5,5;" x1="1428.6387" x2="1428.6387" y1="121.2188" y2="1904.1328"/></g><g><title>InMemoryFeedIterator.T.</title><rect fill="#000000" fill-opacity="0.00000" height="471.8008" width="8" x="1598.7583" y="1432.332"/><line style="stroke:#999999;stroke-width:0.5;stroke-dasharray:5,5;" x1="1602.0586" x2="1602.0586" y1="1432.332" y2="1904.1328"/></g><g><title>InMemoryFeedResponse.T.</title><rect fill="#000000" fill-opacity="0.00000" height="77.0547" width="8" x="1925.2593" y="1827.0781"/><line style="stroke:#999999;stroke-width:0.5;stroke-dasharray:5,5;" x1="1929.208" x2="1929.208" y1="1827.0781" y2="1904.1328"/></g><g class="participant participant-head" data-participant="Test"><text fill="#000000" font-family="sans-serif" font-size="14" lengthAdjust="spacing" textLength="64.5859" x="20" y="118.1426">Test Code</text><ellipse cx="55.293" cy="52.1094" fill="#E2E2F0" rx="8" ry="8" style="stroke:#181818;stroke-width:0.5;"/><path d="M55.293,60.1094 L55.293,87.1094 M42.293,68.1094 L68.293,68.1094 M55.293,87.1094 L42.293,102.1094 M55.293,87.1094 L68.293,102.1094" fill="none" style="stroke:#181818;stroke-width:0.5;"/></g><g class="participant participant-tail" data-participant="Test"><text fill="#000000" font-family="sans-serif" font-size="14" lengthAdjust="spacing" textLength="64.5859" x="20" y="1917.666">Test Code</text><ellipse cx="55.293" cy="1929.2422" fill="#E2E2F0" rx="8" ry="8" style="stroke:#181818;stroke-width:0.5;"/><path d="M55.293,1937.2422 L55.293,1964.2422 M42.293,1945.2422 L68.293,1945.2422 M55.293,1964.2422 L42.293,1979.2422 M55.293,1964.2422 L68.293,1979.2422" fill="none" style="stroke:#181818;stroke-width:0.5;"/></g><g class="participant participant-head" data-participant="Setup"><rect fill="#E2E2F0" height="31.6094" rx="2.5" ry="2.5" style="stroke:#333333;stroke-width:0.5;" width="189.082" x="208.0054" y="88.6094"/><text fill="#000000" font-family="sans-serif" font-size="14" lengthAdjust="spacing" textLength="175.082" x="215.0054" y="110.1426">InMemoryFeedIteratorSetup</text></g><g class="participant participant-tail" data-participant="Setup"><rect fill="#E2E2F0" height="31.6094" rx="2.5" ry="2.5" style="stroke:#333333;stroke-width:0.5;" width="189.082" x="208.0054" y="1903.1328"/><text fill="#000000" font-family="sans-serif" font-size="14" lengthAdjust="spacing" textLength="175.082" x="215.0054" y="1924.666">InMemoryFeedIteratorSetup</text></g><g class="participant participant-head" data-participant="IMC"><rect fill="#E2E2F0" height="49.2188" rx="2.5" ry="2.5" style="stroke:#333333;stroke-width:0.5;" width="136.9512" x="486.646" y="71"/><text fill="#000000" font-family="sans-serif" font-size="14" lengthAdjust="spacing" textLength="122.9375" x="493.6528" y="92.5332">InMemoryContainer</text><text fill="#000000" font-family="sans-serif" font-size="14" lengthAdjust="spacing" textLength="122.9512" x="493.646" y="110.1426">(extends Container)</text></g><g class="participant participant-tail" data-participant="IMC"><rect fill="#E2E2F0" height="49.2188" rx="2.5" ry="2.5" style="stroke:#333333;stroke-width:0.5;" width="136.9512" x="486.646" y="1903.1328"/><text fill="#000000" font-family="sans-serif" font-size="14" lengthAdjust="spacing" textLength="122.9375" x="493.6528" y="1924.666">InMemoryContainer</text><text fill="#000000" font-family="sans-serif" font-size="14" lengthAdjust="spacing" textLength="122.9512" x="493.646" y="1942.2754">(extends Container)</text></g><g class="participant participant-head" data-participant="Store"><rect fill="#E2E2F0" height="49.2188" rx="2.5" ry="2.5" style="stroke:#333333;stroke-width:0.5;" width="154.8203" x="737.9058" y="71"/><text fill="#000000" font-family="sans-serif" font-size="14" lengthAdjust="spacing" textLength="101.9102" x="764.3608" y="92.5332">In-memory store</text><text fill="#000000" font-family="sans-serif" font-size="14" lengthAdjust="spacing" textLength="140.8203" x="744.9058" y="110.1426">(ConcurrentDictionary)</text></g><g class="participant participant-tail" data-participant="Store"><rect fill="#E2E2F0" height="49.2188" rx="2.5" ry="2.5" style="stroke:#333333;stroke-width:0.5;" width="154.8203" x="737.9058" y="1903.1328"/><text fill="#000000" font-family="sans-serif" font-size="14" lengthAdjust="spacing" textLength="101.9102" x="764.3608" y="1924.666">In-memory store</text><text fill="#000000" font-family="sans-serif" font-size="14" lengthAdjust="spacing" textLength="140.8203" x="744.9058" y="1942.2754">(ConcurrentDictionary)</text></g><g class="participant participant-tail" data-participant="Queryable"><rect fill="#E2E2F0" height="49.2188" rx="2.5" ry="2.5" style="stroke:#333333;stroke-width:0.5;" width="158.7441" x="902.7261" y="1903.1328"/><text fill="#000000" font-family="sans-serif" font-size="14" lengthAdjust="spacing" textLength="144.7441" x="909.7261" y="1924.666">IOrderedQueryable&lt;T&gt;</text><text fill="#000000" font-family="sans-serif" font-size="14" lengthAdjust="spacing" textLength="110.4619" x="926.8672" y="1942.2754">(LINQ-to-Objects)</text></g><g class="participant participant-head" data-participant="Ext"><rect fill="#E2E2F0" height="66.8281" rx="2.5" ry="2.5" style="stroke:#333333;stroke-width:0.5;" width="185.1992" x="1071.4702" y="53.3906"/><text fill="#000000" font-family="sans-serif" font-size="14" lengthAdjust="spacing" textLength="123.71" x="1102.2148" y="74.9238">CosmosOverridable</text><text fill="#000000" font-family="sans-serif" font-size="14" lengthAdjust="spacing" textLength="144.7441" x="1091.6978" y="92.5332">FeedIteratorExtensions</text><text fill="#000000" font-family="sans-serif" font-size="14" lengthAdjust="spacing" textLength="171.1992" x="1078.4702" y="110.1426">(ProductionExtensions pkg)</text></g><g class="participant participant-tail" data-participant="Ext"><rect fill="#E2E2F0" height="66.8281" rx="2.5" ry="2.5" style="stroke:#333333;stroke-width:0.5;" width="185.1992" x="1071.4702" y="1903.1328"/><text fill="#000000" font-family="sans-serif" font-size="14" lengthAdjust="spacing" textLength="123.71" x="1102.2148" y="1924.666">CosmosOverridable</text><text fill="#000000" font-family="sans-serif" font-size="14" lengthAdjust="spacing" textLength="144.7441" x="1091.6978" y="1942.2754">FeedIteratorExtensions</text><text fill="#000000" font-family="sans-serif" font-size="14" lengthAdjust="spacing" textLength="171.1992" x="1078.4702" y="1959.8848">(ProductionExtensions pkg)</text></g><g class="participant participant-head" data-participant="AsyncLocal"><rect fill="#E2E2F0" height="49.2188" rx="2.5" ry="2.5" style="stroke:#333333;stroke-width:0.5;" width="149.4199" x="1354.6387" y="71"/><text fill="#000000" font-family="sans-serif" font-size="14" lengthAdjust="spacing" textLength="135.4199" x="1361.6387" y="92.5332">AsyncLocal&lt;Func&lt;&gt;&gt;</text><text fill="#000000" font-family="sans-serif" font-size="14" lengthAdjust="spacing" textLength="122.9375" x="1367.8799" y="110.1426">FeedIteratorFactory</text></g><g class="participant participant-tail" data-participant="AsyncLocal"><rect fill="#E2E2F0" height="49.2188" rx="2.5" ry="2.5" style="stroke:#333333;stroke-width:0.5;" width="149.4199" x="1354.6387" y="1903.1328"/><text fill="#000000" font-family="sans-serif" font-size="14" lengthAdjust="spacing" textLength="135.4199" x="1361.6387" y="1924.666">AsyncLocal&lt;Func&lt;&gt;&gt;</text><text fill="#000000" font-family="sans-serif" font-size="14" lengthAdjust="spacing" textLength="122.9375" x="1367.8799" y="1942.2754">FeedIteratorFactory</text></g><g class="participant participant-tail" data-participant="FeedIter"><rect fill="#E2E2F0" height="31.6094" rx="2.5" ry="2.5" style="stroke:#333333;stroke-width:0.5;" width="177.3994" x="1514.0586" y="1903.1328"/><text fill="#000000" font-family="sans-serif" font-size="14" lengthAdjust="spacing" textLength="163.3994" x="1521.0586" y="1924.666">InMemoryFeedIterator&lt;T&gt;</text></g><g class="participant participant-tail" data-participant="FeedResp"><rect fill="#E2E2F0" height="49.2188" rx="2.5" ry="2.5" style="stroke:#333333;stroke-width:0.5;" width="196.1025" x="1831.208" y="1903.1328"/><text fill="#000000" font-family="sans-serif" font-size="14" lengthAdjust="spacing" textLength="182.0889" x="1838.2148" y="1924.666">InMemoryFeedResponse&lt;T&gt;</text><text fill="#000000" font-family="sans-serif" font-size="14" lengthAdjust="spacing" textLength="182.1025" x="1838.208" y="1942.2754">(extends FeedResponse&lt;T&gt;)</text></g><g><title>InMemoryFeedIteratorSetup</title><rect fill="#FFFFFF" height="82.0859" style="stroke:#181818;stroke-width:1;" width="10" x="297.5464" y="197.9219"/></g><g><title>InMemoryFeedIteratorSetup</title><rect fill="#FFFFFF" height="185.8125" style="stroke:#181818;stroke-width:1;" width="10" x="297.5464" y="1290.3984"/></g><g><title>InMemoryContainer</title><rect fill="#FFFFFF" height="391.625" style="stroke:#181818;stroke-width:1;" width="10" x="550.1216" y="387.4141"/></g><g><title>In-memory store</title><rect fill="#FFFFFF" height="63.0547" style="stroke:#181818;stroke-width:1;" width="10" x="810.3159" y="417.7656"/></g><g><title>CosmosOverridable</title><rect fill="#FFFFFF" height="446.7109" style="stroke:#181818;stroke-width:1;" width="10" x="1159.0698" y="1059.8516"/></g><g><title>AsyncLocal.Func...</title><rect fill="#FFFFFF" height="46.7031" style="stroke:#181818;stroke-width:1;" width="10" x="1424.3486" y="1090.2031"/></g><g><title>InMemoryFeedIterator.T.</title><rect fill="#FFFFFF" height="272.5156" style="stroke:#181818;stroke-width:1;" width="10" x="1597.7583" y="1606.6172"/></g><rect fill="#EEEEEE" height="3" style="stroke:#EEEEEE;stroke-width:1;" width="2047.3105" x="0" y="152.3945"/><line style="stroke:#000000;stroke-width:1;" x1="0" x2="2047.3105" y1="152.3945" y2="152.3945"/><line style="stroke:#000000;stroke-width:1;" x1="0" x2="2047.3105" y1="155.3945" y2="155.3945"/><rect fill="#EEEEEE" height="24.3516" style="stroke:#000000;stroke-width:2;" width="216.249" x="915.5308" y="141.2188"/><text fill="#000000" font-family="sans-serif" font-size="13" font-weight="bold" lengthAdjust="spacing" textLength="198.6372" x="921.5308" y="158.7139">One-time Setup (per test fixture)</text><g class="message" data-participant-1="Test" data-participant-2="Setup"><polygon fill="#181818" points="285.5464,193.9219,295.5464,197.9219,285.5464,201.9219,289.5464,197.9219" style="stroke:#181818;stroke-width:1;"/><line style="stroke:#181818;stroke-width:2;" x1="55.293" x2="291.5464" y1="197.9219" y2="197.9219"/><text fill="#000000" font-family="sans-serif" font-size="13" lengthAdjust="spacing" textLength="223.2534" x="62.293" y="193.0654">InMemoryFeedIteratorSetup.Register()</text></g><g class="message" data-participant-1="Setup" data-participant-2="AsyncLocal"><polygon fill="#181818" points="1417.3486,245.6563,1427.3486,249.6563,1417.3486,253.6563,1421.3486,249.6563" style="stroke:#181818;stroke-width:1;"/><line style="stroke:#181818;stroke-width:2;" x1="307.5464" x2="1423.3486" y1="249.6563" y2="249.6563"/><text fill="#000000" font-family="sans-serif" font-size="13" lengthAdjust="spacing" textLength="218.9434" x="314.5464" y="223.417">Set AsyncLocal&lt;FeedIteratorFactory&gt;</text><text fill="#000000" font-family="sans-serif" font-size="17" font-weight="bold" lengthAdjust="spacing" textLength="261.6987" x="314.5464" y="243.9209">CreateInMemoryFeedIterator&lt;T&gt;</text></g><g class="message" data-participant-1="Setup" data-participant-2="Test"><polygon fill="#181818" points="66.293,276.0078,56.293,280.0078,66.293,284.0078,62.293,280.0078" style="stroke:#181818;stroke-width:1;"/><line style="stroke:#181818;stroke-width:2;stroke-dasharray:2,2;" x1="60.293" x2="301.5464" y1="280.0078" y2="280.0078"/><text fill="#000000" font-family="sans-serif" font-size="13" lengthAdjust="spacing" textLength="109.0908" x="72.293" y="275.1514">(factory registered)</text></g><rect fill="#EEEEEE" height="3" style="stroke:#EEEEEE;stroke-width:1;" width="2047.3105" x="0" y="309.1836"/><line style="stroke:#000000;stroke-width:1;" x1="0" x2="2047.3105" y1="309.1836" y2="309.1836"/><line style="stroke:#000000;stroke-width:1;" x1="0" x2="2047.3105" y1="312.1836" y2="312.1836"/><rect fill="#EEEEEE" height="24.3516" style="stroke:#000000;stroke-width:2;" width="110.7827" x="968.2639" y="298.0078"/><text fill="#000000" font-family="sans-serif" font-size="13" font-weight="bold" lengthAdjust="spacing" textLength="93.1709" x="974.2639" y="315.5029">Query Building</text><g class="message" data-participant-1="Test" data-participant-2="IMC"><polygon fill="#181818" points="538.1216,383.4141,548.1216,387.4141,538.1216,391.4141,542.1216,387.4141" style="stroke:#181818;stroke-width:1;"/><line style="stroke:#181818;stroke-width:2;" x1="55.293" x2="544.1216" y1="387.4141" y2="387.4141"/><text fill="#000000" font-family="sans-serif" font-size="13" lengthAdjust="spacing" textLength="153.918" x="62.293" y="349.8545">GetItemLinqQueryable&lt;T&gt;</text><text fill="#000000" font-family="sans-serif" font-size="13" lengthAdjust="spacing" textLength="205.937" x="62.293" y="366.2061">(allowSynchronousQueryExecution,</text><text fill="#000000" font-family="sans-serif" font-size="13" lengthAdjust="spacing" textLength="205.9561" x="65.9048" y="382.5576">continuationToken, requestOptions)</text></g><g class="message" data-participant-1="IMC" data-participant-2="Store"><polygon fill="#181818" points="798.3159,413.7656,808.3159,417.7656,798.3159,421.7656,802.3159,417.7656" style="stroke:#181818;stroke-width:1;"/><line style="stroke:#181818;stroke-width:2;" x1="560.1216" x2="804.3159" y1="417.7656" y2="417.7656"/><text fill="#000000" font-family="sans-serif" font-size="13" lengthAdjust="spacing" textLength="231.1943" x="567.1216" y="412.9092">GetAllItemsForPartition(requestOptions)</text></g><g class="message" data-participant-1="Store" data-participant-2="IMC"><polygon fill="#181818" points="571.1216,476.8203,561.1216,480.8203,571.1216,484.8203,567.1216,480.8203" style="stroke:#181818;stroke-width:1;"/><line style="stroke:#181818;stroke-width:2;stroke-dasharray:2,2;" x1="565.1216" x2="814.3159" y1="480.8203" y2="480.8203"/><text fill="#000000" font-family="sans-serif" font-size="13" lengthAdjust="spacing" textLength="181.3462" x="577.1216" y="443.2607">List&lt;string&gt; (JSON documents)</text><text fill="#000000" font-family="sans-serif" font-size="13" lengthAdjust="spacing" textLength="169.0698" x="577.1216" y="459.6123">(filtered by partition key if set,</text><text fill="#000000" font-family="sans-serif" font-size="13" lengthAdjust="spacing" textLength="164.728" x="580.7334" y="475.9639">TTL-expired items excluded)</text></g><g class="message" data-participant-1="IMC" data-participant-2="IMC"><line style="stroke:#181818;stroke-width:2;" x1="560.1216" x2="602.1216" y1="527.5234" y2="527.5234"/><line style="stroke:#181818;stroke-width:2;" x1="602.1216" x2="602.1216" y1="527.5234" y2="540.5234"/><line style="stroke:#181818;stroke-width:2;" x1="561.1216" x2="602.1216" y1="540.5234" y2="540.5234"/><polygon fill="#181818" points="571.1216,536.5234,561.1216,540.5234,571.1216,544.5234,567.1216,540.5234" style="stroke:#181818;stroke-width:1;"/><text fill="#000000" font-family="sans-serif" font-size="13" lengthAdjust="spacing" textLength="184.6152" x="567.1216" y="506.3154">Deserialize each JSON string &#8594;</text><text fill="#000000" font-family="sans-serif" font-size="13" lengthAdjust="spacing" textLength="210.2471" x="567.1216" y="522.667">JsonConvert.DeserializeObject&lt;T&gt;()</text></g><g class="message" data-participant-1="IMC" data-participant-2="IMC"><line style="stroke:#181818;stroke-width:2;" x1="560.1216" x2="602.1216" y1="587.2266" y2="587.2266"/><line style="stroke:#181818;stroke-width:2;" x1="602.1216" x2="602.1216" y1="587.2266" y2="600.2266"/><line style="stroke:#181818;stroke-width:2;" x1="561.1216" x2="602.1216" y1="600.2266" y2="600.2266"/><polygon fill="#181818" points="571.1216,596.2266,561.1216,600.2266,571.1216,604.2266,567.1216,600.2266" style="stroke:#181818;stroke-width:1;"/><text fill="#000000" font-family="sans-serif" font-size="13" lengthAdjust="spacing" textLength="197.9961" x="567.1216" y="566.0186">Apply requestOptions.PartitionKey</text><text fill="#000000" font-family="sans-serif" font-size="13" lengthAdjust="spacing" textLength="106.939" x="567.1216" y="582.3701">filtering if specified</text></g><g class="message" data-participant-1="IMC" data-participant-2="Queryable"><polygon fill="#181818" points="890.7261,659.2813,900.7261,663.2813,890.7261,667.2813,894.7261,663.2813" style="stroke:#181818;stroke-width:1;"/><line style="stroke:#181818;stroke-width:2;" x1="560.1216" x2="896.7261" y1="663.2813" y2="663.2813"/><text fill="#000000" font-family="sans-serif" font-size="13" lengthAdjust="spacing" textLength="118.479" x="567.1216" y="625.7217">items.AsQueryable()</text><text fill="#000000" font-family="sans-serif" font-size="13" lengthAdjust="spacing" textLength="114.8672" x="567.1216" y="642.0732">.OrderBy(item =&gt; 0)</text><text fill="#000000" font-family="sans-serif" font-size="13" lengthAdjust="spacing" textLength="149.2334" x="567.1216" y="658.4248">&#8594; IOrderedQueryable&lt;T&gt;</text></g><rect fill="#E2E2F0" height="49.2188" rx="2.5" ry="2.5" style="stroke:#333333;stroke-width:0.5;" width="158.7441" x="902.7261" y="611.0625"/><text fill="#000000" font-family="sans-serif" font-size="14" lengthAdjust="spacing" textLength="144.7441" x="909.7261" y="632.5957">IOrderedQueryable&lt;T&gt;</text><text fill="#000000" font-family="sans-serif" font-size="14" lengthAdjust="spacing" textLength="110.4619" x="926.8672" y="650.2051">(LINQ-to-Objects)</text><path d="M987,676.2813 L987,751.2813 L1229,751.2813 L1229,686.2813 L1219,676.2813 L987,676.2813" fill="#FEFFDD" style="stroke:#181818;stroke-width:0.5;"/><path d="M1219,676.2813 L1219,686.2813 L1229,686.2813 L1219,676.2813" fill="#FEFFDD" style="stroke:#181818;stroke-width:0.5;"/><text fill="#000000" font-family="sans-serif" font-size="13" lengthAdjust="spacing" textLength="177.0044" x="993" y="694.7764">This is a plain LINQ-to-Objects</text><text fill="#000000" font-family="sans-serif" font-size="13" lengthAdjust="spacing" textLength="217.0581" x="993" y="711.1279">queryable &#8212; NOT the Cosmos SDK's</text><text fill="#000000" font-family="sans-serif" font-size="13" lengthAdjust="spacing" textLength="221.0889" x="993" y="727.4795">CosmosLinqQueryProvider. Operators</text><text fill="#000000" font-family="sans-serif" font-size="13" lengthAdjust="spacing" textLength="201.627" x="993" y="743.8311">execute as C# delegates, not SQL.</text><g class="message" data-participant-1="IMC" data-participant-2="Test"><polygon fill="#181818" points="66.293,775.0391,56.293,779.0391,66.293,783.0391,62.293,779.0391" style="stroke:#181818;stroke-width:1;"/><line style="stroke:#181818;stroke-width:2;stroke-dasharray:2,2;" x1="60.293" x2="554.1216" y1="779.0391" y2="779.0391"/><text fill="#000000" font-family="sans-serif" font-size="13" lengthAdjust="spacing" textLength="134.4053" x="72.293" y="774.1826">IOrderedQueryable&lt;T&gt;</text></g><rect fill="#EEEEEE" height="3" style="stroke:#EEEEEE;stroke-width:1;" width="2047.3105" x="0" y="808.2148"/><line style="stroke:#000000;stroke-width:1;" x1="0" x2="2047.3105" y1="808.2148" y2="808.2148"/><line style="stroke:#000000;stroke-width:1;" x1="0" x2="2047.3105" y1="811.2148" y2="811.2148"/><rect fill="#EEEEEE" height="24.3516" style="stroke:#000000;stroke-width:2;" width="305.0718" x="871.1194" y="797.0391"/><text fill="#000000" font-family="sans-serif" font-size="13" font-weight="bold" lengthAdjust="spacing" textLength="287.46" x="877.1194" y="814.5342">LINQ Operator Composition (no execution yet)</text><g class="message" data-participant-1="Test" data-participant-2="Queryable"><polygon fill="#181818" points="970.0981,860.918,980.0981,864.918,970.0981,868.918,974.0981,864.918" style="stroke:#181818;stroke-width:1;"/><line style="stroke:#181818;stroke-width:2;" x1="55.293" x2="976.0981" y1="864.918" y2="864.918"/><text fill="#000000" font-family="sans-serif" font-size="13" lengthAdjust="spacing" textLength="192.0293" x="62.293" y="860.0615">.Where(x =&gt; x.Status == "active")</text></g><path d="M987,836.3906 L987,878.3906 L1201,878.3906 L1201,846.3906 L1191,836.3906 L987,836.3906" fill="#FEFFDD" style="stroke:#181818;stroke-width:0.5;"/><path d="M1191,836.3906 L1191,846.3906 L1201,846.3906 L1191,836.3906" fill="#FEFFDD" style="stroke:#181818;stroke-width:0.5;"/><text fill="#000000" font-family="sans-serif" font-size="13" lengthAdjust="spacing" textLength="193.667" x="993" y="854.8857">Adds predicate to expression tree</text><text fill="#000000" font-family="sans-serif" font-size="13" lengthAdjust="spacing" textLength="179.9053" x="993" y="871.2373">(LINQ-to-Objects: C# delegate)</text><g class="message" data-participant-1="Test" data-participant-2="Queryable"><polygon fill="#181818" points="970.0981,905.4453,980.0981,909.4453,970.0981,913.4453,974.0981,909.4453" style="stroke:#181818;stroke-width:1;"/><line style="stroke:#181818;stroke-width:2;" x1="55.293" x2="976.0981" y1="909.4453" y2="909.4453"/><text fill="#000000" font-family="sans-serif" font-size="13" lengthAdjust="spacing" textLength="122.0972" x="62.293" y="904.5889">.Select(x =&gt; x.Name)</text></g><path d="M987,889.0938 L987,915.0938 L1204,915.0938 L1204,899.0938 L1194,889.0938 L987,889.0938" fill="#FEFFDD" style="stroke:#181818;stroke-width:0.5;"/><path d="M1194,889.0938 L1194,899.0938 L1204,899.0938 L1194,889.0938" fill="#FEFFDD" style="stroke:#181818;stroke-width:0.5;"/><text fill="#000000" font-family="sans-serif" font-size="13" lengthAdjust="spacing" textLength="196.5552" x="993" y="907.5889">Adds projection to expression tree</text><g class="message" data-participant-1="Test" data-participant-2="Queryable"><polygon fill="#181818" points="970.0981,941.7969,980.0981,945.7969,970.0981,949.7969,974.0981,945.7969" style="stroke:#181818;stroke-width:1;"/><line style="stroke:#181818;stroke-width:2;" x1="55.293" x2="976.0981" y1="945.7969" y2="945.7969"/><text fill="#000000" font-family="sans-serif" font-size="13" lengthAdjust="spacing" textLength="163.979" x="62.293" y="940.9404">.OrderBy(x =&gt; x.Timestamp)</text></g><path d="M987,925.4453 L987,951.4453 L1193,951.4453 L1193,935.4453 L1183,925.4453 L987,925.4453" fill="#FEFFDD" style="stroke:#181818;stroke-width:0.5;"/><path d="M1183,925.4453 L1183,935.4453 L1193,935.4453 L1183,925.4453" fill="#FEFFDD" style="stroke:#181818;stroke-width:0.5;"/><text fill="#000000" font-family="sans-serif" font-size="13" lengthAdjust="spacing" textLength="185.7007" x="993" y="943.9404">Adds sort key to expression tree</text><g class="message" data-participant-1="Test" data-participant-2="Queryable"><polygon fill="#181818" points="970.0981,978.1484,980.0981,982.1484,970.0981,986.1484,974.0981,982.1484" style="stroke:#181818;stroke-width:1;"/><line style="stroke:#181818;stroke-width:2;" x1="55.293" x2="976.0981" y1="982.1484" y2="982.1484"/><text fill="#000000" font-family="sans-serif" font-size="13" lengthAdjust="spacing" textLength="55.6309" x="62.293" y="977.292">.Take(10)</text></g><path d="M987,961.7969 L987,987.7969 L1171,987.7969 L1171,971.7969 L1161,961.7969 L987,961.7969" fill="#FEFFDD" style="stroke:#181818;stroke-width:0.5;"/><path d="M1161,961.7969 L1161,971.7969 L1171,971.7969 L1161,961.7969" fill="#FEFFDD" style="stroke:#181818;stroke-width:0.5;"/><text fill="#000000" font-family="sans-serif" font-size="13" lengthAdjust="spacing" textLength="163.2935" x="993" y="980.292">Adds limit to expression tree</text><rect fill="#EEEEEE" height="3" style="stroke:#EEEEEE;stroke-width:1;" width="2047.3105" x="0" y="1014.3242"/><line style="stroke:#000000;stroke-width:1;" x1="0" x2="2047.3105" y1="1014.3242" y2="1014.3242"/><line style="stroke:#000000;stroke-width:1;" x1="0" x2="2047.3105" y1="1017.3242" y2="1017.3242"/><rect fill="#EEEEEE" height="24.3516" style="stroke:#000000;stroke-width:2;" width="296.4707" x="875.4199" y="1003.1484"/><text fill="#000000" font-family="sans-serif" font-size="13" font-weight="bold" lengthAdjust="spacing" textLength="278.8589" x="881.4199" y="1020.6436">Materialization via ToFeedIteratorOverridable</text><g class="message" data-participant-1="Test" data-participant-2="Ext"><polygon fill="#181818" points="1147.0698,1055.8516,1157.0698,1059.8516,1147.0698,1063.8516,1151.0698,1059.8516" style="stroke:#181818;stroke-width:1;"/><line style="stroke:#181818;stroke-width:2;" x1="55.293" x2="1153.0698" y1="1059.8516" y2="1059.8516"/><text fill="#000000" font-family="sans-serif" font-size="13" lengthAdjust="spacing" textLength="165.4517" x="62.293" y="1054.9951">.ToFeedIteratorOverridable()</text></g><g class="message" data-participant-1="Ext" data-participant-2="AsyncLocal"><polygon fill="#181818" points="1412.3486,1086.2031,1422.3486,1090.2031,1412.3486,1094.2031,1416.3486,1090.2031" style="stroke:#181818;stroke-width:1;"/><line style="stroke:#181818;stroke-width:2;" x1="1169.0698" x2="1418.3486" y1="1090.2031" y2="1090.2031"/><text fill="#000000" font-family="sans-serif" font-size="13" lengthAdjust="spacing" textLength="236.2788" x="1176.0698" y="1085.3467">Check AsyncLocal&lt;FeedIteratorFactory&gt;</text></g><g class="message" data-participant-1="AsyncLocal" data-participant-2="Ext"><polygon fill="#181818" points="1180.0698,1132.9063,1170.0698,1136.9063,1180.0698,1140.9063,1176.0698,1136.9063" style="stroke:#181818;stroke-width:1;"/><line style="stroke:#181818;stroke-width:2;stroke-dasharray:2,2;" x1="1174.0698" x2="1428.3486" y1="1136.9063" y2="1136.9063"/><text fill="#000000" font-family="sans-serif" font-size="13" lengthAdjust="spacing" textLength="150.3125" x="1186.0698" y="1115.6982">factory delegate (non-null,</text><text fill="#000000" font-family="sans-serif" font-size="13" lengthAdjust="spacing" textLength="205.2007" x="1186.0698" y="1132.0498">set by InMemoryFeedIteratorSetup)</text></g><path d="M1174,1149.9063 L1174,1240.9063 L1441,1240.9063 L1441,1159.9063 L1431,1149.9063 L1174,1149.9063" fill="#FEFFDD" style="stroke:#181818;stroke-width:0.5;"/><path d="M1431,1149.9063 L1431,1159.9063 L1441,1159.9063 L1431,1149.9063" fill="#FEFFDD" style="stroke:#181818;stroke-width:0.5;"/><text fill="#000000" font-family="sans-serif" font-size="13" lengthAdjust="spacing" textLength="98.998" x="1180" y="1168.4014">Resolution order:</text><text fill="#000000" font-family="sans-serif" font-size="13" lengthAdjust="spacing" textLength="220.3525" x="1180" y="1184.7529">1. AsyncLocal factory (per-async-flow)</text><text fill="#000000" font-family="sans-serif" font-size="13" lengthAdjust="spacing" textLength="208.7871" x="1180" y="1201.1045">2. StaticFallbackFactory (static field)</text><text fill="#000000" font-family="sans-serif" font-size="13" lengthAdjust="spacing" textLength="246.3779" x="1180" y="1217.4561">3. Real SDK .ToFeedIterator() (production)</text><text fill="#000000" font-family="sans-serif" font-size="13" lengthAdjust="spacing" textLength="140.8989" x="1180" y="1233.8076">In tests, step 1 matches.</text><g class="message" data-participant-1="Ext" data-participant-2="Setup"><polygon fill="#181818" points="318.5464,1286.3984,308.5464,1290.3984,318.5464,1294.3984,314.5464,1290.3984" style="stroke:#181818;stroke-width:1;"/><line style="stroke:#181818;stroke-width:2;" x1="312.5464" x2="1158.0698" y1="1290.3984" y2="1290.3984"/><text fill="#000000" font-family="sans-serif" font-size="13" lengthAdjust="spacing" textLength="146.6816" x="324.5464" y="1264.1592">factory.Invoke(queryable)</text><text fill="#000000" font-family="sans-serif" font-size="17" font-weight="bold" lengthAdjust="spacing" textLength="353.3311" x="324.5464" y="1284.6631">CreateInMemoryFeedIterator&lt;T&gt;(queryable)</text></g><g class="message" data-participant-1="Setup" data-participant-2="Setup"><line style="stroke:#181818;stroke-width:2;" x1="307.5464" x2="349.5464" y1="1369.8047" y2="1369.8047"/><line style="stroke:#181818;stroke-width:2;" x1="349.5464" x2="349.5464" y1="1369.8047" y2="1382.8047"/><line style="stroke:#181818;stroke-width:2;" x1="308.5464" x2="349.5464" y1="1382.8047" y2="1382.8047"/><polygon fill="#181818" points="318.5464,1378.8047,308.5464,1382.8047,318.5464,1386.8047,314.5464,1382.8047" style="stroke:#181818;stroke-width:1;"/><text fill="#000000" font-family="sans-serif" font-size="13" lengthAdjust="spacing" textLength="154.6353" x="314.5464" y="1315.8936">queryable.AsEnumerable()</text><text fill="#000000" font-family="sans-serif" font-size="13" lengthAdjust="spacing" textLength="218.5752" x="314.5464" y="1332.2451">&#8594; triggers LINQ-to-Objects execution:</text><text fill="#000000" font-family="sans-serif" font-size="13" lengthAdjust="spacing" textLength="207.0415" x="321.77" y="1348.5967">Where &#8594; Select &#8594; OrderBy &#8594; Take</text><text fill="#000000" font-family="sans-serif" font-size="13" lengthAdjust="spacing" textLength="132.9707" x="321.77" y="1364.9482">all run as C# delegates</text></g><g class="message" data-participant-1="Setup" data-participant-2="FeedIter"><polygon fill="#181818" points="1502.0586,1441.8594,1512.0586,1445.8594,1502.0586,1449.8594,1506.0586,1445.8594" style="stroke:#181818;stroke-width:1;"/><line style="stroke:#181818;stroke-width:2;" x1="307.5464" x2="1508.0586" y1="1445.8594" y2="1445.8594"/><text fill="#000000" font-family="sans-serif" font-size="13" lengthAdjust="spacing" textLength="179.188" x="314.5464" y="1408.2998">new InMemoryFeedIterator&lt;T&gt;</text><text fill="#000000" font-family="sans-serif" font-size="13" lengthAdjust="spacing" textLength="178.4707" x="314.5464" y="1424.6514">(materialized IEnumerable&lt;T&gt;,</text><text fill="#000000" font-family="sans-serif" font-size="13" lengthAdjust="spacing" textLength="210.2471" x="318.1582" y="1441.0029">maxItemCount from requestOptions)</text></g><rect fill="#E2E2F0" height="31.6094" rx="2.5" ry="2.5" style="stroke:#333333;stroke-width:0.5;" width="177.3994" x="1514.0586" y="1411.25"/><text fill="#000000" font-family="sans-serif" font-size="14" lengthAdjust="spacing" textLength="163.3994" x="1521.0586" y="1432.7832">InMemoryFeedIterator&lt;T&gt;</text><g class="message" data-participant-1="Setup" data-participant-2="Ext"><polygon fill="#181818" points="1147.0698,1472.2109,1157.0698,1476.2109,1147.0698,1480.2109,1151.0698,1476.2109" style="stroke:#181818;stroke-width:1;"/><line style="stroke:#181818;stroke-width:2;stroke-dasharray:2,2;" x1="302.5464" x2="1153.0698" y1="1476.2109" y2="1476.2109"/><text fill="#000000" font-family="sans-serif" font-size="13" lengthAdjust="spacing" textLength="93.939" x="309.5464" y="1471.3545">FeedIterator&lt;T&gt;</text></g><g class="message" data-participant-1="Ext" data-participant-2="Test"><polygon fill="#181818" points="66.293,1502.5625,56.293,1506.5625,66.293,1510.5625,62.293,1506.5625" style="stroke:#181818;stroke-width:1;"/><line style="stroke:#181818;stroke-width:2;stroke-dasharray:2,2;" x1="60.293" x2="1163.0698" y1="1506.5625" y2="1506.5625"/><text fill="#000000" font-family="sans-serif" font-size="13" lengthAdjust="spacing" textLength="93.939" x="72.293" y="1501.7061">FeedIterator&lt;T&gt;</text></g><rect fill="#EEEEEE" height="3" style="stroke:#EEEEEE;stroke-width:1;" width="2047.3105" x="0" y="1535.7383"/><line style="stroke:#000000;stroke-width:1;" x1="0" x2="2047.3105" y1="1535.7383" y2="1535.7383"/><line style="stroke:#000000;stroke-width:1;" x1="0" x2="2047.3105" y1="1538.7383" y2="1538.7383"/><rect fill="#EEEEEE" height="24.3516" style="stroke:#000000;stroke-width:2;" width="84.0591" x="981.6257" y="1524.5625"/><text fill="#000000" font-family="sans-serif" font-size="13" font-weight="bold" lengthAdjust="spacing" textLength="66.4473" x="987.6257" y="1542.0576">Pagination</text><path d="M10,1565.9141 L82.4346,1565.9141 L82.4346,1574.2656 L72.4346,1584.2656 L10,1584.2656 L10,1565.9141" fill="#EEEEEE" style="stroke:#000000;stroke-width:1.5;"/><rect fill="none" height="321.2188" style="stroke:#000000;stroke-width:1.5;" width="2027.3105" x="10" y="1565.9141"/><text fill="#000000" font-family="sans-serif" font-size="13" font-weight="bold" lengthAdjust="spacing" textLength="27.4346" x="25" y="1580.4092">loop</text><text fill="#000000" font-family="sans-serif" font-size="11" font-weight="bold" lengthAdjust="spacing" textLength="169.9307" x="97.4346" y="1579.333">[while FeedIter.HasMoreResults]</text><g class="message" data-participant-1="Test" data-participant-2="FeedIter"><polygon fill="#181818" points="1585.7583,1602.6172,1595.7583,1606.6172,1585.7583,1610.6172,1589.7583,1606.6172" style="stroke:#181818;stroke-width:1;"/><line style="stroke:#181818;stroke-width:2;" x1="55.293" x2="1591.7583" y1="1606.6172" y2="1606.6172"/><text fill="#000000" font-family="sans-serif" font-size="13" lengthAdjust="spacing" textLength="101.8672" x="62.293" y="1601.7607">ReadNextAsync()</text></g><g class="message" data-participant-1="FeedIter" data-participant-2="FeedIter"><line style="stroke:#181818;stroke-width:2;" x1="1607.7583" x2="1649.7583" y1="1653.3203" y2="1653.3203"/><line style="stroke:#181818;stroke-width:2;" x1="1649.7583" x2="1649.7583" y1="1653.3203" y2="1666.3203"/><line style="stroke:#181818;stroke-width:2;" x1="1608.7583" x2="1649.7583" y1="1666.3203" y2="1666.3203"/><polygon fill="#181818" points="1618.7583,1662.3203,1608.7583,1666.3203,1618.7583,1670.3203,1614.7583,1666.3203" style="stroke:#181818;stroke-width:1;"/><text fill="#000000" font-family="sans-serif" font-size="13" lengthAdjust="spacing" textLength="81.6309" x="1614.7583" y="1632.1123">EnsureItems()</text><text fill="#000000" font-family="sans-serif" font-size="13" lengthAdjust="spacing" textLength="209.5234" x="1614.7583" y="1648.4639">(materialize enumerable on first call)</text></g><g class="message" data-participant-1="FeedIter" data-participant-2="FeedIter"><line style="stroke:#181818;stroke-width:2;" x1="1607.7583" x2="1649.7583" y1="1696.6719" y2="1696.6719"/><line style="stroke:#181818;stroke-width:2;" x1="1649.7583" x2="1649.7583" y1="1696.6719" y2="1709.6719"/><line style="stroke:#181818;stroke-width:2;" x1="1608.7583" x2="1649.7583" y1="1709.6719" y2="1709.6719"/><polygon fill="#181818" points="1618.7583,1705.6719,1608.7583,1709.6719,1618.7583,1713.6719,1614.7583,1709.6719" style="stroke:#181818;stroke-width:1;"/><text fill="#000000" font-family="sans-serif" font-size="13" lengthAdjust="spacing" textLength="249.9897" x="1614.7583" y="1691.8154">Paginate: Skip(offset).Take(maxItemCount)</text></g><g class="message" data-participant-1="FeedIter" data-participant-2="FeedIter"><line style="stroke:#181818;stroke-width:2;" x1="1607.7583" x2="1649.7583" y1="1756.375" y2="1756.375"/><line style="stroke:#181818;stroke-width:2;" x1="1649.7583" x2="1649.7583" y1="1756.375" y2="1769.375"/><line style="stroke:#181818;stroke-width:2;" x1="1608.7583" x2="1649.7583" y1="1769.375" y2="1769.375"/><polygon fill="#181818" points="1618.7583,1765.375,1608.7583,1769.375,1618.7583,1773.375,1614.7583,1769.375" style="stroke:#181818;stroke-width:1;"/><text fill="#000000" font-family="sans-serif" font-size="13" lengthAdjust="spacing" textLength="163.3379" x="1614.7583" y="1735.167">Generate continuation token</text><text fill="#000000" font-family="sans-serif" font-size="13" lengthAdjust="spacing" textLength="174.1479" x="1614.7583" y="1751.5186">(offset-based, null if last page)</text></g><g class="message" data-participant-1="FeedIter" data-participant-2="FeedResp"><polygon fill="#181818" points="1819.208,1844.7813,1829.208,1848.7813,1819.208,1852.7813,1823.208,1848.7813" style="stroke:#181818;stroke-width:1;"/><line style="stroke:#181818;stroke-width:2;" x1="1607.7583" x2="1825.208" y1="1848.7813" y2="1848.7813"/><text fill="#000000" font-family="sans-serif" font-size="13" lengthAdjust="spacing" textLength="196.5425" x="1614.7583" y="1794.8701">new InMemoryFeedResponse&lt;T&gt;</text><text fill="#000000" font-family="sans-serif" font-size="13" lengthAdjust="spacing" textLength="199.4497" x="1614.7583" y="1811.2217">(page of items, continuationToken,</text><text fill="#000000" font-family="sans-serif" font-size="13" lengthAdjust="spacing" textLength="179.8989" x="1618.3701" y="1827.5732">Headers: x-ms-request-charge,</text><text fill="#000000" font-family="sans-serif" font-size="13" lengthAdjust="spacing" textLength="90.9937" x="1618.3701" y="1843.9248">x-ms-activity-id)</text></g><rect fill="#E2E2F0" height="49.2188" rx="2.5" ry="2.5" style="stroke:#333333;stroke-width:0.5;" width="196.1025" x="1831.208" y="1796.5625"/><text fill="#000000" font-family="sans-serif" font-size="14" lengthAdjust="spacing" textLength="182.0889" x="1838.2148" y="1818.0957">InMemoryFeedResponse&lt;T&gt;</text><text fill="#000000" font-family="sans-serif" font-size="14" lengthAdjust="spacing" textLength="182.1025" x="1838.208" y="1835.7051">(extends FeedResponse&lt;T&gt;)</text><g class="message" data-participant-1="FeedIter" data-participant-2="Test"><polygon fill="#181818" points="66.293,1875.1328,56.293,1879.1328,66.293,1883.1328,62.293,1879.1328" style="stroke:#181818;stroke-width:1;"/><line style="stroke:#181818;stroke-width:2;stroke-dasharray:2,2;" x1="60.293" x2="1601.7583" y1="1879.1328" y2="1879.1328"/><text fill="#000000" font-family="sans-serif" font-size="13" lengthAdjust="spacing" textLength="111.2935" x="72.293" y="1874.2764">FeedResponse&lt;T&gt;</text></g><!--SRC=[ZLRDSjis4BxpANQSGod7vCJnAHhRCuvi9KviAuaqquilCBcIK9400u2sr5DFVO1Edp1FqbtmHvHC9vqa4n7OV-ptxJhfCeJ3mukYC5eaIpWUmhMwnLoRpKWh9wH20p_- -XTkhk- -mjSIpGR6cNw2y1BfDiDqS7WO17ObLI6CoE519Ak5qQLAHphJ1bwDh_XFHyBYzn9LWXV6wAVPKYOhXTR2snwHBy8ucSX2AFTUcnHDRVFavAH7-aREwP_27T5txzu5WKWS_JwOeNKmqYaUWB30Nq6nzG07JUPZnFJQeH6aDKLN5bxU_-fNQ4jrhq9SErIfXVPiuBMlRqVxkb7kbS6I6oHDqaXAOr2vIvaugPKmcqfvoX9xwXDE4bF_9E8XmzFPETdWPugSZYOFVs3YRANUokoQ66cRQpjvH6DaojVtgflv5ITYAGnBThyOdPO-gEqn5Aj5vO3ETarVs8rARdGYijDngPBJy_DTssF_8Xkll9NzzMjGabwdENjPunlQWcAioz8yojxDe3N6Xq5mTWOJXP6JELRF3M51_U-uR-PoxKg30pWx2mBVIT5vBVJwDMnXywnvuc-ua9PEma5GoPFYDcbIfLFeLknveIY7CnWP50vVA4jZccnNmKLaE9nNwc3g40YkFiiAoEzBcQLIBNPIeaQj4lg0ZkpdXAZlUqqcCcA0ASMxD5hfqlhhgpKc9JV8qRs2X9fVgbBmzqolK1rH28HIwoO5dzb1m7wuWjpQhSEBB6EVTgoDnpxBXlkQbKfKn-eJlQ7iJgqpbCmvX9-capj8TLBcX2Kxe8ZdClFPmyC6YiOmh703SaxyuJZcsUmcmdKXMKno483h92jJhbaTBFytX4kqQAJ8v9y8oAJf_LNUuSVV_zohJrOhGZCXoyKTwGgKLCDmpoBHRxRPgr3S5k0pRkvLbG5xu8WBJEHSOjgOQH-8k9pi-V3Z2ziUXrI4s3F6-qt8jt1s3c_eaCA5FYe90gKTWf6BfGCzxr08076s1VeheCY8uM2FSqZYUniEZuwxoGpS4g7Y6vXUVlwDXQhFjhs8OHubnH73fAYwceNGTnKoJ4Ul8CKC5uG1UmGK7ao_tiG1uPe_CAXgiTF__PbH__jfrlYXIF92swedGgLhf_orGRSB-6sXXn3_lYJZuPfhkOwdJhZIaZ0S4EZa8nuCkZMaHqw9W0gAHYQK0ZZsGv-MkHISGNnEtyDkqeF-8APqdRWcYZkHOxzVpHQzgsUE-mqtxL9RdX4fMYVoei-yrSPvEFrVupEnml3uJP-jJERIzHdYXxiLhaQJvnPub09ckik5dNcsyt8qeogQYL-K9rW6BBRBprvfjCHazIkI3ZfQKUtIzs53myrJSfUfI9LPHiH3zCEqzEBy6EnZaQSj04qidLLTwlUT8PqTnzt06wyymoB1vz6SY7j0WczZu7wLoPYud5UsSIDh_J5DEynIbZo9oHCP8zJkLouSaEbsBs3XQ-Ld9S6JXaq1nv0BbopHTb5Q5xWpEUiuuslrIACYRCbZyCkXrv7TZjRgnt1BGaI4LufcWMcOa4cFs7gnG6FtsMiB_Y7D1F0GPrA72cV-PuqC_viRcGMfZc1AjKzKsx2Qq2k6LlW4BoH5D92tNKwpw7eRFDtofCh5cgVaYBPisakCpfyDr-qoqFRW_hvGNNJPSb-2yVP5BAIgeCPWohGku6b9Utyh7NyKzfO6ClLZcNdsRn3NPknVcReelQCzp3TeoDtItdTbXt2bBErPVWtWn-eM0x0j1L14Ssd84xLwzXDpTGP8QzPA5g6UpmbmWug0keNyYOaFgBWgkBFM44FHNaFnLHQZ1s4nfRb4eEOHdGaAhH0BxBFBssP_7-okhQpFYFVp_AXdgw9c-4XrfJuUmZhARLGtGfGiXLaWt_jZFv6asqGotOtdMGDq0c3G1ly1]--></g></svg>