<svg xmlns="http://www.w3.org/2000/svg" xmlns:xlink="http://www.w3.org/1999/xlink" contentStyleType="text/css" data-diagram-type="ACTIVITY" height="1896px" preserveAspectRatio="none" style="width:2649px;height:1896px;background:#FEFEFE;" version="1.1" viewBox="0 0 2649 1896" width="2649px" zoomAndPan="magnify"><title>**Approach 1: InMemoryContainer &#8212; LINQ Query Flow (Detailed)**</title><defs/><g><rect fill="#FEFEFE" height="1896" style="stroke:none;stroke-width:1;" width="2649" x="0" y="0"/><g class="title" data-source-line="1"><text fill="#000000" font-family="sans-serif" font-size="14" font-weight="bold" lengthAdjust="spacing" textLength="420.4854" x="1113.0532" y="34.5332">Approach 1: InMemoryContainer &#8212; LINQ Query Flow (Detailed)</text></g><rect fill="none" height="22.6406" style="stroke:none;stroke-width:1;" width="2616.5918" x="15" y="51.0645"/><ellipse cx="184.9404" cy="88.7051" fill="#222222" rx="10" ry="10" style="stroke:#222222;stroke-width:1;"/><path d="M368.8809,126.2207 L368.8809,159.9238 L348.8809,163.9238 L368.8809,167.9238 L368.8809,201.627 A0,0 0 0 0 368.8809,201.627 L722.5996,201.627 A0,0 0 0 0 722.5996,201.627 L722.5996,136.2207 L712.5996,126.2207 L368.8809,126.2207 A0,0 0 0 0 368.8809,126.2207" fill="#FEFFDD" style="stroke:#181818;stroke-width:0.5;"/><path d="M712.5996,126.2207 L712.5996,136.2207 L722.5996,136.2207 L712.5996,126.2207" fill="#FEFFDD" style="stroke:#181818;stroke-width:0.5;"/><text fill="#000000" font-family="sans-serif" font-size="13" lengthAdjust="spacing" textLength="269.5215" x="374.8809" y="144.7158">Resolution order in ToFeedIteratorOverridable:</text><text fill="#000000" font-family="sans-serif" font-size="13" lengthAdjust="spacing" textLength="332.7188" x="374.8809" y="161.0674">1. AsyncLocal factory (per-async-flow) &#8592; matches in tests</text><text fill="#000000" font-family="sans-serif" font-size="13" lengthAdjust="spacing" textLength="208.7871" x="374.8809" y="177.4189">2. StaticFallbackFactory (static field)</text><text fill="#000000" font-family="sans-serif" font-size="13" lengthAdjust="spacing" textLength="275.2915" x="374.8809" y="193.7705">3. Real SDK .ToFeedIterator() (production path)</text><rect fill="#E8F4FD" height="90.4375" rx="12.5" ry="12.5" style="stroke:#333333;stroke-width:0.5;" width="327.8809" x="21" y="118.7051"/><text fill="#000000" font-family="sans-serif" font-size="12" font-weight="bold" lengthAdjust="spacing" textLength="218.707" x="31" y="141.1621">InMemoryFeedIteratorSetup.Register()</text><text fill="#000000" font-family="sans-serif" font-size="12" lengthAdjust="spacing" textLength="35.6953" x="31" y="156.2559">&#8594; sets</text><text fill="#000000" font-family="sans-serif" font-size="12" font-weight="bold" lengthAdjust="spacing" textLength="194.0742" x="70.0293" y="156.2559">AsyncLocal&lt;FeedIteratorFactory&gt;</text><text fill="#000000" font-family="sans-serif" font-size="20" font-weight="bold" lengthAdjust="spacing" textLength="307.8809" x="31" y="179.6543">CreateInMemoryFeedIterator&lt;T&gt;</text><text fill="#000000" font-family="sans-serif" font-size="12" lengthAdjust="spacing" textLength="137.3789" x="31" y="196.5059">(one-time, per test fixture)</text><line style="stroke:#000000;stroke-width:1.5;" x1="15" x2="15" y1="51.0645" y2="1884.4277"/><rect fill="#E8F4FD" height="65.2813" rx="12.5" ry="12.5" style="stroke:#333333;stroke-width:0.5;" width="210.1133" x="750.5713" y="229.1426"/><text fill="#000000" font-family="sans-serif" font-size="12" lengthAdjust="spacing" textLength="20.6719" x="760.5713" y="251.5996">Call</text><text fill="#000000" font-family="sans-serif" font-size="12" font-weight="bold" lengthAdjust="spacing" textLength="150.041" x="784.5771" y="251.5996">GetItemLinqQueryable&lt;T&gt;</text><text fill="#000000" font-family="sans-serif" font-size="12" lengthAdjust="spacing" textLength="190.0957" x="760.5713" y="266.6934">(allowSynchronousQueryExecution,</text><text fill="#000000" font-family="sans-serif" font-size="12" lengthAdjust="spacing" textLength="190.1133" x="760.5713" y="281.7871">continuationToken, requestOptions)</text><rect fill="#E8F4FD" height="95.4688" rx="12.5" ry="12.5" style="stroke:#333333;stroke-width:0.5;" width="244.0566" x="733.5996" y="314.4238"/><text fill="#000000" font-family="sans-serif" font-size="12" font-weight="bold" lengthAdjust="spacing" textLength="134.6836" x="743.5996" y="336.8809">GetAllItemsForPartition</text><text fill="#000000" font-family="sans-serif" font-size="12" lengthAdjust="spacing" textLength="89.373" x="878.2832" y="336.8809">(requestOptions)</text><text fill="#000000" font-family="sans-serif" font-size="12" lengthAdjust="spacing" textLength="211.0957" x="743.5996" y="351.9746">&#8594; read from ConcurrentDictionary store</text><text fill="#000000" font-family="sans-serif" font-size="12" lengthAdjust="spacing" textLength="180.4277" x="743.5996" y="367.0684">&#8594; filter by partition key if specified</text><text fill="#000000" font-family="sans-serif" font-size="12" lengthAdjust="spacing" textLength="155.0742" x="743.5996" y="382.1621">&#8594; exclude TTL-expired items</text><text fill="#000000" font-family="sans-serif" font-size="12" lengthAdjust="spacing" textLength="153.7324" x="743.5996" y="397.2559">&#8594; return List&lt;string&gt; (JSON)</text><rect fill="#E8F4FD" height="50.1875" rx="12.5" ry="12.5" style="stroke:#333333;stroke-width:0.5;" width="226.0684" x="742.5938" y="429.8926"/><text fill="#000000" font-family="sans-serif" font-size="12" lengthAdjust="spacing" textLength="170.4141" x="752.5938" y="452.3496">Deserialize each JSON string &#8594;</text><text fill="#000000" font-family="sans-serif" font-size="12" font-weight="bold" lengthAdjust="spacing" textLength="206.0684" x="752.5938" y="467.4434">JsonConvert.DeserializeObject&lt;T&gt;()</text><rect fill="#E8F4FD" height="50.1875" rx="12.5" ry="12.5" style="stroke:#333333;stroke-width:0.5;" width="202.7656" x="754.2451" y="500.0801"/><text fill="#000000" font-family="sans-serif" font-size="12" lengthAdjust="spacing" textLength="182.7656" x="764.2451" y="522.5371">Apply requestOptions.PartitionKey</text><text fill="#000000" font-family="sans-serif" font-size="12" lengthAdjust="spacing" textLength="98.7129" x="764.2451" y="537.6309">filtering if specified</text><path d="M957.499,565.2051 L957.499,598.9082 L937.499,602.9082 L957.499,606.9082 L957.499,640.6113 A0,0 0 0 0 957.499,640.6113 L1281.5234,640.6113 A0,0 0 0 0 1281.5234,640.6113 L1281.5234,575.2051 L1271.5234,565.2051 L957.499,565.2051 A0,0 0 0 0 957.499,565.2051" fill="#FEFFDD" style="stroke:#181818;stroke-width:0.5;"/><path d="M1271.5234,565.2051 L1271.5234,575.2051 L1281.5234,575.2051 L1271.5234,565.2051" fill="#FEFFDD" style="stroke:#181818;stroke-width:0.5;"/><text fill="#000000" font-family="sans-serif" font-size="13" lengthAdjust="spacing" textLength="79.479" x="963.499" y="583.7002">This is a plain</text><text fill="#000000" font-family="sans-serif" font-size="13" font-weight="bold" lengthAdjust="spacing" textLength="99.6646" x="1046.5898" y="583.7002">LINQ-to-Objects</text><text fill="#000000" font-family="sans-serif" font-size="13" lengthAdjust="spacing" textLength="73.709" x="1149.8662" y="583.7002">queryable &#8212;</text><text fill="#000000" font-family="sans-serif" font-size="13" lengthAdjust="spacing" textLength="303.0244" x="963.499" y="600.0518">NOT the Cosmos SDK's CosmosLinqQueryProvider.</text><text fill="#000000" font-family="sans-serif" font-size="13" lengthAdjust="spacing" textLength="278.2178" x="963.499" y="616.4033">All operators execute as C# delegates, not SQL.</text><text fill="#000000" font-family="sans-serif" font-size="13" lengthAdjust="spacing" textLength="211.7134" x="963.499" y="632.7549">No SQL parsing involved in this flow.</text><rect fill="#E8F4FD" height="65.2813" rx="12.5" ry="12.5" style="stroke:#333333;stroke-width:0.5;" width="163.7422" x="773.7568" y="570.2676"/><text fill="#000000" font-family="sans-serif" font-size="12" lengthAdjust="spacing" textLength="32.0039" x="783.7568" y="592.7246">items.</text><text fill="#000000" font-family="sans-serif" font-size="12" font-weight="bold" lengthAdjust="spacing" textLength="82.0254" x="815.7607" y="592.7246">AsQueryable()</text><text fill="#000000" font-family="sans-serif" font-size="12" lengthAdjust="spacing" textLength="3.334" x="783.7568" y="607.8184">.</text><text fill="#000000" font-family="sans-serif" font-size="12" font-weight="bold" lengthAdjust="spacing" textLength="48.0176" x="787.0908" y="607.8184">OrderBy</text><text fill="#000000" font-family="sans-serif" font-size="12" lengthAdjust="spacing" textLength="58.0195" x="835.1084" y="607.8184">(item =&gt; 0)</text><text fill="#000000" font-family="sans-serif" font-size="12" lengthAdjust="spacing" textLength="10.3535" x="783.7568" y="622.9121">&#8594;</text><text fill="#000000" font-family="sans-serif" font-size="12" font-weight="bold" lengthAdjust="spacing" textLength="130.0547" x="797.4443" y="622.9121">IOrderedQueryable&lt;T&gt;</text><rect fill="#E8F4FD" height="35.0938" rx="12.5" ry="12.5" style="stroke:#333333;stroke-width:0.5;" width="228.7695" x="741.2432" y="660.6113"/><text fill="#000000" font-family="sans-serif" font-size="12" lengthAdjust="spacing" textLength="208.7695" x="751.2432" y="683.0684">Return IOrderedQueryable&lt;T&gt; to caller</text><line style="stroke:#000000;stroke-width:1.5;" x1="727.5996" x2="727.5996" y1="51.0645" y2="1884.4277"/><path d="M1583.9648,755.9238 L1583.9648,789.627 L1563.9648,793.627 L1583.9648,797.627 L1583.9648,831.3301 A0,0 0 0 0 1583.9648,831.3301 L1818.1382,831.3301 A0,0 0 0 0 1818.1382,831.3301 L1818.1382,765.9238 L1808.1382,755.9238 L1583.9648,755.9238 A0,0 0 0 0 1583.9648,755.9238" fill="#FEFFDD" style="stroke:#181818;stroke-width:0.5;"/><path d="M1808.1382,755.9238 L1808.1382,765.9238 L1818.1382,765.9238 L1808.1382,755.9238" fill="#FEFFDD" style="stroke:#181818;stroke-width:0.5;"/><text fill="#000000" font-family="sans-serif" font-size="13" lengthAdjust="spacing" textLength="187.8779" x="1589.9648" y="774.4189">These are standard System.Linq</text><text fill="#000000" font-family="sans-serif" font-size="13" lengthAdjust="spacing" textLength="166.9307" x="1589.9648" y="790.7705">operators on IQueryable&lt;T&gt;.</text><text fill="#000000" font-family="sans-serif" font-size="13" lengthAdjust="spacing" textLength="213.1733" x="1589.9648" y="807.1221">They compose a deferred pipeline &#8212;</text><text fill="#000000" font-family="sans-serif" font-size="13" lengthAdjust="spacing" textLength="156.0889" x="1589.9648" y="823.4736">no items are evaluated yet.</text><rect fill="#E8F4FD" height="155.8438" rx="12.5" ry="12.5" style="stroke:#333333;stroke-width:0.5;" width="237.4414" x="1326.5234" y="715.7051"/><text fill="#000000" font-family="sans-serif" font-size="12" lengthAdjust="spacing" textLength="217.4414" x="1336.5234" y="738.1621">Apply LINQ operators (no execution yet):</text><text fill="#000000" font-family="sans-serif" font-size="12" lengthAdjust="spacing" textLength="3.334" x="1336.5234" y="753.2559">.</text><text fill="#000000" font-family="sans-serif" font-size="12" font-weight="bold" lengthAdjust="spacing" textLength="36.6738" x="1339.8574" y="753.2559">Where</text><text fill="#000000" font-family="sans-serif" font-size="12" lengthAdjust="spacing" textLength="138.5801" x="1376.5313" y="753.2559">(x =&gt; x.Status == "active")</text><text fill="#000000" font-family="sans-serif" font-size="12" lengthAdjust="spacing" textLength="141.7852" x="1336.5234" y="768.3496">&#8594; adds predicate delegate</text><text fill="#000000" font-family="sans-serif" font-size="12" lengthAdjust="spacing" textLength="3.334" x="1336.5234" y="783.4434">.</text><text fill="#000000" font-family="sans-serif" font-size="12" font-weight="bold" lengthAdjust="spacing" textLength="35.3555" x="1339.8574" y="783.4434">Select</text><text fill="#000000" font-family="sans-serif" font-size="12" lengthAdjust="spacing" textLength="76.0195" x="1375.2129" y="783.4434">(x =&gt; x.Name)</text><text fill="#000000" font-family="sans-serif" font-size="12" lengthAdjust="spacing" textLength="144.4512" x="1336.5234" y="798.5371">&#8594; adds projection delegate</text><text fill="#000000" font-family="sans-serif" font-size="12" lengthAdjust="spacing" textLength="3.334" x="1336.5234" y="813.6309">.</text><text fill="#000000" font-family="sans-serif" font-size="12" font-weight="bold" lengthAdjust="spacing" textLength="48.0176" x="1339.8574" y="813.6309">OrderBy</text><text fill="#000000" font-family="sans-serif" font-size="12" lengthAdjust="spacing" textLength="103.3535" x="1387.875" y="813.6309">(x =&gt; x.Timestamp)</text><text fill="#000000" font-family="sans-serif" font-size="12" lengthAdjust="spacing" textLength="134.4316" x="1336.5234" y="828.7246">&#8594; adds sort key delegate</text><text fill="#000000" font-family="sans-serif" font-size="12" lengthAdjust="spacing" textLength="3.334" x="1336.5234" y="843.8184">.</text><text fill="#000000" font-family="sans-serif" font-size="12" font-weight="bold" lengthAdjust="spacing" textLength="27.3516" x="1339.8574" y="843.8184">Take</text><text fill="#000000" font-family="sans-serif" font-size="12" lengthAdjust="spacing" textLength="21.3398" x="1367.209" y="843.8184">(10)</text><text fill="#000000" font-family="sans-serif" font-size="12" lengthAdjust="spacing" textLength="64.3711" x="1336.5234" y="858.9121">&#8594; adds limit</text><rect fill="#E8F4FD" height="35.0938" rx="12.5" ry="12.5" style="stroke:#333333;stroke-width:0.5;" width="143.3691" x="1373.5596" y="1419.791"/><text fill="#000000" font-family="sans-serif" font-size="12" lengthAdjust="spacing" textLength="20.6719" x="1383.5596" y="1442.248">Call</text><text fill="#000000" font-family="sans-serif" font-size="12" font-weight="bold" lengthAdjust="spacing" textLength="99.3633" x="1407.5654" y="1442.248">ReadNextAsync()</text><rect fill="#E8F4FD" height="35.0938" rx="12.5" ry="12.5" style="stroke:#333333;stroke-width:0.5;" width="173.3926" x="1358.5479" y="1827.334"/><text fill="#000000" font-family="sans-serif" font-size="12" lengthAdjust="spacing" textLength="43.3535" x="1368.5479" y="1849.791">Receive</text><text fill="#000000" font-family="sans-serif" font-size="12" font-weight="bold" lengthAdjust="spacing" textLength="106.7051" x="1415.2354" y="1849.791">FeedResponse&lt;T&gt;</text><polygon fill="#E8F4FD" points="1379.5234,1357.9551,1510.9648,1357.9551,1522.9648,1369.9551,1510.9648,1381.9551,1379.5234,1381.9551,1367.5234,1369.9551,1379.5234,1357.9551" style="stroke:#333333;stroke-width:0.5;"/><text fill="#000000" font-family="sans-serif" font-size="11" lengthAdjust="spacing" textLength="17.1177" x="1449.2441" y="1393.374">yes</text><text fill="#000000" font-family="sans-serif" font-size="11" lengthAdjust="spacing" textLength="131.4414" x="1379.5234" y="1374.4561">FeedIter.HasMoreResults?</text><text fill="#000000" font-family="sans-serif" font-size="11" lengthAdjust="spacing" textLength="12.2354" x="1355.2881" y="1367.5381">no</text><ellipse cx="1305.5234" cy="1416.9551" fill="none" rx="11" ry="11" style="stroke:#222222;stroke-width:1;"/><ellipse cx="1305.5234" cy="1416.9551" fill="#222222" rx="6" ry="6" style="stroke:#222222;stroke-width:1;"/><line style="stroke:#000000;stroke-width:1.5;" x1="1286.5234" x2="1286.5234" y1="51.0645" y2="1884.4277"/><rect fill="#E8F4FD" height="50.1875" rx="12.5" ry="12.5" style="stroke:#333333;stroke-width:0.5;" width="258.0957" x="1829.1382" y="891.5488"/><text fill="#000000" font-family="sans-serif" font-size="12" lengthAdjust="spacing" textLength="27.3398" x="1839.1382" y="914.0059">Call .</text><text fill="#000000" font-family="sans-serif" font-size="12" font-weight="bold" lengthAdjust="spacing" textLength="150.709" x="1866.478" y="914.0059">ToFeedIteratorOverridable</text><text fill="#000000" font-family="sans-serif" font-size="12" lengthAdjust="spacing" textLength="7.9922" x="2017.187" y="914.0059">()</text><text fill="#000000" font-family="sans-serif" font-size="12" lengthAdjust="spacing" textLength="238.0957" x="1839.1382" y="929.0996">(CosmosOverridableFeedIteratorExtensions)</text><rect fill="#E8F4FD" height="50.1875" rx="12.5" ry="12.5" style="stroke:#333333;stroke-width:0.5;" width="251.4219" x="1832.4751" y="961.7363"/><text fill="#000000" font-family="sans-serif" font-size="12" lengthAdjust="spacing" textLength="34.0137" x="1842.4751" y="984.1934">Check</text><text fill="#000000" font-family="sans-serif" font-size="12" font-weight="bold" lengthAdjust="spacing" textLength="194.0742" x="1879.8228" y="984.1934">AsyncLocal&lt;FeedIteratorFactory&gt;</text><text fill="#000000" font-family="sans-serif" font-size="12" lengthAdjust="spacing" textLength="155.7363" x="1842.4751" y="999.2871">&#8594; non-null (set by Register())</text><line style="stroke:#000000;stroke-width:1.5;" x1="1823.1382" x2="1823.1382" y1="51.0645" y2="1884.4277"/><rect fill="#E8F4FD" height="50.1875" rx="12.5" ry="12.5" style="stroke:#333333;stroke-width:0.5;" width="265.4258" x="2097.2339" y="1031.9238"/><text fill="#000000" font-family="sans-serif" font-size="12" lengthAdjust="spacing" textLength="145.7402" x="2107.2339" y="1054.3809">factory.Invoke(queryable) =</text><text fill="#000000" font-family="sans-serif" font-size="12" font-weight="bold" lengthAdjust="spacing" textLength="184.7285" x="2107.2339" y="1069.4746">CreateInMemoryFeedIterator&lt;T&gt;</text><text fill="#000000" font-family="sans-serif" font-size="12" lengthAdjust="spacing" textLength="60.6973" x="2291.9624" y="1069.4746">(queryable)</text><rect fill="#E8F4FD" height="95.4688" rx="12.5" ry="12.5" style="stroke:#333333;stroke-width:0.5;" width="236.3809" x="2111.7563" y="1102.1113"/><text fill="#000000" font-family="sans-serif" font-size="12" lengthAdjust="spacing" textLength="56.0391" x="2121.7563" y="1124.5684">queryable.</text><text fill="#000000" font-family="sans-serif" font-size="12" font-weight="bold" lengthAdjust="spacing" textLength="84.0293" x="2177.7954" y="1124.5684">AsEnumerable</text><text fill="#000000" font-family="sans-serif" font-size="12" lengthAdjust="spacing" textLength="7.9922" x="2261.8247" y="1124.5684">()</text><text fill="#000000" font-family="sans-serif" font-size="12" lengthAdjust="spacing" textLength="10.3535" x="2121.7563" y="1139.6621">&#8594;</text><text fill="#000000" font-family="sans-serif" font-size="12" font-weight="bold" lengthAdjust="spacing" textLength="199.3594" x="2135.4438" y="1139.6621">triggers LINQ-to-Objects execution</text><text fill="#000000" font-family="sans-serif" font-size="12" lengthAdjust="spacing" textLength="3.334" x="2334.8032" y="1139.6621">:</text><text fill="#000000" font-family="sans-serif" font-size="12" lengthAdjust="spacing" textLength="198.1582" x="2121.7563" y="1154.7559">Where delegate &#8594; Select delegate &#8594;</text><text fill="#000000" font-family="sans-serif" font-size="12" lengthAdjust="spacing" textLength="187.1309" x="2121.7563" y="1169.8496">OrderBy delegate &#8594; Take delegate</text><text fill="#000000" font-family="sans-serif" font-size="12" lengthAdjust="spacing" textLength="182.748" x="2121.7563" y="1184.9434">all run as C# delegates in-memory</text><rect fill="#E8F4FD" height="65.2813" rx="12.5" ry="12.5" style="stroke:#333333;stroke-width:0.5;" width="233.3984" x="2113.2476" y="1217.5801"/><text fill="#000000" font-family="sans-serif" font-size="12" lengthAdjust="spacing" textLength="36.0176" x="2123.2476" y="1240.0371">Create</text><text fill="#000000" font-family="sans-serif" font-size="12" font-weight="bold" lengthAdjust="spacing" textLength="174.0469" x="2162.5991" y="1240.0371">new InMemoryFeedIterator&lt;T&gt;</text><text fill="#000000" font-family="sans-serif" font-size="12" lengthAdjust="spacing" textLength="164.7422" x="2123.2476" y="1255.1309">(materialized IEnumerable&lt;T&gt;,</text><text fill="#000000" font-family="sans-serif" font-size="12" lengthAdjust="spacing" textLength="194.0742" x="2123.2476" y="1270.2246">maxItemCount from requestOptions)</text><rect fill="#E8F4FD" height="35.0938" rx="12.5" ry="12.5" style="stroke:#333333;stroke-width:0.5;" width="146.0645" x="2156.9146" y="1302.8613"/><text fill="#000000" font-family="sans-serif" font-size="12" lengthAdjust="spacing" textLength="126.0645" x="2166.9146" y="1325.3184">Return FeedIterator&lt;T&gt;</text><line style="stroke:#000000;stroke-width:1.5;" x1="2091.2339" x2="2091.2339" y1="51.0645" y2="1884.4277"/><rect fill="#E8F4FD" height="65.2813" rx="12.5" ry="12.5" style="stroke:#333333;stroke-width:0.5;" width="223.1387" x="2387.8062" y="1474.8848"/><text fill="#000000" font-family="sans-serif" font-size="12" font-weight="bold" lengthAdjust="spacing" textLength="72.0293" x="2397.8062" y="1497.3418">EnsureItems</text><text fill="#000000" font-family="sans-serif" font-size="12" lengthAdjust="spacing" textLength="7.9922" x="2469.8354" y="1497.3418">()</text><text fill="#000000" font-family="sans-serif" font-size="12" lengthAdjust="spacing" textLength="199.1016" x="2397.8062" y="1512.4355">&#8594; materialize enumerable on first call</text><text fill="#000000" font-family="sans-serif" font-size="12" lengthAdjust="spacing" textLength="203.1387" x="2397.8062" y="1527.5293">&#8594; cache results for subsequent pages</text><rect fill="#E8F4FD" height="50.1875" rx="12.5" ry="12.5" style="stroke:#333333;stroke-width:0.5;" width="253.4316" x="2372.6597" y="1560.166"/><text fill="#000000" font-family="sans-serif" font-size="12" lengthAdjust="spacing" textLength="50.707" x="2382.6597" y="1582.623">Paginate:</text><text fill="#000000" font-family="sans-serif" font-size="12" font-weight="bold" lengthAdjust="spacing" textLength="25.3418" x="2436.7007" y="1582.623">Skip</text><text fill="#000000" font-family="sans-serif" font-size="12" lengthAdjust="spacing" textLength="40.6758" x="2462.0425" y="1582.623">(offset).</text><text fill="#000000" font-family="sans-serif" font-size="12" font-weight="bold" lengthAdjust="spacing" textLength="27.3516" x="2502.7183" y="1582.623">Take</text><text fill="#000000" font-family="sans-serif" font-size="12" lengthAdjust="spacing" textLength="86.0215" x="2530.0698" y="1582.623">(maxItemCount)</text><text fill="#000000" font-family="sans-serif" font-size="12" lengthAdjust="spacing" textLength="120.4102" x="2382.6597" y="1597.7168">&#8594; extract current page</text><rect fill="#E8F4FD" height="65.2813" rx="12.5" ry="12.5" style="stroke:#333333;stroke-width:0.5;" width="180.6934" x="2409.0288" y="1641.6777"/><text fill="#000000" font-family="sans-serif" font-size="12" lengthAdjust="spacing" textLength="50.0332" x="2419.0288" y="1664.1348">Generate</text><text fill="#000000" font-family="sans-serif" font-size="12" font-weight="bold" lengthAdjust="spacing" textLength="107.3262" x="2472.396" y="1664.1348">continuation token</text><text fill="#000000" font-family="sans-serif" font-size="12" lengthAdjust="spacing" textLength="119.7539" x="2419.0288" y="1679.2285">&#8594; offset-based integer</text><text fill="#000000" font-family="sans-serif" font-size="12" lengthAdjust="spacing" textLength="93.7383" x="2419.0288" y="1694.3223">&#8594; null if last page</text><rect fill="#E8F4FD" height="80.375" rx="12.5" ry="12.5" style="stroke:#333333;stroke-width:0.5;" width="249.4063" x="2374.6724" y="1726.959"/><text fill="#000000" font-family="sans-serif" font-size="12" lengthAdjust="spacing" textLength="36.0176" x="2384.6724" y="1749.416">Create</text><text fill="#000000" font-family="sans-serif" font-size="12" font-weight="bold" lengthAdjust="spacing" textLength="190.0547" x="2424.0239" y="1749.416">new InMemoryFeedResponse&lt;T&gt;</text><text fill="#000000" font-family="sans-serif" font-size="12" lengthAdjust="spacing" textLength="184.1074" x="2384.6724" y="1764.5098">(page of items, continuationToken,</text><text fill="#000000" font-family="sans-serif" font-size="12" lengthAdjust="spacing" textLength="166.0605" x="2384.6724" y="1779.6035">Headers: x-ms-request-charge,</text><text fill="#000000" font-family="sans-serif" font-size="12" lengthAdjust="spacing" textLength="83.9941" x="2384.6724" y="1794.6973">x-ms-activity-id)</text><line style="stroke:#000000;stroke-width:1.5;" x1="2366.6597" x2="2366.6597" y1="51.0645" y2="1884.4277"/><line style="stroke:#000000;stroke-width:1.5;" x1="2630.0913" x2="2630.0913" y1="51.0645" y2="1884.4277"/><line style="stroke:#181818;stroke-width:1;" x1="184.9404" x2="184.9404" y1="98.7051" y2="118.7051"/><polygon fill="#181818" points="180.9404,108.7051,184.9404,118.7051,188.9404,108.7051,184.9404,112.7051" style="stroke:#181818;stroke-width:1;"/><line style="stroke:#181818;stroke-width:1;" x1="855.6279" x2="855.6279" y1="294.4238" y2="314.4238"/><polygon fill="#181818" points="851.6279,304.4238,855.6279,314.4238,859.6279,304.4238,855.6279,308.4238" style="stroke:#181818;stroke-width:1;"/><line style="stroke:#181818;stroke-width:1;" x1="855.6279" x2="855.6279" y1="409.8926" y2="429.8926"/><polygon fill="#181818" points="851.6279,419.8926,855.6279,429.8926,859.6279,419.8926,855.6279,423.8926" style="stroke:#181818;stroke-width:1;"/><line style="stroke:#181818;stroke-width:1;" x1="855.6279" x2="855.6279" y1="480.0801" y2="500.0801"/><polygon fill="#181818" points="851.6279,490.0801,855.6279,500.0801,859.6279,490.0801,855.6279,494.0801" style="stroke:#181818;stroke-width:1;"/><line style="stroke:#181818;stroke-width:1;" x1="855.6279" x2="855.6279" y1="550.2676" y2="570.2676"/><polygon fill="#181818" points="851.6279,560.2676,855.6279,570.2676,859.6279,560.2676,855.6279,564.2676" style="stroke:#181818;stroke-width:1;"/><line style="stroke:#181818;stroke-width:1;" x1="855.6279" x2="855.6279" y1="635.5488" y2="660.6113"/><polygon fill="#181818" points="851.6279,650.6113,855.6279,660.6113,859.6279,650.6113,855.6279,654.6113" style="stroke:#181818;stroke-width:1;"/><line style="stroke:#181818;stroke-width:1;" x1="1445.2441" x2="1445.2441" y1="1381.9551" y2="1419.791"/><polygon fill="#181818" points="1441.2441,1409.791,1445.2441,1419.791,1449.2441,1409.791,1445.2441,1413.791" style="stroke:#181818;stroke-width:1;"/><line style="stroke:#181818;stroke-width:1;" x1="1445.2441" x2="1445.2441" y1="1862.4277" y2="1872.4277"/><line style="stroke:#181818;stroke-width:1;" x1="1445.2441" x2="1583.96" y1="1872.4277" y2="1872.4277"/><polygon fill="#181818" points="1579.96,1630.3535,1583.96,1620.3535,1587.96,1630.3535,1583.96,1626.3535" style="stroke:#181818;stroke-width:1;"/><line style="stroke:#181818;stroke-width:1;" x1="1583.96" x2="1583.96" y1="1369.9551" y2="1872.4277"/><line style="stroke:#181818;stroke-width:1;" x1="1583.96" x2="1522.9648" y1="1369.9551" y2="1369.9551"/><polygon fill="#181818" points="1532.9648,1365.9551,1522.9648,1369.9551,1532.9648,1373.9551,1528.9648,1369.9551" style="stroke:#181818;stroke-width:1;"/><line style="stroke:#181818;stroke-width:1;" x1="1367.5234" x2="1305.5234" y1="1369.9551" y2="1369.9551"/><line style="stroke:#181818;stroke-width:1;" x1="1305.5234" x2="1305.5234" y1="1369.9551" y2="1405.9551"/><polygon fill="#181818" points="1301.5234,1395.9551,1305.5234,1405.9551,1309.5234,1395.9551,1305.5234,1399.9551" style="stroke:#181818;stroke-width:1;"/><line style="stroke:#181818;stroke-width:1;" x1="1958.186" x2="1958.186" y1="941.7363" y2="961.7363"/><polygon fill="#181818" points="1954.186,951.7363,1958.186,961.7363,1962.186,951.7363,1958.186,955.7363" style="stroke:#181818;stroke-width:1;"/><line style="stroke:#181818;stroke-width:1;" x1="2229.9468" x2="2229.9468" y1="1082.1113" y2="1102.1113"/><polygon fill="#181818" points="2225.9468,1092.1113,2229.9468,1102.1113,2233.9468,1092.1113,2229.9468,1096.1113" style="stroke:#181818;stroke-width:1;"/><line style="stroke:#181818;stroke-width:1;" x1="2229.9468" x2="2229.9468" y1="1197.5801" y2="1217.5801"/><polygon fill="#181818" points="2225.9468,1207.5801,2229.9468,1217.5801,2233.9468,1207.5801,2229.9468,1211.5801" style="stroke:#181818;stroke-width:1;"/><line style="stroke:#181818;stroke-width:1;" x1="2229.9468" x2="2229.9468" y1="1282.8613" y2="1302.8613"/><polygon fill="#181818" points="2225.9468,1292.8613,2229.9468,1302.8613,2233.9468,1292.8613,2229.9468,1296.8613" style="stroke:#181818;stroke-width:1;"/><line style="stroke:#181818;stroke-width:1;" x1="2499.3755" x2="2499.3755" y1="1540.166" y2="1560.166"/><polygon fill="#181818" points="2495.3755,1550.166,2499.3755,1560.166,2503.3755,1550.166,2499.3755,1554.166" style="stroke:#181818;stroke-width:1;"/><line style="stroke:#181818;stroke-width:1;" x1="2499.3755" x2="2499.3755" y1="1610.3535" y2="1641.6777"/><polygon fill="#181818" points="2495.3755,1631.6777,2499.3755,1641.6777,2503.3755,1631.6777,2499.3755,1635.6777" style="stroke:#181818;stroke-width:1;"/><line style="stroke:#181818;stroke-width:1;" x1="2499.3755" x2="2499.3755" y1="1706.959" y2="1726.959"/><polygon fill="#181818" points="2495.3755,1716.959,2499.3755,1726.959,2503.3755,1716.959,2499.3755,1720.959" style="stroke:#181818;stroke-width:1;"/><line style="stroke:#181818;stroke-width:1;" x1="184.9404" x2="184.9404" y1="209.1426" y2="214.1426"/><line style="stroke:#181818;stroke-width:1;" x1="184.9404" x2="855.6279" y1="214.1426" y2="214.1426"/><line style="stroke:#181818;stroke-width:1;" x1="855.6279" x2="855.6279" y1="214.1426" y2="229.1426"/><polygon fill="#181818" points="851.6279,219.1426,855.6279,229.1426,859.6279,219.1426,855.6279,223.1426" style="stroke:#181818;stroke-width:1;"/><line style="stroke:#181818;stroke-width:1;" x1="855.6279" x2="855.6279" y1="695.7051" y2="700.7051"/><line style="stroke:#181818;stroke-width:1;" x1="855.6279" x2="1445.2441" y1="700.7051" y2="700.7051"/><line style="stroke:#181818;stroke-width:1;" x1="1445.2441" x2="1445.2441" y1="700.7051" y2="715.7051"/><polygon fill="#181818" points="1441.2441,705.7051,1445.2441,715.7051,1449.2441,705.7051,1445.2441,709.7051" style="stroke:#181818;stroke-width:1;"/><line style="stroke:#181818;stroke-width:1;" x1="1445.2441" x2="1445.2441" y1="871.5488" y2="876.5488"/><line style="stroke:#181818;stroke-width:1;" x1="1445.2441" x2="1958.186" y1="876.5488" y2="876.5488"/><line style="stroke:#181818;stroke-width:1;" x1="1958.186" x2="1958.186" y1="876.5488" y2="891.5488"/><polygon fill="#181818" points="1954.186,881.5488,1958.186,891.5488,1962.186,881.5488,1958.186,885.5488" style="stroke:#181818;stroke-width:1;"/><line style="stroke:#181818;stroke-width:1;" x1="1958.186" x2="1958.186" y1="1011.9238" y2="1016.9238"/><line style="stroke:#181818;stroke-width:1;" x1="1958.186" x2="2229.9468" y1="1016.9238" y2="1016.9238"/><line style="stroke:#181818;stroke-width:1;" x1="2229.9468" x2="2229.9468" y1="1016.9238" y2="1031.9238"/><polygon fill="#181818" points="2225.9468,1021.9238,2229.9468,1031.9238,2233.9468,1021.9238,2229.9468,1025.9238" style="stroke:#181818;stroke-width:1;"/><line style="stroke:#181818;stroke-width:1;" x1="1445.2441" x2="1445.2441" y1="1454.8848" y2="1459.8848"/><line style="stroke:#181818;stroke-width:1;" x1="1445.2441" x2="2499.3755" y1="1459.8848" y2="1459.8848"/><line style="stroke:#181818;stroke-width:1;" x1="2499.3755" x2="2499.3755" y1="1459.8848" y2="1474.8848"/><polygon fill="#181818" points="2495.3755,1464.8848,2499.3755,1474.8848,2503.3755,1464.8848,2499.3755,1468.8848" style="stroke:#181818;stroke-width:1;"/><line style="stroke:#181818;stroke-width:1;" x1="2499.3755" x2="2499.3755" y1="1807.334" y2="1812.334"/><line style="stroke:#181818;stroke-width:1;" x1="2499.3755" x2="1445.2441" y1="1812.334" y2="1812.334"/><line style="stroke:#181818;stroke-width:1;" x1="1445.2441" x2="1445.2441" y1="1812.334" y2="1827.334"/><polygon fill="#181818" points="1441.2441,1817.334,1445.2441,1827.334,1449.2441,1817.334,1445.2441,1821.334" style="stroke:#181818;stroke-width:1;"/><line style="stroke:#181818;stroke-width:1;" x1="2229.9468" x2="2229.9468" y1="1337.9551" y2="1342.9551"/><line style="stroke:#181818;stroke-width:1;" x1="2229.9468" x2="1445.2441" y1="1342.9551" y2="1342.9551"/><line style="stroke:#181818;stroke-width:1;" x1="1445.2441" x2="1445.2441" y1="1342.9551" y2="1357.9551"/><polygon fill="#181818" points="1441.2441,1347.9551,1445.2441,1357.9551,1449.2441,1347.9551,1445.2441,1351.9551" style="stroke:#181818;stroke-width:1;"/><text fill="#000000" font-family="sans-serif" font-size="18" lengthAdjust="spacing" textLength="87.0469" x="327.7764" y="69.75">Test Setup</text><text fill="#000000" font-family="sans-serif" font-size="18" lengthAdjust="spacing" textLength="158.0625" x="928.0303" y="69.75">InMemoryContainer</text><text fill="#000000" font-family="sans-serif" font-size="18" lengthAdjust="spacing" textLength="83.0391" x="1513.3113" y="69.75">Test Code</text><text fill="#000000" font-family="sans-serif" font-size="18" lengthAdjust="spacing" textLength="174.1025" x="1870.1348" y="69.75">ProductionExtensions</text><text fill="#000000" font-family="sans-serif" font-size="18" lengthAdjust="spacing" textLength="225.1055" x="2116.394" y="69.75">InMemoryFeedIteratorSetup</text><text fill="#000000" font-family="sans-serif" font-size="18" lengthAdjust="spacing" textLength="210.085" x="2393.333" y="69.75">InMemoryFeedIterator&lt;T&gt;</text><!--SRC=[ZLR1RXit4BtlLmoQGoN14fAc20ebJf7OLkB4iHrBGC_qxaXYjKjkIAuj5Jhqb7CHz0lp9Nt3NKbhsMwB0875dHc-D_DcXa67dAdNUrEMpgfqJi-6T6e-SM7TwiYQeBHXHz___9lEJiy_q-UAtOf6kRsbpZ7ZQyvPjzTB4h_GfbHE5NIjqiNCsSfaHpQtZfwCJkHVo-9D6lID3gktrcNi6gldpvy_PB8VxEINqS-ZuvRbfN911stDdMWlNhn8alM4VQ0nXwfS9px0C1dsUXjs8-RiDB1JmRfeCxZYcVOuwGYZxr-_aUVW9JT-PT8pcwhyLTjff5BylteDuqDO7JbMWH-A_ceYDXrhk1zqmGTK8gL1i4trCbIEko-JnDZ0vFHi7XAYA_OshuGLHLQa3KriE-R53JkdCtMTyn0EpmQqGqdJ6XbrS55VoNb_Yf9rwVlNlwXG8Pspbv22mSFxfm6DWmew7Qayb_gDDW5yF0PEphCkB9yFW0qtZ8y_qk0keauNzpcRLMd4NQemxoPiCX9cACOzLQsJuH7kG-hUSK2KuaoRBr5Wmgf96WpixHWCviuQM_du_MJ9QSpEGP8YcZQLabyJks1pG8w_L21sKSgPbzmEunLlybnkyIFhjgBfzJfxvh7mA6L6KsSB0jgqSevDEDQHc49QFEXoD9pg7FJfUWM-JKXQy8hqb7p9gKRYicZ8opIlCgR9vApFor8xpaWBckO-oC3G6UJtoWUdpUmrTJwCByuZ-cFsxBJAzHzCB3qgNwYsGqc_9RtU1syDe48KOT0olxZ-dTE0L8ga9HJQF5_jPMYmpSP7NYKr8udSvY2-4Uv0sc5RfDWfEBeGaRvT8PjYH8UlwMcTIBHR_CRPtSBk2tuorr2a9qLb3d70JyPDFzX-JS7tUlHb4q764NpEBoOKvemI-S9waUIFllcnLTAbipSQzmzWZ_gJBMknUXH4DCIauFE4CivvXlRr1o9N6dy-4uzpAtz9QNrCYBcn-OqK3gqZWAMf1YsD3w_gEZx4cO8bz6RExkLcCXtPZDURciJnkeFNCRQ1A99QSUWE9T6_pH4NQLvAZfS3wThAq-4X_Q1aOl8FTTfLbdagWK2d8BLb9n76-3iDkn3dgk0xJbRoBPUslNO5Rjmc66GO3aNPylNMXQZ-jkT4BGJmiwSjmrmNEjoN07HBoZ6KhKocN4RZ5SPnCP1gmc2N780xRUTsKBklABL5QIKA84mn856hKfUSOzmqea5QeuxZHNoZSemEM271xKAkBxU3x6GPs7Zfaysy4bAFpM8mxIQTMeIjuxRrBc1ixgCvful_jMGaVSQQlga0eeFT96DdjxCaslhHvGRmpLOOd4B62-viswbBXyb_hg-MkQ3U_ehpuCHK1Mmt_El6ntYQpHZLskladQnxlM4I1RqLZ4mpgXLwvonfz7VNKAIrqvgKnbLclw7HhFqYSehPZYo1pl0j_SkknfBSpD2CJdVyyFaWATHI5iaHdYMXtX8Fh9nc5Ep5tklzspaUKDJP60tUA_y9gmNhlyg3_xKh8x6pOY-hTxCiiN-pSrw6A9XchXEj7o6p5izUxyHul3FY-eibefZ05alYBKTfhwbs02dpgZ5DiNVGgpKmckADvQjhBxIHWrBDs4SOmqirqmPXXq0wNkWIjzdf56BjxcP1EtyRA23ae4zgbcqCMKTynqROID7Qonxp5DiUjQhzwqlwryh7-HmOqci-nNx1CikLRyTzL0h8VeagDYyGmgi6FhYW7Xm7TF_90QFtg0h4FgHbl_3zHW_zTAxSZELxF5RDgxQlisvTjPOM0EcAKyOG1wPxE62EyTJenTWkNjp1bia_]--></g></svg>