<svg xmlns="http://www.w3.org/2000/svg" xmlns:xlink="http://www.w3.org/1999/xlink" contentStyleType="text/css" data-diagram-type="SEQUENCE" height="1312px" preserveAspectRatio="none" style="width:2096px;height:1312px;background:#FEFEFE;" version="1.1" viewBox="0 0 2096 1312" width="2096px" zoomAndPan="magnify"><title>**Approach 3: CosmosClient + FakeCosmosHandler &#8212; LINQ Query Flow (Abbreviated)**</title><defs/><g><rect fill="#FEFEFE" height="1312" style="stroke:none;stroke-width:1;" width="2096" x="0" y="0"/><text fill="#000000" font-family="sans-serif" font-size="14" font-weight="bold" lengthAdjust="spacing" textLength="564.8193" x="761.6143" y="29.5332">Approach 3: CosmosClient + FakeCosmosHandler &#8212; LINQ Query Flow (Abbreviated)</text><g><title>CosmosClient</title><rect fill="#FFFFFF" height="133.1797" style="stroke:#181818;stroke-width:1;" width="10" x="452.0649" y="387.7109"/></g><g><title>IOrderedQueryable.T.</title><rect fill="#FFFFFF" height="91.0547" style="stroke:#181818;stroke-width:1;" width="10" x="924.5625" y="642.2969"/></g><g><title>SDK FeedIterator.T.</title><rect fill="#FFFFFF" height="302.5156" style="stroke:#181818;stroke-width:1;" width="10" x="1990.1274" y="833.4063"/></g><rect fill="none" height="351.2188" style="stroke:#000000;stroke-width:1.5;" width="1976.0479" x="103" y="792.7031"/><g><title>Test Code</title><rect fill="#000000" fill-opacity="0.00000" height="1108.7578" width="8" x="144.293" y="121.2188"/><line style="stroke:#181818;stroke-width:0.5;stroke-dasharray:5,5;" x1="148" x2="148" y1="121.2188" y2="1229.9766"/></g><g><title>CosmosClient</title><rect fill="#000000" fill-opacity="0.00000" height="929.0781" width="8" x="453.0649" y="300.8984"/><line style="stroke:#181818;stroke-width:0.5;stroke-dasharray:5,5;" x1="456.4961" x2="456.4961" y1="300.8984" y2="1229.9766"/></g><g><title>CosmosLinqQuery-</title><rect fill="#000000" fill-opacity="0.00000" height="794.1563" width="8" x="705.4282" y="435.8203"/><line style="stroke:#181818;stroke-width:0.5;stroke-dasharray:5,5;" x1="709.1284" x2="709.1284" y1="435.8203" y2="1229.9766"/></g><g><title>IOrderedQueryable.T.</title><rect fill="#000000" fill-opacity="0.00000" height="742.7422" width="8" x="925.5625" y="487.2344"/><line style="stroke:#181818;stroke-width:0.5;stroke-dasharray:5,5;" x1="929.1904" x2="929.1904" y1="487.2344" y2="1229.9766"/></g><g><title>HttpClient</title><rect fill="#000000" fill-opacity="0.00000" height="1108.7578" width="8" x="1052.6689" y="121.2188"/><line style="stroke:#181818;stroke-width:0.5;stroke-dasharray:5,5;" x1="1055.9346" x2="1055.9346" y1="121.2188" y2="1229.9766"/></g><g><title>FakeCosmosHandler</title><rect fill="#000000" fill-opacity="0.00000" height="980.4922" width="8" x="1307.5459" y="249.4844"/><line style="stroke:#181818;stroke-width:0.5;stroke-dasharray:5,5;" x1="1310.7979" x2="1310.7979" y1="249.4844" y2="1229.9766"/></g><g><title>CosmosSqlParser</title><rect fill="#000000" fill-opacity="0.00000" height="1108.7578" width="8" x="1554.5874" y="121.2188"/><line style="stroke:#181818;stroke-width:0.5;stroke-dasharray:5,5;" x1="1558.1807" x2="1558.1807" y1="121.2188" y2="1229.9766"/></g><g><title>InMemoryContainer</title><rect fill="#000000" fill-opacity="0.00000" height="1023.1016" width="8" x="1696.4629" y="206.875"/><line style="stroke:#181818;stroke-width:0.5;stroke-dasharray:5,5;" x1="1699.9941" x2="1699.9941" y1="206.875" y2="1229.9766"/></g><g><title>QueryResultCache</title><rect fill="#000000" fill-opacity="0.00000" height="1108.7578" width="8" x="1841.0693" y="121.2188"/><line style="stroke:#181818;stroke-width:0.5;stroke-dasharray:5,5;" x1="1844.9316" x2="1844.9316" y1="121.2188" y2="1229.9766"/></g><g><title>SDK FeedIterator.T.</title><rect fill="#000000" fill-opacity="0.00000" height="1108.7578" width="8" x="1991.1274" y="121.2188"/><line style="stroke:#181818;stroke-width:0.5;stroke-dasharray:5,5;" x1="1994.207" x2="1994.207" y1="121.2188" y2="1229.9766"/></g><g class="participant participant-head" data-participant="Test"><text fill="#000000" font-family="sans-serif" font-size="14" lengthAdjust="spacing" textLength="64.5859" x="113" y="118.1426">Test Code</text><ellipse cx="148.293" cy="52.1094" fill="#E2E2F0" rx="8" ry="8" style="stroke:#181818;stroke-width:0.5;"/><path d="M148.293,60.1094 L148.293,87.1094 M135.293,68.1094 L161.293,68.1094 M148.293,87.1094 L135.293,102.1094 M148.293,87.1094 L161.293,102.1094" fill="none" style="stroke:#181818;stroke-width:0.5;"/></g><g class="participant participant-tail" data-participant="Test"><text fill="#000000" font-family="sans-serif" font-size="14" lengthAdjust="spacing" textLength="64.5859" x="113" y="1243.5098">Test Code</text><ellipse cx="148.293" cy="1255.0859" fill="#E2E2F0" rx="8" ry="8" style="stroke:#181818;stroke-width:0.5;"/><path d="M148.293,1263.0859 L148.293,1290.0859 M135.293,1271.0859 L161.293,1271.0859 M148.293,1290.0859 L135.293,1305.0859 M148.293,1290.0859 L161.293,1305.0859" fill="none" style="stroke:#181818;stroke-width:0.5;"/></g><g class="participant participant-tail" data-participant="SDK"><rect fill="#E2E2F0" height="49.2188" rx="2.5" ry="2.5" style="stroke:#181818;stroke-width:0.5;" width="101.1377" x="406.4961" y="1228.9766"/><text fill="#000000" font-family="sans-serif" font-size="14" lengthAdjust="spacing" textLength="87.1377" x="413.4961" y="1250.5098">CosmosClient</text><text fill="#000000" font-family="sans-serif" font-size="14" lengthAdjust="spacing" textLength="65.3447" x="424.3926" y="1268.1191">(real SDK)</text></g><g class="participant participant-tail" data-participant="LinqProvider"><rect fill="#E2E2F0" height="49.2188" rx="2.5" ry="2.5" style="stroke:#181818;stroke-width:0.5;" width="134.5996" x="642.1284" y="1228.9766"/><text fill="#000000" font-family="sans-serif" font-size="14" lengthAdjust="spacing" textLength="120.5996" x="649.1284" y="1250.5098">CosmosLinqQuery-</text><text fill="#000000" font-family="sans-serif" font-size="14" lengthAdjust="spacing" textLength="94.1309" x="662.3628" y="1268.1191">Provider (SDK)</text></g><g class="participant participant-tail" data-participant="Queryable"><rect fill="#E2E2F0" height="31.6094" rx="2.5" ry="2.5" style="stroke:#181818;stroke-width:0.5;" width="158.7441" x="850.1904" y="1228.9766"/><text fill="#000000" font-family="sans-serif" font-size="14" lengthAdjust="spacing" textLength="144.7441" x="857.1904" y="1250.5098">IOrderedQueryable&lt;T&gt;</text></g><g class="participant participant-head" data-participant="Http"><rect fill="#E2E2F0" height="31.6094" rx="2.5" ry="2.5" style="stroke:#181818;stroke-width:0.5;" width="75.4688" x="1018.9346" y="88.6094"/><text fill="#000000" font-family="sans-serif" font-size="14" lengthAdjust="spacing" textLength="61.4688" x="1025.9346" y="110.1426">HttpClient</text></g><g class="participant participant-tail" data-participant="Http"><rect fill="#E2E2F0" height="31.6094" rx="2.5" ry="2.5" style="stroke:#181818;stroke-width:0.5;" width="75.4688" x="1018.9346" y="1228.9766"/><text fill="#000000" font-family="sans-serif" font-size="14" lengthAdjust="spacing" textLength="61.4688" x="1025.9346" y="1250.5098">HttpClient</text></g><g class="participant participant-tail" data-participant="Handler"><rect fill="#E2E2F0" height="31.6094" rx="2.5" ry="2.5" style="stroke:#181818;stroke-width:0.5;" width="145.4961" x="1238.7979" y="1228.9766"/><text fill="#000000" font-family="sans-serif" font-size="14" lengthAdjust="spacing" textLength="131.4961" x="1245.7979" y="1250.5098">FakeCosmosHandler</text></g><g class="participant participant-head" data-participant="Parser"><rect fill="#E2E2F0" height="31.6094" rx="2.5" ry="2.5" style="stroke:#181818;stroke-width:0.5;" width="126.8135" x="1495.1807" y="88.6094"/><text fill="#000000" font-family="sans-serif" font-size="14" lengthAdjust="spacing" textLength="112.8135" x="1502.1807" y="110.1426">CosmosSqlParser</text></g><g class="participant participant-tail" data-participant="Parser"><rect fill="#E2E2F0" height="31.6094" rx="2.5" ry="2.5" style="stroke:#181818;stroke-width:0.5;" width="126.8135" x="1495.1807" y="1228.9766"/><text fill="#000000" font-family="sans-serif" font-size="14" lengthAdjust="spacing" textLength="112.8135" x="1502.1807" y="1250.5098">CosmosSqlParser</text></g><g class="participant participant-tail" data-participant="IMC"><rect fill="#E2E2F0" height="31.6094" rx="2.5" ry="2.5" style="stroke:#181818;stroke-width:0.5;" width="136.9375" x="1631.9941" y="1228.9766"/><text fill="#000000" font-family="sans-serif" font-size="14" lengthAdjust="spacing" textLength="122.9375" x="1638.9941" y="1250.5098">InMemoryContainer</text></g><g class="participant participant-head" data-participant="Cache"><rect fill="#E2E2F0" height="31.6094" rx="2.5" ry="2.5" style="stroke:#181818;stroke-width:0.5;" width="132.2754" x="1778.9316" y="88.6094"/><text fill="#000000" font-family="sans-serif" font-size="14" lengthAdjust="spacing" textLength="118.2754" x="1785.9316" y="110.1426">QueryResultCache</text></g><g class="participant participant-tail" data-participant="Cache"><rect fill="#E2E2F0" height="31.6094" rx="2.5" ry="2.5" style="stroke:#181818;stroke-width:0.5;" width="132.2754" x="1778.9316" y="1228.9766"/><text fill="#000000" font-family="sans-serif" font-size="14" lengthAdjust="spacing" textLength="118.2754" x="1785.9316" y="1250.5098">QueryResultCache</text></g><g class="participant participant-head" data-participant="SDKIter"><rect fill="#E2E2F0" height="31.6094" rx="2.5" ry="2.5" style="stroke:#181818;stroke-width:0.5;" width="147.8408" x="1921.207" y="88.6094"/><text fill="#000000" font-family="sans-serif" font-size="14" lengthAdjust="spacing" textLength="133.8408" x="1928.207" y="110.1426">SDK FeedIterator&lt;T&gt;</text></g><g class="participant participant-tail" data-participant="SDKIter"><rect fill="#E2E2F0" height="31.6094" rx="2.5" ry="2.5" style="stroke:#181818;stroke-width:0.5;" width="147.8408" x="1921.207" y="1228.9766"/><text fill="#000000" font-family="sans-serif" font-size="14" lengthAdjust="spacing" textLength="133.8408" x="1928.207" y="1250.5098">SDK FeedIterator&lt;T&gt;</text></g><g><title>CosmosClient</title><rect fill="#FFFFFF" height="133.1797" style="stroke:#181818;stroke-width:1;" width="10" x="452.0649" y="387.7109"/></g><g><title>IOrderedQueryable.T.</title><rect fill="#FFFFFF" height="91.0547" style="stroke:#181818;stroke-width:1;" width="10" x="924.5625" y="642.2969"/></g><g><title>SDK FeedIterator.T.</title><rect fill="#FFFFFF" height="302.5156" style="stroke:#181818;stroke-width:1;" width="10" x="1990.1274" y="833.4063"/></g><rect fill="#EEEEEE" height="3" style="stroke:#EEEEEE;stroke-width:1;" width="2089.0479" x="0" y="152.3945"/><line style="stroke:#000000;stroke-width:1;" x1="0" x2="2089.0479" y1="152.3945" y2="152.3945"/><line style="stroke:#000000;stroke-width:1;" x1="0" x2="2089.0479" y1="155.3945" y2="155.3945"/><rect fill="#EEEEEE" height="24.3516" style="stroke:#000000;stroke-width:2;" width="53.7236" x="1017.6621" y="141.2188"/><text fill="#000000" font-family="sans-serif" font-size="13" font-weight="bold" lengthAdjust="spacing" textLength="36.1118" x="1023.6621" y="158.7139">Setup</text><g class="message" data-participant-1="Test" data-participant-2="IMC"><polygon fill="#181818" points="1619.9941,193.9219,1629.9941,197.9219,1619.9941,201.9219,1623.9941,197.9219" style="stroke:#181818;stroke-width:1;"/><line style="stroke:#181818;stroke-width:2;" x1="148.293" x2="1625.9941" y1="197.9219" y2="197.9219"/><text fill="#000000" font-family="sans-serif" font-size="13" lengthAdjust="spacing" textLength="159.8022" x="155.293" y="193.0654">new InMemoryContainer(&#8230;)</text></g><rect fill="#E2E2F0" height="31.6094" rx="2.5" ry="2.5" style="stroke:#181818;stroke-width:0.5;" width="136.9375" x="1631.9941" y="175.5703"/><text fill="#000000" font-family="sans-serif" font-size="14" lengthAdjust="spacing" textLength="122.9375" x="1638.9941" y="197.1035">InMemoryContainer</text><g class="message" data-participant-1="Test" data-participant-2="Handler"><polygon fill="#181818" points="1226.7979,236.5313,1236.7979,240.5313,1226.7979,244.5313,1230.7979,240.5313" style="stroke:#181818;stroke-width:1;"/><line style="stroke:#181818;stroke-width:2;" x1="148.293" x2="1232.7979" y1="240.5313" y2="240.5313"/><text fill="#000000" font-family="sans-serif" font-size="13" lengthAdjust="spacing" textLength="211.7007" x="155.293" y="235.6748">new FakeCosmosHandler(container)</text></g><rect fill="#E2E2F0" height="31.6094" rx="2.5" ry="2.5" style="stroke:#181818;stroke-width:0.5;" width="145.4961" x="1238.7979" y="218.1797"/><text fill="#000000" font-family="sans-serif" font-size="14" lengthAdjust="spacing" textLength="131.4961" x="1245.7979" y="239.7129">FakeCosmosHandler</text><g class="message" data-participant-1="Test" data-participant-2="SDK"><polygon fill="#181818" points="394.4961,279.1406,404.4961,283.1406,394.4961,287.1406,398.4961,283.1406" style="stroke:#181818;stroke-width:1;"/><line style="stroke:#181818;stroke-width:2;" x1="148.293" x2="400.4961" y1="283.1406" y2="283.1406"/><text fill="#000000" font-family="sans-serif" font-size="13" lengthAdjust="spacing" textLength="234.2031" x="155.293" y="278.2842">new CosmosClient(&#8230;, HttpClientFactory)</text></g><rect fill="#E2E2F0" height="49.2188" rx="2.5" ry="2.5" style="stroke:#181818;stroke-width:0.5;" width="101.1377" x="406.4961" y="260.7891"/><text fill="#000000" font-family="sans-serif" font-size="14" lengthAdjust="spacing" textLength="87.1377" x="413.4961" y="282.3223">CosmosClient</text><text fill="#000000" font-family="sans-serif" font-size="14" lengthAdjust="spacing" textLength="65.3447" x="424.3926" y="299.9316">(real SDK)</text><rect fill="#EEEEEE" height="3" style="stroke:#EEEEEE;stroke-width:1;" width="2089.0479" x="0" y="342.1836"/><line style="stroke:#000000;stroke-width:1;" x1="0" x2="2089.0479" y1="342.1836" y2="342.1836"/><line style="stroke:#000000;stroke-width:1;" x1="0" x2="2089.0479" y1="345.1836" y2="345.1836"/><rect fill="#EEEEEE" height="24.3516" style="stroke:#000000;stroke-width:2;" width="177.96" x="955.5439" y="331.0078"/><text fill="#000000" font-family="sans-serif" font-size="13" font-weight="bold" lengthAdjust="spacing" textLength="160.3481" x="961.5439" y="348.5029">LINQ Expression Building</text><g class="message" data-participant-1="Test" data-participant-2="SDK"><polygon fill="#181818" points="440.0649,383.7109,450.0649,387.7109,440.0649,391.7109,444.0649,387.7109" style="stroke:#181818;stroke-width:1;"/><line style="stroke:#181818;stroke-width:2;" x1="148.293" x2="446.0649" y1="387.7109" y2="387.7109"/><text fill="#000000" font-family="sans-serif" font-size="13" lengthAdjust="spacing" textLength="219.667" x="155.293" y="382.8545">container.GetItemLinqQueryable&lt;T&gt;()</text></g><g class="message" data-participant-1="SDK" data-participant-2="LinqProvider"><polygon fill="#181818" points="630.1284,414.0625,640.1284,418.0625,630.1284,422.0625,634.1284,418.0625" style="stroke:#181818;stroke-width:1;"/><line style="stroke:#181818;stroke-width:2;" x1="462.0649" x2="636.1284" y1="418.0625" y2="418.0625"/><text fill="#000000" font-family="sans-serif" font-size="13" lengthAdjust="spacing" textLength="156.0635" x="469.0649" y="413.2061">CosmosLinqQueryProvider</text></g><rect fill="#E2E2F0" height="49.2188" rx="2.5" ry="2.5" style="stroke:#181818;stroke-width:0.5;" width="134.5996" x="642.1284" y="395.7109"/><text fill="#000000" font-family="sans-serif" font-size="14" lengthAdjust="spacing" textLength="120.5996" x="649.1284" y="417.2441">CosmosLinqQuery-</text><text fill="#000000" font-family="sans-serif" font-size="14" lengthAdjust="spacing" textLength="94.1309" x="662.3628" y="434.8535">Provider (SDK)</text><g class="message" data-participant-1="SDK" data-participant-2="Queryable"><polygon fill="#181818" points="838.1904,474.2813,848.1904,478.2813,838.1904,482.2813,842.1904,478.2813" style="stroke:#181818;stroke-width:1;"/><line style="stroke:#181818;stroke-width:2;" x1="462.0649" x2="844.1904" y1="478.2813" y2="478.2813"/><text fill="#000000" font-family="sans-serif" font-size="13" lengthAdjust="spacing" textLength="134.4053" x="469.0649" y="473.4248">IOrderedQueryable&lt;T&gt;</text></g><rect fill="#E2E2F0" height="31.6094" rx="2.5" ry="2.5" style="stroke:#181818;stroke-width:0.5;" width="158.7441" x="850.1904" y="455.9297"/><text fill="#000000" font-family="sans-serif" font-size="14" lengthAdjust="spacing" textLength="144.7441" x="857.1904" y="477.4629">IOrderedQueryable&lt;T&gt;</text><g class="message" data-participant-1="SDK" data-participant-2="Test"><polygon fill="#181818" points="159.293,516.8906,149.293,520.8906,159.293,524.8906,155.293,520.8906" style="stroke:#181818;stroke-width:1;"/><line style="stroke:#181818;stroke-width:2;stroke-dasharray:2,2;" x1="153.293" x2="456.0649" y1="520.8906" y2="520.8906"/><text fill="#000000" font-family="sans-serif" font-size="13" lengthAdjust="spacing" textLength="134.4053" x="165.293" y="516.0342">IOrderedQueryable&lt;T&gt;</text></g><g class="message" data-participant-1="Test" data-participant-2="Queryable"><polygon fill="#181818" points="917.5625,563.5938,927.5625,567.5938,917.5625,571.5938,921.5625,567.5938" style="stroke:#181818;stroke-width:1;"/><line style="stroke:#181818;stroke-width:2;" x1="148.293" x2="923.5625" y1="567.5938" y2="567.5938"/><text fill="#000000" font-family="sans-serif" font-size="13" lengthAdjust="spacing" textLength="181.3018" x="155.293" y="546.3857">.Where() / .OrderBy() / .Select()</text><text fill="#000000" font-family="sans-serif" font-size="13" lengthAdjust="spacing" textLength="140.8862" x="155.293" y="562.7373">(builds Expression Tree)</text></g><rect fill="#EEEEEE" height="3" style="stroke:#EEEEEE;stroke-width:1;" width="2089.0479" x="0" y="596.7695"/><line style="stroke:#000000;stroke-width:1;" x1="0" x2="2089.0479" y1="596.7695" y2="596.7695"/><line style="stroke:#000000;stroke-width:1;" x1="0" x2="2089.0479" y1="599.7695" y2="599.7695"/><rect fill="#EEEEEE" height="24.3516" style="stroke:#000000;stroke-width:2;" width="169.9937" x="959.5271" y="585.5938"/><text fill="#000000" font-family="sans-serif" font-size="13" font-weight="bold" lengthAdjust="spacing" textLength="152.3818" x="965.5271" y="603.0889">LINQ-to-SQL Translation</text><g class="message" data-participant-1="Test" data-participant-2="Queryable"><polygon fill="#181818" points="912.5625,638.2969,922.5625,642.2969,912.5625,646.2969,916.5625,642.2969" style="stroke:#181818;stroke-width:1;"/><line style="stroke:#181818;stroke-width:2;" x1="148.293" x2="918.5625" y1="642.2969" y2="642.2969"/><text fill="#000000" font-family="sans-serif" font-size="13" lengthAdjust="spacing" textLength="98.2554" x="155.293" y="637.4404">.ToFeedIterator()</text></g><g class="message" data-participant-1="Queryable" data-participant-2="LinqProvider"><polygon fill="#181818" points="720.4282,668.6484,710.4282,672.6484,720.4282,676.6484,716.4282,672.6484" style="stroke:#181818;stroke-width:1;"/><line style="stroke:#181818;stroke-width:2;" x1="714.4282" x2="923.5625" y1="672.6484" y2="672.6484"/><text fill="#000000" font-family="sans-serif" font-size="13" lengthAdjust="spacing" textLength="191.1343" x="726.4282" y="667.792">Translate expression tree &#8594; SQL</text></g><g class="message" data-participant-1="LinqProvider" data-participant-2="Queryable"><polygon fill="#181818" points="912.5625,699,922.5625,703,912.5625,707,916.5625,703" style="stroke:#181818;stroke-width:1;"/><line style="stroke:#181818;stroke-width:2;stroke-dasharray:2,2;" x1="709.4282" x2="918.5625" y1="703" y2="703"/><text fill="#000000" font-family="sans-serif" font-size="13" lengthAdjust="spacing" textLength="157.8662" x="716.4282" y="698.1436">Cosmos SQL + parameters</text></g><g class="message" data-participant-1="Queryable" data-participant-2="Test"><polygon fill="#181818" points="159.293,729.3516,149.293,733.3516,159.293,737.3516,155.293,733.3516" style="stroke:#181818;stroke-width:1;"/><line style="stroke:#181818;stroke-width:2;stroke-dasharray:2,2;" x1="153.293" x2="928.5625" y1="733.3516" y2="733.3516"/><text fill="#000000" font-family="sans-serif" font-size="13" lengthAdjust="spacing" textLength="93.939" x="165.293" y="728.4951">FeedIterator&lt;T&gt;</text></g><rect fill="#EEEEEE" height="3" style="stroke:#EEEEEE;stroke-width:1;" width="2089.0479" x="0" y="762.5273"/><line style="stroke:#000000;stroke-width:1;" x1="0" x2="2089.0479" y1="762.5273" y2="762.5273"/><line style="stroke:#000000;stroke-width:1;" x1="0" x2="2089.0479" y1="765.5273" y2="765.5273"/><rect fill="#EEEEEE" height="24.3516" style="stroke:#000000;stroke-width:2;" width="332.2397" x="878.4041" y="751.3516"/><text fill="#000000" font-family="sans-serif" font-size="13" font-weight="bold" lengthAdjust="spacing" textLength="314.6279" x="884.4041" y="768.8467">Query Plan + Execution (same as Approach 3 SQL)</text><path d="M103,792.7031 L175.4346,792.7031 L175.4346,801.0547 L165.4346,811.0547 L103,811.0547 L103,792.7031" fill="#EEEEEE" style="stroke:#000000;stroke-width:1.5;"/><rect fill="none" height="351.2188" style="stroke:#000000;stroke-width:1.5;" width="1976.0479" x="103" y="792.7031"/><text fill="#000000" font-family="sans-serif" font-size="13" font-weight="bold" lengthAdjust="spacing" textLength="27.4346" x="118" y="807.1982">loop</text><text fill="#000000" font-family="sans-serif" font-size="11" font-weight="bold" lengthAdjust="spacing" textLength="124.083" x="190.4346" y="806.1221">[while HasMoreResults]</text><g class="message" data-participant-1="Test" data-participant-2="SDKIter"><polygon fill="#181818" points="1978.1274,829.4063,1988.1274,833.4063,1978.1274,837.4063,1982.1274,833.4063" style="stroke:#181818;stroke-width:1;"/><line style="stroke:#181818;stroke-width:2;" x1="148.293" x2="1984.1274" y1="833.4063" y2="833.4063"/><text fill="#000000" font-family="sans-serif" font-size="13" lengthAdjust="spacing" textLength="101.8672" x="155.293" y="828.5498">ReadNextAsync()</text></g><g class="message" data-participant-1="SDKIter" data-participant-2="Http"><polygon fill="#181818" points="1067.6689,859.7578,1057.6689,863.7578,1067.6689,867.7578,1063.6689,863.7578" style="stroke:#181818;stroke-width:1;"/><line style="stroke:#181818;stroke-width:2;" x1="1061.6689" x2="1989.1274" y1="863.7578" y2="863.7578"/><text fill="#000000" font-family="sans-serif" font-size="13" lengthAdjust="spacing" textLength="177.0298" x="1073.6689" y="858.9014">POST (query plan, then query)</text></g><g class="message" data-participant-1="Http" data-participant-2="Handler"><polygon fill="#181818" points="1299.5459,906.4609,1309.5459,910.4609,1299.5459,914.4609,1303.5459,910.4609" style="stroke:#181818;stroke-width:1;"/><line style="stroke:#181818;stroke-width:2;" x1="1056.6689" x2="1305.5459" y1="910.4609" y2="910.4609"/><text fill="#000000" font-family="sans-serif" font-size="13" lengthAdjust="spacing" textLength="230.877" x="1063.6689" y="889.2529">SendAsync &#8594; HandleQueryPlanAsync()</text><text fill="#000000" font-family="sans-serif" font-size="13" lengthAdjust="spacing" textLength="149.5698" x="1063.6689" y="905.6045">then HandleQueryAsync()</text></g><g class="message" data-participant-1="Handler" data-participant-2="Parser"><polygon fill="#181818" points="1546.5874,936.8125,1556.5874,940.8125,1546.5874,944.8125,1550.5874,940.8125" style="stroke:#181818;stroke-width:1;"/><line style="stroke:#181818;stroke-width:2;" x1="1311.5459" x2="1552.5874" y1="940.8125" y2="940.8125"/><text fill="#000000" font-family="sans-serif" font-size="13" lengthAdjust="spacing" textLength="188.1699" x="1318.5459" y="935.9561">TryParse() + SimplifySdkQuery()</text></g><g class="message" data-participant-1="Handler" data-participant-2="IMC"><polygon fill="#181818" points="1688.4629,967.1641,1698.4629,971.1641,1688.4629,975.1641,1692.4629,971.1641" style="stroke:#181818;stroke-width:1;"/><line style="stroke:#181818;stroke-width:2;" x1="1311.5459" x2="1694.4629" y1="971.1641" y2="971.1641"/><text fill="#000000" font-family="sans-serif" font-size="13" lengthAdjust="spacing" textLength="261.1616" x="1318.5459" y="966.3076">GetItemQueryIterator &#8594; FilterItemsByQuery()</text></g><g class="message" data-participant-1="Handler" data-participant-2="Handler"><line style="stroke:#181818;stroke-width:2;" x1="1311.5459" x2="1353.5459" y1="1001.5156" y2="1001.5156"/><line style="stroke:#181818;stroke-width:2;" x1="1353.5459" x2="1353.5459" y1="1001.5156" y2="1014.5156"/><line style="stroke:#181818;stroke-width:2;" x1="1312.5459" x2="1353.5459" y1="1014.5156" y2="1014.5156"/><polygon fill="#181818" points="1322.5459,1010.5156,1312.5459,1014.5156,1322.5459,1018.5156,1318.5459,1014.5156" style="stroke:#181818;stroke-width:1;"/><text fill="#000000" font-family="sans-serif" font-size="13" lengthAdjust="spacing" textLength="233.0415" x="1318.5459" y="996.6592">DrainIterator() &#8594; BuildPagedResponse()</text></g><g class="message" data-participant-1="Handler" data-participant-2="Cache"><polygon fill="#181818" points="1833.0693,1040.8672,1843.0693,1044.8672,1833.0693,1048.8672,1837.0693,1044.8672" style="stroke:#181818;stroke-width:1;"/><line style="stroke:#181818;stroke-width:2;" x1="1311.5459" x2="1839.0693" y1="1044.8672" y2="1044.8672"/><text fill="#000000" font-family="sans-serif" font-size="13" lengthAdjust="spacing" textLength="76.5908" x="1318.5459" y="1040.0107">cache results</text></g><g class="message" data-participant-1="Handler" data-participant-2="Http"><polygon fill="#181818" points="1067.6689,1071.2188,1057.6689,1075.2188,1067.6689,1079.2188,1063.6689,1075.2188" style="stroke:#181818;stroke-width:1;"/><line style="stroke:#181818;stroke-width:2;stroke-dasharray:2,2;" x1="1061.6689" x2="1310.5459" y1="1075.2188" y2="1075.2188"/><text fill="#000000" font-family="sans-serif" font-size="13" lengthAdjust="spacing" textLength="154.2925" x="1073.6689" y="1070.3623">200 OK + paginated JSON</text></g><g class="message" data-participant-1="Http" data-participant-2="SDKIter"><polygon fill="#181818" points="1978.1274,1101.5703,1988.1274,1105.5703,1978.1274,1109.5703,1982.1274,1105.5703" style="stroke:#181818;stroke-width:1;"/><line style="stroke:#181818;stroke-width:2;stroke-dasharray:2,2;" x1="1056.6689" x2="1984.1274" y1="1105.5703" y2="1105.5703"/><text fill="#000000" font-family="sans-serif" font-size="13" lengthAdjust="spacing" textLength="194.0352" x="1063.6689" y="1100.7139">response &#8594; SDK pipeline merges</text></g><g class="message" data-participant-1="SDKIter" data-participant-2="Test"><polygon fill="#181818" points="159.293,1131.9219,149.293,1135.9219,159.293,1139.9219,155.293,1135.9219" style="stroke:#181818;stroke-width:1;"/><line style="stroke:#181818;stroke-width:2;stroke-dasharray:2,2;" x1="153.293" x2="1994.1274" y1="1135.9219" y2="1135.9219"/><text fill="#000000" font-family="sans-serif" font-size="13" lengthAdjust="spacing" textLength="111.2935" x="165.293" y="1131.0654">FeedResponse&lt;T&gt;</text></g><path d="M5,1155.9219 L5,1214.9219 L293,1214.9219 L293,1165.9219 L283,1155.9219 L5,1155.9219" fill="#FEFFDD" style="stroke:#181818;stroke-width:0.5;"/><path d="M283,1155.9219 L283,1165.9219 L293,1165.9219 L283,1155.9219" fill="#FEFFDD" style="stroke:#181818;stroke-width:0.5;"/><text fill="#000000" font-family="sans-serif" font-size="13" lengthAdjust="spacing" textLength="181.0034" x="11" y="1174.417">Key: LINQ &#8594; SQL by real SDK,</text><text fill="#000000" font-family="sans-serif" font-size="13" lengthAdjust="spacing" textLength="267.3696" x="11" y="1190.7686">then SQL executed through CosmosSqlParser</text><text fill="#000000" font-family="sans-serif" font-size="13" lengthAdjust="spacing" textLength="199.3989" x="11" y="1207.1201">(tests full LINQ-to-SQL translation)</text><!--SRC=[TLNBSjiw3DthAp3fHahYjDFkF3UTITouIVDoAi_SJJQqXDeSqwH2qacqwweVqEatt0_BbnG4RJsStF7257G07007b9TU8UpldrILDQ9OmASXZ8nR6JTI4hM70nYB9KRJkT2bGWilF__0rSND7TojqTOmLkO9qfFPpEAZ51xBR7y_ITnIwafOiOAPA9PpQzQw71bbBBmRduLV1-7mOOswm1DhpTDq8OkbHkVWOvA8mfF7tXIT9rubxe5m49uIylIoa9KWadjTolSwjIWKv5ykCuRJuItqbTGFNC3WNa-iUPGbbPOsNk7rrjntlxYrPCEIdSLCuJ_Jp-pI6FhuS- -hI8rHuR4FUDNXY8ldjwZd3seYhDi0ut67exx6bR7ro6WlfDuWBwv7VHWp_evkhVo8fX_RowS-Zhe2OyJomgCLD95jnMGFfYGvFeOS_Rg2u-E4XpNu7BAHic086f_W5Q7qvUT_MOFTIgl1l-f9McmzMwz0g_7eQY04FuIsyMFMKPqnKPRksNDbIMFIQ3XTIrLAFUzo3v4F3YXoa_NeAtggTTN8PZFvD4i2c7owYecqTeJMo6dZq8I9wBTq5Q64ZSG6_mThYBSnXt3qxuA0QGRluOYTJkluaAF2mgSPhSei5E-wxPXQnBPH0sy6-TqLMOLsIlY0wFIfJSVTEfgQhaoeDorWjqF39YO2jkazfOUNNx-1iYOzXy5EUR6x0KUt55yaI7bTDsMlSJi2vXBZ3JPHGbECisSirbnXwYXO47XxBuOyMIXT6LF1qq9I_7FXhet5k40k0UZ89sIAJVcEehp1Pt_YQbrGIw1v7OHF6YNCv3QVGlh0R2fYSmX-WHhO43mOrjcJ8QsRBZaYDolQeyh8VPFgNdEKpikMmpOI1OqN20-avZEfv01okQgK_57dvP9TTxt2UWzXinMCs3QN6OsbeiVmpftMRmPeQ_bYQSLQqR0_R-L4pB6azbP61rPzVxwdmeholss6q43Qzdxyy05kBracSwd3Dmg-vRStJMCx8nk6I9mlgf3shv8LAhe3O8LsZguxm5S2sv8D0gC99Oasf6_pI63-R05SOZsCTz16vJ2hOVl5EYG0popOaVL8NFs2Ff_p1UpS_eHDFGLry6EjL6zTVRkkMU01WKRo5m00]--></g></svg>