<svg xmlns="http://www.w3.org/2000/svg" xmlns:xlink="http://www.w3.org/1999/xlink" contentStyleType="text/css" data-diagram-type="ACTIVITY" height="1624px" preserveAspectRatio="none" style="width:603px;height:1624px;background:#FEFEFE;" version="1.1" viewBox="0 0 603 1624" width="603px" zoomAndPan="magnify"><title>**Approach 3: CosmosClient + FakeCosmosHandler &#8212; SQL Query Flow (Abbreviated)**</title><defs/><g><rect fill="#FEFEFE" height="1624" style="stroke:none;stroke-width:1;" width="603" x="0" y="0"/><g class="title" data-source-line="1"><text fill="#000000" font-family="sans-serif" font-size="14" font-weight="bold" lengthAdjust="spacing" textLength="560.1572" x="20" y="34.5332">Approach 3: CosmosClient + FakeCosmosHandler &#8212; SQL Query Flow (Abbreviated)</text></g><ellipse cx="301.5786" cy="58.6094" fill="#222222" rx="10" ry="10" style="stroke:#222222;stroke-width:1;"/><rect fill="none" height="194.8906" style="stroke:#666666;stroke-width:1.5;" width="256.1875" x="173.4849" y="78.6094"/><path d="M220.0708,78.6094 L220.0708,89.2188 L210.0708,99.2188 L173.4849,99.2188" fill="none" style="stroke:#666666;stroke-width:1.5;"/><text fill="#000000" font-family="sans-serif" font-size="14" lengthAdjust="spacing" textLength="36.5859" x="176.4849" y="94.1426">Setup</text><rect fill="#E8F4FD" height="35.0938" rx="12.5" ry="12.5" style="stroke:#333333;stroke-width:0.5;" width="167.5098" x="217.8237" y="116.2188"/><text fill="#000000" font-family="sans-serif" font-size="12" lengthAdjust="spacing" textLength="147.5098" x="227.8237" y="138.6758">new InMemoryContainer(&#8230;)</text><rect fill="#E8F4FD" height="35.0938" rx="12.5" ry="12.5" style="stroke:#333333;stroke-width:0.5;" width="215.416" x="193.8706" y="171.3125"/><text fill="#000000" font-family="sans-serif" font-size="12" lengthAdjust="spacing" textLength="195.416" x="203.8706" y="193.7695">new FakeCosmosHandler(container)</text><rect fill="#E8F4FD" height="35.0938" rx="12.5" ry="12.5" style="stroke:#333333;stroke-width:0.5;" width="236.1875" x="183.4849" y="226.4063"/><text fill="#000000" font-family="sans-serif" font-size="12" lengthAdjust="spacing" textLength="216.1875" x="193.4849" y="248.8633">new CosmosClient(&#8230;, HttpClientFactory)</text><rect fill="none" height="154.8906" style="stroke:#666666;stroke-width:1.5;" width="236.0664" x="183.5454" y="283.5"/><path d="M349.9175,283.5 L349.9175,294.1094 L339.9175,304.1094 L183.5454,304.1094" fill="none" style="stroke:#666666;stroke-width:1.5;"/><text fill="#000000" font-family="sans-serif" font-size="14" lengthAdjust="spacing" textLength="156.3721" x="186.5454" y="299.0332">CosmosClient (real SDK)</text><rect fill="#E8F4FD" height="35.0938" rx="12.5" ry="12.5" style="stroke:#333333;stroke-width:0.5;" width="216.0664" x="193.5454" y="321.1094"/><text fill="#000000" font-family="sans-serif" font-size="12" lengthAdjust="spacing" textLength="196.0664" x="203.5454" y="343.5664">GetItemQueryIterator&lt;T&gt;(queryText)</text><rect fill="#E8F4FD" height="50.1875" rx="12.5" ry="12.5" style="stroke:#333333;stroke-width:0.5;" width="150.0313" x="226.563" y="376.2031"/><text fill="#000000" font-family="sans-serif" font-size="12" lengthAdjust="spacing" textLength="130.0313" x="236.563" y="398.6602">SDK builds HTTP POST</text><text fill="#000000" font-family="sans-serif" font-size="12" lengthAdjust="spacing" textLength="107.3906" x="236.563" y="413.7539">(query plan request)</text><rect fill="none" height="154.8906" style="stroke:#666666;stroke-width:1.5;" width="253.1172" x="175.02" y="448.3906"/><path d="M316.5161,448.3906 L316.5161,459 L306.5161,469 L175.02,469" fill="none" style="stroke:#666666;stroke-width:1.5;"/><text fill="#000000" font-family="sans-serif" font-size="14" lengthAdjust="spacing" textLength="131.4961" x="178.02" y="463.9238">FakeCosmosHandler</text><rect fill="#E8F4FD" height="35.0938" rx="12.5" ry="12.5" style="stroke:#333333;stroke-width:0.5;" width="233.1172" x="185.02" y="486"/><text fill="#000000" font-family="sans-serif" font-size="12" lengthAdjust="spacing" textLength="213.1172" x="195.02" y="508.457">SendAsync &#8594; HandleQueryPlanAsync()</text><rect fill="#E8F4FD" height="50.1875" rx="12.5" ry="12.5" style="stroke:#333333;stroke-width:0.5;" width="210.377" x="196.3901" y="541.0938"/><text fill="#000000" font-family="sans-serif" font-size="12" lengthAdjust="spacing" textLength="141.7207" x="206.3901" y="563.5508">TryParse() &#8594; analyze AST</text><text fill="#000000" font-family="sans-serif" font-size="12" lengthAdjust="spacing" textLength="10.3535" x="206.3901" y="578.6445">&#8594;</text><text fill="#000000" font-family="sans-serif" font-size="12" font-weight="bold" lengthAdjust="spacing" textLength="176.6895" x="220.0776" y="578.6445">PartitionedQueryExecutionInfo</text><rect fill="none" height="154.8906" style="stroke:#666666;stroke-width:1.5;" width="194.0547" x="204.5513" y="613.2813"/><path d="M370.9233,613.2813 L370.9233,623.8906 L360.9233,633.8906 L204.5513,633.8906" fill="none" style="stroke:#666666;stroke-width:1.5;"/><text fill="#000000" font-family="sans-serif" font-size="14" lengthAdjust="spacing" textLength="156.3721" x="207.5513" y="628.8145">CosmosClient (real SDK)</text><rect fill="#E8F4FD" height="50.1875" rx="12.5" ry="12.5" style="stroke:#333333;stroke-width:0.5;" width="174.0547" x="214.5513" y="650.8906"/><text fill="#000000" font-family="sans-serif" font-size="12" lengthAdjust="spacing" textLength="110.0742" x="224.5513" y="673.3477">Build pipeline stages</text><text fill="#000000" font-family="sans-serif" font-size="12" lengthAdjust="spacing" textLength="154.0547" x="224.5513" y="688.4414">(OrderBy/Aggregate/Distinct)</text><rect fill="#E8F4FD" height="35.0938" rx="12.5" ry="12.5" style="stroke:#333333;stroke-width:0.5;" width="146.0645" x="228.5464" y="721.0781"/><text fill="#000000" font-family="sans-serif" font-size="12" lengthAdjust="spacing" textLength="126.0645" x="238.5464" y="743.5352">Return FeedIterator&lt;T&gt;</text><rect fill="none" height="793.1826" style="stroke:#666666;stroke-width:1.5;" width="337.0723" x="133.0425" y="778.1719"/><path d="M230.9937,778.1719 L230.9937,788.7813 L220.9937,798.7813 L133.0425,798.7813" fill="none" style="stroke:#666666;stroke-width:1.5;"/><text fill="#000000" font-family="sans-serif" font-size="14" lengthAdjust="spacing" textLength="87.9512" x="136.0425" y="793.7051">Per-page loop</text><rect fill="none" height="99.7969" style="stroke:#666666;stroke-width:1.5;" width="176.3721" x="213.3926" y="863.2764"/><path d="M379.7646,863.2764 L379.7646,873.8857 L369.7646,883.8857 L213.3926,883.8857" fill="none" style="stroke:#666666;stroke-width:1.5;"/><text fill="#000000" font-family="sans-serif" font-size="14" lengthAdjust="spacing" textLength="156.3721" x="216.3926" y="878.8096">CosmosClient (real SDK)</text><rect fill="#E8F4FD" height="50.1875" rx="12.5" ry="12.5" style="stroke:#333333;stroke-width:0.5;" width="156.0723" x="223.5425" y="900.8857"/><text fill="#000000" font-family="sans-serif" font-size="12" lengthAdjust="spacing" textLength="130.0313" x="233.5425" y="923.3428">SDK builds HTTP POST</text><text fill="#000000" font-family="sans-serif" font-size="12" lengthAdjust="spacing" textLength="136.0723" x="233.5425" y="938.4365">(query execution request)</text><rect fill="none" height="139.7969" style="stroke:#666666;stroke-width:1.5;" width="229.0996" x="187.0288" y="973.0732"/><path d="M328.5249,973.0732 L328.5249,983.6826 L318.5249,993.6826 L187.0288,993.6826" fill="none" style="stroke:#666666;stroke-width:1.5;"/><text fill="#000000" font-family="sans-serif" font-size="14" lengthAdjust="spacing" textLength="131.4961" x="190.0288" y="988.6064">FakeCosmosHandler</text><rect fill="#E8F4FD" height="35.0938" rx="12.5" ry="12.5" style="stroke:#333333;stroke-width:0.5;" width="209.0996" x="197.0288" y="1010.6826"/><text fill="#000000" font-family="sans-serif" font-size="12" lengthAdjust="spacing" textLength="189.0996" x="207.0288" y="1033.1396">SendAsync &#8594; HandleQueryAsync()</text><rect fill="#E8F4FD" height="35.0938" rx="12.5" ry="12.5" style="stroke:#333333;stroke-width:0.5;" width="193.6953" x="204.731" y="1065.7764"/><text fill="#000000" font-family="sans-serif" font-size="12" lengthAdjust="spacing" textLength="173.6953" x="214.731" y="1088.2334">TryParse() + SimplifySdkQuery()</text><rect fill="none" height="99.7969" style="stroke:#666666;stroke-width:1.5;" width="281.0723" x="161.0425" y="1122.8701"/><path d="M293.98,1122.8701 L293.98,1133.4795 L283.98,1143.4795 L161.0425,1143.4795" fill="none" style="stroke:#666666;stroke-width:1.5;"/><text fill="#000000" font-family="sans-serif" font-size="14" lengthAdjust="spacing" textLength="122.9375" x="164.0425" y="1138.4033">InMemoryContainer</text><rect fill="#E8F4FD" height="50.1875" rx="12.5" ry="12.5" style="stroke:#333333;stroke-width:0.5;" width="261.0723" x="171.0425" y="1160.4795"/><text fill="#000000" font-family="sans-serif" font-size="12" lengthAdjust="spacing" textLength="241.0723" x="181.0425" y="1182.9365">GetItemQueryIterator &#8594; FilterItemsByQuery()</text><text fill="#000000" font-family="sans-serif" font-size="12" lengthAdjust="spacing" textLength="101.0742" x="181.0425" y="1198.0303">&#8594; full SQL pipeline</text><rect fill="none" height="194.8906" style="stroke:#666666;stroke-width:1.5;" width="276.4199" x="163.3687" y="1232.667"/><path d="M304.8647,1232.667 L304.8647,1243.2764 L294.8647,1253.2764 L163.3687,1253.2764" fill="none" style="stroke:#666666;stroke-width:1.5;"/><text fill="#000000" font-family="sans-serif" font-size="14" lengthAdjust="spacing" textLength="131.4961" x="166.3687" y="1248.2002">FakeCosmosHandler</text><rect fill="#E8F4FD" height="35.0938" rx="12.5" ry="12.5" style="stroke:#333333;stroke-width:0.5;" width="256.4199" x="173.3687" y="1270.2764"/><text fill="#000000" font-family="sans-serif" font-size="12" lengthAdjust="spacing" textLength="236.4199" x="183.3687" y="1292.7334">DrainIterator() &#8594; FilterDocumentsByRange()</text><rect fill="#E8F4FD" height="35.0938" rx="12.5" ry="12.5" style="stroke:#333333;stroke-width:0.5;" width="233.7969" x="184.6802" y="1325.3701"/><text fill="#000000" font-family="sans-serif" font-size="12" lengthAdjust="spacing" textLength="213.7969" x="194.6802" y="1347.8271">Cache results &#8594; BuildPagedResponse()</text><rect fill="#E8F4FD" height="35.0938" rx="12.5" ry="12.5" style="stroke:#333333;stroke-width:0.5;" width="201.7754" x="200.6909" y="1380.4639"/><text fill="#000000" font-family="sans-serif" font-size="12" lengthAdjust="spacing" textLength="181.7754" x="210.6909" y="1402.9209">Return 200 OK + paginated JSON</text><rect fill="none" height="99.7969" style="stroke:#666666;stroke-width:1.5;" width="191.4004" x="205.8784" y="1437.5576"/><path d="M372.2505,1437.5576 L372.2505,1448.167 L362.2505,1458.167 L205.8784,1458.167" fill="none" style="stroke:#666666;stroke-width:1.5;"/><text fill="#000000" font-family="sans-serif" font-size="14" lengthAdjust="spacing" textLength="156.3721" x="208.8784" y="1453.0908">CosmosClient (real SDK)</text><rect fill="#E8F4FD" height="50.1875" rx="12.5" ry="12.5" style="stroke:#333333;stroke-width:0.5;" width="171.4004" x="215.8784" y="1475.167"/><text fill="#000000" font-family="sans-serif" font-size="12" lengthAdjust="spacing" textLength="151.4004" x="225.8784" y="1497.624">SDK pipeline merges results</text><text fill="#000000" font-family="sans-serif" font-size="12" lengthAdjust="spacing" textLength="10.3535" x="225.8784" y="1512.7178">&#8594;</text><text fill="#000000" font-family="sans-serif" font-size="12" font-weight="bold" lengthAdjust="spacing" textLength="106.7051" x="239.5659" y="1512.7178">FeedResponse&lt;T&gt;</text><polygon fill="#E8F4FD" points="257.8687,815.7813,345.2886,815.7813,357.2886,827.7813,345.2886,839.7813,257.8687,839.7813,245.8687,827.7813,257.8687,815.7813" style="stroke:#333333;stroke-width:0.5;"/><text fill="#000000" font-family="sans-serif" font-size="11" lengthAdjust="spacing" textLength="17.1177" x="305.5786" y="851.2002">yes</text><text fill="#000000" font-family="sans-serif" font-size="11" lengthAdjust="spacing" textLength="87.4199" x="257.8687" y="832.2822">HasMoreResults?</text><text fill="#000000" font-family="sans-serif" font-size="11" lengthAdjust="spacing" textLength="12.2354" x="233.6333" y="825.3643">no</text><ellipse cx="301.5786" cy="1602.3545" fill="none" rx="11" ry="11" style="stroke:#222222;stroke-width:1;"/><ellipse cx="301.5786" cy="1602.3545" fill="#222222" rx="6" ry="6" style="stroke:#222222;stroke-width:1;"/><line style="stroke:#181818;stroke-width:1;" x1="301.5786" x2="301.5786" y1="151.3125" y2="171.3125"/><polygon fill="#181818" points="297.5786,161.3125,301.5786,171.3125,305.5786,161.3125,301.5786,165.3125" style="stroke:#181818;stroke-width:1;"/><line style="stroke:#181818;stroke-width:1;" x1="301.5786" x2="301.5786" y1="206.4063" y2="226.4063"/><polygon fill="#181818" points="297.5786,216.4063,301.5786,226.4063,305.5786,216.4063,301.5786,220.4063" style="stroke:#181818;stroke-width:1;"/><line style="stroke:#181818;stroke-width:1;" x1="301.5786" x2="301.5786" y1="68.6094" y2="116.2188"/><polygon fill="#181818" points="297.5786,106.2188,301.5786,116.2188,305.5786,106.2188,301.5786,110.2188" style="stroke:#181818;stroke-width:1;"/><line style="stroke:#181818;stroke-width:1;" x1="301.5786" x2="301.5786" y1="356.2031" y2="376.2031"/><polygon fill="#181818" points="297.5786,366.2031,301.5786,376.2031,305.5786,366.2031,301.5786,370.2031" style="stroke:#181818;stroke-width:1;"/><line style="stroke:#181818;stroke-width:1;" x1="301.5786" x2="301.5786" y1="261.5" y2="321.1094"/><polygon fill="#181818" points="297.5786,311.1094,301.5786,321.1094,305.5786,311.1094,301.5786,315.1094" style="stroke:#181818;stroke-width:1;"/><line style="stroke:#181818;stroke-width:1;" x1="301.5786" x2="301.5786" y1="521.0938" y2="541.0938"/><polygon fill="#181818" points="297.5786,531.0938,301.5786,541.0938,305.5786,531.0938,301.5786,535.0938" style="stroke:#181818;stroke-width:1;"/><line style="stroke:#181818;stroke-width:1;" x1="301.5786" x2="301.5786" y1="426.3906" y2="486"/><polygon fill="#181818" points="297.5786,476,301.5786,486,305.5786,476,301.5786,480" style="stroke:#181818;stroke-width:1;"/><line style="stroke:#181818;stroke-width:1;" x1="301.5786" x2="301.5786" y1="701.0781" y2="721.0781"/><polygon fill="#181818" points="297.5786,711.0781,301.5786,721.0781,305.5786,711.0781,301.5786,715.0781" style="stroke:#181818;stroke-width:1;"/><line style="stroke:#181818;stroke-width:1;" x1="301.5786" x2="301.5786" y1="591.2813" y2="650.8906"/><polygon fill="#181818" points="297.5786,640.8906,301.5786,650.8906,305.5786,640.8906,301.5786,644.8906" style="stroke:#181818;stroke-width:1;"/><line style="stroke:#181818;stroke-width:1;" x1="301.5786" x2="301.5786" y1="1045.7764" y2="1065.7764"/><polygon fill="#181818" points="297.5786,1055.7764,301.5786,1065.7764,305.5786,1055.7764,301.5786,1059.7764" style="stroke:#181818;stroke-width:1;"/><line style="stroke:#181818;stroke-width:1;" x1="301.5786" x2="301.5786" y1="951.0732" y2="1010.6826"/><polygon fill="#181818" points="297.5786,1000.6826,301.5786,1010.6826,305.5786,1000.6826,301.5786,1004.6826" style="stroke:#181818;stroke-width:1;"/><line style="stroke:#181818;stroke-width:1;" x1="301.5786" x2="301.5786" y1="1100.8701" y2="1160.4795"/><polygon fill="#181818" points="297.5786,1150.4795,301.5786,1160.4795,305.5786,1150.4795,301.5786,1154.4795" style="stroke:#181818;stroke-width:1;"/><line style="stroke:#181818;stroke-width:1;" x1="301.5786" x2="301.5786" y1="1305.3701" y2="1325.3701"/><polygon fill="#181818" points="297.5786,1315.3701,301.5786,1325.3701,305.5786,1315.3701,301.5786,1319.3701" style="stroke:#181818;stroke-width:1;"/><line style="stroke:#181818;stroke-width:1;" x1="301.5786" x2="301.5786" y1="1360.4639" y2="1380.4639"/><polygon fill="#181818" points="297.5786,1370.4639,301.5786,1380.4639,305.5786,1370.4639,301.5786,1374.4639" style="stroke:#181818;stroke-width:1;"/><line style="stroke:#181818;stroke-width:1;" x1="301.5786" x2="301.5786" y1="1210.667" y2="1270.2764"/><polygon fill="#181818" points="297.5786,1260.2764,301.5786,1270.2764,305.5786,1260.2764,301.5786,1264.2764" style="stroke:#181818;stroke-width:1;"/><line style="stroke:#181818;stroke-width:1;" x1="301.5786" x2="301.5786" y1="1415.5576" y2="1475.167"/><polygon fill="#181818" points="297.5786,1465.167,301.5786,1475.167,305.5786,1465.167,301.5786,1469.167" style="stroke:#181818;stroke-width:1;"/><line style="stroke:#181818;stroke-width:1;" x1="301.5786" x2="301.5786" y1="839.7813" y2="900.8857"/><polygon fill="#181818" points="297.5786,890.8857,301.5786,900.8857,305.5786,890.8857,301.5786,894.8857" style="stroke:#181818;stroke-width:1;"/><line style="stroke:#181818;stroke-width:1;" x1="301.5786" x2="301.5786" y1="1525.3545" y2="1547.3545"/><line style="stroke:#181818;stroke-width:1;" x1="301.5786" x2="454.1147" y1="1547.3545" y2="1547.3545"/><polygon fill="#181818" points="450.1147,1202.8975,454.1147,1192.8975,458.1147,1202.8975,454.1147,1198.8975" style="stroke:#181818;stroke-width:1;"/><line style="stroke:#181818;stroke-width:1;" x1="454.1147" x2="454.1147" y1="827.7813" y2="1547.3545"/><line style="stroke:#181818;stroke-width:1;" x1="454.1147" x2="357.2886" y1="827.7813" y2="827.7813"/><polygon fill="#181818" points="367.2886,823.7813,357.2886,827.7813,367.2886,831.7813,363.2886,827.7813" style="stroke:#181818;stroke-width:1;"/><line style="stroke:#181818;stroke-width:1;" x1="245.8687" x2="149.0425" y1="827.7813" y2="827.7813"/><polygon fill="#181818" points="145.0425,1188.8975,149.0425,1198.8975,153.0425,1188.8975,149.0425,1192.8975" style="stroke:#181818;stroke-width:1;"/><line style="stroke:#181818;stroke-width:1;" x1="149.0425" x2="149.0425" y1="827.7813" y2="1559.3545"/><line style="stroke:#181818;stroke-width:1;" x1="149.0425" x2="301.5786" y1="1559.3545" y2="1559.3545"/><line style="stroke:#181818;stroke-width:1;" x1="301.5786" x2="301.5786" y1="1559.3545" y2="1591.3545"/><polygon fill="#181818" points="297.5786,1581.3545,301.5786,1591.3545,305.5786,1581.3545,301.5786,1585.3545" style="stroke:#181818;stroke-width:1;"/><line style="stroke:#181818;stroke-width:1;" x1="301.5786" x2="301.5786" y1="756.1719" y2="815.7813"/><polygon fill="#181818" points="297.5786,805.7813,301.5786,815.7813,305.5786,805.7813,301.5786,809.7813" style="stroke:#181818;stroke-width:1;"/><!--SRC=[fLHjKjim4FsVK-pGFuvffqpJCYrbwEJB3QKq0US2Yhq4JHJ9bMJ0xJ33hnwWqpFqO9oaAza6GyWKMkTF9BtTVThtLfPRWH26tIpJYYMdqDc1lZ9BPVg2exIm2H5ROBarOZ8LgE7wwXV4Hv_XA4TTG2JKEGJTsKpZ6MSMqtOOjbfcmMN6D5l2Z2MBkLQvJFjAA0tFeg7xDH3TnF8pRekUqYdg2jNfT1w2t4ysV1kzZWP_H-xkcdInjqVLewWpt7fCm6bvNHT4LTuCtpM29anRRhcITpXlRs_JpIsTjLfPZO2D66sURS3t5i2En7FObuUuLBheAsaPbwY3wwlVxVVryKh3WwG6teAQ8hdmvp2oDYlN4KiifIVmvHqUTuGDD381yU2WlG5rSpp3ZsZtBIwzkFH7CygrEzqBlhgDALxOaWH5mYpd8ZKmcaudC1d7KzelOP099a4ZBOnTuR5oGSVWjjkUHOmoxPf29d3zuoUKE4zfGfdzGL3ocD8MqmQ3jaSooKJn3Q7hsRYTCBmH2rEVOdY1IUxM-_94XU6_jQddxWuPpr2GCa2gpz6u1eoT8Nh5o-vyhd5E0_5om8tbCgaQTqnkq18YnBJHtlia9gXVP9GIX5ALTyvFESrgC6BcK6ayHfCBQpwqWHi82ZJj5c40ddeHzwqJqtsLe5ZthA6gExvSgVe8TSkQwnHkgEk13OKt8URBJF2J8auN7XoivR4oPHktjH_okASHSK5BTsPwHLMW2dB79xaG_kchTV_V9WmqKQiPL1OkEGnKaYz9EE9npEGS6mtfqqEDf8CtW0_nPfoGNLAoHQQaQS8hmxtQseBn0RMGRCMbUwZXKpp-iku6JpFFpHmiKTCSrEGQhGj3v_YQ7ZdU3TvDQV92PM-fscuKZ5LPwmy0]--></g></svg>