<svg xmlns="http://www.w3.org/2000/svg" xmlns:xlink="http://www.w3.org/1999/xlink" contentStyleType="text/css" data-diagram-type="ACTIVITY" height="1694px" preserveAspectRatio="none" style="width:603px;height:1694px;background:#FEFEFE;" version="1.1" viewBox="0 0 603 1694" width="603px" zoomAndPan="magnify"><title>**Approach 3: CosmosClient + FakeCosmosHandler &#8212; SQL Query Flow (Abbreviated)**</title><defs/><g><rect fill="#FEFEFE" height="1694" style="stroke:none;stroke-width:1;" width="603" x="0" y="0"/><g class="title" data-source-line="1"><text fill="#000000" font-family="sans-serif" font-size="14" font-weight="bold" lengthAdjust="spacing" textLength="560.1572" x="20" y="34.5332">Approach 3: CosmosClient + FakeCosmosHandler &#8212; SQL Query Flow (Abbreviated)</text></g><ellipse cx="301.5786" cy="58.6094" fill="#222222" rx="10" ry="10" style="stroke:#222222;stroke-width:1;"/><rect fill="none" height="194.8906" style="stroke:#666666;stroke-width:1.5;" width="256.1875" x="173.4849" y="78.6094"/><path d="M220.0708,78.6094 L220.0708,89.2188 L210.0708,99.2188 L173.4849,99.2188" fill="none" style="stroke:#666666;stroke-width:1.5;"/><text fill="#000000" font-family="sans-serif" font-size="14" lengthAdjust="spacing" textLength="36.5859" x="176.4849" y="94.1426">Setup</text><rect fill="#E8F4FD" height="35.0938" rx="12.5" ry="12.5" style="stroke:#333333;stroke-width:0.5;" width="167.5098" x="217.8237" y="116.2188"/><text fill="#000000" font-family="sans-serif" font-size="12" lengthAdjust="spacing" textLength="147.5098" x="227.8237" y="138.6758">new InMemoryContainer(&#8230;)</text><rect fill="#E8F4FD" height="35.0938" rx="12.5" ry="12.5" style="stroke:#333333;stroke-width:0.5;" width="215.416" x="193.8706" y="171.3125"/><text fill="#000000" font-family="sans-serif" font-size="12" lengthAdjust="spacing" textLength="195.416" x="203.8706" y="193.7695">new FakeCosmosHandler(container)</text><rect fill="#E8F4FD" height="35.0938" rx="12.5" ry="12.5" style="stroke:#333333;stroke-width:0.5;" width="236.1875" x="183.4849" y="226.4063"/><text fill="#000000" font-family="sans-serif" font-size="12" lengthAdjust="spacing" textLength="216.1875" x="193.4849" y="248.8633">new CosmosClient(&#8230;, HttpClientFactory)</text><rect fill="none" height="225.0781" style="stroke:#666666;stroke-width:1.5;" width="296.0957" x="153.5308" y="283.5"/><path d="M319.9028,283.5 L319.9028,294.1094 L309.9028,304.1094 L153.5308,304.1094" fill="none" style="stroke:#666666;stroke-width:1.5;"/><text fill="#000000" font-family="sans-serif" font-size="14" lengthAdjust="spacing" textLength="156.3721" x="156.5308" y="299.0332">CosmosClient (real SDK)</text><rect fill="#E8F4FD" height="50.1875" rx="12.5" ry="12.5" style="stroke:#333333;stroke-width:0.5;" width="260.7734" x="171.1919" y="321.1094"/><text fill="#000000" font-family="sans-serif" font-size="12" lengthAdjust="spacing" textLength="31.3477" x="181.1919" y="343.5664">client.</text><text fill="#000000" font-family="sans-serif" font-size="12" font-weight="bold" lengthAdjust="spacing" textLength="76.0078" x="212.5396" y="343.5664">GetContainer</text><text fill="#000000" font-family="sans-serif" font-size="12" lengthAdjust="spacing" textLength="133.418" x="288.5474" y="343.5664">(databaseId, containerId)</text><text fill="#000000" font-family="sans-serif" font-size="12" lengthAdjust="spacing" textLength="157.7402" x="181.1919" y="358.6602">&#8594; Container (real SDK proxy)</text><rect fill="#E8F4FD" height="35.0938" rx="12.5" ry="12.5" style="stroke:#333333;stroke-width:0.5;" width="276.0957" x="163.5308" y="391.2969"/><text fill="#000000" font-family="sans-serif" font-size="12" lengthAdjust="spacing" textLength="52.6992" x="173.5308" y="413.7539">container.</text><text fill="#000000" font-family="sans-serif" font-size="12" font-weight="bold" lengthAdjust="spacing" textLength="142.0488" x="226.23" y="413.7539">GetItemQueryIterator&lt;T&gt;</text><text fill="#000000" font-family="sans-serif" font-size="12" lengthAdjust="spacing" textLength="61.3477" x="368.2788" y="413.7539">(queryText)</text><rect fill="#E8F4FD" height="50.1875" rx="12.5" ry="12.5" style="stroke:#333333;stroke-width:0.5;" width="150.0313" x="226.563" y="446.3906"/><text fill="#000000" font-family="sans-serif" font-size="12" lengthAdjust="spacing" textLength="130.0313" x="236.563" y="468.8477">SDK builds HTTP POST</text><text fill="#000000" font-family="sans-serif" font-size="12" lengthAdjust="spacing" textLength="107.3906" x="236.563" y="483.9414">(query plan request)</text><rect fill="none" height="154.8906" style="stroke:#666666;stroke-width:1.5;" width="253.1172" x="175.02" y="518.5781"/><path d="M316.5161,518.5781 L316.5161,529.1875 L306.5161,539.1875 L175.02,539.1875" fill="none" style="stroke:#666666;stroke-width:1.5;"/><text fill="#000000" font-family="sans-serif" font-size="14" lengthAdjust="spacing" textLength="131.4961" x="178.02" y="534.1113">FakeCosmosHandler</text><rect fill="#E8F4FD" height="35.0938" rx="12.5" ry="12.5" style="stroke:#333333;stroke-width:0.5;" width="233.1172" x="185.02" y="556.1875"/><text fill="#000000" font-family="sans-serif" font-size="12" lengthAdjust="spacing" textLength="213.1172" x="195.02" y="578.6445">SendAsync &#8594; HandleQueryPlanAsync()</text><rect fill="#E8F4FD" height="50.1875" rx="12.5" ry="12.5" style="stroke:#333333;stroke-width:0.5;" width="210.377" x="196.3901" y="611.2813"/><text fill="#000000" font-family="sans-serif" font-size="12" lengthAdjust="spacing" textLength="141.7207" x="206.3901" y="633.7383">TryParse() &#8594; analyze AST</text><text fill="#000000" font-family="sans-serif" font-size="12" lengthAdjust="spacing" textLength="10.3535" x="206.3901" y="648.832">&#8594;</text><text fill="#000000" font-family="sans-serif" font-size="12" font-weight="bold" lengthAdjust="spacing" textLength="176.6895" x="220.0776" y="648.832">PartitionedQueryExecutionInfo</text><rect fill="none" height="154.8906" style="stroke:#666666;stroke-width:1.5;" width="194.0547" x="204.5513" y="683.4688"/><path d="M370.9233,683.4688 L370.9233,694.0781 L360.9233,704.0781 L204.5513,704.0781" fill="none" style="stroke:#666666;stroke-width:1.5;"/><text fill="#000000" font-family="sans-serif" font-size="14" lengthAdjust="spacing" textLength="156.3721" x="207.5513" y="699.002">CosmosClient (real SDK)</text><rect fill="#E8F4FD" height="50.1875" rx="12.5" ry="12.5" style="stroke:#333333;stroke-width:0.5;" width="174.0547" x="214.5513" y="721.0781"/><text fill="#000000" font-family="sans-serif" font-size="12" lengthAdjust="spacing" textLength="110.0742" x="224.5513" y="743.5352">Build pipeline stages</text><text fill="#000000" font-family="sans-serif" font-size="12" lengthAdjust="spacing" textLength="154.0547" x="224.5513" y="758.6289">(OrderBy/Aggregate/Distinct)</text><rect fill="#E8F4FD" height="35.0938" rx="12.5" ry="12.5" style="stroke:#333333;stroke-width:0.5;" width="146.0645" x="228.5464" y="791.2656"/><text fill="#000000" font-family="sans-serif" font-size="12" lengthAdjust="spacing" textLength="126.0645" x="238.5464" y="813.7227">Return FeedIterator&lt;T&gt;</text><rect fill="none" height="793.1826" style="stroke:#666666;stroke-width:1.5;" width="337.0723" x="133.0425" y="848.3594"/><path d="M230.9937,848.3594 L230.9937,858.9688 L220.9937,868.9688 L133.0425,868.9688" fill="none" style="stroke:#666666;stroke-width:1.5;"/><text fill="#000000" font-family="sans-serif" font-size="14" lengthAdjust="spacing" textLength="87.9512" x="136.0425" y="863.8926">Per-page loop</text><rect fill="none" height="99.7969" style="stroke:#666666;stroke-width:1.5;" width="176.3721" x="213.3926" y="933.4639"/><path d="M379.7646,933.4639 L379.7646,944.0732 L369.7646,954.0732 L213.3926,954.0732" fill="none" style="stroke:#666666;stroke-width:1.5;"/><text fill="#000000" font-family="sans-serif" font-size="14" lengthAdjust="spacing" textLength="156.3721" x="216.3926" y="948.9971">CosmosClient (real SDK)</text><rect fill="#E8F4FD" height="50.1875" rx="12.5" ry="12.5" style="stroke:#333333;stroke-width:0.5;" width="156.0723" x="223.5425" y="971.0732"/><text fill="#000000" font-family="sans-serif" font-size="12" lengthAdjust="spacing" textLength="130.0313" x="233.5425" y="993.5303">SDK builds HTTP POST</text><text fill="#000000" font-family="sans-serif" font-size="12" lengthAdjust="spacing" textLength="136.0723" x="233.5425" y="1008.624">(query execution request)</text><rect fill="none" height="139.7969" style="stroke:#666666;stroke-width:1.5;" width="229.0996" x="187.0288" y="1043.2607"/><path d="M328.5249,1043.2607 L328.5249,1053.8701 L318.5249,1063.8701 L187.0288,1063.8701" fill="none" style="stroke:#666666;stroke-width:1.5;"/><text fill="#000000" font-family="sans-serif" font-size="14" lengthAdjust="spacing" textLength="131.4961" x="190.0288" y="1058.7939">FakeCosmosHandler</text><rect fill="#E8F4FD" height="35.0938" rx="12.5" ry="12.5" style="stroke:#333333;stroke-width:0.5;" width="209.0996" x="197.0288" y="1080.8701"/><text fill="#000000" font-family="sans-serif" font-size="12" lengthAdjust="spacing" textLength="189.0996" x="207.0288" y="1103.3271">SendAsync &#8594; HandleQueryAsync()</text><rect fill="#E8F4FD" height="35.0938" rx="12.5" ry="12.5" style="stroke:#333333;stroke-width:0.5;" width="193.6953" x="204.731" y="1135.9639"/><text fill="#000000" font-family="sans-serif" font-size="12" lengthAdjust="spacing" textLength="173.6953" x="214.731" y="1158.4209">TryParse() + SimplifySdkQuery()</text><rect fill="none" height="99.7969" style="stroke:#666666;stroke-width:1.5;" width="281.0723" x="161.0425" y="1193.0576"/><path d="M293.98,1193.0576 L293.98,1203.667 L283.98,1213.667 L161.0425,1213.667" fill="none" style="stroke:#666666;stroke-width:1.5;"/><text fill="#000000" font-family="sans-serif" font-size="14" lengthAdjust="spacing" textLength="122.9375" x="164.0425" y="1208.5908">InMemoryContainer</text><rect fill="#E8F4FD" height="50.1875" rx="12.5" ry="12.5" style="stroke:#333333;stroke-width:0.5;" width="261.0723" x="171.0425" y="1230.667"/><text fill="#000000" font-family="sans-serif" font-size="12" lengthAdjust="spacing" textLength="241.0723" x="181.0425" y="1253.124">GetItemQueryIterator &#8594; FilterItemsByQuery()</text><text fill="#000000" font-family="sans-serif" font-size="12" lengthAdjust="spacing" textLength="101.0742" x="181.0425" y="1268.2178">&#8594; full SQL pipeline</text><rect fill="none" height="194.8906" style="stroke:#666666;stroke-width:1.5;" width="276.4199" x="163.3687" y="1302.8545"/><path d="M304.8647,1302.8545 L304.8647,1313.4639 L294.8647,1323.4639 L163.3687,1323.4639" fill="none" style="stroke:#666666;stroke-width:1.5;"/><text fill="#000000" font-family="sans-serif" font-size="14" lengthAdjust="spacing" textLength="131.4961" x="166.3687" y="1318.3877">FakeCosmosHandler</text><rect fill="#E8F4FD" height="35.0938" rx="12.5" ry="12.5" style="stroke:#333333;stroke-width:0.5;" width="256.4199" x="173.3687" y="1340.4639"/><text fill="#000000" font-family="sans-serif" font-size="12" lengthAdjust="spacing" textLength="236.4199" x="183.3687" y="1362.9209">DrainIterator() &#8594; FilterDocumentsByRange()</text><rect fill="#E8F4FD" height="35.0938" rx="12.5" ry="12.5" style="stroke:#333333;stroke-width:0.5;" width="233.7969" x="184.6802" y="1395.5576"/><text fill="#000000" font-family="sans-serif" font-size="12" lengthAdjust="spacing" textLength="213.7969" x="194.6802" y="1418.0146">Cache results &#8594; BuildPagedResponse()</text><rect fill="#E8F4FD" height="35.0938" rx="12.5" ry="12.5" style="stroke:#333333;stroke-width:0.5;" width="201.7754" x="200.6909" y="1450.6514"/><text fill="#000000" font-family="sans-serif" font-size="12" lengthAdjust="spacing" textLength="181.7754" x="210.6909" y="1473.1084">Return 200 OK + paginated JSON</text><rect fill="none" height="99.7969" style="stroke:#666666;stroke-width:1.5;" width="191.4004" x="205.8784" y="1507.7451"/><path d="M372.2505,1507.7451 L372.2505,1518.3545 L362.2505,1528.3545 L205.8784,1528.3545" fill="none" style="stroke:#666666;stroke-width:1.5;"/><text fill="#000000" font-family="sans-serif" font-size="14" lengthAdjust="spacing" textLength="156.3721" x="208.8784" y="1523.2783">CosmosClient (real SDK)</text><rect fill="#E8F4FD" height="50.1875" rx="12.5" ry="12.5" style="stroke:#333333;stroke-width:0.5;" width="171.4004" x="215.8784" y="1545.3545"/><text fill="#000000" font-family="sans-serif" font-size="12" lengthAdjust="spacing" textLength="151.4004" x="225.8784" y="1567.8115">SDK pipeline merges results</text><text fill="#000000" font-family="sans-serif" font-size="12" lengthAdjust="spacing" textLength="10.3535" x="225.8784" y="1582.9053">&#8594;</text><text fill="#000000" font-family="sans-serif" font-size="12" font-weight="bold" lengthAdjust="spacing" textLength="106.7051" x="239.5659" y="1582.9053">FeedResponse&lt;T&gt;</text><polygon fill="#E8F4FD" points="257.8687,885.9688,345.2886,885.9688,357.2886,897.9688,345.2886,909.9688,257.8687,909.9688,245.8687,897.9688,257.8687,885.9688" style="stroke:#333333;stroke-width:0.5;"/><text fill="#000000" font-family="sans-serif" font-size="11" lengthAdjust="spacing" textLength="17.1177" x="305.5786" y="921.3877">yes</text><text fill="#000000" font-family="sans-serif" font-size="11" lengthAdjust="spacing" textLength="87.4199" x="257.8687" y="902.4697">HasMoreResults?</text><text fill="#000000" font-family="sans-serif" font-size="11" lengthAdjust="spacing" textLength="12.2354" x="233.6333" y="895.5518">no</text><ellipse cx="301.5786" cy="1672.542" fill="none" rx="11" ry="11" style="stroke:#222222;stroke-width:1;"/><ellipse cx="301.5786" cy="1672.542" fill="#222222" rx="6" ry="6" style="stroke:#222222;stroke-width:1;"/><line style="stroke:#181818;stroke-width:1;" x1="301.5786" x2="301.5786" y1="151.3125" y2="171.3125"/><polygon fill="#181818" points="297.5786,161.3125,301.5786,171.3125,305.5786,161.3125,301.5786,165.3125" style="stroke:#181818;stroke-width:1;"/><line style="stroke:#181818;stroke-width:1;" x1="301.5786" x2="301.5786" y1="206.4063" y2="226.4063"/><polygon fill="#181818" points="297.5786,216.4063,301.5786,226.4063,305.5786,216.4063,301.5786,220.4063" style="stroke:#181818;stroke-width:1;"/><line style="stroke:#181818;stroke-width:1;" x1="301.5786" x2="301.5786" y1="68.6094" y2="116.2188"/><polygon fill="#181818" points="297.5786,106.2188,301.5786,116.2188,305.5786,106.2188,301.5786,110.2188" style="stroke:#181818;stroke-width:1;"/><line style="stroke:#181818;stroke-width:1;" x1="301.5786" x2="301.5786" y1="371.2969" y2="391.2969"/><polygon fill="#181818" points="297.5786,381.2969,301.5786,391.2969,305.5786,381.2969,301.5786,385.2969" style="stroke:#181818;stroke-width:1;"/><line style="stroke:#181818;stroke-width:1;" x1="301.5786" x2="301.5786" y1="426.3906" y2="446.3906"/><polygon fill="#181818" points="297.5786,436.3906,301.5786,446.3906,305.5786,436.3906,301.5786,440.3906" style="stroke:#181818;stroke-width:1;"/><line style="stroke:#181818;stroke-width:1;" x1="301.5786" x2="301.5786" y1="261.5" y2="321.1094"/><polygon fill="#181818" points="297.5786,311.1094,301.5786,321.1094,305.5786,311.1094,301.5786,315.1094" style="stroke:#181818;stroke-width:1;"/><line style="stroke:#181818;stroke-width:1;" x1="301.5786" x2="301.5786" y1="591.2813" y2="611.2813"/><polygon fill="#181818" points="297.5786,601.2813,301.5786,611.2813,305.5786,601.2813,301.5786,605.2813" style="stroke:#181818;stroke-width:1;"/><line style="stroke:#181818;stroke-width:1;" x1="301.5786" x2="301.5786" y1="496.5781" y2="556.1875"/><polygon fill="#181818" points="297.5786,546.1875,301.5786,556.1875,305.5786,546.1875,301.5786,550.1875" style="stroke:#181818;stroke-width:1;"/><line style="stroke:#181818;stroke-width:1;" x1="301.5786" x2="301.5786" y1="771.2656" y2="791.2656"/><polygon fill="#181818" points="297.5786,781.2656,301.5786,791.2656,305.5786,781.2656,301.5786,785.2656" style="stroke:#181818;stroke-width:1;"/><line style="stroke:#181818;stroke-width:1;" x1="301.5786" x2="301.5786" y1="661.4688" y2="721.0781"/><polygon fill="#181818" points="297.5786,711.0781,301.5786,721.0781,305.5786,711.0781,301.5786,715.0781" style="stroke:#181818;stroke-width:1;"/><line style="stroke:#181818;stroke-width:1;" x1="301.5786" x2="301.5786" y1="1115.9639" y2="1135.9639"/><polygon fill="#181818" points="297.5786,1125.9639,301.5786,1135.9639,305.5786,1125.9639,301.5786,1129.9639" style="stroke:#181818;stroke-width:1;"/><line style="stroke:#181818;stroke-width:1;" x1="301.5786" x2="301.5786" y1="1021.2607" y2="1080.8701"/><polygon fill="#181818" points="297.5786,1070.8701,301.5786,1080.8701,305.5786,1070.8701,301.5786,1074.8701" style="stroke:#181818;stroke-width:1;"/><line style="stroke:#181818;stroke-width:1;" x1="301.5786" x2="301.5786" y1="1171.0576" y2="1230.667"/><polygon fill="#181818" points="297.5786,1220.667,301.5786,1230.667,305.5786,1220.667,301.5786,1224.667" style="stroke:#181818;stroke-width:1;"/><line style="stroke:#181818;stroke-width:1;" x1="301.5786" x2="301.5786" y1="1375.5576" y2="1395.5576"/><polygon fill="#181818" points="297.5786,1385.5576,301.5786,1395.5576,305.5786,1385.5576,301.5786,1389.5576" style="stroke:#181818;stroke-width:1;"/><line style="stroke:#181818;stroke-width:1;" x1="301.5786" x2="301.5786" y1="1430.6514" y2="1450.6514"/><polygon fill="#181818" points="297.5786,1440.6514,301.5786,1450.6514,305.5786,1440.6514,301.5786,1444.6514" style="stroke:#181818;stroke-width:1;"/><line style="stroke:#181818;stroke-width:1;" x1="301.5786" x2="301.5786" y1="1280.8545" y2="1340.4639"/><polygon fill="#181818" points="297.5786,1330.4639,301.5786,1340.4639,305.5786,1330.4639,301.5786,1334.4639" style="stroke:#181818;stroke-width:1;"/><line style="stroke:#181818;stroke-width:1;" x1="301.5786" x2="301.5786" y1="1485.7451" y2="1545.3545"/><polygon fill="#181818" points="297.5786,1535.3545,301.5786,1545.3545,305.5786,1535.3545,301.5786,1539.3545" style="stroke:#181818;stroke-width:1;"/><line style="stroke:#181818;stroke-width:1;" x1="301.5786" x2="301.5786" y1="909.9688" y2="971.0732"/><polygon fill="#181818" points="297.5786,961.0732,301.5786,971.0732,305.5786,961.0732,301.5786,965.0732" style="stroke:#181818;stroke-width:1;"/><line style="stroke:#181818;stroke-width:1;" x1="301.5786" x2="301.5786" y1="1595.542" y2="1617.542"/><line style="stroke:#181818;stroke-width:1;" x1="301.5786" x2="454.1147" y1="1617.542" y2="1617.542"/><polygon fill="#181818" points="450.1147,1273.085,454.1147,1263.085,458.1147,1273.085,454.1147,1269.085" style="stroke:#181818;stroke-width:1;"/><line style="stroke:#181818;stroke-width:1;" x1="454.1147" x2="454.1147" y1="897.9688" y2="1617.542"/><line style="stroke:#181818;stroke-width:1;" x1="454.1147" x2="357.2886" y1="897.9688" y2="897.9688"/><polygon fill="#181818" points="367.2886,893.9688,357.2886,897.9688,367.2886,901.9688,363.2886,897.9688" style="stroke:#181818;stroke-width:1;"/><line style="stroke:#181818;stroke-width:1;" x1="245.8687" x2="149.0425" y1="897.9688" y2="897.9688"/><polygon fill="#181818" points="145.0425,1259.085,149.0425,1269.085,153.0425,1259.085,149.0425,1263.085" style="stroke:#181818;stroke-width:1;"/><line style="stroke:#181818;stroke-width:1;" x1="149.0425" x2="149.0425" y1="897.9688" y2="1629.542"/><line style="stroke:#181818;stroke-width:1;" x1="149.0425" x2="301.5786" y1="1629.542" y2="1629.542"/><line style="stroke:#181818;stroke-width:1;" x1="301.5786" x2="301.5786" y1="1629.542" y2="1661.542"/><polygon fill="#181818" points="297.5786,1651.542,301.5786,1661.542,305.5786,1651.542,301.5786,1655.542" style="stroke:#181818;stroke-width:1;"/><line style="stroke:#181818;stroke-width:1;" x1="301.5786" x2="301.5786" y1="826.3594" y2="885.9688"/><polygon fill="#181818" points="297.5786,875.9688,301.5786,885.9688,305.5786,875.9688,301.5786,879.9688" style="stroke:#181818;stroke-width:1;"/><!--SRC=[fLLjSjCm4FsVK-oKFuvRe4EW0wLJ9bycePIaTIwWsDjK4qSoajpMC9tfBmx0S0OErfEmakt4RPgX1UTF9BtTVRlloJRS90Y-tqvJ9Lbq3grzw4gzaBgRS1G6jY5WSoos1ap42IgulVa5uSbdECbGvH0ayXAyzdIgy88pWt7JzniDFUSYPOejOCgY-Kp9JCHTcKW5puA-_TKGxSZm2sxoZbGngXBLQhKUWjnFrdyRl0vwVqSU7EXuVdX8rOEWrTzzJC1vqQuDeYfl-kzgGMEc33TSYZkSz_Rsg7D3Pur6MY5WAqIJfLlmlG6mB_0IXk8O5rBbNIaCumALTtlpk_c-EbuRk1TLm1MeBf8Dtu61CMcn3bXaA3s1h-_mk2Eifv0b4FQEcbjG3SSnZDpv2z__Y6R9qFUzc1asPHg7yGui2GtZ9iNS_lW9I-WgCv2dhlA2ypAYI3mqk73seJ-A4Tk3oI7L-6gt9dXbYY2ROvhn9DOmc4p6C1w54zelO90cJ812McYprklQ46sNAqLTfo6AkArp4Ra62fmZDQRCxi0hU4neYocDNjCXcM19_WsXxTZO7TzV6W9Zbw9_XL5crqDn9dt_twJesDuXvIacD3eWPyrGsm6ChEaw-SlsRAPmHfVkPOzhmqLK3kwK7AS418XnRS3tIOnHFKyf9IHIblwyFEVqFl06J1zBXQUeiyJe3qtW6hmSTRD1682dDcAVJMBQfnGKgvdLLBN7rsjL7w5kKNEJmZLr7R2cy3Q4V94c_2mFuxa3UnjvhDtahLNjXrpkQ0GyeQKzqvsyB506sUEpB4dSwxNI_N-7q5D4hM9GMhZWq9DHjY3XYCSf4pEi3QHB7mCa7Pm1N8WpuvZi4fCjKYbq7LuQxjNkBeoEQ8HaAoxinm0-XQClcpfucdcMzs21Ykv1HQusEj-tZg_ekLTAhJHveRIta4rx5RIHQUCF]--></g></svg>