<svg xmlns="http://www.w3.org/2000/svg" xmlns:xlink="http://www.w3.org/1999/xlink" contentStyleType="text/css" data-diagram-type="SEQUENCE" height="670px" preserveAspectRatio="none" style="width:824px;height:670px;background:#FEFEFE;" version="1.1" viewBox="0 0 824 670" width="824px" zoomAndPan="magnify"><title>**Approach 1: InMemoryContainer &#8212; SQL Query Flow (Abbreviated)**</title><defs/><g><rect fill="#FEFEFE" height="670" style="stroke:none;stroke-width:1;" width="824" x="0" y="0"/><text fill="#000000" font-family="sans-serif" font-size="14" font-weight="bold" lengthAdjust="spacing" textLength="442.2715" x="192.366" y="29.5332">Approach 1: InMemoryContainer &#8212; SQL Query Flow (Abbreviated)</text><g><title>InMemoryContainer</title><rect fill="#FFFFFF" height="323.4219" style="stroke:#181818;stroke-width:1;" width="10" x="286.6982" y="153.5703"/></g><g><title>CosmosSqlParser</title><rect fill="#FFFFFF" height="30.3516" style="stroke:#181818;stroke-width:1;" width="10" x="552.1973" y="227.2734"/></g><g><title>InMemoryFeedIterator.T.</title><rect fill="#FFFFFF" height="30.3516" style="stroke:#181818;stroke-width:1;" width="10" x="714.3037" y="532.6953"/></g><rect fill="none" height="79.0547" style="stroke:#000000;stroke-width:1.5;" width="808.0034" x="10" y="491.9922"/><g><title>Test Code</title><rect fill="#000000" fill-opacity="0.00000" height="466.8281" width="8" x="51.293" y="121.2188"/><line style="stroke:#181818;stroke-width:0.5;stroke-dasharray:5,5;" x1="55" x2="55" y1="121.2188" y2="588.0469"/></g><g><title>InMemoryContainer</title><rect fill="#000000" fill-opacity="0.00000" height="466.8281" width="8" x="287.6982" y="121.2188"/><line style="stroke:#181818;stroke-width:0.5;stroke-dasharray:5,5;" x1="291.2295" x2="291.2295" y1="121.2188" y2="588.0469"/></g><g><title>CosmosSqlParser</title><rect fill="#000000" fill-opacity="0.00000" height="466.8281" width="8" x="553.1973" y="121.2188"/><line style="stroke:#181818;stroke-width:0.5;stroke-dasharray:5,5;" x1="556.7905" x2="556.7905" y1="121.2188" y2="588.0469"/></g><g><title>InMemoryFeedIterator.T.</title><rect fill="#000000" fill-opacity="0.00000" height="144.7109" width="8" x="715.3037" y="443.3359"/><line style="stroke:#181818;stroke-width:0.5;stroke-dasharray:5,5;" x1="718.604" x2="718.604" y1="443.3359" y2="588.0469"/></g><g class="participant participant-head" data-participant="Test"><text fill="#000000" font-family="sans-serif" font-size="14" lengthAdjust="spacing" textLength="64.5859" x="20" y="118.1426">Test Code</text><ellipse cx="55.293" cy="52.1094" fill="#E2E2F0" rx="8" ry="8" style="stroke:#181818;stroke-width:0.5;"/><path d="M55.293,60.1094 L55.293,87.1094 M42.293,68.1094 L68.293,68.1094 M55.293,87.1094 L42.293,102.1094 M55.293,87.1094 L68.293,102.1094" fill="none" style="stroke:#181818;stroke-width:0.5;"/></g><g class="participant participant-tail" data-participant="Test"><text fill="#000000" font-family="sans-serif" font-size="14" lengthAdjust="spacing" textLength="64.5859" x="20" y="601.5801">Test Code</text><ellipse cx="55.293" cy="613.1563" fill="#E2E2F0" rx="8" ry="8" style="stroke:#181818;stroke-width:0.5;"/><path d="M55.293,621.1563 L55.293,648.1563 M42.293,629.1563 L68.293,629.1563 M55.293,648.1563 L42.293,663.1563 M55.293,648.1563 L68.293,663.1563" fill="none" style="stroke:#181818;stroke-width:0.5;"/></g><g class="participant participant-head" data-participant="IMC"><rect fill="#E2E2F0" height="31.6094" rx="2.5" ry="2.5" style="stroke:#181818;stroke-width:0.5;" width="136.9375" x="223.2295" y="88.6094"/><text fill="#000000" font-family="sans-serif" font-size="14" lengthAdjust="spacing" textLength="122.9375" x="230.2295" y="110.1426">InMemoryContainer</text></g><g class="participant participant-tail" data-participant="IMC"><rect fill="#E2E2F0" height="31.6094" rx="2.5" ry="2.5" style="stroke:#181818;stroke-width:0.5;" width="136.9375" x="223.2295" y="587.0469"/><text fill="#000000" font-family="sans-serif" font-size="14" lengthAdjust="spacing" textLength="122.9375" x="230.2295" y="608.5801">InMemoryContainer</text></g><g class="participant participant-head" data-participant="Parser"><rect fill="#E2E2F0" height="31.6094" rx="2.5" ry="2.5" style="stroke:#181818;stroke-width:0.5;" width="126.8135" x="493.7905" y="88.6094"/><text fill="#000000" font-family="sans-serif" font-size="14" lengthAdjust="spacing" textLength="112.8135" x="500.7905" y="110.1426">CosmosSqlParser</text></g><g class="participant participant-tail" data-participant="Parser"><rect fill="#E2E2F0" height="31.6094" rx="2.5" ry="2.5" style="stroke:#181818;stroke-width:0.5;" width="126.8135" x="493.7905" y="587.0469"/><text fill="#000000" font-family="sans-serif" font-size="14" lengthAdjust="spacing" textLength="112.8135" x="500.7905" y="608.5801">CosmosSqlParser</text></g><g class="participant participant-tail" data-participant="FeedIter"><rect fill="#E2E2F0" height="31.6094" rx="2.5" ry="2.5" style="stroke:#181818;stroke-width:0.5;" width="177.3994" x="630.604" y="587.0469"/><text fill="#000000" font-family="sans-serif" font-size="14" lengthAdjust="spacing" textLength="163.3994" x="637.604" y="608.5801">InMemoryFeedIterator&lt;T&gt;</text></g><g><title>InMemoryContainer</title><rect fill="#FFFFFF" height="323.4219" style="stroke:#181818;stroke-width:1;" width="10" x="286.6982" y="153.5703"/></g><g><title>CosmosSqlParser</title><rect fill="#FFFFFF" height="30.3516" style="stroke:#181818;stroke-width:1;" width="10" x="552.1973" y="227.2734"/></g><g><title>InMemoryFeedIterator.T.</title><rect fill="#FFFFFF" height="30.3516" style="stroke:#181818;stroke-width:1;" width="10" x="714.3037" y="532.6953"/></g><g class="message" data-participant-1="Test" data-participant-2="IMC"><polygon fill="#181818" points="274.6982,149.5703,284.6982,153.5703,274.6982,157.5703,278.6982,153.5703" style="stroke:#181818;stroke-width:1;"/><line style="stroke:#181818;stroke-width:2;" x1="55.293" x2="280.6982" y1="153.5703" y2="153.5703"/><text fill="#000000" font-family="sans-serif" font-size="13" lengthAdjust="spacing" textLength="212.4053" x="62.293" y="148.7139">GetItemQueryIterator&lt;T&gt;(queryText)</text></g><g class="message" data-participant-1="IMC" data-participant-2="IMC"><line style="stroke:#181818;stroke-width:2;" x1="296.6982" x2="338.6982" y1="183.9219" y2="183.9219"/><line style="stroke:#181818;stroke-width:2;" x1="338.6982" x2="338.6982" y1="183.9219" y2="196.9219"/><line style="stroke:#181818;stroke-width:2;" x1="297.6982" x2="338.6982" y1="196.9219" y2="196.9219"/><polygon fill="#181818" points="307.6982,192.9219,297.6982,196.9219,307.6982,200.9219,303.6982,196.9219" style="stroke:#181818;stroke-width:1;"/><text fill="#000000" font-family="sans-serif" font-size="13" lengthAdjust="spacing" textLength="119.9009" x="303.6982" y="179.0654">FilterItemsByQuery()</text></g><g class="message" data-participant-1="IMC" data-participant-2="Parser"><polygon fill="#181818" points="540.1973,223.2734,550.1973,227.2734,540.1973,231.2734,544.1973,227.2734" style="stroke:#181818;stroke-width:1;"/><line style="stroke:#181818;stroke-width:2;" x1="296.6982" x2="546.1973" y1="227.2734" y2="227.2734"/><text fill="#000000" font-family="sans-serif" font-size="13" lengthAdjust="spacing" textLength="100.4199" x="303.6982" y="222.417">Parse(queryText)</text></g><g class="message" data-participant-1="Parser" data-participant-2="IMC"><polygon fill="#181818" points="307.6982,253.625,297.6982,257.625,307.6982,261.625,303.6982,257.625" style="stroke:#181818;stroke-width:1;"/><line style="stroke:#181818;stroke-width:2;stroke-dasharray:2,2;" x1="301.6982" x2="556.1973" y1="257.625" y2="257.625"/><text fill="#000000" font-family="sans-serif" font-size="13" lengthAdjust="spacing" textLength="139.4199" x="313.6982" y="252.7686">CosmosSqlQuery (AST)</text></g><g class="message" data-participant-1="IMC" data-participant-2="IMC"><line style="stroke:#181818;stroke-width:2;" x1="296.6982" x2="338.6982" y1="287.9766" y2="287.9766"/><line style="stroke:#181818;stroke-width:2;" x1="338.6982" x2="338.6982" y1="287.9766" y2="300.9766"/><line style="stroke:#181818;stroke-width:2;" x1="297.6982" x2="338.6982" y1="300.9766" y2="300.9766"/><polygon fill="#181818" points="307.6982,296.9766,297.6982,300.9766,307.6982,304.9766,303.6982,300.9766" style="stroke:#181818;stroke-width:1;"/><text fill="#000000" font-family="sans-serif" font-size="13" lengthAdjust="spacing" textLength="143.0317" x="303.6982" y="283.1201">GetAllItemsForPartition()</text></g><g class="message" data-participant-1="IMC" data-participant-2="IMC"><line style="stroke:#181818;stroke-width:2;" x1="296.6982" x2="338.6982" y1="331.3281" y2="331.3281"/><line style="stroke:#181818;stroke-width:2;" x1="338.6982" x2="338.6982" y1="331.3281" y2="344.3281"/><line style="stroke:#181818;stroke-width:2;" x1="297.6982" x2="338.6982" y1="344.3281" y2="344.3281"/><polygon fill="#181818" points="307.6982,340.3281,297.6982,344.3281,307.6982,348.3281,303.6982,344.3281" style="stroke:#181818;stroke-width:1;"/><text fill="#000000" font-family="sans-serif" font-size="13" lengthAdjust="spacing" textLength="209.1743" x="303.6982" y="326.4717">WHERE &#8594; EvaluateSqlExpression()</text></g><g class="message" data-participant-1="IMC" data-participant-2="IMC"><line style="stroke:#181818;stroke-width:2;" x1="296.6982" x2="338.6982" y1="391.0313" y2="391.0313"/><line style="stroke:#181818;stroke-width:2;" x1="338.6982" x2="338.6982" y1="391.0313" y2="404.0313"/><line style="stroke:#181818;stroke-width:2;" x1="297.6982" x2="338.6982" y1="404.0313" y2="404.0313"/><polygon fill="#181818" points="307.6982,400.0313,297.6982,404.0313,307.6982,408.0313,303.6982,404.0313" style="stroke:#181818;stroke-width:1;"/><text fill="#000000" font-family="sans-serif" font-size="13" lengthAdjust="spacing" textLength="184.9199" x="303.6982" y="369.8232">GROUP BY / ORDER BY / TOP</text><text fill="#000000" font-family="sans-serif" font-size="13" lengthAdjust="spacing" textLength="231.499" x="303.6982" y="386.1748">/ OFFSET+LIMIT / SELECT / DISTINCT</text></g><g class="message" data-participant-1="IMC" data-participant-2="FeedIter"><polygon fill="#181818" points="618.604,430.3828,628.604,434.3828,618.604,438.3828,622.604,434.3828" style="stroke:#181818;stroke-width:1;"/><line style="stroke:#181818;stroke-width:2;" x1="296.6982" x2="624.604" y1="434.3828" y2="434.3828"/><text fill="#000000" font-family="sans-serif" font-size="13" lengthAdjust="spacing" textLength="151.728" x="303.6982" y="429.5264">InMemoryFeedIterator&lt;T&gt;</text></g><rect fill="#E2E2F0" height="31.6094" rx="2.5" ry="2.5" style="stroke:#181818;stroke-width:0.5;" width="177.3994" x="630.604" y="412.0313"/><text fill="#000000" font-family="sans-serif" font-size="14" lengthAdjust="spacing" textLength="163.3994" x="637.604" y="433.5645">InMemoryFeedIterator&lt;T&gt;</text><g class="message" data-participant-1="IMC" data-participant-2="Test"><polygon fill="#181818" points="66.293,472.9922,56.293,476.9922,66.293,480.9922,62.293,476.9922" style="stroke:#181818;stroke-width:1;"/><line style="stroke:#181818;stroke-width:2;stroke-dasharray:2,2;" x1="60.293" x2="290.6982" y1="476.9922" y2="476.9922"/><text fill="#000000" font-family="sans-serif" font-size="13" lengthAdjust="spacing" textLength="93.939" x="72.293" y="472.1357">FeedIterator&lt;T&gt;</text></g><path d="M10,491.9922 L82.4346,491.9922 L82.4346,500.3438 L72.4346,510.3438 L10,510.3438 L10,491.9922" fill="#EEEEEE" style="stroke:#000000;stroke-width:1.5;"/><rect fill="none" height="79.0547" style="stroke:#000000;stroke-width:1.5;" width="808.0034" x="10" y="491.9922"/><text fill="#000000" font-family="sans-serif" font-size="13" font-weight="bold" lengthAdjust="spacing" textLength="27.4346" x="25" y="506.4873">loop</text><text fill="#000000" font-family="sans-serif" font-size="11" font-weight="bold" lengthAdjust="spacing" textLength="124.083" x="97.4346" y="505.4111">[while HasMoreResults]</text><g class="message" data-participant-1="Test" data-participant-2="FeedIter"><polygon fill="#181818" points="702.3037,528.6953,712.3037,532.6953,702.3037,536.6953,706.3037,532.6953" style="stroke:#181818;stroke-width:1;"/><line style="stroke:#181818;stroke-width:2;" x1="55.293" x2="708.3037" y1="532.6953" y2="532.6953"/><text fill="#000000" font-family="sans-serif" font-size="13" lengthAdjust="spacing" textLength="101.8672" x="62.293" y="527.8389">ReadNextAsync()</text></g><g class="message" data-participant-1="FeedIter" data-participant-2="Test"><polygon fill="#181818" points="66.293,559.0469,56.293,563.0469,66.293,567.0469,62.293,563.0469" style="stroke:#181818;stroke-width:1;"/><line style="stroke:#181818;stroke-width:2;stroke-dasharray:2,2;" x1="60.293" x2="718.3037" y1="563.0469" y2="563.0469"/><text fill="#000000" font-family="sans-serif" font-size="13" lengthAdjust="spacing" textLength="111.2935" x="72.293" y="558.1904">FeedResponse&lt;T&gt;</text></g><!--SRC=[RPBDRjf04CVl-nGZUd50g6gFg8haE7PY2GAnjwegzRBOex9YsJMxwn1kFVK1gZvXdgIpDX1A8b_6Cx_vpzTwwHN2S1WtZJMYMi6d2UHwXXjZzudHNaYD5bv-_ONoSGgFBTezPChi88gNIujFKdYihuP3njnQwaPOiO6bgDO_hMbrdHXbB7p8ql2T4GwtBUeAOslDZgzajTRe77ncJ5IUCWOSdOV4r3W0uI3yCShqifADq1u6Rrhik7oM_8ybncsCAxTg8QmxGBtvlbo6MESUhQ0cll3hZZ_w6EkQ6b-7CZ0QmGJkq5DaqstbB2tQ1WV7Pt_50dj8cK0c5L4XnTtikwpeHFHjzRgTVQvo28uFIkCnGQVP-gD4SSalob5xiL9TkSpOHHZOIwEZ2-pRVLgayFBx3wHFGhLqK19DdnjB9ta7lolcNnTmynq-mhouJOlUvFF53qsUB2jJFfhcivoJjqodQHACsxpa-KF2ZrB7fTBBWzS7Tx7-7YQwNtmO-f9WofW6TYj9Z_XUk9cnMA1hbNSCu7YlKx5kkGMA-e6s6hkzhcWuU8s_hKLYZT4EGotKDVi7]--></g></svg>