<svg xmlns="http://www.w3.org/2000/svg" xmlns:xlink="http://www.w3.org/1999/xlink" contentStyleType="text/css" data-diagram-type="SEQUENCE" height="1106px" preserveAspectRatio="none" style="width:1636px;height:1106px;background:#FEFEFE;" version="1.1" viewBox="0 0 1636 1106" width="1636px" zoomAndPan="magnify"><title>**Approach 3: CosmosClient + FakeCosmosHandler &#8212; SQL Query Flow (Abbreviated)**</title><defs/><g><rect fill="#FEFEFE" height="1106" style="stroke:none;stroke-width:1;" width="1636" x="0" y="0"/><text fill="#000000" font-family="sans-serif" font-size="14" font-weight="bold" lengthAdjust="spacing" textLength="560.1572" x="534.0955" y="29.5332">Approach 3: CosmosClient + FakeCosmosHandler &#8212; SQL Query Flow (Abbreviated)</text><g><title>CosmosClient</title><rect fill="#FFFFFF" height="182.1094" style="stroke:#181818;stroke-width:1;" width="10" x="359.0649" y="387.7109"/></g><g><title>FakeCosmosHandler</title><rect fill="#FFFFFF" height="208.1094" style="stroke:#181818;stroke-width:1;" width="10" x="803.7661" y="730.5781"/></g><g><title>SDK FeedIterator.T.</title><rect fill="#FFFFFF" height="329.5156" style="stroke:#181818;stroke-width:1;" width="10" x="1530.4277" y="669.875"/></g><rect fill="none" height="378.2188" style="stroke:#000000;stroke-width:1.5;" width="1609.3481" x="10" y="629.1719"/><g><title>Test Code</title><rect fill="#000000" fill-opacity="0.00000" height="903.1719" width="8" x="51.293" y="121.2188"/><line style="stroke:#181818;stroke-width:0.5;stroke-dasharray:5,5;" x1="55" x2="55" y1="121.2188" y2="1024.3906"/></g><g><title>CosmosClient</title><rect fill="#000000" fill-opacity="0.00000" height="723.4922" width="8" x="360.0649" y="300.8984"/><line style="stroke:#181818;stroke-width:0.5;stroke-dasharray:5,5;" x1="363.4961" x2="363.4961" y1="300.8984" y2="1024.3906"/></g><g><title>HttpClient</title><rect fill="#000000" fill-opacity="0.00000" height="903.1719" width="8" x="549.8892" y="121.2188"/><line style="stroke:#181818;stroke-width:0.5;stroke-dasharray:5,5;" x1="553.1548" x2="553.1548" y1="121.2188" y2="1024.3906"/></g><g><title>FakeCosmosHandler</title><rect fill="#000000" fill-opacity="0.00000" height="774.9063" width="8" x="804.7661" y="249.4844"/><line style="stroke:#181818;stroke-width:0.5;stroke-dasharray:5,5;" x1="808.0181" x2="808.0181" y1="249.4844" y2="1024.3906"/></g><g><title>CosmosSqlParser</title><rect fill="#000000" fill-opacity="0.00000" height="903.1719" width="8" x="1094.8877" y="121.2188"/><line style="stroke:#181818;stroke-width:0.5;stroke-dasharray:5,5;" x1="1098.481" x2="1098.481" y1="121.2188" y2="1024.3906"/></g><g><title>InMemoryContainer</title><rect fill="#000000" fill-opacity="0.00000" height="817.5156" width="8" x="1236.7632" y="206.875"/><line style="stroke:#181818;stroke-width:0.5;stroke-dasharray:5,5;" x1="1240.2944" x2="1240.2944" y1="206.875" y2="1024.3906"/></g><g><title>QueryResultCache</title><rect fill="#000000" fill-opacity="0.00000" height="903.1719" width="8" x="1381.3696" y="121.2188"/><line style="stroke:#181818;stroke-width:0.5;stroke-dasharray:5,5;" x1="1385.2319" x2="1385.2319" y1="121.2188" y2="1024.3906"/></g><g><title>SDK FeedIterator.T.</title><rect fill="#000000" fill-opacity="0.00000" height="903.1719" width="8" x="1531.4277" y="121.2188"/><line style="stroke:#181818;stroke-width:0.5;stroke-dasharray:5,5;" x1="1534.5073" x2="1534.5073" y1="121.2188" y2="1024.3906"/></g><g class="participant participant-head" data-participant="Test"><text fill="#000000" font-family="sans-serif" font-size="14" lengthAdjust="spacing" textLength="64.5859" x="20" y="118.1426">Test Code</text><ellipse cx="55.293" cy="52.1094" fill="#E2E2F0" rx="8" ry="8" style="stroke:#181818;stroke-width:0.5;"/><path d="M55.293,60.1094 L55.293,87.1094 M42.293,68.1094 L68.293,68.1094 M55.293,87.1094 L42.293,102.1094 M55.293,87.1094 L68.293,102.1094" fill="none" style="stroke:#181818;stroke-width:0.5;"/></g><g class="participant participant-tail" data-participant="Test"><text fill="#000000" font-family="sans-serif" font-size="14" lengthAdjust="spacing" textLength="64.5859" x="20" y="1037.9238">Test Code</text><ellipse cx="55.293" cy="1049.5" fill="#E2E2F0" rx="8" ry="8" style="stroke:#181818;stroke-width:0.5;"/><path d="M55.293,1057.5 L55.293,1084.5 M42.293,1065.5 L68.293,1065.5 M55.293,1084.5 L42.293,1099.5 M55.293,1084.5 L68.293,1099.5" fill="none" style="stroke:#181818;stroke-width:0.5;"/></g><g class="participant participant-tail" data-participant="SDK"><rect fill="#E2E2F0" height="49.2188" rx="2.5" ry="2.5" style="stroke:#181818;stroke-width:0.5;" width="101.1377" x="313.4961" y="1023.3906"/><text fill="#000000" font-family="sans-serif" font-size="14" lengthAdjust="spacing" textLength="87.1377" x="320.4961" y="1044.9238">CosmosClient</text><text fill="#000000" font-family="sans-serif" font-size="14" lengthAdjust="spacing" textLength="65.3447" x="331.3926" y="1062.5332">(real SDK)</text></g><g class="participant participant-head" data-participant="Http"><rect fill="#E2E2F0" height="31.6094" rx="2.5" ry="2.5" style="stroke:#181818;stroke-width:0.5;" width="75.4688" x="516.1548" y="88.6094"/><text fill="#000000" font-family="sans-serif" font-size="14" lengthAdjust="spacing" textLength="61.4688" x="523.1548" y="110.1426">HttpClient</text></g><g class="participant participant-tail" data-participant="Http"><rect fill="#E2E2F0" height="31.6094" rx="2.5" ry="2.5" style="stroke:#181818;stroke-width:0.5;" width="75.4688" x="516.1548" y="1023.3906"/><text fill="#000000" font-family="sans-serif" font-size="14" lengthAdjust="spacing" textLength="61.4688" x="523.1548" y="1044.9238">HttpClient</text></g><g class="participant participant-tail" data-participant="Handler"><rect fill="#E2E2F0" height="31.6094" rx="2.5" ry="2.5" style="stroke:#181818;stroke-width:0.5;" width="145.4961" x="736.0181" y="1023.3906"/><text fill="#000000" font-family="sans-serif" font-size="14" lengthAdjust="spacing" textLength="131.4961" x="743.0181" y="1044.9238">FakeCosmosHandler</text></g><g class="participant participant-head" data-participant="Parser"><rect fill="#E2E2F0" height="31.6094" rx="2.5" ry="2.5" style="stroke:#181818;stroke-width:0.5;" width="126.8135" x="1035.481" y="88.6094"/><text fill="#000000" font-family="sans-serif" font-size="14" lengthAdjust="spacing" textLength="112.8135" x="1042.481" y="110.1426">CosmosSqlParser</text></g><g class="participant participant-tail" data-participant="Parser"><rect fill="#E2E2F0" height="31.6094" rx="2.5" ry="2.5" style="stroke:#181818;stroke-width:0.5;" width="126.8135" x="1035.481" y="1023.3906"/><text fill="#000000" font-family="sans-serif" font-size="14" lengthAdjust="spacing" textLength="112.8135" x="1042.481" y="1044.9238">CosmosSqlParser</text></g><g class="participant participant-tail" data-participant="IMC"><rect fill="#E2E2F0" height="31.6094" rx="2.5" ry="2.5" style="stroke:#181818;stroke-width:0.5;" width="136.9375" x="1172.2944" y="1023.3906"/><text fill="#000000" font-family="sans-serif" font-size="14" lengthAdjust="spacing" textLength="122.9375" x="1179.2944" y="1044.9238">InMemoryContainer</text></g><g class="participant participant-head" data-participant="Cache"><rect fill="#E2E2F0" height="31.6094" rx="2.5" ry="2.5" style="stroke:#181818;stroke-width:0.5;" width="132.2754" x="1319.2319" y="88.6094"/><text fill="#000000" font-family="sans-serif" font-size="14" lengthAdjust="spacing" textLength="118.2754" x="1326.2319" y="110.1426">QueryResultCache</text></g><g class="participant participant-tail" data-participant="Cache"><rect fill="#E2E2F0" height="31.6094" rx="2.5" ry="2.5" style="stroke:#181818;stroke-width:0.5;" width="132.2754" x="1319.2319" y="1023.3906"/><text fill="#000000" font-family="sans-serif" font-size="14" lengthAdjust="spacing" textLength="118.2754" x="1326.2319" y="1044.9238">QueryResultCache</text></g><g class="participant participant-head" data-participant="SDKIter"><rect fill="#E2E2F0" height="31.6094" rx="2.5" ry="2.5" style="stroke:#181818;stroke-width:0.5;" width="147.8408" x="1461.5073" y="88.6094"/><text fill="#000000" font-family="sans-serif" font-size="14" lengthAdjust="spacing" textLength="133.8408" x="1468.5073" y="110.1426">SDK FeedIterator&lt;T&gt;</text></g><g class="participant participant-tail" data-participant="SDKIter"><rect fill="#E2E2F0" height="31.6094" rx="2.5" ry="2.5" style="stroke:#181818;stroke-width:0.5;" width="147.8408" x="1461.5073" y="1023.3906"/><text fill="#000000" font-family="sans-serif" font-size="14" lengthAdjust="spacing" textLength="133.8408" x="1468.5073" y="1044.9238">SDK FeedIterator&lt;T&gt;</text></g><g><title>CosmosClient</title><rect fill="#FFFFFF" height="182.1094" style="stroke:#181818;stroke-width:1;" width="10" x="359.0649" y="387.7109"/></g><g><title>FakeCosmosHandler</title><rect fill="#FFFFFF" height="208.1094" style="stroke:#181818;stroke-width:1;" width="10" x="803.7661" y="730.5781"/></g><g><title>SDK FeedIterator.T.</title><rect fill="#FFFFFF" height="329.5156" style="stroke:#181818;stroke-width:1;" width="10" x="1530.4277" y="669.875"/></g><rect fill="#EEEEEE" height="3" style="stroke:#EEEEEE;stroke-width:1;" width="1629.3481" x="0" y="152.3945"/><line style="stroke:#000000;stroke-width:1;" x1="0" x2="1629.3481" y1="152.3945" y2="152.3945"/><line style="stroke:#000000;stroke-width:1;" x1="0" x2="1629.3481" y1="155.3945" y2="155.3945"/><rect fill="#EEEEEE" height="24.3516" style="stroke:#000000;stroke-width:2;" width="53.7236" x="787.8123" y="141.2188"/><text fill="#000000" font-family="sans-serif" font-size="13" font-weight="bold" lengthAdjust="spacing" textLength="36.1118" x="793.8123" y="158.7139">Setup</text><g class="message" data-participant-1="Test" data-participant-2="IMC"><polygon fill="#181818" points="1160.2944,193.9219,1170.2944,197.9219,1160.2944,201.9219,1164.2944,197.9219" style="stroke:#181818;stroke-width:1;"/><line style="stroke:#181818;stroke-width:2;" x1="55.293" x2="1166.2944" y1="197.9219" y2="197.9219"/><text fill="#000000" font-family="sans-serif" font-size="13" lengthAdjust="spacing" textLength="159.8022" x="62.293" y="193.0654">new InMemoryContainer(&#8230;)</text></g><rect fill="#E2E2F0" height="31.6094" rx="2.5" ry="2.5" style="stroke:#181818;stroke-width:0.5;" width="136.9375" x="1172.2944" y="175.5703"/><text fill="#000000" font-family="sans-serif" font-size="14" lengthAdjust="spacing" textLength="122.9375" x="1179.2944" y="197.1035">InMemoryContainer</text><g class="message" data-participant-1="Test" data-participant-2="Handler"><polygon fill="#181818" points="724.0181,236.5313,734.0181,240.5313,724.0181,244.5313,728.0181,240.5313" style="stroke:#181818;stroke-width:1;"/><line style="stroke:#181818;stroke-width:2;" x1="55.293" x2="730.0181" y1="240.5313" y2="240.5313"/><text fill="#000000" font-family="sans-serif" font-size="13" lengthAdjust="spacing" textLength="211.7007" x="62.293" y="235.6748">new FakeCosmosHandler(container)</text></g><rect fill="#E2E2F0" height="31.6094" rx="2.5" ry="2.5" style="stroke:#181818;stroke-width:0.5;" width="145.4961" x="736.0181" y="218.1797"/><text fill="#000000" font-family="sans-serif" font-size="14" lengthAdjust="spacing" textLength="131.4961" x="743.0181" y="239.7129">FakeCosmosHandler</text><g class="message" data-participant-1="Test" data-participant-2="SDK"><polygon fill="#181818" points="301.4961,279.1406,311.4961,283.1406,301.4961,287.1406,305.4961,283.1406" style="stroke:#181818;stroke-width:1;"/><line style="stroke:#181818;stroke-width:2;" x1="55.293" x2="307.4961" y1="283.1406" y2="283.1406"/><text fill="#000000" font-family="sans-serif" font-size="13" lengthAdjust="spacing" textLength="234.2031" x="62.293" y="278.2842">new CosmosClient(&#8230;, HttpClientFactory)</text></g><rect fill="#E2E2F0" height="49.2188" rx="2.5" ry="2.5" style="stroke:#181818;stroke-width:0.5;" width="101.1377" x="313.4961" y="260.7891"/><text fill="#000000" font-family="sans-serif" font-size="14" lengthAdjust="spacing" textLength="87.1377" x="320.4961" y="282.3223">CosmosClient</text><text fill="#000000" font-family="sans-serif" font-size="14" lengthAdjust="spacing" textLength="65.3447" x="331.3926" y="299.9316">(real SDK)</text><rect fill="#EEEEEE" height="3" style="stroke:#EEEEEE;stroke-width:1;" width="1629.3481" x="0" y="342.1836"/><line style="stroke:#000000;stroke-width:1;" x1="0" x2="1629.3481" y1="342.1836" y2="342.1836"/><line style="stroke:#000000;stroke-width:1;" x1="0" x2="1629.3481" y1="345.1836" y2="345.1836"/><rect fill="#EEEEEE" height="24.3516" style="stroke:#000000;stroke-width:2;" width="86.249" x="771.5496" y="331.0078"/><text fill="#000000" font-family="sans-serif" font-size="13" font-weight="bold" lengthAdjust="spacing" textLength="68.6372" x="777.5496" y="348.5029">Query Plan</text><g class="message" data-participant-1="Test" data-participant-2="SDK"><polygon fill="#181818" points="347.0649,383.7109,357.0649,387.7109,347.0649,391.7109,351.0649,387.7109" style="stroke:#181818;stroke-width:1;"/><line style="stroke:#181818;stroke-width:2;" x1="55.293" x2="353.0649" y1="387.7109" y2="387.7109"/><text fill="#000000" font-family="sans-serif" font-size="13" lengthAdjust="spacing" textLength="212.4053" x="62.293" y="382.8545">GetItemQueryIterator&lt;T&gt;(queryText)</text></g><g class="message" data-participant-1="SDK" data-participant-2="Http"><polygon fill="#181818" points="541.8892,414.0625,551.8892,418.0625,541.8892,422.0625,545.8892,418.0625" style="stroke:#181818;stroke-width:1;"/><line style="stroke:#181818;stroke-width:2;" x1="369.0649" x2="547.8892" y1="418.0625" y2="418.0625"/><text fill="#000000" font-family="sans-serif" font-size="13" lengthAdjust="spacing" textLength="155.3462" x="376.0649" y="413.2061">POST (query plan request)</text></g><g class="message" data-participant-1="Http" data-participant-2="Handler"><polygon fill="#181818" points="796.7661,444.4141,806.7661,448.4141,796.7661,452.4141,800.7661,448.4141" style="stroke:#181818;stroke-width:1;"/><line style="stroke:#181818;stroke-width:2;" x1="553.8892" x2="802.7661" y1="448.4141" y2="448.4141"/><text fill="#000000" font-family="sans-serif" font-size="13" lengthAdjust="spacing" textLength="230.877" x="560.8892" y="443.5576">SendAsync &#8594; HandleQueryPlanAsync()</text></g><g class="message" data-participant-1="Handler" data-participant-2="Parser"><polygon fill="#181818" points="1086.8877,474.7656,1096.8877,478.7656,1086.8877,482.7656,1090.8877,478.7656" style="stroke:#181818;stroke-width:1;"/><line style="stroke:#181818;stroke-width:2;" x1="808.7661" x2="1092.8877" y1="478.7656" y2="478.7656"/><text fill="#000000" font-family="sans-serif" font-size="13" lengthAdjust="spacing" textLength="153.5308" x="815.7661" y="473.9092">TryParse() &#8594; analyze AST</text></g><g class="message" data-participant-1="Handler" data-participant-2="Http"><polygon fill="#181818" points="564.8892,505.1172,554.8892,509.1172,564.8892,513.1172,560.8892,509.1172" style="stroke:#181818;stroke-width:1;"/><line style="stroke:#181818;stroke-width:2;stroke-dasharray:2,2;" x1="558.8892" x2="807.7661" y1="509.1172" y2="509.1172"/><text fill="#000000" font-family="sans-serif" font-size="13" lengthAdjust="spacing" textLength="176.3252" x="570.8892" y="504.2607">PartitionedQueryExecutionInfo</text></g><g class="message" data-participant-1="Http" data-participant-2="SDK"><polygon fill="#181818" points="380.0649,535.4688,370.0649,539.4688,380.0649,543.4688,376.0649,539.4688" style="stroke:#181818;stroke-width:1;"/><line style="stroke:#181818;stroke-width:2;stroke-dasharray:2,2;" x1="374.0649" x2="552.8892" y1="539.4688" y2="539.4688"/><text fill="#000000" font-family="sans-serif" font-size="13" lengthAdjust="spacing" textLength="160.8242" x="386.0649" y="534.6123">plan &#8594; build pipeline stages</text></g><g class="message" data-participant-1="SDK" data-participant-2="Test"><polygon fill="#181818" points="66.293,565.8203,56.293,569.8203,66.293,573.8203,62.293,569.8203" style="stroke:#181818;stroke-width:1;"/><line style="stroke:#181818;stroke-width:2;stroke-dasharray:2,2;" x1="60.293" x2="363.0649" y1="569.8203" y2="569.8203"/><text fill="#000000" font-family="sans-serif" font-size="13" lengthAdjust="spacing" textLength="93.939" x="72.293" y="564.9639">FeedIterator&lt;T&gt;</text></g><rect fill="#EEEEEE" height="3" style="stroke:#EEEEEE;stroke-width:1;" width="1629.3481" x="0" y="598.9961"/><line style="stroke:#000000;stroke-width:1;" x1="0" x2="1629.3481" y1="598.9961" y2="598.9961"/><line style="stroke:#000000;stroke-width:1;" x1="0" x2="1629.3481" y1="601.9961" y2="601.9961"/><rect fill="#EEEEEE" height="24.3516" style="stroke:#000000;stroke-width:2;" width="187.3735" x="720.9873" y="587.8203"/><text fill="#000000" font-family="sans-serif" font-size="13" font-weight="bold" lengthAdjust="spacing" textLength="169.7617" x="726.9873" y="605.3154">Query Execution (per page)</text><path d="M10,629.1719 L82.4346,629.1719 L82.4346,637.5234 L72.4346,647.5234 L10,647.5234 L10,629.1719" fill="#EEEEEE" style="stroke:#000000;stroke-width:1.5;"/><rect fill="none" height="378.2188" style="stroke:#000000;stroke-width:1.5;" width="1609.3481" x="10" y="629.1719"/><text fill="#000000" font-family="sans-serif" font-size="13" font-weight="bold" lengthAdjust="spacing" textLength="27.4346" x="25" y="643.667">loop</text><text fill="#000000" font-family="sans-serif" font-size="11" font-weight="bold" lengthAdjust="spacing" textLength="124.083" x="97.4346" y="642.5908">[while HasMoreResults]</text><g class="message" data-participant-1="Test" data-participant-2="SDKIter"><polygon fill="#181818" points="1518.4277,665.875,1528.4277,669.875,1518.4277,673.875,1522.4277,669.875" style="stroke:#181818;stroke-width:1;"/><line style="stroke:#181818;stroke-width:2;" x1="55.293" x2="1524.4277" y1="669.875" y2="669.875"/><text fill="#000000" font-family="sans-serif" font-size="13" lengthAdjust="spacing" textLength="101.8672" x="62.293" y="665.0186">ReadNextAsync()</text></g><g class="message" data-participant-1="SDKIter" data-participant-2="Http"><polygon fill="#181818" points="564.8892,696.2266,554.8892,700.2266,564.8892,704.2266,560.8892,700.2266" style="stroke:#181818;stroke-width:1;"/><line style="stroke:#181818;stroke-width:2;" x1="558.8892" x2="1529.4277" y1="700.2266" y2="700.2266"/><text fill="#000000" font-family="sans-serif" font-size="13" lengthAdjust="spacing" textLength="127.1563" x="570.8892" y="695.3701">POST (query request)</text></g><g class="message" data-participant-1="Http" data-participant-2="Handler"><polygon fill="#181818" points="791.7661,726.5781,801.7661,730.5781,791.7661,734.5781,795.7661,730.5781" style="stroke:#181818;stroke-width:1;"/><line style="stroke:#181818;stroke-width:2;" x1="553.8892" x2="797.7661" y1="730.5781" y2="730.5781"/><text fill="#000000" font-family="sans-serif" font-size="13" lengthAdjust="spacing" textLength="204.8579" x="560.8892" y="725.7217">SendAsync &#8594; HandleQueryAsync()</text></g><g class="message" data-participant-1="Handler" data-participant-2="Parser"><polygon fill="#181818" points="1086.8877,756.9297,1096.8877,760.9297,1086.8877,764.9297,1090.8877,760.9297" style="stroke:#181818;stroke-width:1;"/><line style="stroke:#181818;stroke-width:2;" x1="813.7661" x2="1092.8877" y1="760.9297" y2="760.9297"/><text fill="#000000" font-family="sans-serif" font-size="13" lengthAdjust="spacing" textLength="188.1699" x="820.7661" y="756.0732">TryParse() + SimplifySdkQuery()</text></g><g class="message" data-participant-1="Handler" data-participant-2="IMC"><polygon fill="#181818" points="1228.7632,787.2813,1238.7632,791.2813,1228.7632,795.2813,1232.7632,791.2813" style="stroke:#181818;stroke-width:1;"/><line style="stroke:#181818;stroke-width:2;" x1="813.7661" x2="1234.7632" y1="791.2813" y2="791.2813"/><text fill="#000000" font-family="sans-serif" font-size="13" lengthAdjust="spacing" textLength="261.1616" x="820.7661" y="786.4248">GetItemQueryIterator &#8594; FilterItemsByQuery()</text></g><g class="message" data-participant-1="Handler" data-participant-2="Handler"><line style="stroke:#181818;stroke-width:2;" x1="813.7661" x2="855.7661" y1="821.6328" y2="821.6328"/><line style="stroke:#181818;stroke-width:2;" x1="855.7661" x2="855.7661" y1="821.6328" y2="834.6328"/><line style="stroke:#181818;stroke-width:2;" x1="814.7661" x2="855.7661" y1="834.6328" y2="834.6328"/><polygon fill="#181818" points="824.7661,830.6328,814.7661,834.6328,824.7661,838.6328,820.7661,834.6328" style="stroke:#181818;stroke-width:1;"/><text fill="#000000" font-family="sans-serif" font-size="13" lengthAdjust="spacing" textLength="256.1216" x="820.7661" y="816.7764">DrainIterator() &#8594; FilterDocumentsByRange()</text></g><g class="message" data-participant-1="Handler" data-participant-2="Cache"><polygon fill="#181818" points="1373.3696,860.9844,1383.3696,864.9844,1373.3696,868.9844,1377.3696,864.9844" style="stroke:#181818;stroke-width:1;"/><line style="stroke:#181818;stroke-width:2;" x1="813.7661" x2="1379.3696" y1="864.9844" y2="864.9844"/><text fill="#000000" font-family="sans-serif" font-size="13" lengthAdjust="spacing" textLength="76.5908" x="820.7661" y="860.1279">cache results</text></g><g class="message" data-participant-1="Handler" data-participant-2="Handler"><line style="stroke:#181818;stroke-width:2;" x1="813.7661" x2="855.7661" y1="895.3359" y2="895.3359"/><line style="stroke:#181818;stroke-width:2;" x1="855.7661" x2="855.7661" y1="895.3359" y2="908.3359"/><line style="stroke:#181818;stroke-width:2;" x1="814.7661" x2="855.7661" y1="908.3359" y2="908.3359"/><polygon fill="#181818" points="824.7661,904.3359,814.7661,908.3359,824.7661,912.3359,820.7661,908.3359" style="stroke:#181818;stroke-width:1;"/><text fill="#000000" font-family="sans-serif" font-size="13" lengthAdjust="spacing" textLength="133.6943" x="820.7661" y="890.4795">BuildPagedResponse()</text></g><g class="message" data-participant-1="Handler" data-participant-2="Http"><polygon fill="#181818" points="564.8892,934.6875,554.8892,938.6875,564.8892,942.6875,560.8892,938.6875" style="stroke:#181818;stroke-width:1;"/><line style="stroke:#181818;stroke-width:2;stroke-dasharray:2,2;" x1="558.8892" x2="807.7661" y1="938.6875" y2="938.6875"/><text fill="#000000" font-family="sans-serif" font-size="13" lengthAdjust="spacing" textLength="154.2925" x="570.8892" y="933.8311">200 OK + paginated JSON</text></g><g class="message" data-participant-1="Http" data-participant-2="SDKIter"><polygon fill="#181818" points="1518.4277,965.0391,1528.4277,969.0391,1518.4277,973.0391,1522.4277,969.0391" style="stroke:#181818;stroke-width:1;"/><line style="stroke:#181818;stroke-width:2;stroke-dasharray:2,2;" x1="553.8892" x2="1524.4277" y1="969.0391" y2="969.0391"/><text fill="#000000" font-family="sans-serif" font-size="13" lengthAdjust="spacing" textLength="194.0352" x="560.8892" y="964.1826">response &#8594; SDK pipeline merges</text></g><g class="message" data-participant-1="SDKIter" data-participant-2="Test"><polygon fill="#181818" points="66.293,995.3906,56.293,999.3906,66.293,1003.3906,62.293,999.3906" style="stroke:#181818;stroke-width:1;"/><line style="stroke:#181818;stroke-width:2;stroke-dasharray:2,2;" x1="60.293" x2="1534.4277" y1="999.3906" y2="999.3906"/><text fill="#000000" font-family="sans-serif" font-size="13" lengthAdjust="spacing" textLength="111.2935" x="72.293" y="994.5342">FeedResponse&lt;T&gt;</text></g><!--SRC=[XLJBKXin4BplLqoHozeELHIvkMAgZC71IG33-fYBl3k0ohAqIDeOvyGf7v3AD-J3-9BCIFPw_KYbEA17TskcUzPUUeNGRlVBqXgHFy67BWoCcnitK1ArXmuCnGpZqPNGXK8BRw-_8Rlx2dSLsYKCbLb0sfzEBNwNmcFHQhUJnCsaBeKLSvYAVFPeJQMBWL76mhlX9Vyr40wVAzGvzgqrYycJp6SQdOFJ916v9yRH19sdiWey0k60TmanlSnbAQZ6esR5ttHgKIZ8Bhwq0fmMs-Whxyk83VUytGRiTHnnSNtevUnPZOLrAs1SRkD6-XhdnYu7HdiXzGevkXvimuAZz-WgvGUKHkmthBPnr1CC4OkHHol8ee-JitMlV9GalHvawAiIUhqak7TyngzHqj05ZGlOAoXzU_tJgh7hg6lydYTflcPkM5nMpMY6mkBlOMFyC0IxR8L2unYDbT3DQbchqo6jJ-Yfftb0DVfDd_bWWY- -bJ2MYoPz8enlimd4QoXPrV9yES85GAExBfcaYxvRwXpUVlvQdOUNk9nmaH9j1ITcp9Q84uBmEcq5fj12BNyWzBF91jueYSFpqcWiWlhb2-OLxqVwmQpAMlNSZJMpwBIIge1IbgZ8Pt1UFAABpH8u6dLCX9r9Q9XQlmDfIHML9D1YavKn9IoU97txLy9T6ujnw5m2q0Y0HMC8zoYA6_9wRGdKruTzhoq7s3KzwFtJzyq3_t6z0vcSbqe-BBDY5gYxB9xtm-CJ7XrAHLk-S-VBWmARCRcmDEbhzYhooBymUJMdYIQDUw4VSLSZVBoaa8V_jdRvu3Fd7FYOGYeeZj9ejoEtzZgaVdfo0hVqZN2gKlCFBtpERczgnniHTldXe1SgvmcgfsgEbgUg4UZURAsBuTcYt9A_]--></g></svg>