<svg xmlns="http://www.w3.org/2000/svg" xmlns:xlink="http://www.w3.org/1999/xlink" contentStyleType="text/css" data-diagram-type="ACTIVITY" height="1566px" preserveAspectRatio="none" style="width:607px;height:1566px;background:#FEFEFE;" version="1.1" viewBox="0 0 607 1566" width="607px" zoomAndPan="magnify"><title>**Approach 3: CosmosClient + FakeCosmosHandler &#8212; LINQ Query Flow (Abbreviated)**</title><defs/><g><rect fill="#FEFEFE" height="1566" style="stroke:none;stroke-width:1;" width="607" x="0" y="0"/><g class="title" data-source-line="1"><text fill="#000000" font-family="sans-serif" font-size="14" font-weight="bold" lengthAdjust="spacing" textLength="564.8193" x="20" y="34.5332">Approach 3: CosmosClient + FakeCosmosHandler &#8212; LINQ Query Flow (Abbreviated)</text></g><ellipse cx="179.8948" cy="58.6094" fill="#222222" rx="10" ry="10" style="stroke:#222222;stroke-width:1;"/><rect fill="none" height="194.8906" style="stroke:#666666;stroke-width:1.5;" width="256.1875" x="51.801" y="78.6094"/><path d="M98.387,78.6094 L98.387,89.2188 L88.387,99.2188 L51.801,99.2188" fill="none" style="stroke:#666666;stroke-width:1.5;"/><text fill="#000000" font-family="sans-serif" font-size="14" lengthAdjust="spacing" textLength="36.5859" x="54.801" y="94.1426">Setup</text><rect fill="#E8F4FD" height="35.0938" rx="12.5" ry="12.5" style="stroke:#333333;stroke-width:0.5;" width="167.5098" x="96.1399" y="116.2188"/><text fill="#000000" font-family="sans-serif" font-size="12" lengthAdjust="spacing" textLength="147.5098" x="106.1399" y="138.6758">new InMemoryContainer(&#8230;)</text><rect fill="#E8F4FD" height="35.0938" rx="12.5" ry="12.5" style="stroke:#333333;stroke-width:0.5;" width="215.416" x="72.1868" y="171.3125"/><text fill="#000000" font-family="sans-serif" font-size="12" lengthAdjust="spacing" textLength="195.416" x="82.1868" y="193.7695">new FakeCosmosHandler(container)</text><rect fill="#E8F4FD" height="35.0938" rx="12.5" ry="12.5" style="stroke:#333333;stroke-width:0.5;" width="236.1875" x="61.801" y="226.4063"/><text fill="#000000" font-family="sans-serif" font-size="12" lengthAdjust="spacing" textLength="216.1875" x="71.801" y="248.8633">new CosmosClient(&#8230;, HttpClientFactory)</text><rect fill="none" height="114.8906" style="stroke:#666666;stroke-width:1.5;" width="209.7227" x="75.0334" y="283.5"/><path d="M241.4055,283.5 L241.4055,294.1094 L231.4055,304.1094 L75.0334,304.1094" fill="none" style="stroke:#666666;stroke-width:1.5;"/><text fill="#000000" font-family="sans-serif" font-size="14" lengthAdjust="spacing" textLength="156.3721" x="78.0334" y="299.0332">CosmosClient (real SDK)</text><rect fill="#E8F4FD" height="65.2813" rx="12.5" ry="12.5" style="stroke:#333333;stroke-width:0.5;" width="189.7227" x="85.0334" y="321.1094"/><text fill="#000000" font-family="sans-serif" font-size="12" lengthAdjust="spacing" textLength="150.0703" x="95.0334" y="343.5664">GetItemLinqQueryable&lt;T&gt;()</text><text fill="#000000" font-family="sans-serif" font-size="12" lengthAdjust="spacing" textLength="10.3535" x="95.0334" y="358.6602">&#8594;</text><text fill="#000000" font-family="sans-serif" font-size="12" font-weight="bold" lengthAdjust="spacing" textLength="156.0352" x="108.7209" y="358.6602">CosmosLinqQueryProvider</text><text fill="#000000" font-family="sans-serif" font-size="12" lengthAdjust="spacing" textLength="10.3535" x="95.0334" y="373.7539">&#8594;</text><text fill="#000000" font-family="sans-serif" font-size="12" font-weight="bold" lengthAdjust="spacing" textLength="130.0547" x="108.7209" y="373.7539">IOrderedQueryable&lt;T&gt;</text><rect fill="none" height="99.7969" style="stroke:#666666;stroke-width:1.5;" width="256.7676" x="51.511" y="408.3906"/><path d="M126.0969,408.3906 L126.0969,419 L116.0969,429 L51.511,429" fill="none" style="stroke:#666666;stroke-width:1.5;"/><text fill="#000000" font-family="sans-serif" font-size="14" lengthAdjust="spacing" textLength="64.5859" x="54.511" y="423.9238">Test Code</text><rect fill="#E8F4FD" height="50.1875" rx="12.5" ry="12.5" style="stroke:#333333;stroke-width:0.5;" width="236.7676" x="61.511" y="446"/><text fill="#000000" font-family="sans-serif" font-size="12" lengthAdjust="spacing" textLength="200.707" x="71.511" y="468.457">Apply .Where() / .OrderBy() / .Select()</text><text fill="#000000" font-family="sans-serif" font-size="12" lengthAdjust="spacing" textLength="216.7676" x="71.511" y="483.5508">(builds Expression Tree &#8212; no execution)</text><rect fill="none" height="225.0781" style="stroke:#666666;stroke-width:1.5;" width="239.4824" x="60.1536" y="518.1875"/><path d="M226.5256,518.1875 L226.5256,528.7969 L216.5256,538.7969 L60.1536,538.7969" fill="none" style="stroke:#666666;stroke-width:1.5;"/><text fill="#000000" font-family="sans-serif" font-size="14" lengthAdjust="spacing" textLength="156.3721" x="63.1536" y="533.7207">CosmosClient (real SDK)</text><rect fill="#E8F4FD" height="50.1875" rx="12.5" ry="12.5" style="stroke:#333333;stroke-width:0.5;" width="219.4824" x="70.1536" y="555.7969"/><text fill="#000000" font-family="sans-serif" font-size="12" lengthAdjust="spacing" textLength="90.6973" x="80.1536" y="578.2539">.ToFeedIterator()</text><text fill="#000000" font-family="sans-serif" font-size="12" lengthAdjust="spacing" textLength="199.4824" x="80.1536" y="593.3477">(no production code change needed!)</text><rect fill="#E8F4FD" height="50.1875" rx="12.5" ry="12.5" style="stroke:#333333;stroke-width:0.5;" width="219.418" x="70.1858" y="625.9844"/><text fill="#000000" font-family="sans-serif" font-size="12" lengthAdjust="spacing" textLength="199.418" x="80.1858" y="648.4414">CosmosLinqQueryProvider translates</text><text fill="#000000" font-family="sans-serif" font-size="12" lengthAdjust="spacing" textLength="170.4199" x="80.1858" y="663.5352">expression tree &#8594; Cosmos SQL</text><rect fill="#E8F4FD" height="35.0938" rx="12.5" ry="12.5" style="stroke:#333333;stroke-width:0.5;" width="146.0645" x="106.8625" y="696.1719"/><text fill="#000000" font-family="sans-serif" font-size="12" lengthAdjust="spacing" textLength="126.0645" x="116.8625" y="718.6289">Return FeedIterator&lt;T&gt;</text><rect fill="none" height="760.6162" style="stroke:#666666;stroke-width:1.5;" width="585.1021" x="11.3586" y="753.2656"/><path d="M109.3098,753.2656 L109.3098,763.875 L99.3098,773.875 L11.3586,773.875" fill="none" style="stroke:#666666;stroke-width:1.5;"/><text fill="#000000" font-family="sans-serif" font-size="14" lengthAdjust="spacing" textLength="87.9512" x="14.3586" y="768.7988">Per-page loop</text><rect fill="none" height="99.7969" style="stroke:#666666;stroke-width:1.5;" width="176.3721" x="91.7087" y="838.3701"/><path d="M258.0808,838.3701 L258.0808,848.9795 L248.0808,858.9795 L91.7087,858.9795" fill="none" style="stroke:#666666;stroke-width:1.5;"/><text fill="#000000" font-family="sans-serif" font-size="14" lengthAdjust="spacing" textLength="156.3721" x="94.7087" y="853.9033">CosmosClient (real SDK)</text><rect fill="#E8F4FD" height="50.1875" rx="12.5" ry="12.5" style="stroke:#333333;stroke-width:0.5;" width="150.0313" x="104.8792" y="875.9795"/><text fill="#000000" font-family="sans-serif" font-size="12" lengthAdjust="spacing" textLength="130.0313" x="114.8792" y="898.4365">SDK builds HTTP POST</text><text fill="#000000" font-family="sans-serif" font-size="12" lengthAdjust="spacing" textLength="127.4063" x="114.8792" y="913.5303">(query plan, then query)</text><rect fill="none" height="154.8906" style="stroke:#666666;stroke-width:1.5;" width="213.6953" x="73.0471" y="948.167"/><path d="M214.5432,948.167 L214.5432,958.7764 L204.5432,968.7764 L73.0471,968.7764" fill="none" style="stroke:#666666;stroke-width:1.5;"/><text fill="#000000" font-family="sans-serif" font-size="14" lengthAdjust="spacing" textLength="131.4961" x="76.0471" y="963.7002">FakeCosmosHandler</text><rect fill="#E8F4FD" height="50.1875" rx="12.5" ry="12.5" style="stroke:#333333;stroke-width:0.5;" width="158.0645" x="100.8625" y="985.7764"/><text fill="#000000" font-family="sans-serif" font-size="12" lengthAdjust="spacing" textLength="135.3926" x="110.8625" y="1008.2334">HandleQueryPlanAsync()</text><text fill="#000000" font-family="sans-serif" font-size="12" lengthAdjust="spacing" textLength="138.0645" x="110.8625" y="1023.3271">then HandleQueryAsync()</text><rect fill="#E8F4FD" height="35.0938" rx="12.5" ry="12.5" style="stroke:#333333;stroke-width:0.5;" width="193.6953" x="83.0471" y="1055.9639"/><text fill="#000000" font-family="sans-serif" font-size="12" lengthAdjust="spacing" textLength="173.6953" x="93.0471" y="1078.4209">TryParse() + SimplifySdkQuery()</text><rect fill="none" height="99.7969" style="stroke:#666666;stroke-width:1.5;" width="281.0723" x="39.3586" y="1113.0576"/><path d="M172.2961,1113.0576 L172.2961,1123.667 L162.2961,1133.667 L39.3586,1133.667" fill="none" style="stroke:#666666;stroke-width:1.5;"/><text fill="#000000" font-family="sans-serif" font-size="14" lengthAdjust="spacing" textLength="122.9375" x="42.3586" y="1128.5908">InMemoryContainer</text><rect fill="#E8F4FD" height="50.1875" rx="12.5" ry="12.5" style="stroke:#333333;stroke-width:0.5;" width="261.0723" x="49.3586" y="1150.667"/><text fill="#000000" font-family="sans-serif" font-size="12" lengthAdjust="spacing" textLength="241.0723" x="59.3586" y="1173.124">GetItemQueryIterator &#8594; FilterItemsByQuery()</text><text fill="#000000" font-family="sans-serif" font-size="12" lengthAdjust="spacing" textLength="101.0742" x="59.3586" y="1188.2178">&#8594; full SQL pipeline</text><rect fill="none" height="139.7969" style="stroke:#666666;stroke-width:1.5;" width="255.1152" x="52.3372" y="1222.8545"/><path d="M193.8333,1222.8545 L193.8333,1233.4639 L183.8333,1243.4639 L52.3372,1243.4639" fill="none" style="stroke:#666666;stroke-width:1.5;"/><text fill="#000000" font-family="sans-serif" font-size="14" lengthAdjust="spacing" textLength="131.4961" x="55.3372" y="1238.3877">FakeCosmosHandler</text><rect fill="#E8F4FD" height="35.0938" rx="12.5" ry="12.5" style="stroke:#333333;stroke-width:0.5;" width="235.1152" x="62.3372" y="1260.4639"/><text fill="#000000" font-family="sans-serif" font-size="12" lengthAdjust="spacing" textLength="215.1152" x="72.3372" y="1282.9209">DrainIterator() &#8594; BuildPagedResponse()</text><rect fill="#E8F4FD" height="35.0938" rx="12.5" ry="12.5" style="stroke:#333333;stroke-width:0.5;" width="196.7598" x="81.5149" y="1315.5576"/><text fill="#000000" font-family="sans-serif" font-size="12" lengthAdjust="spacing" textLength="176.7598" x="91.5149" y="1338.0146">Cache results &#8594; 200 OK + JSON</text><rect fill="none" height="107.2305" style="stroke:#666666;stroke-width:1.5;" width="468.7622" x="99.6985" y="1372.6514"/><path d="M266.0706,1372.6514 L266.0706,1383.2607 L256.0706,1393.2607 L99.6985,1393.2607" fill="none" style="stroke:#666666;stroke-width:1.5;"/><text fill="#000000" font-family="sans-serif" font-size="14" lengthAdjust="spacing" textLength="156.3721" x="102.6985" y="1388.1846">CosmosClient (real SDK)</text><path d="M270.0911,1408.8271 L270.0911,1434.3545 L250.0911,1438.3545 L270.0911,1442.3545 L270.0911,1467.8818 A0,0 0 0 0 270.0911,1467.8818 L558.4607,1467.8818 A0,0 0 0 0 558.4607,1467.8818 L558.4607,1418.8271 L548.4607,1408.8271 L270.0911,1408.8271 A0,0 0 0 0 270.0911,1408.8271" fill="#FEFFDD" style="stroke:#181818;stroke-width:0.5;"/><path d="M548.4607,1408.8271 L548.4607,1418.8271 L558.4607,1418.8271 L548.4607,1408.8271" fill="#FEFFDD" style="stroke:#181818;stroke-width:0.5;"/><text fill="#000000" font-family="sans-serif" font-size="13" lengthAdjust="spacing" textLength="181.0034" x="276.0911" y="1427.3223">Key: LINQ &#8594; SQL by real SDK,</text><text fill="#000000" font-family="sans-serif" font-size="13" lengthAdjust="spacing" textLength="267.3696" x="276.0911" y="1443.6738">then SQL executed through CosmosSqlParser</text><text fill="#000000" font-family="sans-serif" font-size="13" lengthAdjust="spacing" textLength="199.3989" x="276.0911" y="1460.0254">(tests full LINQ-to-SQL translation)</text><rect fill="#E8F4FD" height="50.1875" rx="12.5" ry="12.5" style="stroke:#333333;stroke-width:0.5;" width="140.3926" x="109.6985" y="1413.2607"/><text fill="#000000" font-family="sans-serif" font-size="12" lengthAdjust="spacing" textLength="112.7227" x="119.6985" y="1435.7178">SDK pipeline merges</text><text fill="#000000" font-family="sans-serif" font-size="12" lengthAdjust="spacing" textLength="10.3535" x="119.6985" y="1450.8115">&#8594;</text><text fill="#000000" font-family="sans-serif" font-size="12" font-weight="bold" lengthAdjust="spacing" textLength="106.7051" x="133.386" y="1450.8115">FeedResponse&lt;T&gt;</text><polygon fill="#E8F4FD" points="136.1848,790.875,223.6047,790.875,235.6047,802.875,223.6047,814.875,136.1848,814.875,124.1848,802.875,136.1848,790.875" style="stroke:#333333;stroke-width:0.5;"/><text fill="#000000" font-family="sans-serif" font-size="11" lengthAdjust="spacing" textLength="17.1177" x="183.8948" y="826.2939">yes</text><text fill="#000000" font-family="sans-serif" font-size="11" lengthAdjust="spacing" textLength="87.4199" x="136.1848" y="807.376">HasMoreResults?</text><text fill="#000000" font-family="sans-serif" font-size="11" lengthAdjust="spacing" textLength="12.2354" x="111.9495" y="800.458">no</text><ellipse cx="179.8948" cy="1544.8818" fill="none" rx="11" ry="11" style="stroke:#222222;stroke-width:1;"/><ellipse cx="179.8948" cy="1544.8818" fill="#222222" rx="6" ry="6" style="stroke:#222222;stroke-width:1;"/><line style="stroke:#181818;stroke-width:1;" x1="179.8948" x2="179.8948" y1="151.3125" y2="171.3125"/><polygon fill="#181818" points="175.8948,161.3125,179.8948,171.3125,183.8948,161.3125,179.8948,165.3125" style="stroke:#181818;stroke-width:1;"/><line style="stroke:#181818;stroke-width:1;" x1="179.8948" x2="179.8948" y1="206.4063" y2="226.4063"/><polygon fill="#181818" points="175.8948,216.4063,179.8948,226.4063,183.8948,216.4063,179.8948,220.4063" style="stroke:#181818;stroke-width:1;"/><line style="stroke:#181818;stroke-width:1;" x1="179.8948" x2="179.8948" y1="68.6094" y2="116.2188"/><polygon fill="#181818" points="175.8948,106.2188,179.8948,116.2188,183.8948,106.2188,179.8948,110.2188" style="stroke:#181818;stroke-width:1;"/><line style="stroke:#181818;stroke-width:1;" x1="179.8948" x2="179.8948" y1="261.5" y2="321.1094"/><polygon fill="#181818" points="175.8948,311.1094,179.8948,321.1094,183.8948,311.1094,179.8948,315.1094" style="stroke:#181818;stroke-width:1;"/><line style="stroke:#181818;stroke-width:1;" x1="179.8948" x2="179.8948" y1="386.3906" y2="446"/><polygon fill="#181818" points="175.8948,436,179.8948,446,183.8948,436,179.8948,440" style="stroke:#181818;stroke-width:1;"/><line style="stroke:#181818;stroke-width:1;" x1="179.8948" x2="179.8948" y1="605.9844" y2="625.9844"/><polygon fill="#181818" points="175.8948,615.9844,179.8948,625.9844,183.8948,615.9844,179.8948,619.9844" style="stroke:#181818;stroke-width:1;"/><line style="stroke:#181818;stroke-width:1;" x1="179.8948" x2="179.8948" y1="676.1719" y2="696.1719"/><polygon fill="#181818" points="175.8948,686.1719,179.8948,696.1719,183.8948,686.1719,179.8948,690.1719" style="stroke:#181818;stroke-width:1;"/><line style="stroke:#181818;stroke-width:1;" x1="179.8948" x2="179.8948" y1="496.1875" y2="555.7969"/><polygon fill="#181818" points="175.8948,545.7969,179.8948,555.7969,183.8948,545.7969,179.8948,549.7969" style="stroke:#181818;stroke-width:1;"/><line style="stroke:#181818;stroke-width:1;" x1="179.8948" x2="179.8948" y1="1035.9639" y2="1055.9639"/><polygon fill="#181818" points="175.8948,1045.9639,179.8948,1055.9639,183.8948,1045.9639,179.8948,1049.9639" style="stroke:#181818;stroke-width:1;"/><line style="stroke:#181818;stroke-width:1;" x1="179.8948" x2="179.8948" y1="926.167" y2="985.7764"/><polygon fill="#181818" points="175.8948,975.7764,179.8948,985.7764,183.8948,975.7764,179.8948,979.7764" style="stroke:#181818;stroke-width:1;"/><line style="stroke:#181818;stroke-width:1;" x1="179.8948" x2="179.8948" y1="1091.0576" y2="1150.667"/><polygon fill="#181818" points="175.8948,1140.667,179.8948,1150.667,183.8948,1140.667,179.8948,1144.667" style="stroke:#181818;stroke-width:1;"/><line style="stroke:#181818;stroke-width:1;" x1="179.8948" x2="179.8948" y1="1295.5576" y2="1315.5576"/><polygon fill="#181818" points="175.8948,1305.5576,179.8948,1315.5576,183.8948,1305.5576,179.8948,1309.5576" style="stroke:#181818;stroke-width:1;"/><line style="stroke:#181818;stroke-width:1;" x1="179.8948" x2="179.8948" y1="1200.8545" y2="1260.4639"/><polygon fill="#181818" points="175.8948,1250.4639,179.8948,1260.4639,183.8948,1250.4639,179.8948,1254.4639" style="stroke:#181818;stroke-width:1;"/><line style="stroke:#181818;stroke-width:1;" x1="179.8948" x2="179.8948" y1="1350.6514" y2="1413.2607"/><polygon fill="#181818" points="175.8948,1403.2607,179.8948,1413.2607,183.8948,1403.2607,179.8948,1407.2607" style="stroke:#181818;stroke-width:1;"/><line style="stroke:#181818;stroke-width:1;" x1="179.8948" x2="179.8948" y1="814.875" y2="875.9795"/><polygon fill="#181818" points="175.8948,865.9795,179.8948,875.9795,183.8948,865.9795,179.8948,869.9795" style="stroke:#181818;stroke-width:1;"/><line style="stroke:#181818;stroke-width:1;" x1="179.8948" x2="179.8948" y1="1463.4482" y2="1489.8818"/><line style="stroke:#181818;stroke-width:1;" x1="179.8948" x2="580.4607" y1="1489.8818" y2="1489.8818"/><polygon fill="#181818" points="576.4607,1154.9248,580.4607,1144.9248,584.4607,1154.9248,580.4607,1150.9248" style="stroke:#181818;stroke-width:1;"/><line style="stroke:#181818;stroke-width:1;" x1="580.4607" x2="580.4607" y1="802.875" y2="1489.8818"/><line style="stroke:#181818;stroke-width:1;" x1="580.4607" x2="235.6047" y1="802.875" y2="802.875"/><polygon fill="#181818" points="245.6047,798.875,235.6047,802.875,245.6047,806.875,241.6047,802.875" style="stroke:#181818;stroke-width:1;"/><line style="stroke:#181818;stroke-width:1;" x1="124.1848" x2="27.3586" y1="802.875" y2="802.875"/><polygon fill="#181818" points="23.3586,1140.9248,27.3586,1150.9248,31.3586,1140.9248,27.3586,1144.9248" style="stroke:#181818;stroke-width:1;"/><line style="stroke:#181818;stroke-width:1;" x1="27.3586" x2="27.3586" y1="802.875" y2="1501.8818"/><line style="stroke:#181818;stroke-width:1;" x1="27.3586" x2="179.8948" y1="1501.8818" y2="1501.8818"/><line style="stroke:#181818;stroke-width:1;" x1="179.8948" x2="179.8948" y1="1501.8818" y2="1533.8818"/><polygon fill="#181818" points="175.8948,1523.8818,179.8948,1533.8818,183.8948,1523.8818,179.8948,1527.8818" style="stroke:#181818;stroke-width:1;"/><line style="stroke:#181818;stroke-width:1;" x1="179.8948" x2="179.8948" y1="731.2656" y2="790.875"/><polygon fill="#181818" points="175.8948,780.875,179.8948,790.875,183.8948,780.875,179.8948,784.875" style="stroke:#181818;stroke-width:1;"/><!--SRC=[fLNRJjj047ttLqpfYsCkHKsBse2e8CHDoYK1H-hpnfucgsnspUu6i2eadle1LR-X7yQNT7Pjam15BMruyiwPcRDdpYoMMu4GHNjvhXLB9z1iGLkPcJ9jmL5QM8MOJR4ywZAP2THmU_C3Zdedft0wHrr0BDGbX7kZaSOBpYncZIWA0ZFbCcUQpM34qkbOgxdCsaee3I_ZZljRGkobbbzmM-mhdQ6kKCrcytUGXyKwx-8tyS6VaJix9flkxbBtE6vsDlycOLBUroLHbxUTzqj90wOjjrp9UvotjhRevfPYGP3N25X9qCxp5VWQ0BGaNa9F7kDCwQAjf6LSeWvlRtusjklm8yN3j0OkGCjJSkbhqBKsBxzZbbegJ-3hUppkJJRKo0Ga1uUD5QZ5yGm_ekrPd1rnUUu7p4O2TuQxOOE2jz- -arlAEdU0WLONd4IWiTU8Nj-fWjboWIXwo6U8nj95Cgoq8HUA0ZO-JoWrRC0hsF1bzelo8q61gVKymj6SYyn0vohNQ8ohDjI8tffI0LvXEdSz_b62ZQ6A4JEIGJDIicn9TMb9iddgAwL46rAoo1X14XQp5-LmdX07h6RI2DeFGoXSyBQUDwbM9a9oUkJhd95fj8Hb7YJYm_iCKA_dZ3W8fIgBNKuuxNJOPUPOQJn3CnVMV6W0Dn0MQ1e1OG2UgudxjUWOAkMxm-401lraMCN2S_yOv8B9DR0JbE0Fl2O0ru-QFZAvQxVOkBkMPRIKachlcKAcVXxkv_ii8QheTfqyf2IcZJFJAYHybWl-fKYogGU7Jt9xj9yh2pxLTlWAzLpy-68kwDF5p7vHDQYINFZBN0WtMyXvZeAA_gym1vgeBHpgc-oxsGp83XcDFLVItVnEZ3QzxmYwz8E7lzxSXFuXIVCfwPyynUTvxgXl1pFKOs_rMe0eSbQkULNlmLrBb5dbMwaQpkDIMIBBnnDBqKCiMkM_75V9gJWgeAQo5bH6SEVbvcD69_IKZoVLLYNdmXj1kqMc5IG1_41SpNMhrbrglQ3ksGY83pWAxZbNUV0B]--></g></svg>