<svg xmlns="http://www.w3.org/2000/svg" xmlns:xlink="http://www.w3.org/1999/xlink" contentStyleType="text/css" data-diagram-type="SEQUENCE" height="1417px" preserveAspectRatio="none" style="width:2196px;height:1417px;background:#FEFEFE;" version="1.1" viewBox="0 0 2196 1417" width="2196px" zoomAndPan="magnify"><title>**Approach 3: CosmosClient + FakeCosmosHandler &#8212; LINQ Query Flow (Abbreviated)**</title><defs/><g><rect fill="#FEFEFE" height="1417" style="stroke:none;stroke-width:1;" width="2196" x="0" y="0"/><text fill="#000000" font-family="sans-serif" font-size="14" font-weight="bold" lengthAdjust="spacing" textLength="564.8193" x="811.7349" y="29.5332">Approach 3: CosmosClient + FakeCosmosHandler &#8212; LINQ Query Flow (Abbreviated)</text><g><title>CosmosClient</title><rect fill="#FFFFFF" height="30.3516" style="stroke:#181818;stroke-width:1;" width="10" x="452.0649" y="387.7109"/></g><g><title>Container</title><rect fill="#FFFFFF" height="133.1797" style="stroke:#181818;stroke-width:1;" width="10" x="552.3062" y="492.7656"/></g><g><title>IOrderedQueryable.T.</title><rect fill="#FFFFFF" height="91.0547" style="stroke:#181818;stroke-width:1;" width="10" x="1024.8037" y="747.3516"/></g><g><title>SDK FeedIterator.T.</title><rect fill="#FFFFFF" height="302.5156" style="stroke:#181818;stroke-width:1;" width="10" x="2090.3687" y="938.4609"/></g><rect fill="none" height="351.2188" style="stroke:#000000;stroke-width:1.5;" width="2076.2891" x="103" y="897.7578"/><g><title>Test Code</title><rect fill="#000000" fill-opacity="0.00000" height="1213.8125" width="8" x="144.293" y="121.2188"/><line style="stroke:#181818;stroke-width:0.5;stroke-dasharray:5,5;" x1="148" x2="148" y1="121.2188" y2="1335.0313"/></g><g><title>CosmosClient</title><rect fill="#000000" fill-opacity="0.00000" height="1034.1328" width="8" x="453.0649" y="300.8984"/><line style="stroke:#181818;stroke-width:0.5;stroke-dasharray:5,5;" x1="456.4961" x2="456.4961" y1="300.8984" y2="1335.0313"/></g><g><title>Container</title><rect fill="#000000" fill-opacity="0.00000" height="1213.8125" width="8" x="553.3062" y="121.2188"/><line style="stroke:#181818;stroke-width:0.5;stroke-dasharray:5,5;" x1="556.6338" x2="556.6338" y1="121.2188" y2="1335.0313"/></g><g><title>CosmosLinqQuery-</title><rect fill="#000000" fill-opacity="0.00000" height="794.1563" width="8" x="805.6694" y="540.875"/><line style="stroke:#181818;stroke-width:0.5;stroke-dasharray:5,5;" x1="809.3696" x2="809.3696" y1="540.875" y2="1335.0313"/></g><g><title>IOrderedQueryable.T.</title><rect fill="#000000" fill-opacity="0.00000" height="742.7422" width="8" x="1025.8037" y="592.2891"/><line style="stroke:#181818;stroke-width:0.5;stroke-dasharray:5,5;" x1="1029.4316" x2="1029.4316" y1="592.2891" y2="1335.0313"/></g><g><title>HttpClient</title><rect fill="#000000" fill-opacity="0.00000" height="1213.8125" width="8" x="1152.9102" y="121.2188"/><line style="stroke:#181818;stroke-width:0.5;stroke-dasharray:5,5;" x1="1156.1758" x2="1156.1758" y1="121.2188" y2="1335.0313"/></g><g><title>FakeCosmosHandler</title><rect fill="#000000" fill-opacity="0.00000" height="1085.5469" width="8" x="1407.7871" y="249.4844"/><line style="stroke:#181818;stroke-width:0.5;stroke-dasharray:5,5;" x1="1411.0391" x2="1411.0391" y1="249.4844" y2="1335.0313"/></g><g><title>CosmosSqlParser</title><rect fill="#000000" fill-opacity="0.00000" height="1213.8125" width="8" x="1654.8286" y="121.2188"/><line style="stroke:#181818;stroke-width:0.5;stroke-dasharray:5,5;" x1="1658.4219" x2="1658.4219" y1="121.2188" y2="1335.0313"/></g><g><title>InMemoryContainer</title><rect fill="#000000" fill-opacity="0.00000" height="1128.1563" width="8" x="1796.7041" y="206.875"/><line style="stroke:#181818;stroke-width:0.5;stroke-dasharray:5,5;" x1="1800.2354" x2="1800.2354" y1="206.875" y2="1335.0313"/></g><g><title>QueryResultCache</title><rect fill="#000000" fill-opacity="0.00000" height="1213.8125" width="8" x="1941.3105" y="121.2188"/><line style="stroke:#181818;stroke-width:0.5;stroke-dasharray:5,5;" x1="1945.1729" x2="1945.1729" y1="121.2188" y2="1335.0313"/></g><g><title>SDK FeedIterator.T.</title><rect fill="#000000" fill-opacity="0.00000" height="1213.8125" width="8" x="2091.3687" y="121.2188"/><line style="stroke:#181818;stroke-width:0.5;stroke-dasharray:5,5;" x1="2094.4482" x2="2094.4482" y1="121.2188" y2="1335.0313"/></g><g class="participant participant-head" data-participant="Test"><text fill="#000000" font-family="sans-serif" font-size="14" lengthAdjust="spacing" textLength="64.5859" x="113" y="118.1426">Test Code</text><ellipse cx="148.293" cy="52.1094" fill="#E2E2F0" rx="8" ry="8" style="stroke:#181818;stroke-width:0.5;"/><path d="M148.293,60.1094 L148.293,87.1094 M135.293,68.1094 L161.293,68.1094 M148.293,87.1094 L135.293,102.1094 M148.293,87.1094 L161.293,102.1094" fill="none" style="stroke:#181818;stroke-width:0.5;"/></g><g class="participant participant-tail" data-participant="Test"><text fill="#000000" font-family="sans-serif" font-size="14" lengthAdjust="spacing" textLength="64.5859" x="113" y="1348.5645">Test Code</text><ellipse cx="148.293" cy="1360.1406" fill="#E2E2F0" rx="8" ry="8" style="stroke:#181818;stroke-width:0.5;"/><path d="M148.293,1368.1406 L148.293,1395.1406 M135.293,1376.1406 L161.293,1376.1406 M148.293,1395.1406 L135.293,1410.1406 M148.293,1395.1406 L161.293,1410.1406" fill="none" style="stroke:#181818;stroke-width:0.5;"/></g><g class="participant participant-tail" data-participant="SDK"><rect fill="#E2E2F0" height="49.2188" rx="2.5" ry="2.5" style="stroke:#181818;stroke-width:0.5;" width="101.1377" x="406.4961" y="1334.0313"/><text fill="#000000" font-family="sans-serif" font-size="14" lengthAdjust="spacing" textLength="87.1377" x="413.4961" y="1355.5645">CosmosClient</text><text fill="#000000" font-family="sans-serif" font-size="14" lengthAdjust="spacing" textLength="65.3447" x="424.3926" y="1373.1738">(real SDK)</text></g><g class="participant participant-head" data-participant="SDKContainer"><rect fill="#E2E2F0" height="49.2188" rx="2.5" ry="2.5" style="stroke:#181818;stroke-width:0.5;" width="79.3447" x="517.6338" y="71"/><text fill="#000000" font-family="sans-serif" font-size="14" lengthAdjust="spacing" textLength="60.7031" x="526.9546" y="92.5332">Container</text><text fill="#000000" font-family="sans-serif" font-size="14" lengthAdjust="spacing" textLength="65.3447" x="524.6338" y="110.1426">(real SDK)</text></g><g class="participant participant-tail" data-participant="SDKContainer"><rect fill="#E2E2F0" height="49.2188" rx="2.5" ry="2.5" style="stroke:#181818;stroke-width:0.5;" width="79.3447" x="517.6338" y="1334.0313"/><text fill="#000000" font-family="sans-serif" font-size="14" lengthAdjust="spacing" textLength="60.7031" x="526.9546" y="1355.5645">Container</text><text fill="#000000" font-family="sans-serif" font-size="14" lengthAdjust="spacing" textLength="65.3447" x="524.6338" y="1373.1738">(real SDK)</text></g><g class="participant participant-tail" data-participant="LinqProvider"><rect fill="#E2E2F0" height="49.2188" rx="2.5" ry="2.5" style="stroke:#181818;stroke-width:0.5;" width="134.5996" x="742.3696" y="1334.0313"/><text fill="#000000" font-family="sans-serif" font-size="14" lengthAdjust="spacing" textLength="120.5996" x="749.3696" y="1355.5645">CosmosLinqQuery-</text><text fill="#000000" font-family="sans-serif" font-size="14" lengthAdjust="spacing" textLength="94.1309" x="762.604" y="1373.1738">Provider (SDK)</text></g><g class="participant participant-tail" data-participant="Queryable"><rect fill="#E2E2F0" height="31.6094" rx="2.5" ry="2.5" style="stroke:#181818;stroke-width:0.5;" width="158.7441" x="950.4316" y="1334.0313"/><text fill="#000000" font-family="sans-serif" font-size="14" lengthAdjust="spacing" textLength="144.7441" x="957.4316" y="1355.5645">IOrderedQueryable&lt;T&gt;</text></g><g class="participant participant-head" data-participant="Http"><rect fill="#E2E2F0" height="31.6094" rx="2.5" ry="2.5" style="stroke:#181818;stroke-width:0.5;" width="75.4688" x="1119.1758" y="88.6094"/><text fill="#000000" font-family="sans-serif" font-size="14" lengthAdjust="spacing" textLength="61.4688" x="1126.1758" y="110.1426">HttpClient</text></g><g class="participant participant-tail" data-participant="Http"><rect fill="#E2E2F0" height="31.6094" rx="2.5" ry="2.5" style="stroke:#181818;stroke-width:0.5;" width="75.4688" x="1119.1758" y="1334.0313"/><text fill="#000000" font-family="sans-serif" font-size="14" lengthAdjust="spacing" textLength="61.4688" x="1126.1758" y="1355.5645">HttpClient</text></g><g class="participant participant-tail" data-participant="Handler"><rect fill="#E2E2F0" height="31.6094" rx="2.5" ry="2.5" style="stroke:#181818;stroke-width:0.5;" width="145.4961" x="1339.0391" y="1334.0313"/><text fill="#000000" font-family="sans-serif" font-size="14" lengthAdjust="spacing" textLength="131.4961" x="1346.0391" y="1355.5645">FakeCosmosHandler</text></g><g class="participant participant-head" data-participant="Parser"><rect fill="#E2E2F0" height="31.6094" rx="2.5" ry="2.5" style="stroke:#181818;stroke-width:0.5;" width="126.8135" x="1595.4219" y="88.6094"/><text fill="#000000" font-family="sans-serif" font-size="14" lengthAdjust="spacing" textLength="112.8135" x="1602.4219" y="110.1426">CosmosSqlParser</text></g><g class="participant participant-tail" data-participant="Parser"><rect fill="#E2E2F0" height="31.6094" rx="2.5" ry="2.5" style="stroke:#181818;stroke-width:0.5;" width="126.8135" x="1595.4219" y="1334.0313"/><text fill="#000000" font-family="sans-serif" font-size="14" lengthAdjust="spacing" textLength="112.8135" x="1602.4219" y="1355.5645">CosmosSqlParser</text></g><g class="participant participant-tail" data-participant="IMC"><rect fill="#E2E2F0" height="31.6094" rx="2.5" ry="2.5" style="stroke:#181818;stroke-width:0.5;" width="136.9375" x="1732.2354" y="1334.0313"/><text fill="#000000" font-family="sans-serif" font-size="14" lengthAdjust="spacing" textLength="122.9375" x="1739.2354" y="1355.5645">InMemoryContainer</text></g><g class="participant participant-head" data-participant="Cache"><rect fill="#E2E2F0" height="31.6094" rx="2.5" ry="2.5" style="stroke:#181818;stroke-width:0.5;" width="132.2754" x="1879.1729" y="88.6094"/><text fill="#000000" font-family="sans-serif" font-size="14" lengthAdjust="spacing" textLength="118.2754" x="1886.1729" y="110.1426">QueryResultCache</text></g><g class="participant participant-tail" data-participant="Cache"><rect fill="#E2E2F0" height="31.6094" rx="2.5" ry="2.5" style="stroke:#181818;stroke-width:0.5;" width="132.2754" x="1879.1729" y="1334.0313"/><text fill="#000000" font-family="sans-serif" font-size="14" lengthAdjust="spacing" textLength="118.2754" x="1886.1729" y="1355.5645">QueryResultCache</text></g><g class="participant participant-head" data-participant="SDKIter"><rect fill="#E2E2F0" height="31.6094" rx="2.5" ry="2.5" style="stroke:#181818;stroke-width:0.5;" width="147.8408" x="2021.4482" y="88.6094"/><text fill="#000000" font-family="sans-serif" font-size="14" lengthAdjust="spacing" textLength="133.8408" x="2028.4482" y="110.1426">SDK FeedIterator&lt;T&gt;</text></g><g class="participant participant-tail" data-participant="SDKIter"><rect fill="#E2E2F0" height="31.6094" rx="2.5" ry="2.5" style="stroke:#181818;stroke-width:0.5;" width="147.8408" x="2021.4482" y="1334.0313"/><text fill="#000000" font-family="sans-serif" font-size="14" lengthAdjust="spacing" textLength="133.8408" x="2028.4482" y="1355.5645">SDK FeedIterator&lt;T&gt;</text></g><g><title>CosmosClient</title><rect fill="#FFFFFF" height="30.3516" style="stroke:#181818;stroke-width:1;" width="10" x="452.0649" y="387.7109"/></g><g><title>Container</title><rect fill="#FFFFFF" height="133.1797" style="stroke:#181818;stroke-width:1;" width="10" x="552.3062" y="492.7656"/></g><g><title>IOrderedQueryable.T.</title><rect fill="#FFFFFF" height="91.0547" style="stroke:#181818;stroke-width:1;" width="10" x="1024.8037" y="747.3516"/></g><g><title>SDK FeedIterator.T.</title><rect fill="#FFFFFF" height="302.5156" style="stroke:#181818;stroke-width:1;" width="10" x="2090.3687" y="938.4609"/></g><rect fill="#EEEEEE" height="3" style="stroke:#EEEEEE;stroke-width:1;" width="2189.2891" x="0" y="152.3945"/><line style="stroke:#000000;stroke-width:1;" x1="0" x2="2189.2891" y1="152.3945" y2="152.3945"/><line style="stroke:#000000;stroke-width:1;" x1="0" x2="2189.2891" y1="155.3945" y2="155.3945"/><rect fill="#EEEEEE" height="24.3516" style="stroke:#000000;stroke-width:2;" width="53.7236" x="1067.7827" y="141.2188"/><text fill="#000000" font-family="sans-serif" font-size="13" font-weight="bold" lengthAdjust="spacing" textLength="36.1118" x="1073.7827" y="158.7139">Setup</text><g class="message" data-participant-1="Test" data-participant-2="IMC"><polygon fill="#181818" points="1720.2354,193.9219,1730.2354,197.9219,1720.2354,201.9219,1724.2354,197.9219" style="stroke:#181818;stroke-width:1;"/><line style="stroke:#181818;stroke-width:2;" x1="148.293" x2="1726.2354" y1="197.9219" y2="197.9219"/><text fill="#000000" font-family="sans-serif" font-size="13" lengthAdjust="spacing" textLength="159.8022" x="155.293" y="193.0654">new InMemoryContainer(&#8230;)</text></g><rect fill="#E2E2F0" height="31.6094" rx="2.5" ry="2.5" style="stroke:#181818;stroke-width:0.5;" width="136.9375" x="1732.2354" y="175.5703"/><text fill="#000000" font-family="sans-serif" font-size="14" lengthAdjust="spacing" textLength="122.9375" x="1739.2354" y="197.1035">InMemoryContainer</text><g class="message" data-participant-1="Test" data-participant-2="Handler"><polygon fill="#181818" points="1327.0391,236.5313,1337.0391,240.5313,1327.0391,244.5313,1331.0391,240.5313" style="stroke:#181818;stroke-width:1;"/><line style="stroke:#181818;stroke-width:2;" x1="148.293" x2="1333.0391" y1="240.5313" y2="240.5313"/><text fill="#000000" font-family="sans-serif" font-size="13" lengthAdjust="spacing" textLength="211.7007" x="155.293" y="235.6748">new FakeCosmosHandler(container)</text></g><rect fill="#E2E2F0" height="31.6094" rx="2.5" ry="2.5" style="stroke:#181818;stroke-width:0.5;" width="145.4961" x="1339.0391" y="218.1797"/><text fill="#000000" font-family="sans-serif" font-size="14" lengthAdjust="spacing" textLength="131.4961" x="1346.0391" y="239.7129">FakeCosmosHandler</text><g class="message" data-participant-1="Test" data-participant-2="SDK"><polygon fill="#181818" points="394.4961,279.1406,404.4961,283.1406,394.4961,287.1406,398.4961,283.1406" style="stroke:#181818;stroke-width:1;"/><line style="stroke:#181818;stroke-width:2;" x1="148.293" x2="400.4961" y1="283.1406" y2="283.1406"/><text fill="#000000" font-family="sans-serif" font-size="13" lengthAdjust="spacing" textLength="234.2031" x="155.293" y="278.2842">new CosmosClient(&#8230;, HttpClientFactory)</text></g><rect fill="#E2E2F0" height="49.2188" rx="2.5" ry="2.5" style="stroke:#181818;stroke-width:0.5;" width="101.1377" x="406.4961" y="260.7891"/><text fill="#000000" font-family="sans-serif" font-size="14" lengthAdjust="spacing" textLength="87.1377" x="413.4961" y="282.3223">CosmosClient</text><text fill="#000000" font-family="sans-serif" font-size="14" lengthAdjust="spacing" textLength="65.3447" x="424.3926" y="299.9316">(real SDK)</text><rect fill="#EEEEEE" height="3" style="stroke:#EEEEEE;stroke-width:1;" width="2189.2891" x="0" y="342.1836"/><line style="stroke:#000000;stroke-width:1;" x1="0" x2="2189.2891" y1="342.1836" y2="342.1836"/><line style="stroke:#000000;stroke-width:1;" x1="0" x2="2189.2891" y1="345.1836" y2="345.1836"/><rect fill="#EEEEEE" height="24.3516" style="stroke:#000000;stroke-width:2;" width="103.5654" x="1042.8618" y="331.0078"/><text fill="#000000" font-family="sans-serif" font-size="13" font-weight="bold" lengthAdjust="spacing" textLength="85.9536" x="1048.8618" y="348.5029">Get Container</text><g class="message" data-participant-1="Test" data-participant-2="SDK"><polygon fill="#181818" points="440.0649,383.7109,450.0649,387.7109,440.0649,391.7109,444.0649,387.7109" style="stroke:#181818;stroke-width:1;"/><line style="stroke:#181818;stroke-width:2;" x1="148.293" x2="446.0649" y1="387.7109" y2="387.7109"/><text fill="#000000" font-family="sans-serif" font-size="13" lengthAdjust="spacing" textLength="255.8169" x="155.293" y="382.8545">client.GetContainer(databaseId, containerId)</text></g><g class="message" data-participant-1="SDK" data-participant-2="Test"><polygon fill="#181818" points="159.293,414.0625,149.293,418.0625,159.293,422.0625,155.293,418.0625" style="stroke:#181818;stroke-width:1;"/><line style="stroke:#181818;stroke-width:2;stroke-dasharray:2,2;" x1="153.293" x2="456.0649" y1="418.0625" y2="418.0625"/><text fill="#000000" font-family="sans-serif" font-size="13" lengthAdjust="spacing" textLength="156.0571" x="165.293" y="413.2061">Container (real SDK proxy)</text></g><rect fill="#EEEEEE" height="3" style="stroke:#EEEEEE;stroke-width:1;" width="2189.2891" x="0" y="447.2383"/><line style="stroke:#000000;stroke-width:1;" x1="0" x2="2189.2891" y1="447.2383" y2="447.2383"/><line style="stroke:#000000;stroke-width:1;" x1="0" x2="2189.2891" y1="450.2383" y2="450.2383"/><rect fill="#EEEEEE" height="24.3516" style="stroke:#000000;stroke-width:2;" width="177.96" x="1005.6646" y="436.0625"/><text fill="#000000" font-family="sans-serif" font-size="13" font-weight="bold" lengthAdjust="spacing" textLength="160.3481" x="1011.6646" y="453.5576">LINQ Expression Building</text><g class="message" data-participant-1="Test" data-participant-2="SDKContainer"><polygon fill="#181818" points="540.3062,488.7656,550.3062,492.7656,540.3062,496.7656,544.3062,492.7656" style="stroke:#181818;stroke-width:1;"/><line style="stroke:#181818;stroke-width:2;" x1="148.293" x2="546.3062" y1="492.7656" y2="492.7656"/><text fill="#000000" font-family="sans-serif" font-size="13" lengthAdjust="spacing" textLength="219.667" x="155.293" y="487.9092">container.GetItemLinqQueryable&lt;T&gt;()</text></g><g class="message" data-participant-1="SDKContainer" data-participant-2="LinqProvider"><polygon fill="#181818" points="730.3696,519.1172,740.3696,523.1172,730.3696,527.1172,734.3696,523.1172" style="stroke:#181818;stroke-width:1;"/><line style="stroke:#181818;stroke-width:2;" x1="562.3062" x2="736.3696" y1="523.1172" y2="523.1172"/><text fill="#000000" font-family="sans-serif" font-size="13" lengthAdjust="spacing" textLength="156.0635" x="569.3062" y="518.2607">CosmosLinqQueryProvider</text></g><rect fill="#E2E2F0" height="49.2188" rx="2.5" ry="2.5" style="stroke:#181818;stroke-width:0.5;" width="134.5996" x="742.3696" y="500.7656"/><text fill="#000000" font-family="sans-serif" font-size="14" lengthAdjust="spacing" textLength="120.5996" x="749.3696" y="522.2988">CosmosLinqQuery-</text><text fill="#000000" font-family="sans-serif" font-size="14" lengthAdjust="spacing" textLength="94.1309" x="762.604" y="539.9082">Provider (SDK)</text><g class="message" data-participant-1="SDKContainer" data-participant-2="Queryable"><polygon fill="#181818" points="938.4316,579.3359,948.4316,583.3359,938.4316,587.3359,942.4316,583.3359" style="stroke:#181818;stroke-width:1;"/><line style="stroke:#181818;stroke-width:2;" x1="562.3062" x2="944.4316" y1="583.3359" y2="583.3359"/><text fill="#000000" font-family="sans-serif" font-size="13" lengthAdjust="spacing" textLength="134.4053" x="569.3062" y="578.4795">IOrderedQueryable&lt;T&gt;</text></g><rect fill="#E2E2F0" height="31.6094" rx="2.5" ry="2.5" style="stroke:#181818;stroke-width:0.5;" width="158.7441" x="950.4316" y="560.9844"/><text fill="#000000" font-family="sans-serif" font-size="14" lengthAdjust="spacing" textLength="144.7441" x="957.4316" y="582.5176">IOrderedQueryable&lt;T&gt;</text><g class="message" data-participant-1="SDKContainer" data-participant-2="Test"><polygon fill="#181818" points="159.293,621.9453,149.293,625.9453,159.293,629.9453,155.293,625.9453" style="stroke:#181818;stroke-width:1;"/><line style="stroke:#181818;stroke-width:2;stroke-dasharray:2,2;" x1="153.293" x2="556.3062" y1="625.9453" y2="625.9453"/><text fill="#000000" font-family="sans-serif" font-size="13" lengthAdjust="spacing" textLength="134.4053" x="165.293" y="621.0889">IOrderedQueryable&lt;T&gt;</text></g><g class="message" data-participant-1="Test" data-participant-2="Queryable"><polygon fill="#181818" points="1017.8037,668.6484,1027.8037,672.6484,1017.8037,676.6484,1021.8037,672.6484" style="stroke:#181818;stroke-width:1;"/><line style="stroke:#181818;stroke-width:2;" x1="148.293" x2="1023.8037" y1="672.6484" y2="672.6484"/><text fill="#000000" font-family="sans-serif" font-size="13" lengthAdjust="spacing" textLength="181.3018" x="155.293" y="651.4404">.Where() / .OrderBy() / .Select()</text><text fill="#000000" font-family="sans-serif" font-size="13" lengthAdjust="spacing" textLength="140.8862" x="155.293" y="667.792">(builds Expression Tree)</text></g><rect fill="#EEEEEE" height="3" style="stroke:#EEEEEE;stroke-width:1;" width="2189.2891" x="0" y="701.8242"/><line style="stroke:#000000;stroke-width:1;" x1="0" x2="2189.2891" y1="701.8242" y2="701.8242"/><line style="stroke:#000000;stroke-width:1;" x1="0" x2="2189.2891" y1="704.8242" y2="704.8242"/><rect fill="#EEEEEE" height="24.3516" style="stroke:#000000;stroke-width:2;" width="169.9937" x="1009.6477" y="690.6484"/><text fill="#000000" font-family="sans-serif" font-size="13" font-weight="bold" lengthAdjust="spacing" textLength="152.3818" x="1015.6477" y="708.1436">LINQ-to-SQL Translation</text><g class="message" data-participant-1="Test" data-participant-2="Queryable"><polygon fill="#181818" points="1012.8037,743.3516,1022.8037,747.3516,1012.8037,751.3516,1016.8037,747.3516" style="stroke:#181818;stroke-width:1;"/><line style="stroke:#181818;stroke-width:2;" x1="148.293" x2="1018.8037" y1="747.3516" y2="747.3516"/><text fill="#000000" font-family="sans-serif" font-size="13" lengthAdjust="spacing" textLength="98.2554" x="155.293" y="742.4951">.ToFeedIterator()</text></g><g class="message" data-participant-1="Queryable" data-participant-2="LinqProvider"><polygon fill="#181818" points="820.6694,773.7031,810.6694,777.7031,820.6694,781.7031,816.6694,777.7031" style="stroke:#181818;stroke-width:1;"/><line style="stroke:#181818;stroke-width:2;" x1="814.6694" x2="1023.8037" y1="777.7031" y2="777.7031"/><text fill="#000000" font-family="sans-serif" font-size="13" lengthAdjust="spacing" textLength="191.1343" x="826.6694" y="772.8467">Translate expression tree &#8594; SQL</text></g><g class="message" data-participant-1="LinqProvider" data-participant-2="Queryable"><polygon fill="#181818" points="1012.8037,804.0547,1022.8037,808.0547,1012.8037,812.0547,1016.8037,808.0547" style="stroke:#181818;stroke-width:1;"/><line style="stroke:#181818;stroke-width:2;stroke-dasharray:2,2;" x1="809.6694" x2="1018.8037" y1="808.0547" y2="808.0547"/><text fill="#000000" font-family="sans-serif" font-size="13" lengthAdjust="spacing" textLength="157.8662" x="816.6694" y="803.1982">Cosmos SQL + parameters</text></g><g class="message" data-participant-1="Queryable" data-participant-2="Test"><polygon fill="#181818" points="159.293,834.4063,149.293,838.4063,159.293,842.4063,155.293,838.4063" style="stroke:#181818;stroke-width:1;"/><line style="stroke:#181818;stroke-width:2;stroke-dasharray:2,2;" x1="153.293" x2="1028.8037" y1="838.4063" y2="838.4063"/><text fill="#000000" font-family="sans-serif" font-size="13" lengthAdjust="spacing" textLength="93.939" x="165.293" y="833.5498">FeedIterator&lt;T&gt;</text></g><rect fill="#EEEEEE" height="3" style="stroke:#EEEEEE;stroke-width:1;" width="2189.2891" x="0" y="867.582"/><line style="stroke:#000000;stroke-width:1;" x1="0" x2="2189.2891" y1="867.582" y2="867.582"/><line style="stroke:#000000;stroke-width:1;" x1="0" x2="2189.2891" y1="870.582" y2="870.582"/><rect fill="#EEEEEE" height="24.3516" style="stroke:#000000;stroke-width:2;" width="332.2397" x="928.5247" y="856.4063"/><text fill="#000000" font-family="sans-serif" font-size="13" font-weight="bold" lengthAdjust="spacing" textLength="314.6279" x="934.5247" y="873.9014">Query Plan + Execution (same as Approach 3 SQL)</text><path d="M103,897.7578 L175.4346,897.7578 L175.4346,906.1094 L165.4346,916.1094 L103,916.1094 L103,897.7578" fill="#EEEEEE" style="stroke:#000000;stroke-width:1.5;"/><rect fill="none" height="351.2188" style="stroke:#000000;stroke-width:1.5;" width="2076.2891" x="103" y="897.7578"/><text fill="#000000" font-family="sans-serif" font-size="13" font-weight="bold" lengthAdjust="spacing" textLength="27.4346" x="118" y="912.2529">loop</text><text fill="#000000" font-family="sans-serif" font-size="11" font-weight="bold" lengthAdjust="spacing" textLength="124.083" x="190.4346" y="911.1768">[while HasMoreResults]</text><g class="message" data-participant-1="Test" data-participant-2="SDKIter"><polygon fill="#181818" points="2078.3687,934.4609,2088.3687,938.4609,2078.3687,942.4609,2082.3687,938.4609" style="stroke:#181818;stroke-width:1;"/><line style="stroke:#181818;stroke-width:2;" x1="148.293" x2="2084.3687" y1="938.4609" y2="938.4609"/><text fill="#000000" font-family="sans-serif" font-size="13" lengthAdjust="spacing" textLength="101.8672" x="155.293" y="933.6045">ReadNextAsync()</text></g><g class="message" data-participant-1="SDKIter" data-participant-2="Http"><polygon fill="#181818" points="1167.9102,964.8125,1157.9102,968.8125,1167.9102,972.8125,1163.9102,968.8125" style="stroke:#181818;stroke-width:1;"/><line style="stroke:#181818;stroke-width:2;" x1="1161.9102" x2="2089.3687" y1="968.8125" y2="968.8125"/><text fill="#000000" font-family="sans-serif" font-size="13" lengthAdjust="spacing" textLength="177.0298" x="1173.9102" y="963.9561">POST (query plan, then query)</text></g><g class="message" data-participant-1="Http" data-participant-2="Handler"><polygon fill="#181818" points="1399.7871,1011.5156,1409.7871,1015.5156,1399.7871,1019.5156,1403.7871,1015.5156" style="stroke:#181818;stroke-width:1;"/><line style="stroke:#181818;stroke-width:2;" x1="1156.9102" x2="1405.7871" y1="1015.5156" y2="1015.5156"/><text fill="#000000" font-family="sans-serif" font-size="13" lengthAdjust="spacing" textLength="230.877" x="1163.9102" y="994.3076">SendAsync &#8594; HandleQueryPlanAsync()</text><text fill="#000000" font-family="sans-serif" font-size="13" lengthAdjust="spacing" textLength="149.5698" x="1163.9102" y="1010.6592">then HandleQueryAsync()</text></g><g class="message" data-participant-1="Handler" data-participant-2="Parser"><polygon fill="#181818" points="1646.8286,1041.8672,1656.8286,1045.8672,1646.8286,1049.8672,1650.8286,1045.8672" style="stroke:#181818;stroke-width:1;"/><line style="stroke:#181818;stroke-width:2;" x1="1411.7871" x2="1652.8286" y1="1045.8672" y2="1045.8672"/><text fill="#000000" font-family="sans-serif" font-size="13" lengthAdjust="spacing" textLength="188.1699" x="1418.7871" y="1041.0107">TryParse() + SimplifySdkQuery()</text></g><g class="message" data-participant-1="Handler" data-participant-2="IMC"><polygon fill="#181818" points="1788.7041,1072.2188,1798.7041,1076.2188,1788.7041,1080.2188,1792.7041,1076.2188" style="stroke:#181818;stroke-width:1;"/><line style="stroke:#181818;stroke-width:2;" x1="1411.7871" x2="1794.7041" y1="1076.2188" y2="1076.2188"/><text fill="#000000" font-family="sans-serif" font-size="13" lengthAdjust="spacing" textLength="261.1616" x="1418.7871" y="1071.3623">GetItemQueryIterator &#8594; FilterItemsByQuery()</text></g><g class="message" data-participant-1="Handler" data-participant-2="Handler"><line style="stroke:#181818;stroke-width:2;" x1="1411.7871" x2="1453.7871" y1="1106.5703" y2="1106.5703"/><line style="stroke:#181818;stroke-width:2;" x1="1453.7871" x2="1453.7871" y1="1106.5703" y2="1119.5703"/><line style="stroke:#181818;stroke-width:2;" x1="1412.7871" x2="1453.7871" y1="1119.5703" y2="1119.5703"/><polygon fill="#181818" points="1422.7871,1115.5703,1412.7871,1119.5703,1422.7871,1123.5703,1418.7871,1119.5703" style="stroke:#181818;stroke-width:1;"/><text fill="#000000" font-family="sans-serif" font-size="13" lengthAdjust="spacing" textLength="233.0415" x="1418.7871" y="1101.7139">DrainIterator() &#8594; BuildPagedResponse()</text></g><g class="message" data-participant-1="Handler" data-participant-2="Cache"><polygon fill="#181818" points="1933.3105,1145.9219,1943.3105,1149.9219,1933.3105,1153.9219,1937.3105,1149.9219" style="stroke:#181818;stroke-width:1;"/><line style="stroke:#181818;stroke-width:2;" x1="1411.7871" x2="1939.3105" y1="1149.9219" y2="1149.9219"/><text fill="#000000" font-family="sans-serif" font-size="13" lengthAdjust="spacing" textLength="76.5908" x="1418.7871" y="1145.0654">cache results</text></g><g class="message" data-participant-1="Handler" data-participant-2="Http"><polygon fill="#181818" points="1167.9102,1176.2734,1157.9102,1180.2734,1167.9102,1184.2734,1163.9102,1180.2734" style="stroke:#181818;stroke-width:1;"/><line style="stroke:#181818;stroke-width:2;stroke-dasharray:2,2;" x1="1161.9102" x2="1410.7871" y1="1180.2734" y2="1180.2734"/><text fill="#000000" font-family="sans-serif" font-size="13" lengthAdjust="spacing" textLength="154.2925" x="1173.9102" y="1175.417">200 OK + paginated JSON</text></g><g class="message" data-participant-1="Http" data-participant-2="SDKIter"><polygon fill="#181818" points="2078.3687,1206.625,2088.3687,1210.625,2078.3687,1214.625,2082.3687,1210.625" style="stroke:#181818;stroke-width:1;"/><line style="stroke:#181818;stroke-width:2;stroke-dasharray:2,2;" x1="1156.9102" x2="2084.3687" y1="1210.625" y2="1210.625"/><text fill="#000000" font-family="sans-serif" font-size="13" lengthAdjust="spacing" textLength="194.0352" x="1163.9102" y="1205.7686">response &#8594; SDK pipeline merges</text></g><g class="message" data-participant-1="SDKIter" data-participant-2="Test"><polygon fill="#181818" points="159.293,1236.9766,149.293,1240.9766,159.293,1244.9766,155.293,1240.9766" style="stroke:#181818;stroke-width:1;"/><line style="stroke:#181818;stroke-width:2;stroke-dasharray:2,2;" x1="153.293" x2="2094.3687" y1="1240.9766" y2="1240.9766"/><text fill="#000000" font-family="sans-serif" font-size="13" lengthAdjust="spacing" textLength="111.2935" x="165.293" y="1236.1201">FeedResponse&lt;T&gt;</text></g><path d="M5,1260.9766 L5,1319.9766 L293,1319.9766 L293,1270.9766 L283,1260.9766 L5,1260.9766" fill="#FEFFDD" style="stroke:#181818;stroke-width:0.5;"/><path d="M283,1260.9766 L283,1270.9766 L293,1270.9766 L283,1260.9766" fill="#FEFFDD" style="stroke:#181818;stroke-width:0.5;"/><text fill="#000000" font-family="sans-serif" font-size="13" lengthAdjust="spacing" textLength="181.0034" x="11" y="1279.4717">Key: LINQ &#8594; SQL by real SDK,</text><text fill="#000000" font-family="sans-serif" font-size="13" lengthAdjust="spacing" textLength="267.3696" x="11" y="1295.8232">then SQL executed through CosmosSqlParser</text><text fill="#000000" font-family="sans-serif" font-size="13" lengthAdjust="spacing" textLength="199.3989" x="11" y="1312.1748">(tests full LINQ-to-SQL translation)</text><!--SRC=[RLRBSjiu4BppAwQy5ygslAdiZHMdobQijTOlELBLNdo1o8c44WJG06IRjvps0xRs6_R3_2KP32I-hCeX9DWzqsZqGFRIAuJZuukoj4RaA_WZWv5n6-D6IgBsS09ZiSQuT2rqeT32-y__u7Po_mYFMxGLZ9LvXVHYiR3u8eN7Od1yd2HkBNKfhDZ0GkJhfJLRNOoCCXP-6r-5Vos4m-SjwXmlh3MlyvNCrngTWyz98d9FZACvEa-w2Zm2uI2y9SJqCfUb8957RSbFEhKe5Co-tGmOJWzzjFP2QhI7eFN7GnrkfNxcJG-VzDIQ5rcG7MbD3v_tortwvC7I6XPC5Wk5N-PVcL8lTF7NtfTnEumAhrt0XrE9kFXyIFhiMKs5TJjWVEnfr7UuCRQg7M3av6xKXR7Yx-YsoeyeCV58-AcB8rTWZ5XCF5f1fxZVCQs7fIGvFuSP-cq9v-S97_3mQ-X6QOGCDBx21q7f-y__1pLs7ySQ_y6JDDyp6rQGLJFQkGd5Jw4nVipPgmOiz4yC-TiLQmiEvKvEg5pEf3C2Dd8BuSL2E9mKfr1BcHI39B26n8vLXf2rYjUH11h9jrr_7hUhjzBIN4YZuN8hLI7riYUbgH8rxL-3B39zK-Tt5y6KfJGigjBES3Ig5_qwu7rcNJZI3aM-n-auS11VRwufdi7Ptoi2fWFu7SwOT5d5bnagp7qweBbU18DSsxAvHMpC77epd3tUqghGJWaV42qlctPivDdSjADCjZM0lcTPNHC1c_QUsiFxF_y2TKqwX65lUz7lWAFRboz8fBwktR9ZN6_8U8lnPfugeQd6rHlcMzvXwgXO6CBclWzz1c7hofWINbUIwbyBTsSinY5t2K0hOg5JDEKxYk8Ut_o5gtHEba3zEGmdpH5XfW-pEQJFhAOaDQVWLwY15mA3OQrPpkXAq0LNPBFYUimTqNUjdZHNQNriDEmhKT5uoV61LFnCAJc1cToKIlwePiMQgNrMk88os0qC8_RcigAnLFGQlhdBwc21PY_VB0Mz2GtpUNAdOea5sLiQ7LHr-NoNXkdb_srz23MaiVVpfq_mSCCnMKeTVdlXhzd3VMriwyYoK8dxnHI6-qMMg6WIOODsYQvzW1y2jXSR0aOdb2JQKBxD2u7vvnZW1giitbExbCEYWlrTTae0FhEmZfn7qkfNz6V1SWMzNoZ2ffwAElYnLQephhuPrq7G0K56yWi0]--></g></svg>