<svg xmlns="http://www.w3.org/2000/svg" xmlns:xlink="http://www.w3.org/1999/xlink" contentStyleType="text/css" data-diagram-type="SEQUENCE" height="874px" preserveAspectRatio="none" style="width:1497px;height:874px;background:#FEFEFE;" version="1.1" viewBox="0 0 1497 874" width="1497px" zoomAndPan="magnify"><title>**Approach 2: InMemoryCosmosClient + InMemoryContainer &#8212; Query Flow (Abbreviated)**</title><defs/><g><rect fill="#FEFEFE" height="874" style="stroke:none;stroke-width:1;" width="1497" x="0" y="0"/><text fill="#000000" font-family="sans-serif" font-size="14" font-weight="bold" lengthAdjust="spacing" textLength="585.8057" x="451.7708" y="29.5332">Approach 2: InMemoryCosmosClient + InMemoryContainer &#8212; Query Flow (Abbreviated)</text><g><title>InMemoryCosmosClient</title><rect fill="#FFFFFF" height="145.9219" style="stroke:#181818;stroke-width:1;" width="10" x="296.1499" y="197.9219"/></g><g><title>InMemoryContainer</title><rect fill="#FFFFFF" height="193.3672" style="stroke:#181818;stroke-width:1;" width="10" x="956.8179" y="418.5469"/></g><g><title>CosmosSqlParser</title><rect fill="#FFFFFF" height="30.3516" style="stroke:#181818;stroke-width:1;" width="10" x="1214.541" y="448.8984"/></g><g><title>InMemoryFeedIterator.T.</title><rect fill="#FFFFFF" height="30.3516" style="stroke:#181818;stroke-width:1;" width="10" x="1376.6475" y="667.6172"/></g><rect fill="none" height="79.0547" style="stroke:#000000;stroke-width:1.5;" width="1470.3472" x="10" y="626.9141"/><g><title>Test Code</title><rect fill="#000000" fill-opacity="0.00000" height="670.8047" width="8" x="51.293" y="121.2188"/><line style="stroke:#181818;stroke-width:0.5;stroke-dasharray:5,5;" x1="55" x2="55" y1="121.2188" y2="792.0234"/></g><g><title>InMemoryCosmosClient</title><rect fill="#000000" fill-opacity="0.00000" height="670.8047" width="8" x="297.1499" y="121.2188"/><line style="stroke:#181818;stroke-width:0.5;stroke-dasharray:5,5;" x1="300.4639" x2="300.4639" y1="121.2188" y2="792.0234"/></g><g><title>InMemoryDatabase</title><rect fill="#000000" fill-opacity="0.00000" height="554.7969" width="8" x="629.4321" y="237.2266"/><line style="stroke:#181818;stroke-width:0.5;stroke-dasharray:5,5;" x1="633.3496" x2="633.3496" y1="237.2266" y2="792.0234"/></g><g><title>InMemoryContainer</title><rect fill="#000000" fill-opacity="0.00000" height="481.8359" width="8" x="957.8179" y="310.1875"/><line style="stroke:#181818;stroke-width:0.5;stroke-dasharray:5,5;" x1="961.3491" x2="961.3491" y1="310.1875" y2="792.0234"/></g><g><title>CosmosSqlParser</title><rect fill="#000000" fill-opacity="0.00000" height="670.8047" width="8" x="1215.541" y="121.2188"/><line style="stroke:#181818;stroke-width:0.5;stroke-dasharray:5,5;" x1="1219.1343" x2="1219.1343" y1="121.2188" y2="792.0234"/></g><g><title>InMemoryFeedIterator.T.</title><rect fill="#000000" fill-opacity="0.00000" height="213.7656" width="8" x="1377.6475" y="578.2578"/><line style="stroke:#181818;stroke-width:0.5;stroke-dasharray:5,5;" x1="1380.9478" x2="1380.9478" y1="578.2578" y2="792.0234"/></g><g class="participant participant-head" data-participant="Test"><text fill="#000000" font-family="sans-serif" font-size="14" lengthAdjust="spacing" textLength="64.5859" x="20" y="118.1426">Test Code</text><ellipse cx="55.293" cy="52.1094" fill="#E2E2F0" rx="8" ry="8" style="stroke:#181818;stroke-width:0.5;"/><path d="M55.293,60.1094 L55.293,87.1094 M42.293,68.1094 L68.293,68.1094 M55.293,87.1094 L42.293,102.1094 M55.293,87.1094 L68.293,102.1094" fill="none" style="stroke:#181818;stroke-width:0.5;"/></g><g class="participant participant-tail" data-participant="Test"><text fill="#000000" font-family="sans-serif" font-size="14" lengthAdjust="spacing" textLength="64.5859" x="20" y="805.5566">Test Code</text><ellipse cx="55.293" cy="817.1328" fill="#E2E2F0" rx="8" ry="8" style="stroke:#181818;stroke-width:0.5;"/><path d="M55.293,825.1328 L55.293,852.1328 M42.293,833.1328 L68.293,833.1328 M55.293,852.1328 L42.293,867.1328 M55.293,852.1328 L68.293,867.1328" fill="none" style="stroke:#181818;stroke-width:0.5;"/></g><g class="participant participant-head" data-participant="Client"><rect fill="#E2E2F0" height="31.6094" rx="2.5" ry="2.5" style="stroke:#181818;stroke-width:0.5;" width="163.3721" x="219.4639" y="88.6094"/><text fill="#000000" font-family="sans-serif" font-size="14" lengthAdjust="spacing" textLength="149.3721" x="226.4639" y="110.1426">InMemoryCosmosClient</text></g><g class="participant participant-tail" data-participant="Client"><rect fill="#E2E2F0" height="31.6094" rx="2.5" ry="2.5" style="stroke:#181818;stroke-width:0.5;" width="163.3721" x="219.4639" y="791.0234"/><text fill="#000000" font-family="sans-serif" font-size="14" lengthAdjust="spacing" textLength="149.3721" x="226.4639" y="812.5566">InMemoryCosmosClient</text></g><g class="participant participant-tail" data-participant="DB"><rect fill="#E2E2F0" height="31.6094" rx="2.5" ry="2.5" style="stroke:#181818;stroke-width:0.5;" width="136.165" x="565.3496" y="791.0234"/><text fill="#000000" font-family="sans-serif" font-size="14" lengthAdjust="spacing" textLength="122.165" x="572.3496" y="812.5566">InMemoryDatabase</text></g><g class="participant participant-tail" data-participant="IMC"><rect fill="#E2E2F0" height="31.6094" rx="2.5" ry="2.5" style="stroke:#181818;stroke-width:0.5;" width="136.9375" x="893.3491" y="791.0234"/><text fill="#000000" font-family="sans-serif" font-size="14" lengthAdjust="spacing" textLength="122.9375" x="900.3491" y="812.5566">InMemoryContainer</text></g><g class="participant participant-head" data-participant="Parser"><rect fill="#E2E2F0" height="31.6094" rx="2.5" ry="2.5" style="stroke:#181818;stroke-width:0.5;" width="126.8135" x="1156.1343" y="88.6094"/><text fill="#000000" font-family="sans-serif" font-size="14" lengthAdjust="spacing" textLength="112.8135" x="1163.1343" y="110.1426">CosmosSqlParser</text></g><g class="participant participant-tail" data-participant="Parser"><rect fill="#E2E2F0" height="31.6094" rx="2.5" ry="2.5" style="stroke:#181818;stroke-width:0.5;" width="126.8135" x="1156.1343" y="791.0234"/><text fill="#000000" font-family="sans-serif" font-size="14" lengthAdjust="spacing" textLength="112.8135" x="1163.1343" y="812.5566">CosmosSqlParser</text></g><g class="participant participant-tail" data-participant="FeedIter"><rect fill="#E2E2F0" height="31.6094" rx="2.5" ry="2.5" style="stroke:#181818;stroke-width:0.5;" width="177.3994" x="1292.9478" y="791.0234"/><text fill="#000000" font-family="sans-serif" font-size="14" lengthAdjust="spacing" textLength="163.3994" x="1299.9478" y="812.5566">InMemoryFeedIterator&lt;T&gt;</text></g><g><title>InMemoryCosmosClient</title><rect fill="#FFFFFF" height="145.9219" style="stroke:#181818;stroke-width:1;" width="10" x="296.1499" y="197.9219"/></g><g><title>InMemoryContainer</title><rect fill="#FFFFFF" height="193.3672" style="stroke:#181818;stroke-width:1;" width="10" x="956.8179" y="418.5469"/></g><g><title>CosmosSqlParser</title><rect fill="#FFFFFF" height="30.3516" style="stroke:#181818;stroke-width:1;" width="10" x="1214.541" y="448.8984"/></g><g><title>InMemoryFeedIterator.T.</title><rect fill="#FFFFFF" height="30.3516" style="stroke:#181818;stroke-width:1;" width="10" x="1376.6475" y="667.6172"/></g><rect fill="#EEEEEE" height="3" style="stroke:#EEEEEE;stroke-width:1;" width="1490.3472" x="0" y="152.3945"/><line style="stroke:#000000;stroke-width:1;" x1="0" x2="1490.3472" y1="152.3945" y2="152.3945"/><line style="stroke:#000000;stroke-width:1;" x1="0" x2="1490.3472" y1="155.3945" y2="155.3945"/><rect fill="#EEEEEE" height="24.3516" style="stroke:#000000;stroke-width:2;" width="240.0845" x="625.1313" y="141.2188"/><text fill="#000000" font-family="sans-serif" font-size="13" font-weight="bold" lengthAdjust="spacing" textLength="222.4727" x="631.1313" y="158.7139">Container Resolution (lazy creation)</text><g class="message" data-participant-1="Test" data-participant-2="Client"><polygon fill="#181818" points="284.1499,193.9219,294.1499,197.9219,284.1499,201.9219,288.1499,197.9219" style="stroke:#181818;stroke-width:1;"/><line style="stroke:#181818;stroke-width:2;" x1="55.293" x2="290.1499" y1="197.9219" y2="197.9219"/><text fill="#000000" font-family="sans-serif" font-size="13" lengthAdjust="spacing" textLength="221.8569" x="62.293" y="193.0654">GetContainer(databaseId, containerId)</text></g><g class="message" data-participant-1="Client" data-participant-2="DB"><polygon fill="#181818" points="553.3496,224.2734,563.3496,228.2734,553.3496,232.2734,557.3496,228.2734" style="stroke:#181818;stroke-width:1;"/><line style="stroke:#181818;stroke-width:2;" x1="306.1499" x2="559.3496" y1="228.2734" y2="228.2734"/><text fill="#000000" font-family="sans-serif" font-size="13" lengthAdjust="spacing" textLength="235.1997" x="313.1499" y="223.417">GetOrAdd &#8594; InMemoryDatabase [if new]</text></g><rect fill="#E2E2F0" height="31.6094" rx="2.5" ry="2.5" style="stroke:#181818;stroke-width:0.5;" width="136.165" x="565.3496" y="205.9219"/><text fill="#000000" font-family="sans-serif" font-size="14" lengthAdjust="spacing" textLength="122.165" x="572.3496" y="227.4551">InMemoryDatabase</text><g class="message" data-participant-1="Client" data-participant-2="DB"><polygon fill="#181818" points="621.4321,266.8828,631.4321,270.8828,621.4321,274.8828,625.4321,270.8828" style="stroke:#181818;stroke-width:1;"/><line style="stroke:#181818;stroke-width:2;" x1="306.1499" x2="627.4321" y1="270.8828" y2="270.8828"/><text fill="#000000" font-family="sans-serif" font-size="13" lengthAdjust="spacing" textLength="139.439" x="313.1499" y="266.0264">GetOrCreateContainer()</text></g><g class="message" data-participant-1="DB" data-participant-2="IMC"><polygon fill="#181818" points="881.3491,297.2344,891.3491,301.2344,881.3491,305.2344,885.3491,301.2344" style="stroke:#181818;stroke-width:1;"/><line style="stroke:#181818;stroke-width:2;" x1="633.4321" x2="887.3491" y1="301.2344" y2="301.2344"/><text fill="#000000" font-family="sans-serif" font-size="13" lengthAdjust="spacing" textLength="235.917" x="640.4321" y="296.3779">GetOrAdd &#8594; InMemoryContainer [if new]</text></g><rect fill="#E2E2F0" height="31.6094" rx="2.5" ry="2.5" style="stroke:#181818;stroke-width:0.5;" width="136.9375" x="893.3491" y="278.8828"/><text fill="#000000" font-family="sans-serif" font-size="14" lengthAdjust="spacing" textLength="122.9375" x="900.3491" y="300.416">InMemoryContainer</text><g class="message" data-participant-1="Client" data-participant-2="Test"><polygon fill="#181818" points="66.293,339.8438,56.293,343.8438,66.293,347.8438,62.293,343.8438" style="stroke:#181818;stroke-width:1;"/><line style="stroke:#181818;stroke-width:2;stroke-dasharray:2,2;" x1="60.293" x2="300.1499" y1="343.8438" y2="343.8438"/><text fill="#000000" font-family="sans-serif" font-size="13" lengthAdjust="spacing" textLength="182.7935" x="72.293" y="338.9873">Container (InMemoryContainer)</text></g><rect fill="#EEEEEE" height="3" style="stroke:#EEEEEE;stroke-width:1;" width="1490.3472" x="0" y="373.0195"/><line style="stroke:#000000;stroke-width:1;" x1="0" x2="1490.3472" y1="373.0195" y2="373.0195"/><line style="stroke:#000000;stroke-width:1;" x1="0" x2="1490.3472" y1="376.0195" y2="376.0195"/><rect fill="#EEEEEE" height="24.3516" style="stroke:#000000;stroke-width:2;" width="276.9326" x="606.7073" y="361.8438"/><text fill="#000000" font-family="sans-serif" font-size="13" font-weight="bold" lengthAdjust="spacing" textLength="259.3208" x="612.7073" y="379.3389">Query Execution (identical to Approach 1)</text><g class="message" data-participant-1="Test" data-participant-2="IMC"><polygon fill="#181818" points="944.8179,414.5469,954.8179,418.5469,944.8179,422.5469,948.8179,418.5469" style="stroke:#181818;stroke-width:1;"/><line style="stroke:#181818;stroke-width:2;" x1="55.293" x2="950.8179" y1="418.5469" y2="418.5469"/><text fill="#000000" font-family="sans-serif" font-size="13" lengthAdjust="spacing" textLength="212.4053" x="62.293" y="413.6904">GetItemQueryIterator&lt;T&gt;(queryText)</text></g><g class="message" data-participant-1="IMC" data-participant-2="Parser"><polygon fill="#181818" points="1202.541,444.8984,1212.541,448.8984,1202.541,452.8984,1206.541,448.8984" style="stroke:#181818;stroke-width:1;"/><line style="stroke:#181818;stroke-width:2;" x1="966.8179" x2="1208.541" y1="448.8984" y2="448.8984"/><text fill="#000000" font-family="sans-serif" font-size="13" lengthAdjust="spacing" textLength="100.4199" x="973.8179" y="444.042">Parse(queryText)</text></g><g class="message" data-participant-1="Parser" data-participant-2="IMC"><polygon fill="#181818" points="977.8179,475.25,967.8179,479.25,977.8179,483.25,973.8179,479.25" style="stroke:#181818;stroke-width:1;"/><line style="stroke:#181818;stroke-width:2;stroke-dasharray:2,2;" x1="971.8179" x2="1218.541" y1="479.25" y2="479.25"/><text fill="#000000" font-family="sans-serif" font-size="13" lengthAdjust="spacing" textLength="139.4199" x="983.8179" y="474.3936">CosmosSqlQuery (AST)</text></g><g class="message" data-participant-1="IMC" data-participant-2="IMC"><line style="stroke:#181818;stroke-width:2;" x1="966.8179" x2="1008.8179" y1="525.9531" y2="525.9531"/><line style="stroke:#181818;stroke-width:2;" x1="1008.8179" x2="1008.8179" y1="525.9531" y2="538.9531"/><line style="stroke:#181818;stroke-width:2;" x1="967.8179" x2="1008.8179" y1="538.9531" y2="538.9531"/><polygon fill="#181818" points="977.8179,534.9531,967.8179,538.9531,977.8179,542.9531,973.8179,538.9531" style="stroke:#181818;stroke-width:1;"/><text fill="#000000" font-family="sans-serif" font-size="13" lengthAdjust="spacing" textLength="119.9009" x="973.8179" y="504.7451">FilterItemsByQuery()</text><text fill="#000000" font-family="sans-serif" font-size="13" lengthAdjust="spacing" textLength="223.7231" x="973.8179" y="521.0967">&#8594; WHERE / ORDER BY / SELECT / &#8230;</text></g><g class="message" data-participant-1="IMC" data-participant-2="FeedIter"><polygon fill="#181818" points="1280.9478,565.3047,1290.9478,569.3047,1280.9478,573.3047,1284.9478,569.3047" style="stroke:#181818;stroke-width:1;"/><line style="stroke:#181818;stroke-width:2;" x1="966.8179" x2="1286.9478" y1="569.3047" y2="569.3047"/><text fill="#000000" font-family="sans-serif" font-size="13" lengthAdjust="spacing" textLength="151.728" x="973.8179" y="564.4482">InMemoryFeedIterator&lt;T&gt;</text></g><rect fill="#E2E2F0" height="31.6094" rx="2.5" ry="2.5" style="stroke:#181818;stroke-width:0.5;" width="177.3994" x="1292.9478" y="546.9531"/><text fill="#000000" font-family="sans-serif" font-size="14" lengthAdjust="spacing" textLength="163.3994" x="1299.9478" y="568.4863">InMemoryFeedIterator&lt;T&gt;</text><g class="message" data-participant-1="IMC" data-participant-2="Test"><polygon fill="#181818" points="66.293,607.9141,56.293,611.9141,66.293,615.9141,62.293,611.9141" style="stroke:#181818;stroke-width:1;"/><line style="stroke:#181818;stroke-width:2;stroke-dasharray:2,2;" x1="60.293" x2="960.8179" y1="611.9141" y2="611.9141"/><text fill="#000000" font-family="sans-serif" font-size="13" lengthAdjust="spacing" textLength="93.939" x="72.293" y="607.0576">FeedIterator&lt;T&gt;</text></g><path d="M10,626.9141 L82.4346,626.9141 L82.4346,635.2656 L72.4346,645.2656 L10,645.2656 L10,626.9141" fill="#EEEEEE" style="stroke:#000000;stroke-width:1.5;"/><rect fill="none" height="79.0547" style="stroke:#000000;stroke-width:1.5;" width="1470.3472" x="10" y="626.9141"/><text fill="#000000" font-family="sans-serif" font-size="13" font-weight="bold" lengthAdjust="spacing" textLength="27.4346" x="25" y="641.4092">loop</text><text fill="#000000" font-family="sans-serif" font-size="11" font-weight="bold" lengthAdjust="spacing" textLength="124.083" x="97.4346" y="640.333">[while HasMoreResults]</text><g class="message" data-participant-1="Test" data-participant-2="FeedIter"><polygon fill="#181818" points="1364.6475,663.6172,1374.6475,667.6172,1364.6475,671.6172,1368.6475,667.6172" style="stroke:#181818;stroke-width:1;"/><line style="stroke:#181818;stroke-width:2;" x1="55.293" x2="1370.6475" y1="667.6172" y2="667.6172"/><text fill="#000000" font-family="sans-serif" font-size="13" lengthAdjust="spacing" textLength="101.8672" x="62.293" y="662.7607">ReadNextAsync()</text></g><g class="message" data-participant-1="FeedIter" data-participant-2="Test"><polygon fill="#181818" points="66.293,693.9688,56.293,697.9688,66.293,701.9688,62.293,697.9688" style="stroke:#181818;stroke-width:1;"/><line style="stroke:#181818;stroke-width:2;stroke-dasharray:2,2;" x1="60.293" x2="1380.6475" y1="697.9688" y2="697.9688"/><text fill="#000000" font-family="sans-serif" font-size="13" lengthAdjust="spacing" textLength="111.2935" x="72.293" y="693.1123">FeedResponse&lt;T&gt;</text></g><path d="M813,717.9688 L813,776.9688 L1108,776.9688 L1108,727.9688 L1098,717.9688 L813,717.9688" fill="#FEFFDD" style="stroke:#181818;stroke-width:0.5;"/><path d="M1098,717.9688 L1098,727.9688 L1108,727.9688 L1098,717.9688" fill="#FEFFDD" style="stroke:#181818;stroke-width:0.5;"/><text fill="#000000" font-family="sans-serif" font-size="13" lengthAdjust="spacing" textLength="224.0088" x="819" y="736.4639">LINQ flow also identical to Approach 1:</text><text fill="#000000" font-family="sans-serif" font-size="13" lengthAdjust="spacing" textLength="274.9297" x="819" y="752.8154">GetItemLinqQueryable&lt;T&gt;() &#8594; LINQ-to-Objects</text><text fill="#000000" font-family="sans-serif" font-size="13" lengthAdjust="spacing" textLength="180.2798" x="819" y="769.167">&#8594; .ToFeedIteratorOverridable()</text><!--SRC=[VLJRRXen47ttLupIbrrIMZMFg4I2PMcG83ImKbMrVJ3hIUF6s62R4FgKftv0rM_eX_4b7U-5IouL3tZ7vvoPEJExNdg5q6Xq5WjhU7u3PoqOw17EZTqanisDIvH4xU7q8AmzbnejR1_-mDKAxGRwogmXwinc5kyazoZYHeCnTolrWbi-XndFRxzRiz8YCSfOUDLFm-y0uN2vGfrZnrgppcvaVglHEJXZZEUU62SPEW-94NW2t45uOiJqCfSBJlMTF5Tr0IsFpuDxtFCPTwLch_kIOjLmWHgCacDOcN2wL1-vTHMeF3ulrqSK0u-MKrlli_C2NySOQxTXR_04dL4hBus6IF6V6yWjyl0OGxlDM659ynpg4Pr22pwWt_4ZKRKt4AyXhwC34REAGTnUbwPVyiQs8mHiV_s6n_R05taD6jVVZeaLAmb5uJvhpEYE4EJKVxJtNJuH9sxPMfF8UrpqX1eNVfKhcDvZNbab1Sd8d2lm1dQR_UxOj51TxHXPFozK3kOIBKCWmtiViu0bIZdLabMS3p7LPREIhcglLgCiCUfCivrO-6j1NofA6VAxxgP0HV5N7NpwT95EKdWBuqaldK3tCnsdwJ1DCZfi7_xMClNcb4w_i6Cb-CZMnmYcZ5d0-aRIv-22kv6nIDktKjunWDgpNRB2WWboSKczTzn6vpHrsDy_pKLY2wCTXboe1MFQU0HpH-3mHW4C1vTNS1s-8rmv0o_Ci4N8Qc13gPU5OtocWcmK5_iLT9hUDCUp7vWNrOVecymSTZocl5QAmAJ2gHu8vR1_]--></g></svg>