<svg xmlns="http://www.w3.org/2000/svg" xmlns:xlink="http://www.w3.org/1999/xlink" contentStyleType="text/css" data-diagram-type="SEQUENCE" height="716px" preserveAspectRatio="none" style="width:1062px;height:716px;background:#FEFEFE;" version="1.1" viewBox="0 0 1062 716" width="1062px" zoomAndPan="magnify"><title>**Approach 1: InMemoryContainer &#8212; LINQ Query Flow (Abbreviated)**</title><defs/><g><rect fill="#FEFEFE" height="716" style="stroke:none;stroke-width:1;" width="1062" x="0" y="0"/><text fill="#000000" font-family="sans-serif" font-size="14" font-weight="bold" lengthAdjust="spacing" textLength="446.9336" x="309.248" y="29.5332">Approach 1: InMemoryContainer &#8212; LINQ Query Flow (Abbreviated)</text><g><title>InMemoryContainer</title><rect fill="#FFFFFF" height="136.7578" style="stroke:#181818;stroke-width:1;" width="10" x="363.1367" y="206.2734"/></g><g><title>CosmosOverridable</title><rect fill="#FFFFFF" height="103.3125" style="stroke:#181818;stroke-width:1;" width="10" x="774.6582" y="420.0859"/></g><g><title>InMemoryFeedIterator.T.</title><rect fill="#FFFFFF" height="30.3516" style="stroke:#181818;stroke-width:1;" width="10" x="952.73" y="579.1016"/></g><rect fill="none" height="79.0547" style="stroke:#000000;stroke-width:1.5;" width="1046.4297" x="10" y="538.3984"/><g><title>Test Code</title><rect fill="#000000" fill-opacity="0.00000" height="513.2344" width="8" x="51.293" y="121.2188"/><line style="stroke:#181818;stroke-width:0.5;stroke-dasharray:5,5;" x1="55" x2="55" y1="121.2188" y2="634.4531"/></g><g><title>InMemoryFeedIteratorSetup</title><rect fill="#000000" fill-opacity="0.00000" height="513.2344" width="8" x="191.127" y="121.2188"/><line style="stroke:#181818;stroke-width:0.5;stroke-dasharray:5,5;" x1="194.5859" x2="194.5859" y1="121.2188" y2="634.4531"/></g><g><title>InMemoryContainer</title><rect fill="#000000" fill-opacity="0.00000" height="513.2344" width="8" x="364.1367" y="121.2188"/><line style="stroke:#181818;stroke-width:0.5;stroke-dasharray:5,5;" x1="367.668" x2="367.668" y1="121.2188" y2="634.4531"/></g><g><title>IOrderedQueryable.T.</title><rect fill="#000000" fill-opacity="0.00000" height="327.125" width="8" x="606.9141" y="307.3281"/><line style="stroke:#181818;stroke-width:0.5;stroke-dasharray:5,5;" x1="610.542" x2="610.542" y1="307.3281" y2="634.4531"/></g><g><title>CosmosOverridable</title><rect fill="#000000" fill-opacity="0.00000" height="513.2344" width="8" x="775.6582" y="121.2188"/><line style="stroke:#181818;stroke-width:0.5;stroke-dasharray:5,5;" x1="779.2861" x2="779.2861" y1="121.2188" y2="634.4531"/></g><g><title>InMemoryFeedIterator.T.</title><rect fill="#000000" fill-opacity="0.00000" height="144.7109" width="8" x="953.73" y="489.7422"/><line style="stroke:#181818;stroke-width:0.5;stroke-dasharray:5,5;" x1="957.0303" x2="957.0303" y1="489.7422" y2="634.4531"/></g><g class="participant participant-head" data-participant="Test"><text fill="#000000" font-family="sans-serif" font-size="14" lengthAdjust="spacing" textLength="64.5859" x="20" y="118.1426">Test Code</text><ellipse cx="55.293" cy="52.1094" fill="#E2E2F0" rx="8" ry="8" style="stroke:#181818;stroke-width:0.5;"/><path d="M55.293,60.1094 L55.293,87.1094 M42.293,68.1094 L68.293,68.1094 M55.293,87.1094 L42.293,102.1094 M55.293,87.1094 L68.293,102.1094" fill="none" style="stroke:#181818;stroke-width:0.5;"/></g><g class="participant participant-tail" data-participant="Test"><text fill="#000000" font-family="sans-serif" font-size="14" lengthAdjust="spacing" textLength="64.5859" x="20" y="647.9863">Test Code</text><ellipse cx="55.293" cy="659.5625" fill="#E2E2F0" rx="8" ry="8" style="stroke:#181818;stroke-width:0.5;"/><path d="M55.293,667.5625 L55.293,694.5625 M42.293,675.5625 L68.293,675.5625 M55.293,694.5625 L42.293,709.5625 M55.293,694.5625 L68.293,709.5625" fill="none" style="stroke:#181818;stroke-width:0.5;"/></g><g class="participant participant-head" data-participant="Setup"><rect fill="#E2E2F0" height="31.6094" rx="2.5" ry="2.5" style="stroke:#181818;stroke-width:0.5;" width="189.082" x="100.5859" y="88.6094"/><text fill="#000000" font-family="sans-serif" font-size="14" lengthAdjust="spacing" textLength="175.082" x="107.5859" y="110.1426">InMemoryFeedIteratorSetup</text></g><g class="participant participant-tail" data-participant="Setup"><rect fill="#E2E2F0" height="31.6094" rx="2.5" ry="2.5" style="stroke:#181818;stroke-width:0.5;" width="189.082" x="100.5859" y="633.4531"/><text fill="#000000" font-family="sans-serif" font-size="14" lengthAdjust="spacing" textLength="175.082" x="107.5859" y="654.9863">InMemoryFeedIteratorSetup</text></g><g class="participant participant-head" data-participant="IMC"><rect fill="#E2E2F0" height="31.6094" rx="2.5" ry="2.5" style="stroke:#181818;stroke-width:0.5;" width="136.9375" x="299.668" y="88.6094"/><text fill="#000000" font-family="sans-serif" font-size="14" lengthAdjust="spacing" textLength="122.9375" x="306.668" y="110.1426">InMemoryContainer</text></g><g class="participant participant-tail" data-participant="IMC"><rect fill="#E2E2F0" height="31.6094" rx="2.5" ry="2.5" style="stroke:#181818;stroke-width:0.5;" width="136.9375" x="299.668" y="633.4531"/><text fill="#000000" font-family="sans-serif" font-size="14" lengthAdjust="spacing" textLength="122.9375" x="306.668" y="654.9863">InMemoryContainer</text></g><g class="participant participant-tail" data-participant="Queryable"><rect fill="#E2E2F0" height="31.6094" rx="2.5" ry="2.5" style="stroke:#181818;stroke-width:0.5;" width="158.7441" x="531.542" y="633.4531"/><text fill="#000000" font-family="sans-serif" font-size="14" lengthAdjust="spacing" textLength="144.7441" x="538.542" y="654.9863">IOrderedQueryable&lt;T&gt;</text></g><g class="participant participant-head" data-participant="Ext"><rect fill="#E2E2F0" height="49.2188" rx="2.5" ry="2.5" style="stroke:#181818;stroke-width:0.5;" width="158.7441" x="700.2861" y="71"/><text fill="#000000" font-family="sans-serif" font-size="14" lengthAdjust="spacing" textLength="123.71" x="717.8032" y="92.5332">CosmosOverridable</text><text fill="#000000" font-family="sans-serif" font-size="14" lengthAdjust="spacing" textLength="144.7441" x="707.2861" y="110.1426">FeedIteratorExtensions</text></g><g class="participant participant-tail" data-participant="Ext"><rect fill="#E2E2F0" height="49.2188" rx="2.5" ry="2.5" style="stroke:#181818;stroke-width:0.5;" width="158.7441" x="700.2861" y="633.4531"/><text fill="#000000" font-family="sans-serif" font-size="14" lengthAdjust="spacing" textLength="123.71" x="717.8032" y="654.9863">CosmosOverridable</text><text fill="#000000" font-family="sans-serif" font-size="14" lengthAdjust="spacing" textLength="144.7441" x="707.2861" y="672.5957">FeedIteratorExtensions</text></g><g class="participant participant-tail" data-participant="FeedIter"><rect fill="#E2E2F0" height="31.6094" rx="2.5" ry="2.5" style="stroke:#181818;stroke-width:0.5;" width="177.3994" x="869.0303" y="633.4531"/><text fill="#000000" font-family="sans-serif" font-size="14" lengthAdjust="spacing" textLength="163.3994" x="876.0303" y="654.9863">InMemoryFeedIterator&lt;T&gt;</text></g><g><title>InMemoryContainer</title><rect fill="#FFFFFF" height="136.7578" style="stroke:#181818;stroke-width:1;" width="10" x="363.1367" y="206.2734"/></g><g><title>CosmosOverridable</title><rect fill="#FFFFFF" height="103.3125" style="stroke:#181818;stroke-width:1;" width="10" x="774.6582" y="420.0859"/></g><g><title>InMemoryFeedIterator.T.</title><rect fill="#FFFFFF" height="30.3516" style="stroke:#181818;stroke-width:1;" width="10" x="952.73" y="579.1016"/></g><path d="M73,136.2188 L73,178.2188 L317,178.2188 L317,146.2188 L307,136.2188 L73,136.2188" fill="#FEFFDD" style="stroke:#181818;stroke-width:0.5;"/><path d="M307,136.2188 L307,146.2188 L317,146.2188 L307,136.2188" fill="#FEFFDD" style="stroke:#181818;stroke-width:0.5;"/><text fill="#000000" font-family="sans-serif" font-size="13" lengthAdjust="spacing" textLength="158.2471" x="79" y="154.7139">Called once per test fixture:</text><text fill="#000000" font-family="sans-serif" font-size="13" lengthAdjust="spacing" textLength="223.2534" x="79" y="171.0654">InMemoryFeedIteratorSetup.Register()</text><g class="message" data-participant-1="Test" data-participant-2="IMC"><polygon fill="#181818" points="351.1367,202.2734,361.1367,206.2734,351.1367,210.2734,355.1367,206.2734" style="stroke:#181818;stroke-width:1;"/><line style="stroke:#181818;stroke-width:2;" x1="55.293" x2="357.1367" y1="206.2734" y2="206.2734"/><text fill="#000000" font-family="sans-serif" font-size="13" lengthAdjust="spacing" textLength="162.5762" x="62.293" y="201.417">GetItemLinqQueryable&lt;T&gt;()</text></g><g class="message" data-participant-1="IMC" data-participant-2="IMC"><line style="stroke:#181818;stroke-width:2;" x1="373.1367" x2="415.1367" y1="252.9766" y2="252.9766"/><line style="stroke:#181818;stroke-width:2;" x1="415.1367" x2="415.1367" y1="252.9766" y2="265.9766"/><line style="stroke:#181818;stroke-width:2;" x1="374.1367" x2="415.1367" y1="265.9766" y2="265.9766"/><polygon fill="#181818" points="384.1367,261.9766,374.1367,265.9766,384.1367,269.9766,380.1367,265.9766" style="stroke:#181818;stroke-width:1;"/><text fill="#000000" font-family="sans-serif" font-size="13" lengthAdjust="spacing" textLength="143.0317" x="380.1367" y="231.7686">GetAllItemsForPartition()</text><text fill="#000000" font-family="sans-serif" font-size="13" lengthAdjust="spacing" textLength="184.9897" x="380.1367" y="248.1201">&#8594; Deserialize &#8594; .AsQueryable()</text></g><g class="message" data-participant-1="IMC" data-participant-2="Queryable"><polygon fill="#181818" points="519.542,308.6797,529.542,312.6797,519.542,316.6797,523.542,312.6797" style="stroke:#181818;stroke-width:1;"/><line style="stroke:#181818;stroke-width:2;" x1="373.1367" x2="525.542" y1="312.6797" y2="312.6797"/><text fill="#000000" font-family="sans-serif" font-size="13" lengthAdjust="spacing" textLength="134.4053" x="380.1367" y="291.4717">IOrderedQueryable&lt;T&gt;</text><text fill="#000000" font-family="sans-serif" font-size="13" lengthAdjust="spacing" textLength="102.5718" x="380.1367" y="307.8232">(LINQ-to-Objects)</text></g><rect fill="#E2E2F0" height="31.6094" rx="2.5" ry="2.5" style="stroke:#181818;stroke-width:0.5;" width="158.7441" x="531.542" y="278.0703"/><text fill="#000000" font-family="sans-serif" font-size="14" lengthAdjust="spacing" textLength="144.7441" x="538.542" y="299.6035">IOrderedQueryable&lt;T&gt;</text><g class="message" data-participant-1="IMC" data-participant-2="Test"><polygon fill="#181818" points="66.293,339.0313,56.293,343.0313,66.293,347.0313,62.293,343.0313" style="stroke:#181818;stroke-width:1;"/><line style="stroke:#181818;stroke-width:2;stroke-dasharray:2,2;" x1="60.293" x2="367.1367" y1="343.0313" y2="343.0313"/><text fill="#000000" font-family="sans-serif" font-size="13" lengthAdjust="spacing" textLength="134.4053" x="72.293" y="338.1748">IOrderedQueryable&lt;T&gt;</text></g><g class="message" data-participant-1="Test" data-participant-2="Queryable"><polygon fill="#181818" points="598.9141,385.7344,608.9141,389.7344,598.9141,393.7344,602.9141,389.7344" style="stroke:#181818;stroke-width:1;"/><line style="stroke:#181818;stroke-width:2;" x1="55.293" x2="604.9141" y1="389.7344" y2="389.7344"/><text fill="#000000" font-family="sans-serif" font-size="13" lengthAdjust="spacing" textLength="181.3018" x="62.293" y="368.5264">.Where() / .Select() / .OrderBy()</text><text fill="#000000" font-family="sans-serif" font-size="13" lengthAdjust="spacing" textLength="161.1035" x="62.293" y="384.8779">(LINQ-to-Objects operators)</text></g><g class="message" data-participant-1="Test" data-participant-2="Ext"><polygon fill="#181818" points="762.6582,416.0859,772.6582,420.0859,762.6582,424.0859,766.6582,420.0859" style="stroke:#181818;stroke-width:1;"/><line style="stroke:#181818;stroke-width:2;" x1="55.293" x2="768.6582" y1="420.0859" y2="420.0859"/><text fill="#000000" font-family="sans-serif" font-size="13" lengthAdjust="spacing" textLength="165.4517" x="62.293" y="415.2295">.ToFeedIteratorOverridable()</text></g><g class="message" data-participant-1="Ext" data-participant-2="Setup"><polygon fill="#181818" points="206.127,446.4375,196.127,450.4375,206.127,454.4375,202.127,450.4375" style="stroke:#181818;stroke-width:1;"/><line style="stroke:#181818;stroke-width:2;" x1="200.127" x2="773.6582" y1="450.4375" y2="450.4375"/><text fill="#000000" font-family="sans-serif" font-size="13" lengthAdjust="spacing" textLength="199.4053" x="212.127" y="445.5811">CreateInMemoryFeedIterator&lt;T&gt;()</text></g><g class="message" data-participant-1="Setup" data-participant-2="FeedIter"><polygon fill="#181818" points="857.0303,476.7891,867.0303,480.7891,857.0303,484.7891,861.0303,480.7891" style="stroke:#181818;stroke-width:1;"/><line style="stroke:#181818;stroke-width:2;" x1="195.127" x2="863.0303" y1="480.7891" y2="480.7891"/><text fill="#000000" font-family="sans-serif" font-size="13" lengthAdjust="spacing" textLength="151.728" x="202.127" y="475.9326">InMemoryFeedIterator&lt;T&gt;</text></g><rect fill="#E2E2F0" height="31.6094" rx="2.5" ry="2.5" style="stroke:#181818;stroke-width:0.5;" width="177.3994" x="869.0303" y="458.4375"/><text fill="#000000" font-family="sans-serif" font-size="14" lengthAdjust="spacing" textLength="163.3994" x="876.0303" y="479.9707">InMemoryFeedIterator&lt;T&gt;</text><g class="message" data-participant-1="Ext" data-participant-2="Test"><polygon fill="#181818" points="66.293,519.3984,56.293,523.3984,66.293,527.3984,62.293,523.3984" style="stroke:#181818;stroke-width:1;"/><line style="stroke:#181818;stroke-width:2;stroke-dasharray:2,2;" x1="60.293" x2="778.6582" y1="523.3984" y2="523.3984"/><text fill="#000000" font-family="sans-serif" font-size="13" lengthAdjust="spacing" textLength="93.939" x="72.293" y="518.542">FeedIterator&lt;T&gt;</text></g><path d="M10,538.3984 L82.4346,538.3984 L82.4346,546.75 L72.4346,556.75 L10,556.75 L10,538.3984" fill="#EEEEEE" style="stroke:#000000;stroke-width:1.5;"/><rect fill="none" height="79.0547" style="stroke:#000000;stroke-width:1.5;" width="1046.4297" x="10" y="538.3984"/><text fill="#000000" font-family="sans-serif" font-size="13" font-weight="bold" lengthAdjust="spacing" textLength="27.4346" x="25" y="552.8936">loop</text><text fill="#000000" font-family="sans-serif" font-size="11" font-weight="bold" lengthAdjust="spacing" textLength="124.083" x="97.4346" y="551.8174">[while HasMoreResults]</text><g class="message" data-participant-1="Test" data-participant-2="FeedIter"><polygon fill="#181818" points="940.73,575.1016,950.73,579.1016,940.73,583.1016,944.73,579.1016" style="stroke:#181818;stroke-width:1;"/><line style="stroke:#181818;stroke-width:2;" x1="55.293" x2="946.73" y1="579.1016" y2="579.1016"/><text fill="#000000" font-family="sans-serif" font-size="13" lengthAdjust="spacing" textLength="101.8672" x="62.293" y="574.2451">ReadNextAsync()</text></g><g class="message" data-participant-1="FeedIter" data-participant-2="Test"><polygon fill="#181818" points="66.293,605.4531,56.293,609.4531,66.293,613.4531,62.293,609.4531" style="stroke:#181818;stroke-width:1;"/><line style="stroke:#181818;stroke-width:2;stroke-dasharray:2,2;" x1="60.293" x2="956.73" y1="609.4531" y2="609.4531"/><text fill="#000000" font-family="sans-serif" font-size="13" lengthAdjust="spacing" textLength="111.2935" x="72.293" y="604.5967">FeedResponse&lt;T&gt;</text></g><!--SRC=[XLF1RXen4BtxAqRa0aHGjKTKHTfiGuiKGaEGUk5YTgV1nNWsjZT0Jptb0wf-ORwaOoyiX88gBklnUs_cFGzUUOtGRYT5OKbcStZVWu4PufBi9YNZfJ9euVNN7xWTtDt3VObs0trDAsWcivd5PoKzvgrsMmYtKAQGLYvX9hF5ewNIv2bfid3Hlmc_0uJ3fn9DXecrj9hCLROmw1ny449cdXcD2JeFAUNO0EaWd0GplSfK8Os7ncx6Fc8-y6WbinxGbqN4nw_JXDfK10w6wH5iP7Eqc4UZSgRnu-Gg8kl2MtnARabkz8pMgZnSJytXI3ThZyOfCYwAyF7_DdOTTpKX37a4uXvROm2fr1fp88uG2gxx4DTtjVQbnHxVdusdEyP7vRZIR0aqEGHf8MBQdQiG1rnUGWy-esVQybQPfyCac1GWMsI49Le7fEkJ_HgSUJRRR4tDwyjl-8GEhP9Q_KG8vsxYQhMzL5tYDMJDKoymDSsmVXrFdT7i1sRURTbChsRld67klUtRzA3xRSx0PWlUGVS1DGjMtr7WUXFcFsu8L5GnSkjQaz-pogixeSEe3_Q1VGOKWsF-Z4qjyd_cpCiplC8nONUrpUKqeL9_ayCnGcYY0bPpnTw_I3SaYsDqfVQEDsLdfMuM_OnHvdUuzedRc8ndWltzlxrOhE0DZt7pJec_]--></g></svg>