<svg xmlns="http://www.w3.org/2000/svg" xmlns:xlink="http://www.w3.org/1999/xlink" contentStyleType="text/css" data-diagram-type="ACTIVITY" height="1127px" preserveAspectRatio="none" style="width:633px;height:1127px;background:#FEFEFE;" version="1.1" viewBox="0 0 633 1127" width="633px" zoomAndPan="magnify"><title>**Approach 2: InMemoryCosmosClient + InMemoryContainer &#8212; Query Flow (Abbreviated)**</title><defs/><g><rect fill="#FEFEFE" height="1127" style="stroke:none;stroke-width:1;" width="633" x="0" y="0"/><g class="title" data-source-line="1"><text fill="#000000" font-family="sans-serif" font-size="14" font-weight="bold" lengthAdjust="spacing" textLength="585.8057" x="22.3594" y="34.5332">Approach 2: InMemoryCosmosClient + InMemoryContainer &#8212; Query Flow (Abbreviated)</text></g><ellipse cx="159.7158" cy="58.6094" fill="#222222" rx="10" ry="10" style="stroke:#222222;stroke-width:1;"/><rect fill="none" height="84.7031" style="stroke:#666666;stroke-width:1.5;" width="273.4316" x="23" y="78.6094"/><path d="M97.5859,78.6094 L97.5859,89.2188 L87.5859,99.2188 L23,99.2188" fill="none" style="stroke:#666666;stroke-width:1.5;"/><text fill="#000000" font-family="sans-serif" font-size="14" lengthAdjust="spacing" textLength="64.5859" x="26" y="94.1426">Test Code</text><rect fill="#E8F4FD" height="35.0938" rx="12.5" ry="12.5" style="stroke:#333333;stroke-width:0.5;" width="253.4316" x="33" y="116.2188"/><text fill="#000000" font-family="sans-serif" font-size="12" lengthAdjust="spacing" textLength="20.6719" x="43" y="138.6758">Call</text><text fill="#000000" font-family="sans-serif" font-size="12" font-weight="bold" lengthAdjust="spacing" textLength="76.0078" x="67.0059" y="138.6758">GetContainer</text><text fill="#000000" font-family="sans-serif" font-size="12" lengthAdjust="spacing" textLength="133.418" x="143.0137" y="138.6758">(databaseId, containerId)</text><rect fill="none" height="99.7969" style="stroke:#666666;stroke-width:1.5;" width="231.7539" x="43.8389" y="173.3125"/><path d="M203.2109,173.3125 L203.2109,183.9219 L193.2109,193.9219 L43.8389,193.9219" fill="none" style="stroke:#666666;stroke-width:1.5;"/><text fill="#000000" font-family="sans-serif" font-size="14" lengthAdjust="spacing" textLength="149.3721" x="46.8389" y="188.8457">InMemoryCosmosClient</text><rect fill="#E8F4FD" height="50.1875" rx="12.5" ry="12.5" style="stroke:#333333;stroke-width:0.5;" width="211.7539" x="53.8389" y="210.9219"/><text fill="#000000" font-family="sans-serif" font-size="12" lengthAdjust="spacing" textLength="186.7852" x="63.8389" y="233.3789">_databases.GetOrAdd(databaseId)</text><text fill="#000000" font-family="sans-serif" font-size="12" lengthAdjust="spacing" textLength="10.3535" x="63.8389" y="248.4727">&#8594;</text><text fill="#000000" font-family="sans-serif" font-size="12" font-weight="bold" lengthAdjust="spacing" textLength="110.0391" x="77.5264" y="248.4727">InMemoryDatabase</text><text fill="#000000" font-family="sans-serif" font-size="12" lengthAdjust="spacing" textLength="64.6934" x="190.8994" y="248.4727">[lazy create]</text><rect fill="none" height="99.7969" style="stroke:#666666;stroke-width:1.5;" width="234.3965" x="42.5176" y="283.1094"/><path d="M174.6826,283.1094 L174.6826,293.7188 L164.6826,303.7188 L42.5176,303.7188" fill="none" style="stroke:#666666;stroke-width:1.5;"/><text fill="#000000" font-family="sans-serif" font-size="14" lengthAdjust="spacing" textLength="122.165" x="45.5176" y="298.6426">InMemoryDatabase</text><rect fill="#E8F4FD" height="50.1875" rx="12.5" ry="12.5" style="stroke:#333333;stroke-width:0.5;" width="214.3965" x="52.5176" y="320.7188"/><text fill="#000000" font-family="sans-serif" font-size="12" lengthAdjust="spacing" textLength="186.7617" x="62.5176" y="343.1758">_containers.GetOrAdd(containerId)</text><text fill="#000000" font-family="sans-serif" font-size="12" lengthAdjust="spacing" textLength="10.3535" x="62.5176" y="358.2695">&#8594;</text><text fill="#000000" font-family="sans-serif" font-size="12" font-weight="bold" lengthAdjust="spacing" textLength="112.6816" x="76.2051" y="358.2695">InMemoryContainer</text><text fill="#000000" font-family="sans-serif" font-size="12" lengthAdjust="spacing" textLength="64.6934" x="192.2207" y="358.2695">[lazy create]</text><rect fill="none" height="139.7969" style="stroke:#666666;stroke-width:1.5;" width="267.4023" x="26.0146" y="392.9063"/><path d="M100.6006,392.9063 L100.6006,403.5156 L90.6006,413.5156 L26.0146,413.5156" fill="none" style="stroke:#666666;stroke-width:1.5;"/><text fill="#000000" font-family="sans-serif" font-size="14" lengthAdjust="spacing" textLength="64.5859" x="29.0146" y="408.4395">Test Code</text><rect fill="#E8F4FD" height="35.0938" rx="12.5" ry="12.5" style="stroke:#333333;stroke-width:0.5;" width="235.4199" x="42.0059" y="430.5156"/><text fill="#000000" font-family="sans-serif" font-size="12" lengthAdjust="spacing" textLength="215.4199" x="52.0059" y="452.9727">Receive Container (InMemoryContainer)</text><rect fill="#E8F4FD" height="35.0938" rx="12.5" ry="12.5" style="stroke:#333333;stroke-width:0.5;" width="247.4023" x="36.0146" y="485.6094"/><text fill="#000000" font-family="sans-serif" font-size="12" lengthAdjust="spacing" textLength="20.6719" x="46.0146" y="508.0664">Call</text><text fill="#000000" font-family="sans-serif" font-size="12" font-weight="bold" lengthAdjust="spacing" textLength="142.0488" x="70.0205" y="508.0664">GetItemQueryIterator&lt;T&gt;</text><text fill="#000000" font-family="sans-serif" font-size="12" lengthAdjust="spacing" textLength="61.3477" x="212.0693" y="508.0664">(queryText)</text><rect fill="none" height="84.7031" style="stroke:#666666;stroke-width:1.5;" width="150.6777" x="84.377" y="542.7031"/><path d="M217.3145,542.7031 L217.3145,553.3125 L207.3145,563.3125 L84.377,563.3125" fill="none" style="stroke:#666666;stroke-width:1.5;"/><text fill="#000000" font-family="sans-serif" font-size="14" lengthAdjust="spacing" textLength="122.9375" x="87.377" y="558.2363">InMemoryContainer</text><rect fill="#E8F4FD" height="35.0938" rx="12.5" ry="12.5" style="stroke:#333333;stroke-width:0.5;" width="130.6777" x="94.377" y="580.3125"/><text fill="#000000" font-family="sans-serif" font-size="12" lengthAdjust="spacing" textLength="110.6777" x="104.377" y="602.7695">FilterItemsByQuery()</text><rect fill="none" height="84.7031" style="stroke:#666666;stroke-width:1.5;" width="270.4199" x="24.5059" y="637.4063"/><path d="M147.3193,637.4063 L147.3193,648.0156 L137.3193,658.0156 L24.5059,658.0156" fill="none" style="stroke:#666666;stroke-width:1.5;"/><text fill="#000000" font-family="sans-serif" font-size="14" lengthAdjust="spacing" textLength="112.8135" x="27.5059" y="652.9395">CosmosSqlParser</text><rect fill="#E8F4FD" height="35.0938" rx="12.5" ry="12.5" style="stroke:#333333;stroke-width:0.5;" width="250.4199" x="34.5059" y="675.0156"/><text fill="#000000" font-family="sans-serif" font-size="12" lengthAdjust="spacing" textLength="230.4199" x="44.5059" y="697.4727">Parse(queryText) &#8594; CosmosSqlQuery AST</text><rect fill="none" height="154.8906" style="stroke:#666666;stroke-width:1.5;" width="263.752" x="27.8398" y="732.1094"/><path d="M160.7773,732.1094 L160.7773,742.7188 L150.7773,752.7188 L27.8398,752.7188" fill="none" style="stroke:#666666;stroke-width:1.5;"/><text fill="#000000" font-family="sans-serif" font-size="14" lengthAdjust="spacing" textLength="122.9375" x="30.8398" y="747.6426">InMemoryContainer</text><rect fill="#E8F4FD" height="50.1875" rx="12.5" ry="12.5" style="stroke:#333333;stroke-width:0.5;" width="212.8262" x="53.3027" y="769.7188"/><text fill="#000000" font-family="sans-serif" font-size="12" lengthAdjust="spacing" textLength="192.8262" x="63.3027" y="792.1758">WHERE / ORDER BY / SELECT / &#8230;</text><text fill="#000000" font-family="sans-serif" font-size="12" lengthAdjust="spacing" textLength="130.0723" x="63.3027" y="807.2695">(identical to Approach 1)</text><rect fill="#E8F4FD" height="35.0938" rx="12.5" ry="12.5" style="stroke:#333333;stroke-width:0.5;" width="243.752" x="37.8398" y="839.9063"/><text fill="#000000" font-family="sans-serif" font-size="12" lengthAdjust="spacing" textLength="73.043" x="47.8398" y="862.3633">Deserialize &#8594;</text><text fill="#000000" font-family="sans-serif" font-size="12" font-weight="bold" lengthAdjust="spacing" textLength="147.375" x="124.2168" y="862.3633">InMemoryFeedIterator&lt;T&gt;</text><rect fill="none" height="177.583" style="stroke:#666666;stroke-width:1.5;" width="611.5244" x="11" y="897"/><path d="M85.5859,897 L85.5859,907.6094 L75.5859,917.6094 L11,917.6094" fill="none" style="stroke:#666666;stroke-width:1.5;"/><text fill="#000000" font-family="sans-serif" font-size="14" lengthAdjust="spacing" textLength="64.5859" x="14" y="912.5332">Test Code</text><path d="M298.5947,981.5283 L298.5947,1007.0557 L278.5947,1011.0557 L298.5947,1015.0557 L298.5947,1040.583 A0,0 0 0 0 298.5947,1040.583 L594.5244,1040.583 A0,0 0 0 0 594.5244,1040.583 L594.5244,991.5283 L584.5244,981.5283 L298.5947,981.5283 A0,0 0 0 0 298.5947,981.5283" fill="#FEFFDD" style="stroke:#181818;stroke-width:0.5;"/><path d="M584.5244,981.5283 L584.5244,991.5283 L594.5244,991.5283 L584.5244,981.5283" fill="#FEFFDD" style="stroke:#181818;stroke-width:0.5;"/><text fill="#000000" font-family="sans-serif" font-size="13" lengthAdjust="spacing" textLength="224.0088" x="304.5947" y="1000.0234">LINQ flow also identical to Approach 1:</text><text fill="#000000" font-family="sans-serif" font-size="13" lengthAdjust="spacing" textLength="274.9297" x="304.5947" y="1016.375">GetItemLinqQueryable&lt;T&gt;() &#8594; LINQ-to-Objects</text><text fill="#000000" font-family="sans-serif" font-size="13" lengthAdjust="spacing" textLength="180.2798" x="304.5947" y="1032.7266">&#8594; .ToFeedIteratorOverridable()</text><rect fill="#E8F4FD" height="35.0938" rx="12.5" ry="12.5" style="stroke:#333333;stroke-width:0.5;" width="237.7578" x="40.8369" y="993.5088"/><text fill="#000000" font-family="sans-serif" font-size="12" lengthAdjust="spacing" textLength="107.7188" x="50.8369" y="1015.9658">ReadNextAsync() &#8594;</text><text fill="#000000" font-family="sans-serif" font-size="12" font-weight="bold" lengthAdjust="spacing" textLength="106.7051" x="161.8896" y="1015.9658">FeedResponse&lt;T&gt;</text><polygon fill="#E8F4FD" points="116.0059,934.6094,203.4258,934.6094,215.4258,946.6094,203.4258,958.6094,116.0059,958.6094,104.0059,946.6094,116.0059,934.6094" style="stroke:#333333;stroke-width:0.5;"/><text fill="#000000" font-family="sans-serif" font-size="11" lengthAdjust="spacing" textLength="17.1177" x="163.7158" y="970.0283">yes</text><text fill="#000000" font-family="sans-serif" font-size="11" lengthAdjust="spacing" textLength="87.4199" x="116.0059" y="951.1104">HasMoreResults?</text><text fill="#000000" font-family="sans-serif" font-size="11" lengthAdjust="spacing" textLength="12.2354" x="91.7705" y="944.1924">no</text><ellipse cx="159.7158" cy="1105.583" fill="none" rx="11" ry="11" style="stroke:#222222;stroke-width:1;"/><ellipse cx="159.7158" cy="1105.583" fill="#222222" rx="6" ry="6" style="stroke:#222222;stroke-width:1;"/><line style="stroke:#181818;stroke-width:1;" x1="159.7158" x2="159.7158" y1="68.6094" y2="116.2188"/><polygon fill="#181818" points="155.7158,106.2188,159.7158,116.2188,163.7158,106.2188,159.7158,110.2188" style="stroke:#181818;stroke-width:1;"/><line style="stroke:#181818;stroke-width:1;" x1="159.7158" x2="159.7158" y1="151.3125" y2="210.9219"/><polygon fill="#181818" points="155.7158,200.9219,159.7158,210.9219,163.7158,200.9219,159.7158,204.9219" style="stroke:#181818;stroke-width:1;"/><line style="stroke:#181818;stroke-width:1;" x1="159.7158" x2="159.7158" y1="261.1094" y2="320.7188"/><polygon fill="#181818" points="155.7158,310.7188,159.7158,320.7188,163.7158,310.7188,159.7158,314.7188" style="stroke:#181818;stroke-width:1;"/><line style="stroke:#181818;stroke-width:1;" x1="159.7158" x2="159.7158" y1="465.6094" y2="485.6094"/><polygon fill="#181818" points="155.7158,475.6094,159.7158,485.6094,163.7158,475.6094,159.7158,479.6094" style="stroke:#181818;stroke-width:1;"/><line style="stroke:#181818;stroke-width:1;" x1="159.7158" x2="159.7158" y1="370.9063" y2="430.5156"/><polygon fill="#181818" points="155.7158,420.5156,159.7158,430.5156,163.7158,420.5156,159.7158,424.5156" style="stroke:#181818;stroke-width:1;"/><line style="stroke:#181818;stroke-width:1;" x1="159.7158" x2="159.7158" y1="520.7031" y2="580.3125"/><polygon fill="#181818" points="155.7158,570.3125,159.7158,580.3125,163.7158,570.3125,159.7158,574.3125" style="stroke:#181818;stroke-width:1;"/><line style="stroke:#181818;stroke-width:1;" x1="159.7158" x2="159.7158" y1="615.4063" y2="675.0156"/><polygon fill="#181818" points="155.7158,665.0156,159.7158,675.0156,163.7158,665.0156,159.7158,669.0156" style="stroke:#181818;stroke-width:1;"/><line style="stroke:#181818;stroke-width:1;" x1="159.7158" x2="159.7158" y1="819.9063" y2="839.9063"/><polygon fill="#181818" points="155.7158,829.9063,159.7158,839.9063,163.7158,829.9063,159.7158,833.9063" style="stroke:#181818;stroke-width:1;"/><line style="stroke:#181818;stroke-width:1;" x1="159.7158" x2="159.7158" y1="710.1094" y2="769.7188"/><polygon fill="#181818" points="155.7158,759.7188,159.7158,769.7188,163.7158,759.7188,159.7158,763.7188" style="stroke:#181818;stroke-width:1;"/><line style="stroke:#181818;stroke-width:1;" x1="159.7158" x2="159.7158" y1="958.6094" y2="993.5088"/><polygon fill="#181818" points="155.7158,983.5088,159.7158,993.5088,163.7158,983.5088,159.7158,987.5088" style="stroke:#181818;stroke-width:1;"/><line style="stroke:#181818;stroke-width:1;" x1="159.7158" x2="159.7158" y1="1028.6025" y2="1050.583"/><line style="stroke:#181818;stroke-width:1;" x1="159.7158" x2="606.5244" y1="1050.583" y2="1050.583"/><polygon fill="#181818" points="602.5244,1002.1377,606.5244,992.1377,610.5244,1002.1377,606.5244,998.1377" style="stroke:#181818;stroke-width:1;"/><line style="stroke:#181818;stroke-width:1;" x1="606.5244" x2="606.5244" y1="946.6094" y2="1050.583"/><line style="stroke:#181818;stroke-width:1;" x1="606.5244" x2="215.4258" y1="946.6094" y2="946.6094"/><polygon fill="#181818" points="225.4258,942.6094,215.4258,946.6094,225.4258,950.6094,221.4258,946.6094" style="stroke:#181818;stroke-width:1;"/><line style="stroke:#181818;stroke-width:1;" x1="104.0059" x2="28.8369" y1="946.6094" y2="946.6094"/><polygon fill="#181818" points="24.8369,988.1377,28.8369,998.1377,32.8369,988.1377,28.8369,992.1377" style="stroke:#181818;stroke-width:1;"/><line style="stroke:#181818;stroke-width:1;" x1="28.8369" x2="28.8369" y1="946.6094" y2="1062.583"/><line style="stroke:#181818;stroke-width:1;" x1="28.8369" x2="159.7158" y1="1062.583" y2="1062.583"/><line style="stroke:#181818;stroke-width:1;" x1="159.7158" x2="159.7158" y1="1062.583" y2="1094.583"/><polygon fill="#181818" points="155.7158,1084.583,159.7158,1094.583,163.7158,1084.583,159.7158,1088.583" style="stroke:#181818;stroke-width:1;"/><line style="stroke:#181818;stroke-width:1;" x1="159.7158" x2="159.7158" y1="875" y2="934.6094"/><polygon fill="#181818" points="155.7158,924.6094,159.7158,934.6094,163.7158,924.6094,159.7158,928.6094" style="stroke:#181818;stroke-width:1;"/><!--SRC=[ZLJHRjCm57tFLroDboIm8IYgK46WD4rOfMvbRII4449EV5dDN3kptOuC8Us93q1y0n_MBy59avAssq1vSUnppxdtt6iRPZY2xmTvhYJ9Pl2q1qDnWdEfYb3gkTGXPoWCF6nj2qEOG0Mhcrzmja1LGCpb5RX1cYfSCcAGUhxlEFg2YPmeCeUKP1VdIYu43IMN2Xx4KVcr445cs9APeYyLHLMZEftERP1TikXv_2mUj91lYJBCC2cssBhThit9s3F7oHi472Ie3OIIuW5ySm1w8U7SEl86pQPIttSfCIGb6eVq4MJD_f1wBvplMsotcLSJVseuz94b7wk0qXQjPo6h7p-jSaCngCzy7pvmSbr0fj1w-_4koGRVo6tIREcrKzyJRDLxl-AkPHFCa2qH_ew6kyTfdTeoTsXmNWsFNIXYf7gPlB8-NvPR2NurzpXRCzRYCUEMeQJJ_Q9YTFTYrzsONd8x6NeJMVsq52ixDj3rP0VJv7yJUNSSJI9u3EF989f0_xrTJgDH52PsiRhvRI4ketOSM4Ou60cRE_TaxSq0RMgCS7QDEus94UcMJVzeoDMCsLlj7XDz8XLEK2-uqQyzO1hS0dNP-QfhX9xQkWDTYCprQirIoqRaKcYijG1Gq9fJIA_K5j8WA7O-C_PqD3mzWy_b4q2ubd17aJsBhFi-OkAoifUal1IfnKkUGoCFn-aNp8okv_CeaUtwnqjKYj4oqlKScnYKkPGNM-RE7m00]--></g></svg>