<svg xmlns="http://www.w3.org/2000/svg" xmlns:xlink="http://www.w3.org/1999/xlink" contentStyleType="text/css" data-diagram-type="SEQUENCE" height="1211px" preserveAspectRatio="none" style="width:1736px;height:1211px;background:#FEFEFE;" version="1.1" viewBox="0 0 1736 1211" width="1736px" zoomAndPan="magnify"><title>**Approach 3: CosmosClient + FakeCosmosHandler &#8212; SQL Query Flow (Abbreviated)**</title><defs/><g><rect fill="#FEFEFE" height="1211" style="stroke:none;stroke-width:1;" width="1736" x="0" y="0"/><text fill="#000000" font-family="sans-serif" font-size="14" font-weight="bold" lengthAdjust="spacing" textLength="560.1572" x="584.2161" y="29.5332">Approach 3: CosmosClient + FakeCosmosHandler &#8212; SQL Query Flow (Abbreviated)</text><g><title>CosmosClient</title><rect fill="#FFFFFF" height="30.3516" style="stroke:#181818;stroke-width:1;" width="10" x="359.0649" y="387.7109"/></g><g><title>Container</title><rect fill="#FFFFFF" height="182.1094" style="stroke:#181818;stroke-width:1;" width="10" x="459.3062" y="492.7656"/></g><g><title>FakeCosmosHandler</title><rect fill="#FFFFFF" height="208.1094" style="stroke:#181818;stroke-width:1;" width="10" x="904.0073" y="835.6328"/></g><g><title>SDK FeedIterator.T.</title><rect fill="#FFFFFF" height="329.5156" style="stroke:#181818;stroke-width:1;" width="10" x="1630.6689" y="774.9297"/></g><rect fill="none" height="378.2188" style="stroke:#000000;stroke-width:1.5;" width="1709.5894" x="10" y="734.2266"/><g><title>Test Code</title><rect fill="#000000" fill-opacity="0.00000" height="1008.2266" width="8" x="51.293" y="121.2188"/><line style="stroke:#181818;stroke-width:0.5;stroke-dasharray:5,5;" x1="55" x2="55" y1="121.2188" y2="1129.4453"/></g><g><title>CosmosClient</title><rect fill="#000000" fill-opacity="0.00000" height="828.5469" width="8" x="360.0649" y="300.8984"/><line style="stroke:#181818;stroke-width:0.5;stroke-dasharray:5,5;" x1="363.4961" x2="363.4961" y1="300.8984" y2="1129.4453"/></g><g><title>Container</title><rect fill="#000000" fill-opacity="0.00000" height="1008.2266" width="8" x="460.3062" y="121.2188"/><line style="stroke:#181818;stroke-width:0.5;stroke-dasharray:5,5;" x1="463.6338" x2="463.6338" y1="121.2188" y2="1129.4453"/></g><g><title>HttpClient</title><rect fill="#000000" fill-opacity="0.00000" height="1008.2266" width="8" x="650.1304" y="121.2188"/><line style="stroke:#181818;stroke-width:0.5;stroke-dasharray:5,5;" x1="653.396" x2="653.396" y1="121.2188" y2="1129.4453"/></g><g><title>FakeCosmosHandler</title><rect fill="#000000" fill-opacity="0.00000" height="879.9609" width="8" x="905.0073" y="249.4844"/><line style="stroke:#181818;stroke-width:0.5;stroke-dasharray:5,5;" x1="908.2593" x2="908.2593" y1="249.4844" y2="1129.4453"/></g><g><title>CosmosSqlParser</title><rect fill="#000000" fill-opacity="0.00000" height="1008.2266" width="8" x="1195.1289" y="121.2188"/><line style="stroke:#181818;stroke-width:0.5;stroke-dasharray:5,5;" x1="1198.7222" x2="1198.7222" y1="121.2188" y2="1129.4453"/></g><g><title>InMemoryContainer</title><rect fill="#000000" fill-opacity="0.00000" height="922.5703" width="8" x="1337.0044" y="206.875"/><line style="stroke:#181818;stroke-width:0.5;stroke-dasharray:5,5;" x1="1340.5356" x2="1340.5356" y1="206.875" y2="1129.4453"/></g><g><title>QueryResultCache</title><rect fill="#000000" fill-opacity="0.00000" height="1008.2266" width="8" x="1481.6108" y="121.2188"/><line style="stroke:#181818;stroke-width:0.5;stroke-dasharray:5,5;" x1="1485.4731" x2="1485.4731" y1="121.2188" y2="1129.4453"/></g><g><title>SDK FeedIterator.T.</title><rect fill="#000000" fill-opacity="0.00000" height="1008.2266" width="8" x="1631.6689" y="121.2188"/><line style="stroke:#181818;stroke-width:0.5;stroke-dasharray:5,5;" x1="1634.7485" x2="1634.7485" y1="121.2188" y2="1129.4453"/></g><g class="participant participant-head" data-participant="Test"><text fill="#000000" font-family="sans-serif" font-size="14" lengthAdjust="spacing" textLength="64.5859" x="20" y="118.1426">Test Code</text><ellipse cx="55.293" cy="52.1094" fill="#E2E2F0" rx="8" ry="8" style="stroke:#181818;stroke-width:0.5;"/><path d="M55.293,60.1094 L55.293,87.1094 M42.293,68.1094 L68.293,68.1094 M55.293,87.1094 L42.293,102.1094 M55.293,87.1094 L68.293,102.1094" fill="none" style="stroke:#181818;stroke-width:0.5;"/></g><g class="participant participant-tail" data-participant="Test"><text fill="#000000" font-family="sans-serif" font-size="14" lengthAdjust="spacing" textLength="64.5859" x="20" y="1142.9785">Test Code</text><ellipse cx="55.293" cy="1154.5547" fill="#E2E2F0" rx="8" ry="8" style="stroke:#181818;stroke-width:0.5;"/><path d="M55.293,1162.5547 L55.293,1189.5547 M42.293,1170.5547 L68.293,1170.5547 M55.293,1189.5547 L42.293,1204.5547 M55.293,1189.5547 L68.293,1204.5547" fill="none" style="stroke:#181818;stroke-width:0.5;"/></g><g class="participant participant-tail" data-participant="SDK"><rect fill="#E2E2F0" height="49.2188" rx="2.5" ry="2.5" style="stroke:#181818;stroke-width:0.5;" width="101.1377" x="313.4961" y="1128.4453"/><text fill="#000000" font-family="sans-serif" font-size="14" lengthAdjust="spacing" textLength="87.1377" x="320.4961" y="1149.9785">CosmosClient</text><text fill="#000000" font-family="sans-serif" font-size="14" lengthAdjust="spacing" textLength="65.3447" x="331.3926" y="1167.5879">(real SDK)</text></g><g class="participant participant-head" data-participant="SDKContainer"><rect fill="#E2E2F0" height="49.2188" rx="2.5" ry="2.5" style="stroke:#181818;stroke-width:0.5;" width="79.3447" x="424.6338" y="71"/><text fill="#000000" font-family="sans-serif" font-size="14" lengthAdjust="spacing" textLength="60.7031" x="433.9546" y="92.5332">Container</text><text fill="#000000" font-family="sans-serif" font-size="14" lengthAdjust="spacing" textLength="65.3447" x="431.6338" y="110.1426">(real SDK)</text></g><g class="participant participant-tail" data-participant="SDKContainer"><rect fill="#E2E2F0" height="49.2188" rx="2.5" ry="2.5" style="stroke:#181818;stroke-width:0.5;" width="79.3447" x="424.6338" y="1128.4453"/><text fill="#000000" font-family="sans-serif" font-size="14" lengthAdjust="spacing" textLength="60.7031" x="433.9546" y="1149.9785">Container</text><text fill="#000000" font-family="sans-serif" font-size="14" lengthAdjust="spacing" textLength="65.3447" x="431.6338" y="1167.5879">(real SDK)</text></g><g class="participant participant-head" data-participant="Http"><rect fill="#E2E2F0" height="31.6094" rx="2.5" ry="2.5" style="stroke:#181818;stroke-width:0.5;" width="75.4688" x="616.396" y="88.6094"/><text fill="#000000" font-family="sans-serif" font-size="14" lengthAdjust="spacing" textLength="61.4688" x="623.396" y="110.1426">HttpClient</text></g><g class="participant participant-tail" data-participant="Http"><rect fill="#E2E2F0" height="31.6094" rx="2.5" ry="2.5" style="stroke:#181818;stroke-width:0.5;" width="75.4688" x="616.396" y="1128.4453"/><text fill="#000000" font-family="sans-serif" font-size="14" lengthAdjust="spacing" textLength="61.4688" x="623.396" y="1149.9785">HttpClient</text></g><g class="participant participant-tail" data-participant="Handler"><rect fill="#E2E2F0" height="31.6094" rx="2.5" ry="2.5" style="stroke:#181818;stroke-width:0.5;" width="145.4961" x="836.2593" y="1128.4453"/><text fill="#000000" font-family="sans-serif" font-size="14" lengthAdjust="spacing" textLength="131.4961" x="843.2593" y="1149.9785">FakeCosmosHandler</text></g><g class="participant participant-head" data-participant="Parser"><rect fill="#E2E2F0" height="31.6094" rx="2.5" ry="2.5" style="stroke:#181818;stroke-width:0.5;" width="126.8135" x="1135.7222" y="88.6094"/><text fill="#000000" font-family="sans-serif" font-size="14" lengthAdjust="spacing" textLength="112.8135" x="1142.7222" y="110.1426">CosmosSqlParser</text></g><g class="participant participant-tail" data-participant="Parser"><rect fill="#E2E2F0" height="31.6094" rx="2.5" ry="2.5" style="stroke:#181818;stroke-width:0.5;" width="126.8135" x="1135.7222" y="1128.4453"/><text fill="#000000" font-family="sans-serif" font-size="14" lengthAdjust="spacing" textLength="112.8135" x="1142.7222" y="1149.9785">CosmosSqlParser</text></g><g class="participant participant-tail" data-participant="IMC"><rect fill="#E2E2F0" height="31.6094" rx="2.5" ry="2.5" style="stroke:#181818;stroke-width:0.5;" width="136.9375" x="1272.5356" y="1128.4453"/><text fill="#000000" font-family="sans-serif" font-size="14" lengthAdjust="spacing" textLength="122.9375" x="1279.5356" y="1149.9785">InMemoryContainer</text></g><g class="participant participant-head" data-participant="Cache"><rect fill="#E2E2F0" height="31.6094" rx="2.5" ry="2.5" style="stroke:#181818;stroke-width:0.5;" width="132.2754" x="1419.4731" y="88.6094"/><text fill="#000000" font-family="sans-serif" font-size="14" lengthAdjust="spacing" textLength="118.2754" x="1426.4731" y="110.1426">QueryResultCache</text></g><g class="participant participant-tail" data-participant="Cache"><rect fill="#E2E2F0" height="31.6094" rx="2.5" ry="2.5" style="stroke:#181818;stroke-width:0.5;" width="132.2754" x="1419.4731" y="1128.4453"/><text fill="#000000" font-family="sans-serif" font-size="14" lengthAdjust="spacing" textLength="118.2754" x="1426.4731" y="1149.9785">QueryResultCache</text></g><g class="participant participant-head" data-participant="SDKIter"><rect fill="#E2E2F0" height="31.6094" rx="2.5" ry="2.5" style="stroke:#181818;stroke-width:0.5;" width="147.8408" x="1561.7485" y="88.6094"/><text fill="#000000" font-family="sans-serif" font-size="14" lengthAdjust="spacing" textLength="133.8408" x="1568.7485" y="110.1426">SDK FeedIterator&lt;T&gt;</text></g><g class="participant participant-tail" data-participant="SDKIter"><rect fill="#E2E2F0" height="31.6094" rx="2.5" ry="2.5" style="stroke:#181818;stroke-width:0.5;" width="147.8408" x="1561.7485" y="1128.4453"/><text fill="#000000" font-family="sans-serif" font-size="14" lengthAdjust="spacing" textLength="133.8408" x="1568.7485" y="1149.9785">SDK FeedIterator&lt;T&gt;</text></g><g><title>CosmosClient</title><rect fill="#FFFFFF" height="30.3516" style="stroke:#181818;stroke-width:1;" width="10" x="359.0649" y="387.7109"/></g><g><title>Container</title><rect fill="#FFFFFF" height="182.1094" style="stroke:#181818;stroke-width:1;" width="10" x="459.3062" y="492.7656"/></g><g><title>FakeCosmosHandler</title><rect fill="#FFFFFF" height="208.1094" style="stroke:#181818;stroke-width:1;" width="10" x="904.0073" y="835.6328"/></g><g><title>SDK FeedIterator.T.</title><rect fill="#FFFFFF" height="329.5156" style="stroke:#181818;stroke-width:1;" width="10" x="1630.6689" y="774.9297"/></g><rect fill="#EEEEEE" height="3" style="stroke:#EEEEEE;stroke-width:1;" width="1729.5894" x="0" y="152.3945"/><line style="stroke:#000000;stroke-width:1;" x1="0" x2="1729.5894" y1="152.3945" y2="152.3945"/><line style="stroke:#000000;stroke-width:1;" x1="0" x2="1729.5894" y1="155.3945" y2="155.3945"/><rect fill="#EEEEEE" height="24.3516" style="stroke:#000000;stroke-width:2;" width="53.7236" x="837.9329" y="141.2188"/><text fill="#000000" font-family="sans-serif" font-size="13" font-weight="bold" lengthAdjust="spacing" textLength="36.1118" x="843.9329" y="158.7139">Setup</text><g class="message" data-participant-1="Test" data-participant-2="IMC"><polygon fill="#181818" points="1260.5356,193.9219,1270.5356,197.9219,1260.5356,201.9219,1264.5356,197.9219" style="stroke:#181818;stroke-width:1;"/><line style="stroke:#181818;stroke-width:2;" x1="55.293" x2="1266.5356" y1="197.9219" y2="197.9219"/><text fill="#000000" font-family="sans-serif" font-size="13" lengthAdjust="spacing" textLength="159.8022" x="62.293" y="193.0654">new InMemoryContainer(&#8230;)</text></g><rect fill="#E2E2F0" height="31.6094" rx="2.5" ry="2.5" style="stroke:#181818;stroke-width:0.5;" width="136.9375" x="1272.5356" y="175.5703"/><text fill="#000000" font-family="sans-serif" font-size="14" lengthAdjust="spacing" textLength="122.9375" x="1279.5356" y="197.1035">InMemoryContainer</text><g class="message" data-participant-1="Test" data-participant-2="Handler"><polygon fill="#181818" points="824.2593,236.5313,834.2593,240.5313,824.2593,244.5313,828.2593,240.5313" style="stroke:#181818;stroke-width:1;"/><line style="stroke:#181818;stroke-width:2;" x1="55.293" x2="830.2593" y1="240.5313" y2="240.5313"/><text fill="#000000" font-family="sans-serif" font-size="13" lengthAdjust="spacing" textLength="211.7007" x="62.293" y="235.6748">new FakeCosmosHandler(container)</text></g><rect fill="#E2E2F0" height="31.6094" rx="2.5" ry="2.5" style="stroke:#181818;stroke-width:0.5;" width="145.4961" x="836.2593" y="218.1797"/><text fill="#000000" font-family="sans-serif" font-size="14" lengthAdjust="spacing" textLength="131.4961" x="843.2593" y="239.7129">FakeCosmosHandler</text><g class="message" data-participant-1="Test" data-participant-2="SDK"><polygon fill="#181818" points="301.4961,279.1406,311.4961,283.1406,301.4961,287.1406,305.4961,283.1406" style="stroke:#181818;stroke-width:1;"/><line style="stroke:#181818;stroke-width:2;" x1="55.293" x2="307.4961" y1="283.1406" y2="283.1406"/><text fill="#000000" font-family="sans-serif" font-size="13" lengthAdjust="spacing" textLength="234.2031" x="62.293" y="278.2842">new CosmosClient(&#8230;, HttpClientFactory)</text></g><rect fill="#E2E2F0" height="49.2188" rx="2.5" ry="2.5" style="stroke:#181818;stroke-width:0.5;" width="101.1377" x="313.4961" y="260.7891"/><text fill="#000000" font-family="sans-serif" font-size="14" lengthAdjust="spacing" textLength="87.1377" x="320.4961" y="282.3223">CosmosClient</text><text fill="#000000" font-family="sans-serif" font-size="14" lengthAdjust="spacing" textLength="65.3447" x="331.3926" y="299.9316">(real SDK)</text><rect fill="#EEEEEE" height="3" style="stroke:#EEEEEE;stroke-width:1;" width="1729.5894" x="0" y="342.1836"/><line style="stroke:#000000;stroke-width:1;" x1="0" x2="1729.5894" y1="342.1836" y2="342.1836"/><line style="stroke:#000000;stroke-width:1;" x1="0" x2="1729.5894" y1="345.1836" y2="345.1836"/><rect fill="#EEEEEE" height="24.3516" style="stroke:#000000;stroke-width:2;" width="103.5654" x="813.012" y="331.0078"/><text fill="#000000" font-family="sans-serif" font-size="13" font-weight="bold" lengthAdjust="spacing" textLength="85.9536" x="819.012" y="348.5029">Get Container</text><g class="message" data-participant-1="Test" data-participant-2="SDK"><polygon fill="#181818" points="347.0649,383.7109,357.0649,387.7109,347.0649,391.7109,351.0649,387.7109" style="stroke:#181818;stroke-width:1;"/><line style="stroke:#181818;stroke-width:2;" x1="55.293" x2="353.0649" y1="387.7109" y2="387.7109"/><text fill="#000000" font-family="sans-serif" font-size="13" lengthAdjust="spacing" textLength="255.8169" x="62.293" y="382.8545">client.GetContainer(databaseId, containerId)</text></g><g class="message" data-participant-1="SDK" data-participant-2="Test"><polygon fill="#181818" points="66.293,414.0625,56.293,418.0625,66.293,422.0625,62.293,418.0625" style="stroke:#181818;stroke-width:1;"/><line style="stroke:#181818;stroke-width:2;stroke-dasharray:2,2;" x1="60.293" x2="363.0649" y1="418.0625" y2="418.0625"/><text fill="#000000" font-family="sans-serif" font-size="13" lengthAdjust="spacing" textLength="156.0571" x="72.293" y="413.2061">Container (real SDK proxy)</text></g><rect fill="#EEEEEE" height="3" style="stroke:#EEEEEE;stroke-width:1;" width="1729.5894" x="0" y="447.2383"/><line style="stroke:#000000;stroke-width:1;" x1="0" x2="1729.5894" y1="447.2383" y2="447.2383"/><line style="stroke:#000000;stroke-width:1;" x1="0" x2="1729.5894" y1="450.2383" y2="450.2383"/><rect fill="#EEEEEE" height="24.3516" style="stroke:#000000;stroke-width:2;" width="86.249" x="821.6702" y="436.0625"/><text fill="#000000" font-family="sans-serif" font-size="13" font-weight="bold" lengthAdjust="spacing" textLength="68.6372" x="827.6702" y="453.5576">Query Plan</text><g class="message" data-participant-1="Test" data-participant-2="SDKContainer"><polygon fill="#181818" points="447.3062,488.7656,457.3062,492.7656,447.3062,496.7656,451.3062,492.7656" style="stroke:#181818;stroke-width:1;"/><line style="stroke:#181818;stroke-width:2;" x1="55.293" x2="453.3062" y1="492.7656" y2="492.7656"/><text fill="#000000" font-family="sans-serif" font-size="13" lengthAdjust="spacing" textLength="212.4053" x="62.293" y="487.9092">GetItemQueryIterator&lt;T&gt;(queryText)</text></g><g class="message" data-participant-1="SDK" data-participant-2="Http"><polygon fill="#181818" points="642.1304,519.1172,652.1304,523.1172,642.1304,527.1172,646.1304,523.1172" style="stroke:#181818;stroke-width:1;"/><line style="stroke:#181818;stroke-width:2;" x1="364.0649" x2="648.1304" y1="523.1172" y2="523.1172"/><text fill="#000000" font-family="sans-serif" font-size="13" lengthAdjust="spacing" textLength="155.3462" x="371.0649" y="518.2607">POST (query plan request)</text></g><g class="message" data-participant-1="Http" data-participant-2="Handler"><polygon fill="#181818" points="897.0073,549.4688,907.0073,553.4688,897.0073,557.4688,901.0073,553.4688" style="stroke:#181818;stroke-width:1;"/><line style="stroke:#181818;stroke-width:2;" x1="654.1304" x2="903.0073" y1="553.4688" y2="553.4688"/><text fill="#000000" font-family="sans-serif" font-size="13" lengthAdjust="spacing" textLength="230.877" x="661.1304" y="548.6123">SendAsync &#8594; HandleQueryPlanAsync()</text></g><g class="message" data-participant-1="Handler" data-participant-2="Parser"><polygon fill="#181818" points="1187.1289,579.8203,1197.1289,583.8203,1187.1289,587.8203,1191.1289,583.8203" style="stroke:#181818;stroke-width:1;"/><line style="stroke:#181818;stroke-width:2;" x1="909.0073" x2="1193.1289" y1="583.8203" y2="583.8203"/><text fill="#000000" font-family="sans-serif" font-size="13" lengthAdjust="spacing" textLength="153.5308" x="916.0073" y="578.9639">TryParse() &#8594; analyze AST</text></g><g class="message" data-participant-1="Handler" data-participant-2="Http"><polygon fill="#181818" points="665.1304,610.1719,655.1304,614.1719,665.1304,618.1719,661.1304,614.1719" style="stroke:#181818;stroke-width:1;"/><line style="stroke:#181818;stroke-width:2;stroke-dasharray:2,2;" x1="659.1304" x2="908.0073" y1="614.1719" y2="614.1719"/><text fill="#000000" font-family="sans-serif" font-size="13" lengthAdjust="spacing" textLength="176.3252" x="671.1304" y="609.3154">PartitionedQueryExecutionInfo</text></g><g class="message" data-participant-1="Http" data-participant-2="SDKContainer"><polygon fill="#181818" points="480.3062,640.5234,470.3062,644.5234,480.3062,648.5234,476.3062,644.5234" style="stroke:#181818;stroke-width:1;"/><line style="stroke:#181818;stroke-width:2;stroke-dasharray:2,2;" x1="474.3062" x2="653.1304" y1="644.5234" y2="644.5234"/><text fill="#000000" font-family="sans-serif" font-size="13" lengthAdjust="spacing" textLength="160.8242" x="486.3062" y="639.667">plan &#8594; build pipeline stages</text></g><g class="message" data-participant-1="SDKContainer" data-participant-2="Test"><polygon fill="#181818" points="66.293,670.875,56.293,674.875,66.293,678.875,62.293,674.875" style="stroke:#181818;stroke-width:1;"/><line style="stroke:#181818;stroke-width:2;stroke-dasharray:2,2;" x1="60.293" x2="463.3062" y1="674.875" y2="674.875"/><text fill="#000000" font-family="sans-serif" font-size="13" lengthAdjust="spacing" textLength="93.939" x="72.293" y="670.0186">FeedIterator&lt;T&gt;</text></g><rect fill="#EEEEEE" height="3" style="stroke:#EEEEEE;stroke-width:1;" width="1729.5894" x="0" y="704.0508"/><line style="stroke:#000000;stroke-width:1;" x1="0" x2="1729.5894" y1="704.0508" y2="704.0508"/><line style="stroke:#000000;stroke-width:1;" x1="0" x2="1729.5894" y1="707.0508" y2="707.0508"/><rect fill="#EEEEEE" height="24.3516" style="stroke:#000000;stroke-width:2;" width="187.3735" x="771.1079" y="692.875"/><text fill="#000000" font-family="sans-serif" font-size="13" font-weight="bold" lengthAdjust="spacing" textLength="169.7617" x="777.1079" y="710.3701">Query Execution (per page)</text><path d="M10,734.2266 L82.4346,734.2266 L82.4346,742.5781 L72.4346,752.5781 L10,752.5781 L10,734.2266" fill="#EEEEEE" style="stroke:#000000;stroke-width:1.5;"/><rect fill="none" height="378.2188" style="stroke:#000000;stroke-width:1.5;" width="1709.5894" x="10" y="734.2266"/><text fill="#000000" font-family="sans-serif" font-size="13" font-weight="bold" lengthAdjust="spacing" textLength="27.4346" x="25" y="748.7217">loop</text><text fill="#000000" font-family="sans-serif" font-size="11" font-weight="bold" lengthAdjust="spacing" textLength="124.083" x="97.4346" y="747.6455">[while HasMoreResults]</text><g class="message" data-participant-1="Test" data-participant-2="SDKIter"><polygon fill="#181818" points="1618.6689,770.9297,1628.6689,774.9297,1618.6689,778.9297,1622.6689,774.9297" style="stroke:#181818;stroke-width:1;"/><line style="stroke:#181818;stroke-width:2;" x1="55.293" x2="1624.6689" y1="774.9297" y2="774.9297"/><text fill="#000000" font-family="sans-serif" font-size="13" lengthAdjust="spacing" textLength="101.8672" x="62.293" y="770.0732">ReadNextAsync()</text></g><g class="message" data-participant-1="SDKIter" data-participant-2="Http"><polygon fill="#181818" points="665.1304,801.2813,655.1304,805.2813,665.1304,809.2813,661.1304,805.2813" style="stroke:#181818;stroke-width:1;"/><line style="stroke:#181818;stroke-width:2;" x1="659.1304" x2="1629.6689" y1="805.2813" y2="805.2813"/><text fill="#000000" font-family="sans-serif" font-size="13" lengthAdjust="spacing" textLength="127.1563" x="671.1304" y="800.4248">POST (query request)</text></g><g class="message" data-participant-1="Http" data-participant-2="Handler"><polygon fill="#181818" points="892.0073,831.6328,902.0073,835.6328,892.0073,839.6328,896.0073,835.6328" style="stroke:#181818;stroke-width:1;"/><line style="stroke:#181818;stroke-width:2;" x1="654.1304" x2="898.0073" y1="835.6328" y2="835.6328"/><text fill="#000000" font-family="sans-serif" font-size="13" lengthAdjust="spacing" textLength="204.8579" x="661.1304" y="830.7764">SendAsync &#8594; HandleQueryAsync()</text></g><g class="message" data-participant-1="Handler" data-participant-2="Parser"><polygon fill="#181818" points="1187.1289,861.9844,1197.1289,865.9844,1187.1289,869.9844,1191.1289,865.9844" style="stroke:#181818;stroke-width:1;"/><line style="stroke:#181818;stroke-width:2;" x1="914.0073" x2="1193.1289" y1="865.9844" y2="865.9844"/><text fill="#000000" font-family="sans-serif" font-size="13" lengthAdjust="spacing" textLength="188.1699" x="921.0073" y="861.1279">TryParse() + SimplifySdkQuery()</text></g><g class="message" data-participant-1="Handler" data-participant-2="IMC"><polygon fill="#181818" points="1329.0044,892.3359,1339.0044,896.3359,1329.0044,900.3359,1333.0044,896.3359" style="stroke:#181818;stroke-width:1;"/><line style="stroke:#181818;stroke-width:2;" x1="914.0073" x2="1335.0044" y1="896.3359" y2="896.3359"/><text fill="#000000" font-family="sans-serif" font-size="13" lengthAdjust="spacing" textLength="261.1616" x="921.0073" y="891.4795">GetItemQueryIterator &#8594; FilterItemsByQuery()</text></g><g class="message" data-participant-1="Handler" data-participant-2="Handler"><line style="stroke:#181818;stroke-width:2;" x1="914.0073" x2="956.0073" y1="926.6875" y2="926.6875"/><line style="stroke:#181818;stroke-width:2;" x1="956.0073" x2="956.0073" y1="926.6875" y2="939.6875"/><line style="stroke:#181818;stroke-width:2;" x1="915.0073" x2="956.0073" y1="939.6875" y2="939.6875"/><polygon fill="#181818" points="925.0073,935.6875,915.0073,939.6875,925.0073,943.6875,921.0073,939.6875" style="stroke:#181818;stroke-width:1;"/><text fill="#000000" font-family="sans-serif" font-size="13" lengthAdjust="spacing" textLength="256.1216" x="921.0073" y="921.8311">DrainIterator() &#8594; FilterDocumentsByRange()</text></g><g class="message" data-participant-1="Handler" data-participant-2="Cache"><polygon fill="#181818" points="1473.6108,966.0391,1483.6108,970.0391,1473.6108,974.0391,1477.6108,970.0391" style="stroke:#181818;stroke-width:1;"/><line style="stroke:#181818;stroke-width:2;" x1="914.0073" x2="1479.6108" y1="970.0391" y2="970.0391"/><text fill="#000000" font-family="sans-serif" font-size="13" lengthAdjust="spacing" textLength="76.5908" x="921.0073" y="965.1826">cache results</text></g><g class="message" data-participant-1="Handler" data-participant-2="Handler"><line style="stroke:#181818;stroke-width:2;" x1="914.0073" x2="956.0073" y1="1000.3906" y2="1000.3906"/><line style="stroke:#181818;stroke-width:2;" x1="956.0073" x2="956.0073" y1="1000.3906" y2="1013.3906"/><line style="stroke:#181818;stroke-width:2;" x1="915.0073" x2="956.0073" y1="1013.3906" y2="1013.3906"/><polygon fill="#181818" points="925.0073,1009.3906,915.0073,1013.3906,925.0073,1017.3906,921.0073,1013.3906" style="stroke:#181818;stroke-width:1;"/><text fill="#000000" font-family="sans-serif" font-size="13" lengthAdjust="spacing" textLength="133.6943" x="921.0073" y="995.5342">BuildPagedResponse()</text></g><g class="message" data-participant-1="Handler" data-participant-2="Http"><polygon fill="#181818" points="665.1304,1039.7422,655.1304,1043.7422,665.1304,1047.7422,661.1304,1043.7422" style="stroke:#181818;stroke-width:1;"/><line style="stroke:#181818;stroke-width:2;stroke-dasharray:2,2;" x1="659.1304" x2="908.0073" y1="1043.7422" y2="1043.7422"/><text fill="#000000" font-family="sans-serif" font-size="13" lengthAdjust="spacing" textLength="154.2925" x="671.1304" y="1038.8857">200 OK + paginated JSON</text></g><g class="message" data-participant-1="Http" data-participant-2="SDKIter"><polygon fill="#181818" points="1618.6689,1070.0938,1628.6689,1074.0938,1618.6689,1078.0938,1622.6689,1074.0938" style="stroke:#181818;stroke-width:1;"/><line style="stroke:#181818;stroke-width:2;stroke-dasharray:2,2;" x1="654.1304" x2="1624.6689" y1="1074.0938" y2="1074.0938"/><text fill="#000000" font-family="sans-serif" font-size="13" lengthAdjust="spacing" textLength="194.0352" x="661.1304" y="1069.2373">response &#8594; SDK pipeline merges</text></g><g class="message" data-participant-1="SDKIter" data-participant-2="Test"><polygon fill="#181818" points="66.293,1100.4453,56.293,1104.4453,66.293,1108.4453,62.293,1104.4453" style="stroke:#181818;stroke-width:1;"/><line style="stroke:#181818;stroke-width:2;stroke-dasharray:2,2;" x1="60.293" x2="1634.6689" y1="1104.4453" y2="1104.4453"/><text fill="#000000" font-family="sans-serif" font-size="13" lengthAdjust="spacing" textLength="111.2935" x="72.293" y="1099.5889">FeedResponse&lt;T&gt;</text></g><!--SRC=[XLNBSjem5DtxA-wa6mD99vFkc98PGa93smGIi-n6s3U91bbo9Bc4hhBg1tJw3VsmV4clv0UseTDXWMITS-xnFLTWkHK8_VuuoxHYyHDy6C94cLIPYU0eBGnWojPOFBfcCX6euUtrDqHtN-4kHxs5gL0R2CUhbSRld5bCUlr-49WrbndJB8KLYzUFMkKocIYXDBoRNhbF0s7mEKSPurXhjLa-yNWjqHWu2m8MMs8SBT5OifNW4J03RXSGq_AOPumy7ZKTVvEXHYOWklpIyt1QTD7ICYvH7uBMXstEjRLPeU-1Rji6x7Mfm1NhGswZPx5WsfJ0Ojd6pUGDfaflQqiUERkPj64-XNiqkR0JIh3eaL-rSVHoC4LCPXOrexP-N9vNB-qU1S5e117QF8FHAF0TFpbtrMWwO0WIDx1dA7nx_TEhiTLurFYzdeHnnTondAsQqGpIYH_3hl5JFmpRdZVw2Tr0b69DmqvkC22vs9FU4t1dDs6MhPZ1MN8CjPLPqWiSwuJOXSe931lYzOm0NP6Nidun-Wl1PAVuZkTTK7bgRkhXZSQ7p-x14bziMVlSloWH5lDe2SKnP4vUkyjX2ES1ZJOFAIsPZCrMnl3syrVvt5Tolln1IBGIJinYo8Yu98XRXptFP9A9xG-4SRJSmHkMt1HPhYGcNltg1UFSxMVoGPMskYy_BCmxzLNEHG8Ppr3G4HZB7j44BNIxzPqXRVIxhWnXHhICb7gk_qAf33PFd7xAhfcvKHgB-s02W4OsJhI8vHvPSalThve4zV7X9EeG0BenUBr_9h4hy9yS1X3nD1FyOHibQq_jijnLF3nGlkYK2zgwCtEnFIYm6vnBJNslsEKG5FnB5USftHlIk6Vo4RiQ_dV5tIx_hUik7onpuP9VK4W9nP4fQJfoLQzzwcUdfp2dk-jIvTBzZy3dQ7vRTxmHuT0LzdhUkR-QrNYbgDruDGBTcwtAZ9ijoYtu2m00]--></g></svg>